M48
;Layer_Color=9474304
;FILE_FORMAT=2:4
METRIC,LZ
;TYPE=PLATED
T1F00S00C0.7000
T2F00S00C0.7112
T3F00S00C0.7400
T4F00S00C1.0200
T5F00S00C1.2000
T6F00S00C1.2700
T7F00S00C1.3000
T8F00S00C1.3200
T9F00S00C1.8000
T10F00S00C1.9000
T11F00S00C5.5000
%
T01
X316484Y277622
X324104
T02
X114808Y263652
X141478Y26416
X221488Y264668
X248158Y265176
X255778Y31242
X26162Y313436
X2326484Y3095686
X205994Y309626
X18796Y309372
X180086Y309626
X153924Y311912
X144272Y312166
X134112Y309118
X122174Y314071
X116332Y314706
X113792
X142367Y321056
X1413972Y3226608
X1422862Y3258358
X159258Y325374
X164846Y323596
X166116Y321056
X168148Y322326
X171704Y321056
T03
X136652Y331216
X137922
X139192
X140462
X141732
X143002
X144272
X145542
X146812
X148082
X149352
X150622
X151892
X153162
X154432
X155702
X156972
X158242
Y332486
X156972
X155702
X154432
X153162
X151892
X150622
X149352
X148082
X146812
X145542
X144272
X143002
X141732
X140462
X139192
X137922
X136652
X159512
X160782
X162052
X163322
X164592
X165862
X167132
Y331216
X165862
X164592
X163322
X162052
X160782
X159512
X204724
X205994
X207264
X208534
X209804
X211074
X212344
X213614
X214884
X216154
X217424
X218694
X219964
X221234
X222504
X223774
X225044
X226314
X227584
X228854
X230124
X231394
X232664
X233934
X235204
Y332486
X233934
X232664
X231394
X230124
X228854
X227584
X226314
X225044
X223774
X222504
X221234
X219964
X218694
X217424
X216154
X214884
X213614
X212344
X211074
X209804
X208534
X207264
X205994
X204724
T04
X279654Y292735
Y295275
X282194
Y292735
X284734
Y295275
X287274
Y292735
X289814
Y295275
X292354
Y292735
X294894
Y295275
X297434
Y292735
X277114
X274574
Y295275
X277114
X55118
X52578
X50038
X47498
X44958
X42418
X39878
Y292735
X42418
X44958
X47498
X50038
X52578
X55118
X37338
X34798
X32258
Y295275
X34798
X37338
Y335915
X34798
X32258
Y338455
X34798
X37338
X39878
Y335915
X42418
Y338455
X44958
Y335915
X47498
Y338455
X50038
Y335915
X52578
Y338455
X55118
Y335915
X274574
Y338455
X277114
Y335915
X279654
Y338455
X282194
Y335915
X284734
Y338455
X287274
Y335915
X289814
Y338455
X292354
Y335915
X294894
Y338455
X297434
Y335915
T05
X248158Y27813
X263398
Y29845
X255778
X248158
X236728
X229108
X221488
X210058
X202438
X210058Y27813
X221488
X236728
X194818
X183388
X168148
Y29845
X175768
X183388
X194818
X156718
X149098
X141478
X130048
X122428
X130048Y27813
X141478
X156718
X114808
Y29845
T06
X250986Y226314
X223486
X153704
X126204
X14373Y24257
X157192Y258826
X184692
X190466
X17123Y24257
X208754Y242316
X217966Y258826
X236254Y242316
T07
X149766Y172466
X154766
X159766
X217076Y17272
X222076
X227076
X335948Y233426
X340948
X345948
X40988Y232918
X35988
X30988
T08
X280924Y28067
X288036
X293624
X299466
X305054
X253746Y30988
X2286Y309372
X20193Y309118
X176784Y307848
X151892Y308102
X124714Y307848
X60706Y28194
X53086
X4572
X38354
X31242
X19558Y33655
Y341376
X244094Y341122
Y336296
T09
X30879Y1873114
X51979
X89299Y1950194
Y1745194
X287274Y17517
Y19567
X324848Y187708
X345948
Y203708
Y219708
X324848
Y203708
X287274Y20692
Y22742
X250984Y199136
X234664
X229648
X213328
X208312
X191992
X18469Y198882
X16837
X1631
X14678
X141764
X125444
X89299Y2064334
Y2269334
Y2380194
X51979Y2193114
Y2033114
X30879
Y2193114
X89299Y2585194
X287274Y25908
Y23858
T10
X125476Y328422
X254Y331216
T11
X29718Y174498
X12827
X249428Y175514
X3480505Y1760156
X29464Y27178
X126492Y268732
X25781Y26797
X342392Y27686
X30988Y327406
X34544Y338074
M30
