G04*
G04 #@! TF.GenerationSoftware,Altium Limited,Altium Designer,22.11.1 (43)*
G04*
G04 Layer_Color=8421504*
%FSLAX44Y44*%
%MOMM*%
G71*
G04*
G04 #@! TF.SameCoordinates,B38BEB0A-FF2B-4473-85C9-27130B265984*
G04*
G04*
G04 #@! TF.FilePolarity,Positive*
G04*
G01*
G75*
%ADD18O,2.2000X0.6000*%
%ADD19R,1.0200X1.4700*%
%ADD20R,1.4700X1.0200*%
%ADD21R,2.5000X1.5000*%
%ADD22R,2.0000X4.0000*%
%ADD23R,4.0000X2.0000*%
D18*
X2787780Y3119120D02*
D03*
Y3106420D02*
D03*
Y3093720D02*
D03*
Y3081020D02*
D03*
Y3068320D02*
D03*
Y3055620D02*
D03*
Y3042920D02*
D03*
X2835780Y3119120D02*
D03*
Y3106420D02*
D03*
Y3093720D02*
D03*
Y3081020D02*
D03*
Y3068320D02*
D03*
Y3055620D02*
D03*
Y3042920D02*
D03*
X663600Y3090890D02*
D03*
Y3103590D02*
D03*
Y3116290D02*
D03*
Y3128990D02*
D03*
Y3141690D02*
D03*
Y3154390D02*
D03*
Y3167090D02*
D03*
X615600Y3090890D02*
D03*
Y3103590D02*
D03*
Y3116290D02*
D03*
Y3128990D02*
D03*
Y3141690D02*
D03*
Y3154390D02*
D03*
Y3167090D02*
D03*
X3074540Y3065780D02*
D03*
Y3078480D02*
D03*
Y3091180D02*
D03*
Y3103880D02*
D03*
Y3116580D02*
D03*
Y3129280D02*
D03*
Y3141980D02*
D03*
X3026540Y3065780D02*
D03*
Y3078480D02*
D03*
Y3091180D02*
D03*
Y3103880D02*
D03*
Y3116580D02*
D03*
Y3129280D02*
D03*
Y3141980D02*
D03*
X357660Y3159470D02*
D03*
Y3146770D02*
D03*
Y3134070D02*
D03*
Y3121370D02*
D03*
Y3108670D02*
D03*
Y3095970D02*
D03*
Y3083270D02*
D03*
X405660Y3159470D02*
D03*
Y3146770D02*
D03*
Y3134070D02*
D03*
Y3121370D02*
D03*
Y3108670D02*
D03*
Y3095970D02*
D03*
Y3083270D02*
D03*
D19*
X644500Y3187700D02*
D03*
X625500D02*
D03*
X677520Y3055620D02*
D03*
X658520D02*
D03*
X592480D02*
D03*
X611480D02*
D03*
X687020Y3187700D02*
D03*
X668020D02*
D03*
X3037180Y3167380D02*
D03*
X3018180D02*
D03*
X3080360Y3032760D02*
D03*
X3061360D02*
D03*
X3092400Y3167380D02*
D03*
X3073400D02*
D03*
X3019400Y3032760D02*
D03*
X3000400D02*
D03*
X490220Y3106130D02*
D03*
X471220D02*
D03*
X470560Y3078480D02*
D03*
X489560D02*
D03*
D20*
X708660Y3091180D02*
D03*
Y3072180D02*
D03*
X563880Y3090520D02*
D03*
Y3071520D02*
D03*
X2969260Y3065780D02*
D03*
Y3084780D02*
D03*
X3116580Y3052420D02*
D03*
Y3033420D02*
D03*
X2809240Y3014320D02*
D03*
Y2995320D02*
D03*
X2880360Y3070860D02*
D03*
Y3051860D02*
D03*
Y3102000D02*
D03*
Y3121000D02*
D03*
X2849880Y2995320D02*
D03*
Y3014320D02*
D03*
X358140Y3049880D02*
D03*
Y3030880D02*
D03*
X473100Y3152510D02*
D03*
Y3171510D02*
D03*
X2882900Y3014320D02*
D03*
Y2995320D02*
D03*
D21*
X2098040Y3095480D02*
D03*
Y3061480D02*
D03*
X2367280Y3095480D02*
D03*
Y3061480D02*
D03*
X2633980Y3095480D02*
D03*
Y3061480D02*
D03*
X1300480Y3090400D02*
D03*
Y3056400D02*
D03*
X1567180Y3095480D02*
D03*
Y3061480D02*
D03*
X1833880Y3095480D02*
D03*
Y3061480D02*
D03*
D22*
X2009140Y2700020D02*
D03*
X1949140D02*
D03*
X1621000Y2697480D02*
D03*
X1681000D02*
D03*
D23*
X2232660Y2654780D02*
D03*
Y2714780D02*
D03*
X2481580Y2652240D02*
D03*
Y2712240D02*
D03*
X1148080Y2657320D02*
D03*
Y2717320D02*
D03*
X1414780Y2657320D02*
D03*
Y2717320D02*
D03*
M02*
