G04*
G04 #@! TF.GenerationSoftware,Altium Limited,Altium Designer,22.11.1 (43)*
G04*
G04 Layer_Color=65535*
%FSLAX44Y44*%
%MOMM*%
G71*
G04*
G04 #@! TF.SameCoordinates,B38BEB0A-FF2B-4473-85C9-27130B265984*
G04*
G04*
G04 #@! TF.FilePolarity,Positive*
G04*
G01*
G75*
%ADD10C,0.6000*%
%ADD11C,0.2500*%
%ADD12C,0.2540*%
%ADD13C,0.2000*%
%ADD14C,0.1270*%
%ADD15C,0.1778*%
%ADD16C,0.1000*%
%ADD17R,1.1000X0.5000*%
G36*
X1928757Y2454686D02*
X1930251D01*
Y2454387D01*
X1931446D01*
Y2454088D01*
X1932342D01*
Y2453789D01*
X1932940D01*
Y2453491D01*
X1933538D01*
Y2453192D01*
X1934135D01*
Y2452893D01*
X1934434D01*
Y2452295D01*
X1934135D01*
Y2451698D01*
X1933837D01*
Y2451100D01*
X1933538D01*
Y2450502D01*
X1933239D01*
Y2449905D01*
X1932940D01*
Y2449606D01*
X1932043D01*
Y2449905D01*
X1931446D01*
Y2450204D01*
X1930549D01*
Y2450502D01*
X1929354D01*
Y2450801D01*
X1925171D01*
Y2450502D01*
X1923975D01*
Y2450204D01*
X1923378D01*
Y2449905D01*
X1922780D01*
Y2449606D01*
X1922182D01*
Y2449307D01*
X1921585D01*
Y2449008D01*
X1921286D01*
Y2448709D01*
X1920987D01*
Y2448411D01*
X1920688D01*
Y2448112D01*
X1920389D01*
Y2447813D01*
X1920091D01*
Y2447215D01*
X1919792D01*
Y2446917D01*
X1919493D01*
Y2446319D01*
X1919194D01*
Y2445721D01*
X1918895D01*
Y2445123D01*
X1918596D01*
Y2444227D01*
X1918298D01*
Y2443032D01*
X1917999D01*
Y2438848D01*
X1918298D01*
Y2437653D01*
X1918596D01*
Y2436458D01*
X1918895D01*
Y2435860D01*
X1919194D01*
Y2435262D01*
X1919493D01*
Y2434665D01*
X1919792D01*
Y2434366D01*
X1920091D01*
Y2434067D01*
X1920389D01*
Y2433768D01*
X1920688D01*
Y2433469D01*
X1920987D01*
Y2433171D01*
X1921286D01*
Y2432872D01*
X1921585D01*
Y2432573D01*
X1921884D01*
Y2432274D01*
X1922481D01*
Y2431975D01*
X1923079D01*
Y2431676D01*
X1923378D01*
Y2431378D01*
X1924274D01*
Y2431079D01*
X1925469D01*
Y2430780D01*
X1929653D01*
Y2431079D01*
X1930848D01*
Y2431378D01*
X1931745D01*
Y2431676D01*
X1932342D01*
Y2431975D01*
X1932940D01*
Y2431378D01*
X1933239D01*
Y2430780D01*
X1933538D01*
Y2429884D01*
X1933837D01*
Y2429286D01*
X1934135D01*
Y2428389D01*
X1933538D01*
Y2428091D01*
X1932940D01*
Y2427792D01*
X1932342D01*
Y2427493D01*
X1931446D01*
Y2427194D01*
X1930251D01*
Y2426895D01*
X1928458D01*
Y2426597D01*
X1925469D01*
Y2426895D01*
X1923378D01*
Y2427194D01*
X1922182D01*
Y2427493D01*
X1921286D01*
Y2427792D01*
X1920688D01*
Y2428091D01*
X1919792D01*
Y2428389D01*
X1919194D01*
Y2428688D01*
X1918895D01*
Y2428987D01*
X1918298D01*
Y2429286D01*
X1917999D01*
Y2429585D01*
X1917700D01*
Y2429884D01*
X1917102D01*
Y2430182D01*
X1916803D01*
Y2430481D01*
X1916505D01*
Y2430780D01*
X1916206D01*
Y2431079D01*
X1915907D01*
Y2431378D01*
X1915608D01*
Y2431676D01*
X1915309D01*
Y2431975D01*
X1915011D01*
Y2432274D01*
X1914712D01*
Y2432872D01*
X1914413D01*
Y2433171D01*
X1914114D01*
Y2433768D01*
X1913815D01*
Y2434366D01*
X1913517D01*
Y2434964D01*
X1913218D01*
Y2435561D01*
X1912919D01*
Y2436458D01*
X1912620D01*
Y2437653D01*
X1912321D01*
Y2440043D01*
X1912022D01*
Y2441837D01*
X1912321D01*
Y2443928D01*
X1912620D01*
Y2445123D01*
X1912919D01*
Y2446020D01*
X1913218D01*
Y2446618D01*
X1913517D01*
Y2447215D01*
X1913815D01*
Y2447813D01*
X1914114D01*
Y2448411D01*
X1914413D01*
Y2448709D01*
X1914712D01*
Y2449307D01*
X1915011D01*
Y2449606D01*
X1915309D01*
Y2449905D01*
X1915608D01*
Y2450204D01*
X1915907D01*
Y2450502D01*
X1916206D01*
Y2450801D01*
X1916505D01*
Y2451100D01*
X1916803D01*
Y2451399D01*
X1917102D01*
Y2451698D01*
X1917700D01*
Y2451996D01*
X1917999D01*
Y2452295D01*
X1918298D01*
Y2452594D01*
X1918895D01*
Y2452893D01*
X1919194D01*
Y2453192D01*
X1919792D01*
Y2453491D01*
X1920688D01*
Y2453789D01*
X1921286D01*
Y2454088D01*
X1922182D01*
Y2454387D01*
X1923378D01*
Y2454686D01*
X1925171D01*
Y2454985D01*
X1928757D01*
Y2454686D01*
D02*
G37*
G36*
X1871084Y2455284D02*
X1871681D01*
Y2454985D01*
X1871980D01*
Y2454686D01*
X1872578D01*
Y2454088D01*
X1872876D01*
Y2453789D01*
X1873175D01*
Y2452893D01*
X1873474D01*
Y2452295D01*
X1873175D01*
Y2451100D01*
X1872876D01*
Y2450502D01*
X1872578D01*
Y2450204D01*
X1872279D01*
Y2449905D01*
X1871980D01*
Y2449606D01*
X1871382D01*
Y2449307D01*
X1868992D01*
Y2449606D01*
X1868693D01*
Y2449905D01*
X1868095D01*
Y2450502D01*
X1867796D01*
Y2450801D01*
X1867498D01*
Y2451399D01*
X1867199D01*
Y2453491D01*
X1867498D01*
Y2454088D01*
X1867796D01*
Y2454387D01*
X1868095D01*
Y2454686D01*
X1868394D01*
Y2454985D01*
X1868693D01*
Y2455284D01*
X1869291D01*
Y2455582D01*
X1871084D01*
Y2455284D01*
D02*
G37*
G36*
X1804446Y2446917D02*
X1805641D01*
Y2446618D01*
X1806239D01*
Y2446319D01*
X1806538D01*
Y2446020D01*
X1807135D01*
Y2445721D01*
X1807434D01*
Y2445422D01*
X1807733D01*
Y2445123D01*
X1808032D01*
Y2444526D01*
X1808331D01*
Y2443928D01*
X1808629D01*
Y2443331D01*
X1808928D01*
Y2442434D01*
X1809227D01*
Y2440342D01*
X1809526D01*
Y2427493D01*
X1809227D01*
Y2427194D01*
X1804147D01*
Y2440940D01*
X1803848D01*
Y2441837D01*
X1803549D01*
Y2442434D01*
X1803251D01*
Y2442733D01*
X1802952D01*
Y2443032D01*
X1802653D01*
Y2443331D01*
X1801756D01*
Y2443629D01*
X1799964D01*
Y2443331D01*
X1799067D01*
Y2443032D01*
X1798768D01*
Y2442733D01*
X1798469D01*
Y2442434D01*
X1798171D01*
Y2442135D01*
X1797872D01*
Y2441538D01*
X1797573D01*
Y2440641D01*
X1797274D01*
Y2427194D01*
X1791895D01*
Y2440940D01*
X1791597D01*
Y2441837D01*
X1791298D01*
Y2442434D01*
X1790999D01*
Y2442733D01*
X1790700D01*
Y2443032D01*
X1790401D01*
Y2443331D01*
X1789505D01*
Y2443629D01*
X1787712D01*
Y2443331D01*
X1787114D01*
Y2443032D01*
X1786517D01*
Y2442733D01*
X1786218D01*
Y2442434D01*
X1785919D01*
Y2442135D01*
X1785620D01*
Y2441538D01*
X1785321D01*
Y2440342D01*
X1785022D01*
Y2427194D01*
X1779942D01*
Y2431079D01*
Y2431378D01*
Y2446917D01*
X1784724D01*
Y2446618D01*
X1785022D01*
Y2444825D01*
X1785321D01*
Y2445123D01*
X1785620D01*
Y2445422D01*
X1785919D01*
Y2445721D01*
X1786517D01*
Y2446020D01*
X1786815D01*
Y2446319D01*
X1787413D01*
Y2446618D01*
X1788309D01*
Y2446917D01*
X1789505D01*
Y2447215D01*
X1792194D01*
Y2446917D01*
X1793091D01*
Y2446618D01*
X1793987D01*
Y2446319D01*
X1794585D01*
Y2446020D01*
X1794884D01*
Y2445721D01*
X1795481D01*
Y2445422D01*
X1795780D01*
Y2445123D01*
X1796079D01*
Y2444825D01*
X1796378D01*
Y2444526D01*
X1796676D01*
Y2444825D01*
X1796975D01*
Y2445123D01*
X1797274D01*
Y2445422D01*
X1797573D01*
Y2445721D01*
X1798171D01*
Y2446020D01*
X1798768D01*
Y2446319D01*
X1799366D01*
Y2446618D01*
X1800262D01*
Y2446917D01*
X1801458D01*
Y2447215D01*
X1804446D01*
Y2446917D01*
D02*
G37*
G36*
X1824766D02*
X1825662D01*
Y2446618D01*
X1826559D01*
Y2446319D01*
X1827157D01*
Y2446020D01*
X1827455D01*
Y2445721D01*
X1828053D01*
Y2445422D01*
X1828352D01*
Y2445123D01*
X1828651D01*
Y2444825D01*
X1828949D01*
Y2444526D01*
X1829248D01*
Y2444227D01*
X1829547D01*
Y2443928D01*
X1829846D01*
Y2443331D01*
X1830145D01*
Y2443032D01*
Y2442733D01*
X1830444D01*
Y2442135D01*
X1830742D01*
Y2441239D01*
X1831041D01*
Y2440342D01*
X1831340D01*
Y2439147D01*
X1831639D01*
Y2435860D01*
X1831340D01*
Y2434366D01*
X1831041D01*
Y2433171D01*
X1830742D01*
Y2432573D01*
X1830444D01*
Y2431975D01*
X1830145D01*
Y2431378D01*
X1829846D01*
Y2430780D01*
X1829547D01*
Y2430481D01*
X1829248D01*
Y2429884D01*
X1828949D01*
Y2429585D01*
X1828651D01*
Y2429286D01*
X1828352D01*
Y2428987D01*
X1828053D01*
Y2428688D01*
X1827754D01*
Y2428389D01*
X1827157D01*
Y2428091D01*
X1826858D01*
Y2427792D01*
X1826559D01*
Y2427493D01*
X1825662D01*
Y2427194D01*
X1825065D01*
Y2426895D01*
X1823869D01*
Y2426597D01*
X1822077D01*
Y2426895D01*
X1820582D01*
Y2427194D01*
X1819686D01*
Y2427493D01*
X1819387D01*
Y2427792D01*
X1818789D01*
Y2428091D01*
X1818491D01*
Y2428389D01*
X1817893D01*
Y2428688D01*
X1817594D01*
Y2428987D01*
X1817295D01*
Y2429286D01*
X1816996D01*
Y2417333D01*
X1811917D01*
Y2446618D01*
X1812215D01*
Y2446917D01*
X1816996D01*
Y2444227D01*
X1817295D01*
Y2444526D01*
X1817594D01*
Y2444825D01*
X1817893D01*
Y2445123D01*
X1818192D01*
Y2445422D01*
X1818491D01*
Y2445721D01*
X1819088D01*
Y2446020D01*
X1819387D01*
Y2446319D01*
X1819985D01*
Y2446618D01*
X1820881D01*
Y2446917D01*
X1822077D01*
Y2447215D01*
X1824766D01*
Y2446917D01*
D02*
G37*
G36*
X1863613D02*
X1864509D01*
Y2446618D01*
X1864808D01*
Y2446319D01*
X1865406D01*
Y2446020D01*
X1865705D01*
Y2445721D01*
X1866004D01*
Y2445422D01*
X1866302D01*
Y2445123D01*
X1866004D01*
Y2444526D01*
X1865705D01*
Y2443928D01*
X1865406D01*
Y2443629D01*
X1865107D01*
Y2443032D01*
X1864808D01*
Y2442434D01*
X1864509D01*
Y2441837D01*
X1863912D01*
Y2442135D01*
X1862717D01*
Y2442434D01*
X1861222D01*
Y2442135D01*
X1860625D01*
Y2441837D01*
X1860027D01*
Y2441538D01*
X1859728D01*
Y2440940D01*
X1859429D01*
Y2440641D01*
X1859131D01*
Y2439745D01*
X1858832D01*
Y2438549D01*
X1858533D01*
Y2428091D01*
Y2427792D01*
Y2427194D01*
X1853453D01*
Y2446917D01*
X1858533D01*
Y2443629D01*
X1858832D01*
Y2444227D01*
X1859131D01*
Y2444526D01*
X1859429D01*
Y2444825D01*
X1859728D01*
Y2445422D01*
X1860027D01*
Y2445721D01*
X1860326D01*
Y2446020D01*
X1860625D01*
Y2446319D01*
X1860923D01*
Y2446618D01*
X1861521D01*
Y2446917D01*
X1862119D01*
Y2447215D01*
X1863613D01*
Y2446917D01*
D02*
G37*
G36*
X1969695Y2430481D02*
Y2430182D01*
Y2427194D01*
X1964615D01*
Y2455881D01*
X1969695D01*
Y2430481D01*
D02*
G37*
G36*
X1961328Y2455582D02*
X1961627D01*
Y2427493D01*
X1961328D01*
Y2427194D01*
X1956248D01*
Y2447813D01*
Y2448112D01*
Y2455881D01*
X1961328D01*
Y2455582D01*
D02*
G37*
G36*
X1899771Y2427194D02*
X1894392D01*
Y2451698D01*
Y2451996D01*
Y2455881D01*
X1899771D01*
Y2427194D01*
D02*
G37*
G36*
X1886025Y2446917D02*
X1887220D01*
Y2446618D01*
X1887818D01*
Y2446319D01*
X1888415D01*
Y2446020D01*
X1889013D01*
Y2445721D01*
X1889312D01*
Y2445422D01*
X1889611D01*
Y2445123D01*
X1889909D01*
Y2444825D01*
X1890208D01*
Y2444227D01*
X1890507D01*
Y2443928D01*
X1890806D01*
Y2443032D01*
X1891105D01*
Y2442135D01*
X1891404D01*
Y2431378D01*
X1891702D01*
Y2428688D01*
X1892001D01*
Y2427493D01*
X1892300D01*
Y2427194D01*
X1886622D01*
Y2428389D01*
X1886324D01*
Y2429884D01*
X1886025D01*
Y2429585D01*
X1885726D01*
Y2429286D01*
X1885427D01*
Y2428987D01*
X1884829D01*
Y2428688D01*
X1884531D01*
Y2428389D01*
X1884232D01*
Y2428091D01*
X1883634D01*
Y2427792D01*
X1883335D01*
Y2427493D01*
X1882738D01*
Y2427194D01*
X1881841D01*
Y2426895D01*
X1880646D01*
Y2426597D01*
X1880347D01*
Y2426895D01*
X1878554D01*
Y2427194D01*
X1877957D01*
Y2427493D01*
X1877359D01*
Y2427792D01*
X1877060D01*
Y2428091D01*
X1876761D01*
Y2428389D01*
X1876462D01*
Y2428688D01*
X1876163D01*
Y2428987D01*
X1875865D01*
Y2429585D01*
X1875566D01*
Y2430182D01*
X1875267D01*
Y2431378D01*
X1874968D01*
Y2434067D01*
X1875267D01*
Y2434964D01*
X1875566D01*
Y2435561D01*
X1875865D01*
Y2436159D01*
X1876163D01*
Y2436458D01*
X1876462D01*
Y2437055D01*
X1876761D01*
Y2437354D01*
X1877359D01*
Y2437653D01*
X1877658D01*
Y2437952D01*
X1877957D01*
Y2438251D01*
X1878554D01*
Y2438549D01*
X1879152D01*
Y2438848D01*
X1879749D01*
Y2439147D01*
X1880347D01*
Y2439446D01*
X1881243D01*
Y2439745D01*
X1882140D01*
Y2440043D01*
X1883036D01*
Y2440342D01*
X1883933D01*
Y2440641D01*
X1885128D01*
Y2440940D01*
X1886025D01*
Y2441239D01*
X1886324D01*
Y2441837D01*
X1886025D01*
Y2442434D01*
X1885726D01*
Y2443032D01*
X1885427D01*
Y2443331D01*
X1884829D01*
Y2443629D01*
X1884232D01*
Y2443928D01*
X1881243D01*
Y2443629D01*
X1880347D01*
Y2443331D01*
X1879749D01*
Y2443032D01*
X1879152D01*
Y2442733D01*
X1878853D01*
Y2442434D01*
X1878554D01*
Y2442135D01*
X1877957D01*
Y2442434D01*
X1877658D01*
Y2442733D01*
X1877359D01*
Y2443331D01*
X1877060D01*
Y2443629D01*
X1876761D01*
Y2444227D01*
X1876462D01*
Y2444825D01*
X1876761D01*
Y2445123D01*
X1877359D01*
Y2445422D01*
X1877658D01*
Y2445721D01*
X1878255D01*
Y2446020D01*
X1878853D01*
Y2446319D01*
X1879451D01*
Y2446618D01*
X1880048D01*
Y2446917D01*
X1881542D01*
Y2447215D01*
X1886025D01*
Y2446917D01*
D02*
G37*
G36*
X1872578Y2446618D02*
X1872876D01*
Y2427194D01*
X1867796D01*
Y2446917D01*
X1872578D01*
Y2446618D01*
D02*
G37*
G36*
X1776954Y2427194D02*
X1771575D01*
Y2454387D01*
X1771874D01*
Y2454686D01*
X1776954D01*
Y2427194D01*
D02*
G37*
G36*
X2024081Y2446917D02*
X2024978D01*
Y2446618D01*
X2025874D01*
Y2446319D01*
X2026472D01*
Y2446020D01*
X2027069D01*
Y2445721D01*
X2027368D01*
Y2445422D01*
X2027667D01*
Y2445123D01*
X2027966D01*
Y2444825D01*
X2028265D01*
Y2444526D01*
X2028564D01*
Y2444227D01*
X2028862D01*
Y2443629D01*
X2029161D01*
Y2443032D01*
X2029460D01*
Y2442434D01*
X2029759D01*
Y2441538D01*
X2030058D01*
Y2440641D01*
X2030356D01*
Y2436458D01*
X2018105D01*
Y2434964D01*
X2018403D01*
Y2433768D01*
X2018702D01*
Y2433171D01*
X2019001D01*
Y2432573D01*
X2019300D01*
Y2432274D01*
X2019599D01*
Y2431975D01*
X2019898D01*
Y2431676D01*
X2020197D01*
Y2431378D01*
X2020495D01*
Y2431079D01*
X2020794D01*
Y2430780D01*
X2021392D01*
Y2430481D01*
X2022288D01*
Y2430182D01*
X2025276D01*
Y2430481D01*
X2026472D01*
Y2430780D01*
X2027368D01*
Y2431079D01*
X2027966D01*
Y2431378D01*
X2028265D01*
Y2431676D01*
X2028862D01*
Y2431079D01*
X2029161D01*
Y2430481D01*
X2029460D01*
Y2429884D01*
X2029759D01*
Y2429585D01*
X2030058D01*
Y2428688D01*
X2029460D01*
Y2428389D01*
X2028862D01*
Y2428091D01*
X2028265D01*
Y2427792D01*
X2027667D01*
Y2427493D01*
X2026771D01*
Y2427194D01*
X2025575D01*
Y2426895D01*
X2023782D01*
Y2426597D01*
X2021691D01*
Y2426895D01*
X2019898D01*
Y2427194D01*
X2019001D01*
Y2427493D01*
X2018403D01*
Y2427792D01*
X2017806D01*
Y2428091D01*
X2017208D01*
Y2428389D01*
X2016909D01*
Y2428688D01*
X2016312D01*
Y2428987D01*
X2016013D01*
Y2429286D01*
X2015714D01*
Y2429585D01*
X2015415D01*
Y2429884D01*
X2015116D01*
Y2430481D01*
X2014818D01*
Y2430780D01*
X2014519D01*
Y2431079D01*
X2014220D01*
Y2431676D01*
X2013921D01*
Y2432274D01*
X2013622D01*
Y2432872D01*
X2013324D01*
Y2434067D01*
X2013025D01*
Y2434964D01*
X2012726D01*
Y2439446D01*
X2013025D01*
Y2440342D01*
X2013324D01*
Y2441538D01*
X2013622D01*
Y2442135D01*
X2013921D01*
Y2442434D01*
X2014220D01*
Y2443032D01*
X2014519D01*
Y2443331D01*
X2014818D01*
Y2443928D01*
X2015116D01*
Y2444227D01*
X2015415D01*
Y2444526D01*
X2015714D01*
Y2444825D01*
X2016013D01*
Y2445123D01*
X2016611D01*
Y2445422D01*
X2016909D01*
Y2445721D01*
X2017507D01*
Y2446020D01*
X2018105D01*
Y2446319D01*
X2018702D01*
Y2446618D01*
X2019599D01*
Y2446917D01*
X2020794D01*
Y2447215D01*
X2024081D01*
Y2446917D01*
D02*
G37*
G36*
X1982843D02*
X1984039D01*
Y2446618D01*
X1984935D01*
Y2446319D01*
X1985533D01*
Y2446020D01*
X1985832D01*
Y2445721D01*
X1986131D01*
Y2445422D01*
X1986728D01*
Y2445123D01*
X1987027D01*
Y2444825D01*
X1987326D01*
Y2444227D01*
X1987625D01*
Y2443928D01*
X1987923D01*
Y2443331D01*
X1988222D01*
Y2442733D01*
X1988521D01*
Y2442135D01*
X1988820D01*
Y2441239D01*
X1989119D01*
Y2439446D01*
X1989418D01*
Y2436458D01*
X1977166D01*
Y2434366D01*
X1977465D01*
Y2433469D01*
X1977764D01*
Y2432872D01*
X1978062D01*
Y2432274D01*
X1978361D01*
Y2431975D01*
X1978660D01*
Y2431676D01*
X1978959D01*
Y2431378D01*
X1979258D01*
Y2431079D01*
X1979855D01*
Y2430780D01*
X1980154D01*
Y2430481D01*
X1981051D01*
Y2430182D01*
X1984039D01*
Y2430481D01*
X1985234D01*
Y2430780D01*
X1986131D01*
Y2431079D01*
X1986728D01*
Y2431378D01*
X1987326D01*
Y2431676D01*
X1987625D01*
Y2431378D01*
X1987923D01*
Y2430780D01*
X1988222D01*
Y2430182D01*
X1988521D01*
Y2429585D01*
X1988820D01*
Y2429286D01*
X1989119D01*
Y2428688D01*
X1988521D01*
Y2428389D01*
X1987923D01*
Y2428091D01*
X1987326D01*
Y2427792D01*
X1986429D01*
Y2427493D01*
X1985832D01*
Y2427194D01*
X1984637D01*
Y2426895D01*
X1982843D01*
Y2426597D01*
X1980752D01*
Y2426895D01*
X1978959D01*
Y2427194D01*
X1977764D01*
Y2427493D01*
X1977166D01*
Y2427792D01*
X1976568D01*
Y2428091D01*
X1976269D01*
Y2428389D01*
X1975672D01*
Y2428688D01*
X1975373D01*
Y2428987D01*
X1975074D01*
Y2429286D01*
X1974775D01*
Y2429585D01*
X1974476D01*
Y2429884D01*
X1974178D01*
Y2430182D01*
X1973879D01*
Y2430481D01*
X1973580D01*
Y2430780D01*
X1973281D01*
Y2431378D01*
X1972982D01*
Y2431975D01*
X1972684D01*
Y2432573D01*
X1972385D01*
Y2433469D01*
X1972086D01*
Y2434366D01*
X1971787D01*
Y2436756D01*
X1971488D01*
Y2437952D01*
X1971787D01*
Y2440043D01*
X1972086D01*
Y2440940D01*
X1972385D01*
Y2441837D01*
X1972684D01*
Y2442434D01*
X1972982D01*
Y2442733D01*
X1973281D01*
Y2443331D01*
X1973580D01*
Y2443629D01*
X1973879D01*
Y2443928D01*
X1974178D01*
Y2444526D01*
X1974775D01*
Y2444825D01*
X1975074D01*
Y2445123D01*
X1975373D01*
Y2445422D01*
X1975672D01*
Y2445721D01*
X1976269D01*
Y2446020D01*
X1976867D01*
Y2446319D01*
X1977465D01*
Y2446618D01*
X1978361D01*
Y2446917D01*
X1979556D01*
Y2447215D01*
X1982843D01*
Y2446917D01*
D02*
G37*
G36*
X1945789D02*
X1947283D01*
Y2446618D01*
X1948180D01*
Y2446319D01*
X1948778D01*
Y2446020D01*
X1949375D01*
Y2445721D01*
X1949973D01*
Y2445422D01*
X1950272D01*
Y2445123D01*
X1950571D01*
Y2444825D01*
X1951168D01*
Y2444526D01*
X1951467D01*
Y2444227D01*
X1951766D01*
Y2443928D01*
X1952065D01*
Y2443331D01*
X1952363D01*
Y2443032D01*
X1952662D01*
Y2442733D01*
X1952961D01*
Y2442135D01*
X1953260D01*
Y2441538D01*
X1953559D01*
Y2440641D01*
X1953858D01*
Y2439745D01*
X1954156D01*
Y2437952D01*
X1954455D01*
Y2436756D01*
X1954156D01*
Y2436159D01*
Y2435860D01*
Y2434366D01*
X1953858D01*
Y2433469D01*
X1953559D01*
Y2432573D01*
X1953260D01*
Y2431975D01*
X1952961D01*
Y2431378D01*
X1952662D01*
Y2430780D01*
X1952363D01*
Y2430481D01*
X1952065D01*
Y2430182D01*
X1951766D01*
Y2429585D01*
X1951467D01*
Y2429286D01*
X1950869D01*
Y2428987D01*
X1950571D01*
Y2428688D01*
X1950272D01*
Y2428389D01*
X1949973D01*
Y2428091D01*
X1949375D01*
Y2427792D01*
X1948778D01*
Y2427493D01*
X1947881D01*
Y2427194D01*
X1946985D01*
Y2426895D01*
X1945192D01*
Y2426597D01*
X1943399D01*
Y2426895D01*
X1941606D01*
Y2427194D01*
X1940411D01*
Y2427493D01*
X1939813D01*
Y2427792D01*
X1939215D01*
Y2428091D01*
X1938618D01*
Y2428389D01*
X1938319D01*
Y2428688D01*
X1938020D01*
Y2428987D01*
X1937721D01*
Y2429286D01*
X1937422D01*
Y2429585D01*
X1936825D01*
Y2430182D01*
X1936526D01*
Y2430481D01*
X1936227D01*
Y2430780D01*
X1935928D01*
Y2431378D01*
X1935629D01*
Y2431975D01*
X1935331D01*
Y2432573D01*
X1935032D01*
Y2433171D01*
X1934733D01*
Y2434366D01*
X1934434D01*
Y2439745D01*
X1934733D01*
Y2440641D01*
X1935032D01*
Y2441538D01*
X1935331D01*
Y2442135D01*
X1935629D01*
Y2442434D01*
X1935928D01*
Y2443032D01*
X1936227D01*
Y2443331D01*
X1936526D01*
Y2443629D01*
X1936825D01*
Y2444227D01*
X1937124D01*
Y2444526D01*
X1937422D01*
Y2444825D01*
X1938020D01*
Y2445123D01*
X1938319D01*
Y2445422D01*
X1938618D01*
Y2445721D01*
X1939215D01*
Y2446020D01*
X1939813D01*
Y2446319D01*
X1940411D01*
Y2446618D01*
X1941307D01*
Y2446917D01*
X1942801D01*
Y2447215D01*
X1945789D01*
Y2446917D01*
D02*
G37*
G36*
X1844488D02*
X1845683D01*
Y2446618D01*
X1846580D01*
Y2446319D01*
X1847178D01*
Y2446020D01*
X1847477D01*
Y2445721D01*
X1848074D01*
Y2445422D01*
X1848373D01*
Y2445123D01*
X1848672D01*
Y2444825D01*
X1848971D01*
Y2444227D01*
X1849269D01*
Y2443928D01*
X1849568D01*
Y2443331D01*
X1849867D01*
Y2442733D01*
X1850166D01*
Y2442135D01*
X1850465D01*
Y2441239D01*
X1850764D01*
Y2439745D01*
X1851062D01*
Y2436458D01*
X1838811D01*
Y2434366D01*
X1839109D01*
Y2433469D01*
X1839408D01*
Y2432872D01*
X1839707D01*
Y2432274D01*
X1840006D01*
Y2431975D01*
X1840305D01*
Y2431676D01*
X1840603D01*
Y2431378D01*
X1840902D01*
Y2431079D01*
X1841500D01*
Y2430780D01*
X1841799D01*
Y2430481D01*
X1842695D01*
Y2430182D01*
X1845683D01*
Y2430481D01*
X1846879D01*
Y2430780D01*
X1847775D01*
Y2431079D01*
X1848373D01*
Y2431378D01*
X1848971D01*
Y2431676D01*
X1849269D01*
Y2431378D01*
X1849568D01*
Y2430780D01*
X1849867D01*
Y2430182D01*
X1850166D01*
Y2429884D01*
X1850465D01*
Y2429286D01*
X1850764D01*
Y2428688D01*
X1850166D01*
Y2428389D01*
X1849568D01*
Y2428091D01*
X1848971D01*
Y2427792D01*
X1848074D01*
Y2427493D01*
X1847477D01*
Y2427194D01*
X1846281D01*
Y2426895D01*
X1844488D01*
Y2426597D01*
X1842397D01*
Y2426895D01*
X1840603D01*
Y2427194D01*
X1839707D01*
Y2427493D01*
X1838811D01*
Y2427792D01*
X1838213D01*
Y2428091D01*
X1837914D01*
Y2428389D01*
X1837316D01*
Y2428688D01*
X1837018D01*
Y2428987D01*
X1836719D01*
Y2429286D01*
X1836420D01*
Y2429585D01*
X1836121D01*
Y2429884D01*
X1835822D01*
Y2430182D01*
X1835524D01*
Y2430481D01*
X1835225D01*
Y2430780D01*
X1834926D01*
Y2431378D01*
X1834627D01*
Y2431975D01*
X1834328D01*
Y2432573D01*
X1834029D01*
Y2433469D01*
X1833731D01*
Y2434366D01*
X1833432D01*
Y2436756D01*
X1833133D01*
Y2437952D01*
X1833432D01*
Y2440043D01*
X1833731D01*
Y2440940D01*
X1834029D01*
Y2441837D01*
X1834328D01*
Y2442135D01*
X1834627D01*
Y2442733D01*
X1834926D01*
Y2443331D01*
X1835225D01*
Y2443629D01*
X1835524D01*
Y2443928D01*
X1835822D01*
Y2444227D01*
X1836121D01*
Y2444526D01*
X1836420D01*
Y2444825D01*
X1836719D01*
Y2445123D01*
X1837018D01*
Y2445422D01*
X1837316D01*
Y2445721D01*
X1837914D01*
Y2446020D01*
X1838512D01*
Y2446319D01*
X1839109D01*
Y2446618D01*
X1840006D01*
Y2446917D01*
X1841201D01*
Y2447215D01*
X1844488D01*
Y2446917D01*
D02*
G37*
G36*
X2001669D02*
X2002566D01*
Y2446618D01*
X2003163D01*
Y2446319D01*
X2003761D01*
Y2446020D01*
X2004060D01*
Y2445721D01*
X2004658D01*
Y2445422D01*
X2004957D01*
Y2445123D01*
X2005255D01*
Y2444526D01*
X2005554D01*
Y2446618D01*
X2005853D01*
Y2446917D01*
X2010634D01*
Y2443032D01*
Y2442733D01*
Y2425700D01*
X2010335D01*
Y2424505D01*
X2010036D01*
Y2423608D01*
X2009738D01*
Y2422712D01*
X2009439D01*
Y2422114D01*
X2009140D01*
Y2421815D01*
X2008841D01*
Y2421218D01*
X2008542D01*
Y2420919D01*
X2008244D01*
Y2420620D01*
X2007945D01*
Y2420321D01*
X2007646D01*
Y2420022D01*
X2007347D01*
Y2419724D01*
X2007048D01*
Y2419425D01*
X2006451D01*
Y2419126D01*
X2006152D01*
Y2418827D01*
X2005554D01*
Y2418528D01*
X2004957D01*
Y2418229D01*
X2004060D01*
Y2417931D01*
X2002865D01*
Y2417632D01*
X1997187D01*
Y2417931D01*
X1995693D01*
Y2418229D01*
X1994498D01*
Y2418528D01*
X1993601D01*
Y2418827D01*
X1993004D01*
Y2419126D01*
X1992406D01*
Y2419425D01*
X1992107D01*
Y2420022D01*
X1992406D01*
Y2420919D01*
X1992705D01*
Y2421815D01*
X1993004D01*
Y2422712D01*
X1993302D01*
Y2422413D01*
X1993900D01*
Y2422114D01*
X1994498D01*
Y2421815D01*
X1995394D01*
Y2421517D01*
X1996589D01*
Y2421218D01*
X1998980D01*
Y2420919D01*
X2000175D01*
Y2421218D01*
X2001968D01*
Y2421517D01*
X2002566D01*
Y2421815D01*
X2003163D01*
Y2422114D01*
X2003462D01*
Y2422413D01*
X2003761D01*
Y2422712D01*
X2004060D01*
Y2423011D01*
X2004359D01*
Y2423309D01*
X2004658D01*
Y2423907D01*
X2004957D01*
Y2424505D01*
X2005255D01*
Y2425700D01*
X2005554D01*
Y2429884D01*
X2005255D01*
Y2429585D01*
X2004957D01*
Y2428987D01*
X2004658D01*
Y2428688D01*
X2004060D01*
Y2428389D01*
X2003761D01*
Y2428091D01*
X2003462D01*
Y2427792D01*
X2002865D01*
Y2427493D01*
X2002267D01*
Y2427194D01*
X2001669D01*
Y2426895D01*
X1999578D01*
Y2426597D01*
X1999279D01*
Y2426895D01*
X1997486D01*
Y2427194D01*
X1996589D01*
Y2427493D01*
X1995693D01*
Y2427792D01*
X1995394D01*
Y2428091D01*
X1994796D01*
Y2428389D01*
X1994498D01*
Y2428688D01*
X1994199D01*
Y2428987D01*
X1993900D01*
Y2429286D01*
X1993601D01*
Y2429585D01*
X1993302D01*
Y2429884D01*
X1993004D01*
Y2430481D01*
X1992705D01*
Y2431079D01*
X1992406D01*
Y2431676D01*
X1992107D01*
Y2432274D01*
X1991808D01*
Y2433171D01*
X1991509D01*
Y2434366D01*
X1991211D01*
Y2439446D01*
X1991509D01*
Y2440641D01*
X1991808D01*
Y2441538D01*
X1992107D01*
Y2442135D01*
X1992406D01*
Y2442733D01*
X1992705D01*
Y2443032D01*
X1993004D01*
Y2443629D01*
X1993302D01*
Y2443928D01*
X1993601D01*
Y2444227D01*
X1993900D01*
Y2444526D01*
X1994199D01*
Y2444825D01*
X1994498D01*
Y2445123D01*
X1994796D01*
Y2445422D01*
X1995095D01*
Y2445721D01*
X1995394D01*
Y2446020D01*
X1995992D01*
Y2446319D01*
X1996589D01*
Y2446618D01*
X1997187D01*
Y2446917D01*
X1998083D01*
Y2447215D01*
X2001669D01*
Y2446917D01*
D02*
G37*
G36*
X1894392Y2408069D02*
X1895587D01*
Y2407771D01*
X1896185D01*
Y2407472D01*
X1896782D01*
Y2407173D01*
X1897380D01*
Y2406874D01*
X1897679D01*
Y2406575D01*
X1897978D01*
Y2406277D01*
X1898277D01*
Y2405679D01*
X1898575D01*
Y2405380D01*
X1898874D01*
Y2404782D01*
X1899173D01*
Y2403886D01*
X1899472D01*
Y2402093D01*
X1899771D01*
Y2388347D01*
X1894392D01*
Y2401794D01*
X1894093D01*
Y2402691D01*
X1893794D01*
Y2403288D01*
X1893495D01*
Y2403587D01*
X1893197D01*
Y2403886D01*
X1892898D01*
Y2404185D01*
X1892300D01*
Y2404483D01*
X1888714D01*
Y2404185D01*
X1888116D01*
Y2403886D01*
X1887519D01*
Y2403587D01*
X1887220D01*
Y2403288D01*
X1886921D01*
Y2402691D01*
X1886622D01*
Y2402392D01*
X1886324D01*
Y2401495D01*
X1886025D01*
Y2388347D01*
X1885726D01*
Y2388048D01*
X1880945D01*
Y2388347D01*
X1880646D01*
Y2407771D01*
X1886025D01*
Y2406575D01*
Y2406277D01*
Y2405978D01*
X1886622D01*
Y2406277D01*
X1886921D01*
Y2406575D01*
X1887220D01*
Y2406874D01*
X1887818D01*
Y2407173D01*
X1888415D01*
Y2407472D01*
X1889013D01*
Y2407771D01*
X1889909D01*
Y2408069D01*
X1891404D01*
Y2408368D01*
X1894392D01*
Y2408069D01*
D02*
G37*
G36*
X1854648Y2388347D02*
X1849269D01*
Y2390738D01*
X1848971D01*
Y2390439D01*
X1848672D01*
Y2390140D01*
X1848373D01*
Y2389841D01*
X1848074D01*
Y2389542D01*
X1847477D01*
Y2389243D01*
X1847178D01*
Y2388945D01*
X1846879D01*
Y2388646D01*
X1846281D01*
Y2388347D01*
X1845385D01*
Y2388048D01*
X1844189D01*
Y2387749D01*
X1841500D01*
Y2388048D01*
X1840305D01*
Y2388347D01*
X1839408D01*
Y2388646D01*
X1838811D01*
Y2388945D01*
X1838213D01*
Y2389243D01*
X1837914D01*
Y2389542D01*
X1837615D01*
Y2389841D01*
X1837316D01*
Y2390140D01*
X1837018D01*
Y2390439D01*
X1836719D01*
Y2390738D01*
X1836420D01*
Y2391037D01*
X1836121D01*
Y2391335D01*
X1835822D01*
Y2391933D01*
X1835524D01*
Y2392531D01*
X1835225D01*
Y2393128D01*
X1834926D01*
Y2394025D01*
X1834627D01*
Y2395220D01*
X1834328D01*
Y2397312D01*
X1834029D01*
Y2399105D01*
X1834328D01*
Y2400898D01*
X1834627D01*
Y2401794D01*
X1834926D01*
Y2402691D01*
X1835225D01*
Y2403288D01*
X1835524D01*
Y2403886D01*
X1835822D01*
Y2404185D01*
X1836121D01*
Y2404483D01*
X1836420D01*
Y2405081D01*
X1836719D01*
Y2405380D01*
X1837018D01*
Y2405679D01*
X1837316D01*
Y2405978D01*
X1837615D01*
Y2406277D01*
X1837914D01*
Y2406575D01*
X1838512D01*
Y2406874D01*
X1838811D01*
Y2407173D01*
X1839408D01*
Y2407472D01*
X1840006D01*
Y2407771D01*
X1840902D01*
Y2408069D01*
X1842098D01*
Y2408368D01*
X1844488D01*
Y2408069D01*
X1845982D01*
Y2407771D01*
X1846879D01*
Y2407472D01*
X1847178D01*
Y2407173D01*
X1847775D01*
Y2406874D01*
X1848373D01*
Y2406575D01*
X1848672D01*
Y2406277D01*
X1848971D01*
Y2405978D01*
X1849269D01*
Y2414345D01*
Y2414644D01*
Y2417034D01*
X1854648D01*
Y2388347D01*
D02*
G37*
G36*
X1826260Y2408069D02*
X1827455D01*
Y2407771D01*
X1828053D01*
Y2407472D01*
X1828651D01*
Y2407173D01*
X1829248D01*
Y2406874D01*
X1829547D01*
Y2406575D01*
X1829846D01*
Y2406277D01*
X1830145D01*
Y2405978D01*
X1830444D01*
Y2405380D01*
X1830742D01*
Y2404782D01*
X1831041D01*
Y2404185D01*
X1831340D01*
Y2402691D01*
X1831639D01*
Y2388347D01*
X1826260D01*
Y2402093D01*
X1825961D01*
Y2402392D01*
Y2402691D01*
Y2402989D01*
X1825662D01*
Y2403288D01*
X1825363D01*
Y2403587D01*
X1825065D01*
Y2403886D01*
X1824766D01*
Y2404185D01*
X1824168D01*
Y2404483D01*
X1820582D01*
Y2404185D01*
X1819985D01*
Y2403886D01*
X1819686D01*
Y2403587D01*
X1819088D01*
Y2402989D01*
X1818789D01*
Y2402691D01*
X1818491D01*
Y2402093D01*
X1818192D01*
Y2401196D01*
X1817893D01*
Y2388048D01*
X1812813D01*
Y2388347D01*
X1812514D01*
Y2407771D01*
X1817893D01*
Y2405679D01*
X1818192D01*
Y2405978D01*
X1818491D01*
Y2406277D01*
X1818789D01*
Y2406575D01*
X1819088D01*
Y2406874D01*
X1819686D01*
Y2407173D01*
X1820284D01*
Y2407472D01*
X1820881D01*
Y2407771D01*
X1822077D01*
Y2408069D01*
X1823571D01*
Y2408368D01*
X1826260D01*
Y2408069D01*
D02*
G37*
G36*
X1777253Y2392232D02*
X1788309D01*
Y2388347D01*
X1771575D01*
Y2393726D01*
Y2394025D01*
Y2415540D01*
X1777253D01*
Y2392232D01*
D02*
G37*
G36*
X1868992Y2408069D02*
X1870486D01*
Y2407771D01*
X1871681D01*
Y2407472D01*
X1872279D01*
Y2407173D01*
X1872876D01*
Y2406874D01*
X1873474D01*
Y2406575D01*
X1874072D01*
Y2406277D01*
X1874371D01*
Y2405978D01*
X1874669D01*
Y2405679D01*
X1875267D01*
Y2405081D01*
X1875566D01*
Y2404782D01*
X1875865D01*
Y2404483D01*
X1876163D01*
Y2404185D01*
X1876462D01*
Y2403886D01*
X1876761D01*
Y2403288D01*
X1877060D01*
Y2402691D01*
X1877359D01*
Y2402093D01*
X1877658D01*
Y2401196D01*
X1877957D01*
Y2399702D01*
X1878255D01*
Y2396714D01*
X1877957D01*
Y2395220D01*
X1877658D01*
Y2394323D01*
X1877359D01*
Y2393726D01*
X1877060D01*
Y2393128D01*
X1876761D01*
Y2392531D01*
X1876462D01*
Y2391933D01*
X1876163D01*
Y2391634D01*
X1875865D01*
Y2391335D01*
X1875566D01*
Y2391037D01*
X1875267D01*
Y2390738D01*
X1874968D01*
Y2390439D01*
X1874669D01*
Y2390140D01*
X1874371D01*
Y2389841D01*
X1874072D01*
Y2389542D01*
X1873474D01*
Y2389243D01*
X1872876D01*
Y2388945D01*
X1872279D01*
Y2388646D01*
X1871681D01*
Y2388347D01*
X1870785D01*
Y2388048D01*
X1868992D01*
Y2387749D01*
X1866302D01*
Y2388048D01*
X1864808D01*
Y2388347D01*
X1863613D01*
Y2388646D01*
X1863015D01*
Y2388945D01*
X1862418D01*
Y2389243D01*
X1861820D01*
Y2389542D01*
X1861521D01*
Y2389841D01*
X1860923D01*
Y2390140D01*
X1860625D01*
Y2390439D01*
X1860326D01*
Y2390738D01*
X1860027D01*
Y2391037D01*
X1859728D01*
Y2391335D01*
X1859429D01*
Y2391634D01*
X1859131D01*
Y2392232D01*
X1858832D01*
Y2392531D01*
X1858533D01*
Y2393128D01*
X1858234D01*
Y2393726D01*
X1857935D01*
Y2394622D01*
X1857637D01*
Y2395519D01*
X1857338D01*
Y2400599D01*
X1857637D01*
Y2401495D01*
X1857935D01*
Y2402392D01*
X1858234D01*
Y2402989D01*
X1858533D01*
Y2403587D01*
X1858832D01*
Y2403886D01*
X1859131D01*
Y2404483D01*
X1859429D01*
Y2404782D01*
X1859728D01*
Y2405081D01*
X1860027D01*
Y2405380D01*
X1860326D01*
Y2405679D01*
X1860625D01*
Y2405978D01*
X1860923D01*
Y2406277D01*
X1861521D01*
Y2406575D01*
X1861820D01*
Y2406874D01*
X1862418D01*
Y2407173D01*
X1863015D01*
Y2407472D01*
X1863613D01*
Y2407771D01*
X1864808D01*
Y2408069D01*
X1866302D01*
Y2408368D01*
X1868992D01*
Y2408069D01*
D02*
G37*
G36*
X1800860D02*
X1802354D01*
Y2407771D01*
X1803549D01*
Y2407472D01*
X1804147D01*
Y2407173D01*
X1804745D01*
Y2406874D01*
X1805342D01*
Y2406575D01*
X1805641D01*
Y2406277D01*
X1806239D01*
Y2405978D01*
X1806538D01*
Y2405679D01*
X1806837D01*
Y2405380D01*
X1807135D01*
Y2405081D01*
X1807434D01*
Y2404782D01*
X1807733D01*
Y2404483D01*
X1808032D01*
Y2404185D01*
X1808331D01*
Y2403587D01*
X1808629D01*
Y2402989D01*
X1808928D01*
Y2402691D01*
X1809227D01*
Y2401794D01*
X1809526D01*
Y2400898D01*
X1809825D01*
Y2399404D01*
X1810123D01*
Y2397909D01*
Y2397611D01*
Y2397312D01*
X1809825D01*
Y2395519D01*
X1809526D01*
Y2394323D01*
X1809227D01*
Y2393726D01*
X1808928D01*
Y2393128D01*
X1808629D01*
Y2392531D01*
X1808331D01*
Y2391933D01*
X1808032D01*
Y2391634D01*
X1807733D01*
Y2391335D01*
X1807434D01*
Y2391037D01*
X1807135D01*
Y2390738D01*
X1806837D01*
Y2390439D01*
X1806538D01*
Y2390140D01*
X1806239D01*
Y2389841D01*
X1805940D01*
Y2389542D01*
X1805342D01*
Y2389243D01*
X1804745D01*
Y2388945D01*
X1804147D01*
Y2388646D01*
X1803549D01*
Y2388347D01*
X1802354D01*
Y2388048D01*
X1800860D01*
Y2387749D01*
X1798171D01*
Y2388048D01*
X1796378D01*
Y2388347D01*
X1795481D01*
Y2388646D01*
X1794884D01*
Y2388945D01*
X1794286D01*
Y2389243D01*
X1793688D01*
Y2389542D01*
X1793091D01*
Y2389841D01*
X1792792D01*
Y2390140D01*
X1792493D01*
Y2390439D01*
X1792194D01*
Y2390738D01*
X1791895D01*
Y2391037D01*
X1791597D01*
Y2391335D01*
X1791298D01*
Y2391634D01*
X1790999D01*
Y2392232D01*
X1790700D01*
Y2392531D01*
X1790401D01*
Y2393128D01*
X1790102D01*
Y2393726D01*
X1789803D01*
Y2394622D01*
X1789505D01*
Y2395519D01*
X1789206D01*
Y2397312D01*
X1788907D01*
Y2399404D01*
X1789206D01*
Y2400898D01*
X1789505D01*
Y2401794D01*
X1789803D01*
Y2402691D01*
X1790102D01*
Y2403288D01*
X1790401D01*
Y2403587D01*
X1790700D01*
Y2404185D01*
X1790999D01*
Y2404483D01*
X1791298D01*
Y2404782D01*
X1791597D01*
Y2405081D01*
X1791895D01*
Y2405380D01*
X1792194D01*
Y2405679D01*
X1792493D01*
Y2405978D01*
X1792792D01*
Y2406277D01*
X1793389D01*
Y2406575D01*
X1793688D01*
Y2406874D01*
X1794286D01*
Y2407173D01*
X1794884D01*
Y2407472D01*
X1795481D01*
Y2407771D01*
X1796676D01*
Y2408069D01*
X1798171D01*
Y2408368D01*
X1800860D01*
Y2408069D01*
D02*
G37*
%LPC*%
G36*
X1822973Y2443928D02*
X1820582D01*
Y2443629D01*
X1819985D01*
Y2443331D01*
X1819387D01*
Y2443032D01*
X1819088D01*
Y2442733D01*
X1818789D01*
Y2442434D01*
X1818491D01*
Y2441837D01*
X1818192D01*
Y2441239D01*
X1817893D01*
Y2440641D01*
X1817594D01*
Y2439745D01*
X1817295D01*
Y2434067D01*
X1817594D01*
Y2433171D01*
X1817893D01*
Y2432573D01*
X1818192D01*
Y2431975D01*
X1818491D01*
Y2431676D01*
X1818789D01*
Y2431079D01*
X1819088D01*
Y2430780D01*
X1819686D01*
Y2430481D01*
X1820284D01*
Y2430182D01*
X1821479D01*
Y2429884D01*
X1822077D01*
Y2430182D01*
X1823272D01*
Y2430481D01*
X1823869D01*
Y2430780D01*
X1824168D01*
Y2431079D01*
X1824467D01*
Y2431378D01*
X1824766D01*
Y2431975D01*
X1825065D01*
Y2432573D01*
X1825363D01*
Y2433171D01*
X1825662D01*
Y2434366D01*
X1825961D01*
Y2436756D01*
X1826260D01*
Y2437653D01*
X1825961D01*
Y2440043D01*
X1825662D01*
Y2440940D01*
X1825363D01*
Y2441538D01*
X1825065D01*
Y2442135D01*
X1824766D01*
Y2442434D01*
X1824467D01*
Y2443032D01*
X1823869D01*
Y2443331D01*
X1823571D01*
Y2443629D01*
X1822973D01*
Y2443928D01*
D02*
G37*
G36*
X1886324Y2438251D02*
X1885427D01*
Y2437952D01*
X1884531D01*
Y2437653D01*
X1883634D01*
Y2437354D01*
X1882738D01*
Y2437055D01*
X1882140D01*
Y2436756D01*
X1881841D01*
Y2436458D01*
X1881243D01*
Y2436159D01*
X1880945D01*
Y2435561D01*
X1880646D01*
Y2435262D01*
X1880347D01*
Y2434366D01*
X1880048D01*
Y2431975D01*
X1880347D01*
Y2431378D01*
X1880646D01*
Y2431079D01*
X1880945D01*
Y2430780D01*
X1881243D01*
Y2430481D01*
X1883335D01*
Y2430780D01*
X1883933D01*
Y2431079D01*
X1884232D01*
Y2431378D01*
X1884531D01*
Y2431676D01*
X1884829D01*
Y2431975D01*
X1885128D01*
Y2432573D01*
X1885427D01*
Y2433171D01*
X1885726D01*
Y2433768D01*
X1886025D01*
Y2434964D01*
X1886324D01*
Y2438251D01*
D02*
G37*
G36*
X2023185Y2444227D02*
X2021691D01*
Y2443928D01*
X2020495D01*
Y2443629D01*
X2020197D01*
Y2443331D01*
X2019599D01*
Y2443032D01*
X2019300D01*
Y2442434D01*
X2019001D01*
Y2442135D01*
X2018702D01*
Y2441239D01*
X2018403D01*
Y2439446D01*
X2025575D01*
Y2441538D01*
X2025276D01*
Y2442434D01*
X2024978D01*
Y2443032D01*
X2024679D01*
Y2443331D01*
X2024380D01*
Y2443629D01*
X2024081D01*
Y2443928D01*
X2023185D01*
Y2444227D01*
D02*
G37*
G36*
X1981947D02*
X1980453D01*
Y2443928D01*
X1979556D01*
Y2443629D01*
X1978959D01*
Y2443331D01*
X1978660D01*
Y2443032D01*
X1978361D01*
Y2442733D01*
X1978062D01*
Y2442434D01*
X1977764D01*
Y2441837D01*
X1977465D01*
Y2440641D01*
X1977166D01*
Y2439446D01*
X1984338D01*
Y2441837D01*
X1984039D01*
Y2442733D01*
X1983740D01*
Y2443032D01*
X1983441D01*
Y2443331D01*
X1983142D01*
Y2443629D01*
X1982843D01*
Y2443928D01*
X1981947D01*
Y2444227D01*
D02*
G37*
G36*
X1944893D02*
X1943698D01*
Y2443928D01*
X1942801D01*
Y2443629D01*
X1942204D01*
Y2443331D01*
X1941905D01*
Y2443032D01*
X1941606D01*
Y2442733D01*
X1941307D01*
Y2442434D01*
X1941008D01*
Y2442135D01*
X1940709D01*
Y2441538D01*
X1940411D01*
Y2440641D01*
X1940112D01*
Y2439446D01*
X1939813D01*
Y2434665D01*
X1940112D01*
Y2433469D01*
X1940411D01*
Y2432573D01*
X1940709D01*
Y2431975D01*
X1941008D01*
Y2431378D01*
X1941307D01*
Y2431079D01*
X1941606D01*
Y2430780D01*
X1941905D01*
Y2430481D01*
X1942204D01*
Y2430182D01*
X1942801D01*
Y2429884D01*
X1943996D01*
Y2429585D01*
X1944594D01*
Y2429884D01*
X1945789D01*
Y2430182D01*
X1946387D01*
Y2430481D01*
X1946686D01*
Y2430780D01*
X1946985D01*
Y2431079D01*
X1947283D01*
Y2431378D01*
X1947582D01*
Y2431975D01*
X1947881D01*
Y2432573D01*
X1948180D01*
Y2433469D01*
X1948479D01*
Y2434964D01*
X1948778D01*
Y2439147D01*
X1948479D01*
Y2440641D01*
X1948180D01*
Y2441239D01*
X1947881D01*
Y2442135D01*
X1947582D01*
Y2442434D01*
X1947283D01*
Y2442733D01*
X1946985D01*
Y2443032D01*
X1946686D01*
Y2443331D01*
X1946387D01*
Y2443629D01*
X1945789D01*
Y2443928D01*
X1944893D01*
Y2444227D01*
D02*
G37*
G36*
X1843592D02*
X1842098D01*
Y2443928D01*
X1841201D01*
Y2443629D01*
X1840603D01*
Y2443331D01*
X1840305D01*
Y2443032D01*
X1840006D01*
Y2442733D01*
X1839707D01*
Y2442434D01*
X1839408D01*
Y2441837D01*
X1839109D01*
Y2440641D01*
X1838811D01*
Y2439446D01*
X1846281D01*
Y2440940D01*
X1845982D01*
Y2442135D01*
X1845683D01*
Y2442733D01*
X1845385D01*
Y2443331D01*
X1845086D01*
Y2443629D01*
X1844488D01*
Y2443928D01*
X1843592D01*
Y2444227D01*
D02*
G37*
G36*
X2002267Y2443928D02*
X1999877D01*
Y2443629D01*
X1998980D01*
Y2443331D01*
X1998681D01*
Y2443032D01*
X1998382D01*
Y2442733D01*
X1998083D01*
Y2442434D01*
X1997785D01*
Y2442135D01*
X1997486D01*
Y2441538D01*
X1997187D01*
Y2440641D01*
X1996888D01*
Y2439446D01*
X1996589D01*
Y2435262D01*
X1996888D01*
Y2433768D01*
X1997187D01*
Y2432872D01*
X1997486D01*
Y2432274D01*
X1997785D01*
Y2431676D01*
X1998083D01*
Y2431378D01*
X1998382D01*
Y2431079D01*
X1998681D01*
Y2430780D01*
X1998980D01*
Y2430481D01*
X1999578D01*
Y2430182D01*
X2000474D01*
Y2429884D01*
X2001072D01*
Y2430182D01*
X2002566D01*
Y2430481D01*
X2003163D01*
Y2430780D01*
X2003462D01*
Y2431079D01*
X2003761D01*
Y2431378D01*
X2004060D01*
Y2431975D01*
X2004359D01*
Y2432274D01*
X2004658D01*
Y2433171D01*
X2004957D01*
Y2434067D01*
X2005255D01*
Y2435262D01*
X2005554D01*
Y2439446D01*
X2005255D01*
Y2440342D01*
X2004957D01*
Y2441239D01*
X2004658D01*
Y2441837D01*
X2004359D01*
Y2442434D01*
X2004060D01*
Y2442733D01*
X2003761D01*
Y2443032D01*
X2003462D01*
Y2443331D01*
X2002865D01*
Y2443629D01*
X2002267D01*
Y2443928D01*
D02*
G37*
G36*
X1845683Y2405081D02*
X1843592D01*
Y2404782D01*
X1842695D01*
Y2404483D01*
X1842098D01*
Y2404185D01*
X1841799D01*
Y2403886D01*
X1841500D01*
Y2403587D01*
X1841201D01*
Y2403288D01*
X1840902D01*
Y2402691D01*
X1840603D01*
Y2402093D01*
X1840305D01*
Y2401196D01*
X1840006D01*
Y2395818D01*
X1840305D01*
Y2394622D01*
X1840603D01*
Y2394025D01*
X1840902D01*
Y2393128D01*
X1841201D01*
Y2392829D01*
X1841500D01*
Y2392531D01*
X1841799D01*
Y2392232D01*
X1842098D01*
Y2391933D01*
X1842397D01*
Y2391634D01*
X1842994D01*
Y2391335D01*
X1843891D01*
Y2391037D01*
X1845086D01*
Y2391335D01*
X1845982D01*
Y2391634D01*
X1846580D01*
Y2391933D01*
X1847178D01*
Y2392232D01*
X1847477D01*
Y2392531D01*
X1847775D01*
Y2393128D01*
X1848074D01*
Y2393427D01*
X1848373D01*
Y2394025D01*
X1848672D01*
Y2394921D01*
X1848971D01*
Y2396116D01*
X1849269D01*
Y2400898D01*
X1848971D01*
Y2401196D01*
Y2401495D01*
Y2401794D01*
X1848672D01*
Y2402392D01*
X1848373D01*
Y2402989D01*
X1848074D01*
Y2403288D01*
X1847775D01*
Y2403886D01*
X1847477D01*
Y2404185D01*
X1846879D01*
Y2404483D01*
X1846580D01*
Y2404782D01*
X1845683D01*
Y2405081D01*
D02*
G37*
G36*
X1868095Y2405380D02*
X1867199D01*
Y2405081D01*
X1866004D01*
Y2404782D01*
X1865406D01*
Y2404483D01*
X1865107D01*
Y2404185D01*
X1864808D01*
Y2403886D01*
X1864509D01*
Y2403587D01*
X1864211D01*
Y2402989D01*
X1863912D01*
Y2402691D01*
Y2402392D01*
X1863613D01*
Y2401495D01*
X1863314D01*
Y2400300D01*
X1863015D01*
Y2395818D01*
X1863314D01*
Y2394622D01*
X1863613D01*
Y2393726D01*
X1863912D01*
Y2393128D01*
X1864211D01*
Y2392531D01*
X1864509D01*
Y2392232D01*
X1864808D01*
Y2391933D01*
X1865107D01*
Y2391634D01*
X1865406D01*
Y2391335D01*
X1866004D01*
Y2391037D01*
X1867199D01*
Y2390738D01*
X1868095D01*
Y2391037D01*
X1869291D01*
Y2391335D01*
X1869888D01*
Y2391634D01*
X1870187D01*
Y2391933D01*
X1870486D01*
Y2392232D01*
X1870785D01*
Y2392531D01*
X1871084D01*
Y2392829D01*
X1871382D01*
Y2393427D01*
X1871681D01*
Y2394323D01*
X1871980D01*
Y2395220D01*
X1872279D01*
Y2397611D01*
X1872578D01*
Y2399105D01*
X1872279D01*
Y2401196D01*
X1871980D01*
Y2402093D01*
X1871681D01*
Y2402691D01*
X1871382D01*
Y2403288D01*
X1871084D01*
Y2403587D01*
X1870785D01*
Y2404185D01*
X1870486D01*
Y2404483D01*
X1869888D01*
Y2404782D01*
X1869291D01*
Y2405081D01*
X1868095D01*
Y2405380D01*
D02*
G37*
G36*
X1799964D02*
X1799067D01*
Y2405081D01*
X1797872D01*
Y2404782D01*
X1797274D01*
Y2404483D01*
X1796975D01*
Y2404185D01*
X1796676D01*
Y2403886D01*
X1796378D01*
Y2403587D01*
X1796079D01*
Y2403288D01*
X1795780D01*
Y2402691D01*
X1795481D01*
Y2401794D01*
X1795182D01*
Y2400898D01*
X1794884D01*
Y2395519D01*
X1795182D01*
Y2394323D01*
X1795481D01*
Y2393427D01*
X1795780D01*
Y2392829D01*
X1796079D01*
Y2392531D01*
X1796378D01*
Y2392232D01*
X1796676D01*
Y2391933D01*
X1796975D01*
Y2391634D01*
X1797274D01*
Y2391335D01*
X1797872D01*
Y2391037D01*
X1799067D01*
Y2390738D01*
X1799964D01*
Y2391037D01*
X1801159D01*
Y2391335D01*
X1801756D01*
Y2391634D01*
X1802055D01*
Y2391933D01*
X1802354D01*
Y2392232D01*
X1802653D01*
Y2392531D01*
X1802952D01*
Y2392829D01*
X1803251D01*
Y2393427D01*
X1803549D01*
Y2394323D01*
X1803848D01*
Y2395519D01*
X1804147D01*
Y2400898D01*
X1803848D01*
Y2401794D01*
X1803549D01*
Y2402691D01*
X1803251D01*
Y2403288D01*
X1802952D01*
Y2403587D01*
X1802653D01*
Y2403886D01*
X1802354D01*
Y2404185D01*
X1802055D01*
Y2404483D01*
X1801756D01*
Y2404782D01*
X1801159D01*
Y2405081D01*
X1799964D01*
Y2405380D01*
D02*
G37*
%LPD*%
D10*
X2813780Y3047020D02*
G03*
X2813780Y3047020I-3000J0D01*
G01*
X643600Y3162990D02*
G03*
X643600Y3162990I-3000J0D01*
G01*
X3054540Y3137880D02*
G03*
X3054540Y3137880I-3000J0D01*
G01*
X383660Y3087370D02*
G03*
X383660Y3087370I-3000J0D01*
G01*
D11*
X2837030Y3034420D02*
G03*
X2837030Y3034420I-1250J0D01*
G01*
X616850Y3175590D02*
G03*
X616850Y3175590I-1250J0D01*
G01*
X3027790Y3150480D02*
G03*
X3027790Y3150480I-1250J0D01*
G01*
X406910Y3074770D02*
G03*
X406910Y3074770I-1250J0D01*
G01*
D12*
X2102720Y2718900D02*
G03*
X2102720Y2718900I-1450J0D01*
G01*
X2369420D02*
G03*
X2369420Y2718900I-1450J0D01*
G01*
X2636120D02*
G03*
X2636120Y2718900I-1450J0D01*
G01*
X1302620D02*
G03*
X1302620Y2718900I-1450J0D01*
G01*
X1569320D02*
G03*
X1569320Y2718900I-1450J0D01*
G01*
X1836020D02*
G03*
X1836020Y2718900I-1450J0D01*
G01*
X2539120Y1744980D02*
G03*
X2539120Y1744980I-55000J0D01*
G01*
X385200Y2677160D02*
G03*
X385200Y2677160I-55000J0D01*
G01*
X3486150Y2768600D02*
G03*
X3486150Y2768600I-62230J0D01*
G01*
X2633100Y2677160D02*
G03*
X2633100Y2677160I-55000J0D01*
G01*
X1335160D02*
G03*
X1335160Y2677160I-55000J0D01*
G01*
X385200Y3274060D02*
G03*
X385200Y3274060I-55000J0D01*
G01*
X3484000D02*
G03*
X3484000Y3274060I-55000J0D01*
G01*
Y1752600D02*
G03*
X3484000Y1752600I-55000J0D01*
G01*
X385200Y1755140D02*
G03*
X385200Y1755140I-55000J0D01*
G01*
X1335160Y1742440D02*
G03*
X1335160Y1742440I-55000J0D01*
G01*
X579120Y2712720D02*
X640080D01*
X579120Y2786380D02*
X640080D01*
Y2712720D02*
Y2786380D01*
X579120Y2712720D02*
Y2786380D01*
X645160Y2700020D02*
X706120D01*
X645160Y2733040D02*
X706120D01*
Y2700020D02*
Y2733040D01*
X645160Y2700020D02*
Y2733040D01*
X731520Y2766060D02*
X792480D01*
X731520Y2794000D02*
X792480D01*
Y2766060D02*
Y2794000D01*
X731520Y2766060D02*
Y2794000D01*
X711200Y2733040D02*
X772160D01*
X711200Y2760980D02*
X772160D01*
Y2733040D02*
Y2760980D01*
X711200Y2733040D02*
Y2760980D01*
X2865120Y2758440D02*
X2926080D01*
X2865120Y2730500D02*
X2926080D01*
X2865120D02*
Y2758440D01*
X2926080Y2730500D02*
Y2758440D01*
X566420Y2656840D02*
X833120D01*
X566420Y2839720D02*
X833120D01*
Y2656840D02*
Y2839720D01*
X566420Y2656840D02*
Y2839720D01*
X2893060Y2664460D02*
Y2725420D01*
X2926080Y2664460D02*
Y2725420D01*
X2893060Y2664460D02*
X2926080D01*
X2893060Y2725420D02*
X2926080D01*
X2827020Y2824480D02*
X2887980D01*
X2827020Y2796540D02*
X2887980D01*
X2827020D02*
Y2824480D01*
X2887980Y2796540D02*
Y2824480D01*
X2931160Y2809240D02*
X2992120D01*
X2931160Y2773680D02*
X2992120D01*
X2931160D02*
Y2809240D01*
X2992120Y2773680D02*
Y2809240D01*
X1643380Y3169920D02*
X1859280D01*
X1643380Y3248660D02*
X1859280D01*
Y3169920D02*
Y3248660D01*
X1643380Y3169920D02*
Y3248660D01*
X2844800Y2791460D02*
X2905760D01*
X2844800Y2763520D02*
X2905760D01*
X2844800D02*
Y2791460D01*
X2905760Y2763520D02*
Y2791460D01*
X2814320Y2664460D02*
Y2725420D01*
X2849880Y2664460D02*
Y2725420D01*
X2814320Y2664460D02*
X2849880D01*
X2814320Y2725420D02*
X2849880D01*
X645160Y2776220D02*
X706120D01*
X645160Y2811780D02*
X706120D01*
Y2776220D02*
Y2811780D01*
X645160Y2776220D02*
Y2811780D01*
X1234440Y3144520D02*
X1452880D01*
X1234440Y3225800D02*
X1452880D01*
Y3144520D02*
Y3225800D01*
X1234440Y3144520D02*
Y3225800D01*
X2931160Y2768600D02*
X2992120D01*
X2931160Y2735580D02*
X2992120D01*
X2931160D02*
Y2768600D01*
X2992120Y2735580D02*
Y2768600D01*
X711200Y2667000D02*
Y2727960D01*
X744220Y2667000D02*
Y2727960D01*
X711200Y2667000D02*
X744220D01*
X711200Y2727960D02*
X744220D01*
X749300Y2799080D02*
X810260D01*
X749300Y2827020D02*
X810260D01*
Y2799080D02*
Y2827020D01*
X749300Y2799080D02*
Y2827020D01*
X2801620Y2651760D02*
X3068320D01*
X2801620Y2834640D02*
X3068320D01*
Y2651760D02*
Y2834640D01*
X2801620Y2651760D02*
Y2834640D01*
X749300Y2667000D02*
Y2727960D01*
X782320Y2667000D02*
Y2727960D01*
X749300Y2667000D02*
X782320D01*
X749300Y2727960D02*
X782320D01*
X2997200Y2783840D02*
X3058160D01*
X2997200Y2710180D02*
X3058160D01*
X2997200D02*
Y2783840D01*
X3058160Y2710180D02*
Y2783840D01*
X2854960Y2664460D02*
Y2725420D01*
X2887980Y2664460D02*
Y2725420D01*
X2854960Y2664460D02*
X2887980D01*
X2854960Y2725420D02*
X2887980D01*
X787400Y2667000D02*
Y2727960D01*
X822960Y2667000D02*
Y2727960D01*
X787400Y2667000D02*
X822960D01*
X787400Y2727960D02*
X822960D01*
X645160Y2738120D02*
X706120D01*
X645160Y2771140D02*
X706120D01*
Y2738120D02*
Y2771140D01*
X645160Y2738120D02*
Y2771140D01*
X2931160Y2730500D02*
X2992120D01*
X2931160Y2697480D02*
X2992120D01*
X2931160D02*
Y2730500D01*
X2992120Y2697480D02*
Y2730500D01*
X1894380Y2736900D02*
X2154380D01*
X1894380D02*
Y3028900D01*
X2154380D01*
Y2736900D02*
Y3028900D01*
X2161080Y2736900D02*
X2421080D01*
X2161080D02*
Y3028900D01*
X2421080D01*
Y2736900D02*
Y3028900D01*
X2427780Y2736900D02*
X2687780D01*
X2427780D02*
Y3028900D01*
X2687780D01*
Y2736900D02*
Y3028900D01*
X1094280Y2736900D02*
X1354280D01*
X1094280D02*
Y3028900D01*
X1354280D01*
Y2736900D02*
Y3028900D01*
X1360980Y2736900D02*
X1620980D01*
X1360980D02*
Y3028900D01*
X1620980D01*
Y2736900D02*
Y3028900D01*
X1627680Y2736900D02*
X1887680D01*
X1627680D02*
Y3028900D01*
X1887680D01*
Y2736900D02*
Y3028900D01*
X615950Y3176270D02*
Y3199130D01*
X654050Y3176270D02*
Y3199130D01*
X615950D02*
X654050D01*
X615950Y3176270D02*
X654050D01*
X648970Y3044190D02*
Y3067050D01*
X687070Y3044190D02*
Y3067050D01*
X648970D02*
X687070D01*
X648970Y3044190D02*
X687070D01*
X621030D02*
Y3067050D01*
X582930Y3044190D02*
Y3067050D01*
Y3044190D02*
X621030D01*
X582930Y3067050D02*
X621030D01*
X658470Y3176270D02*
Y3199130D01*
X696570Y3176270D02*
Y3199130D01*
X658470D02*
X696570D01*
X658470Y3176270D02*
X696570D01*
X697230Y3062630D02*
X720090D01*
X697230Y3100730D02*
X720090D01*
X697230Y3062630D02*
Y3100730D01*
X720090Y3062630D02*
Y3100730D01*
X552450Y3061970D02*
X575310D01*
X552450Y3100070D02*
X575310D01*
X552450Y3061970D02*
Y3100070D01*
X575310Y3061970D02*
Y3100070D01*
X3008630Y3155950D02*
Y3178810D01*
X3046730Y3155950D02*
Y3178810D01*
X3008630D02*
X3046730D01*
X3008630Y3155950D02*
X3046730D01*
X3051810Y3021330D02*
Y3044190D01*
X3089910Y3021330D02*
Y3044190D01*
X3051810D02*
X3089910D01*
X3051810Y3021330D02*
X3089910D01*
X2957830Y3094330D02*
X2980690D01*
X2957830Y3056230D02*
X2980690D01*
Y3094330D01*
X2957830Y3056230D02*
Y3094330D01*
X3063850Y3155950D02*
Y3178810D01*
X3101950Y3155950D02*
Y3178810D01*
X3063850D02*
X3101950D01*
X3063850Y3155950D02*
X3101950D01*
X3105150Y3023870D02*
X3128010D01*
X3105150Y3061970D02*
X3128010D01*
X3105150Y3023870D02*
Y3061970D01*
X3128010Y3023870D02*
Y3061970D01*
X2990850Y3021330D02*
Y3044190D01*
X3028950Y3021330D02*
Y3044190D01*
X2990850D02*
X3028950D01*
X2990850Y3021330D02*
X3028950D01*
X2797810Y2985770D02*
X2820670D01*
X2797810Y3023870D02*
X2820670D01*
X2797810Y2985770D02*
Y3023870D01*
X2820670Y2985770D02*
Y3023870D01*
X2868930Y3042310D02*
X2891790D01*
X2868930Y3080410D02*
X2891790D01*
X2868930Y3042310D02*
Y3080410D01*
X2891790Y3042310D02*
Y3080410D01*
X2868930Y3130550D02*
X2891790D01*
X2868930Y3092450D02*
X2891790D01*
Y3130550D01*
X2868930Y3092450D02*
Y3130550D01*
X2838450Y3023870D02*
X2861310D01*
X2838450Y2985770D02*
X2861310D01*
Y3023870D01*
X2838450Y2985770D02*
Y3023870D01*
X346710Y3021330D02*
X369570D01*
X346710Y3059430D02*
X369570D01*
X346710Y3021330D02*
Y3059430D01*
X369570Y3021330D02*
Y3059430D01*
X461670Y3181060D02*
X484530D01*
X461670Y3142960D02*
X484530D01*
Y3181060D01*
X461670Y3142960D02*
Y3181060D01*
Y3094700D02*
Y3117560D01*
X499770Y3094700D02*
Y3117560D01*
X461670D02*
X499770D01*
X461670Y3094700D02*
X499770D01*
X1898650Y1802130D02*
X2103120D01*
X1898650Y2175510D02*
X1898650Y1802130D01*
X1898650Y2175510D02*
X2103120D01*
X2103120Y1802130D01*
X2112010D02*
X2316480D01*
X2112010Y2175510D02*
X2112010Y1802130D01*
X2112010Y2175510D02*
X2316480D01*
X2316480Y1802130D01*
X2325370D02*
X2529840D01*
X2325370Y2175510D02*
X2325370Y1802130D01*
X2325370Y2175510D02*
X2529840D01*
X2529840Y1802130D01*
X2551430Y2350516D02*
Y2614676D01*
X3194050Y2614676D01*
Y2350516D02*
Y2614676D01*
X2551430Y2350516D02*
X3194050Y2350516D01*
X2551430Y2034540D02*
Y2298700D01*
X3194050Y2298700D01*
Y2034540D02*
Y2298700D01*
X2551430Y2034540D02*
X3194050Y2034540D01*
X2551430Y1715516D02*
Y1979676D01*
X3194050Y1979676D01*
Y1715516D02*
Y1979676D01*
X2551430Y1715516D02*
X3194050Y1715516D01*
X1234440Y2175510D02*
X1438910D01*
X1438910Y1802130D01*
X1234440D02*
X1438910D01*
X1234440Y2175510D02*
X1234440Y1802130D01*
X1447800Y2175510D02*
X1652270D01*
X1652270Y1802130D01*
X1447800D02*
X1652270D01*
X1447800Y2175510D02*
X1447800Y1802130D01*
X1663700Y2175510D02*
X1868170D01*
X1868170Y1802130D01*
X1663700D02*
X1868170D01*
X1663700Y2175510D02*
X1663700Y1802130D01*
X571680Y1715516D02*
Y1979676D01*
X1214300Y1979676D01*
Y1715516D02*
Y1979676D01*
X571680Y1715516D02*
X1214300Y1715516D01*
X571680Y2034540D02*
Y2298700D01*
X1214300Y2298700D01*
Y2034540D02*
Y2298700D01*
X571680Y2034540D02*
X1214300Y2034540D01*
X571680Y2350516D02*
Y2614676D01*
X1214300Y2614676D01*
Y2350516D02*
Y2614676D01*
X571680Y2350516D02*
X1214300Y2350516D01*
X3492410Y2297176D02*
X3492410Y1824736D01*
X3215550Y2297176D02*
X3492410D01*
X3215550D02*
X3215550Y1824736D01*
X3492410D01*
X275860Y2297176D02*
X275860Y1824736D01*
X552720D01*
X552720Y2297176D02*
X552720Y1824736D01*
X275860Y2297176D02*
X552720D01*
X2871470Y3023870D02*
X2894330D01*
X2871470Y2985770D02*
X2894330D01*
Y3023870D01*
X2871470Y2985770D02*
Y3023870D01*
X461010Y3067050D02*
Y3089910D01*
X499110Y3067050D02*
Y3089910D01*
X461010D02*
X499110D01*
X461010Y3067050D02*
X499110D01*
X1242040Y2335640D02*
X1557040D01*
X1242040Y2190640D02*
Y2335640D01*
Y2190640D02*
X1557040D01*
Y2335640D01*
X1417300Y2495660D02*
X1732300D01*
X1417300Y2350660D02*
Y2495660D01*
Y2350660D02*
X1732300D01*
Y2495660D01*
X1551920Y2660760D02*
X1866920D01*
X1551920Y2515760D02*
Y2660760D01*
Y2515760D02*
X1866920D01*
Y2660760D01*
X1884660Y2515760D02*
X2199660D01*
Y2660760D01*
X1884660D02*
X2199660D01*
X1884660Y2515760D02*
Y2660760D01*
X2067540Y2350660D02*
X2382540D01*
Y2495660D01*
X2067540D02*
X2382540D01*
X2067540Y2350660D02*
Y2495660D01*
X2214860Y2190640D02*
X2529860D01*
Y2335640D01*
X2214860D02*
X2529860D01*
X2214860Y2190640D02*
Y2335640D01*
X942340Y2865120D02*
X2773680Y2865120D01*
X1717040Y3274055D02*
X1722118D01*
X1719579D01*
Y3258820D01*
X1717040D01*
X1722118D01*
X1729736D02*
Y3268977D01*
X1737353D01*
X1739893Y3266437D01*
Y3258820D01*
X1744971Y3268977D02*
X1750049Y3258820D01*
X1755128Y3268977D01*
X1767824Y3258820D02*
X1762745D01*
X1760206Y3261359D01*
Y3266437D01*
X1762745Y3268977D01*
X1767824D01*
X1770363Y3266437D01*
Y3263898D01*
X1760206D01*
X1775441Y3268977D02*
Y3258820D01*
Y3263898D01*
X1777980Y3266437D01*
X1780520Y3268977D01*
X1783059D01*
X1793215Y3271516D02*
Y3268977D01*
X1790676D01*
X1795755D01*
X1793215D01*
Y3261359D01*
X1795755Y3258820D01*
X1810990D02*
X1805911D01*
X1803372Y3261359D01*
Y3266437D01*
X1805911Y3268977D01*
X1810990D01*
X1813529Y3266437D01*
Y3263898D01*
X1803372D01*
X1818607Y3268977D02*
Y3258820D01*
Y3263898D01*
X1821146Y3266437D01*
X1823685Y3268977D01*
X1826225D01*
X1859234Y3258820D02*
X1849077D01*
X1859234Y3268977D01*
Y3271516D01*
X1856695Y3274055D01*
X1851617D01*
X1849077Y3271516D01*
X1236980Y3251195D02*
X1242058D01*
X1239519D01*
Y3235960D01*
X1236980D01*
X1242058D01*
X1249676D02*
Y3246117D01*
X1257293D01*
X1259833Y3243578D01*
Y3235960D01*
X1264911Y3246117D02*
X1269989Y3235960D01*
X1275068Y3246117D01*
X1287764Y3235960D02*
X1282685D01*
X1280146Y3238499D01*
Y3243578D01*
X1282685Y3246117D01*
X1287764D01*
X1290303Y3243578D01*
Y3241038D01*
X1280146D01*
X1295381Y3246117D02*
Y3235960D01*
Y3241038D01*
X1297920Y3243578D01*
X1300459Y3246117D01*
X1302999D01*
X1313155Y3248656D02*
Y3246117D01*
X1310616D01*
X1315694D01*
X1313155D01*
Y3238499D01*
X1315694Y3235960D01*
X1330930D02*
X1325851D01*
X1323312Y3238499D01*
Y3243578D01*
X1325851Y3246117D01*
X1330930D01*
X1333469Y3243578D01*
Y3241038D01*
X1323312D01*
X1338547Y3246117D02*
Y3235960D01*
Y3241038D01*
X1341086Y3243578D01*
X1343625Y3246117D01*
X1346165D01*
X1369017Y3235960D02*
X1374096D01*
X1371557D01*
Y3251195D01*
X1369017Y3248656D01*
X3403597Y2684775D02*
X3393440D01*
Y2669540D01*
X3403597D01*
X3393440Y2677158D02*
X3398518D01*
X3411214Y2679697D02*
X3416293D01*
X3418832Y2677158D01*
Y2669540D01*
X3411214D01*
X3408675Y2672079D01*
X3411214Y2674618D01*
X3418832D01*
X3423910Y2679697D02*
Y2669540D01*
Y2674618D01*
X3426449Y2677158D01*
X3428989Y2679697D01*
X3431528D01*
X3441684Y2682236D02*
Y2679697D01*
X3439145D01*
X3444224D01*
X3441684D01*
Y2672079D01*
X3444224Y2669540D01*
X3451841Y2684775D02*
Y2669540D01*
Y2677158D01*
X3454380Y2679697D01*
X3459459D01*
X3461998Y2677158D01*
Y2669540D01*
X2804160Y2860035D02*
Y2844800D01*
X2814317D01*
X2829552Y2857496D02*
X2827013Y2860035D01*
X2821934D01*
X2819395Y2857496D01*
Y2847339D01*
X2821934Y2844800D01*
X2827013D01*
X2829552Y2847339D01*
X2834630Y2860035D02*
Y2844800D01*
X2844787D01*
X2860022D02*
X2849865D01*
X2860022Y2854957D01*
Y2857496D01*
X2857483Y2860035D01*
X2852404D01*
X2849865Y2857496D01*
X568960Y2865115D02*
Y2849880D01*
X579117D01*
X594352Y2862576D02*
X591813Y2865115D01*
X586734D01*
X584195Y2862576D01*
Y2852419D01*
X586734Y2849880D01*
X591813D01*
X594352Y2852419D01*
X599430Y2865115D02*
Y2849880D01*
X609587D01*
X614665D02*
X619744D01*
X617204D01*
Y2865115D01*
X614665Y2862576D01*
X944880Y2849875D02*
X949958D01*
X947419D01*
Y2834640D01*
X944880D01*
X949958D01*
X957576D02*
X965193D01*
X967733Y2837179D01*
X965193Y2839718D01*
X960115D01*
X957576Y2842257D01*
X960115Y2844797D01*
X967733D01*
X975350Y2834640D02*
X980428D01*
X982968Y2837179D01*
Y2842257D01*
X980428Y2844797D01*
X975350D01*
X972811Y2842257D01*
Y2837179D01*
X975350Y2834640D01*
X988046D02*
X993124D01*
X990585D01*
Y2849875D01*
X988046D01*
X1003281Y2844797D02*
X1008360D01*
X1010899Y2842257D01*
Y2834640D01*
X1003281D01*
X1000742Y2837179D01*
X1003281Y2839718D01*
X1010899D01*
X1018516Y2847336D02*
Y2844797D01*
X1015977D01*
X1021055D01*
X1018516D01*
Y2837179D01*
X1021055Y2834640D01*
X1028673D02*
X1033751D01*
X1031212D01*
Y2844797D01*
X1028673D01*
X1043908Y2834640D02*
X1048986D01*
X1051525Y2837179D01*
Y2842257D01*
X1048986Y2844797D01*
X1043908D01*
X1041369Y2842257D01*
Y2837179D01*
X1043908Y2834640D01*
X1056604D02*
Y2844797D01*
X1064221D01*
X1066761Y2842257D01*
Y2834640D01*
X2331717Y1739896D02*
X2329178Y1742435D01*
X2324099D01*
X2321560Y1739896D01*
Y1729739D01*
X2324099Y1727200D01*
X2329178D01*
X2331717Y1729739D01*
X2352030Y1742435D02*
Y1727200D01*
X2359648D01*
X2362187Y1729739D01*
Y1732278D01*
X2359648Y1734818D01*
X2352030D01*
X2359648D01*
X2362187Y1737357D01*
Y1739896D01*
X2359648Y1742435D01*
X2352030D01*
X2382500Y1727200D02*
Y1737357D01*
X2387579Y1742435D01*
X2392657Y1737357D01*
Y1727200D01*
Y1734818D01*
X2382500D01*
X1371600Y1717040D02*
Y1727197D01*
X1376678Y1732275D01*
X1381757Y1727197D01*
Y1717040D01*
Y1724657D01*
X1371600D01*
X1402070Y1732275D02*
Y1717040D01*
X1409688D01*
X1412227Y1719579D01*
Y1722118D01*
X1409688Y1724657D01*
X1402070D01*
X1409688D01*
X1412227Y1727197D01*
Y1729736D01*
X1409688Y1732275D01*
X1402070D01*
X1442697Y1729736D02*
X1440158Y1732275D01*
X1435079D01*
X1432540Y1729736D01*
Y1719579D01*
X1435079Y1717040D01*
X1440158D01*
X1442697Y1719579D01*
X3365102Y2449064D02*
X3362562Y2451603D01*
X3357484D01*
X3354945Y2449064D01*
Y2438907D01*
X3357484Y2436368D01*
X3362562D01*
X3365102Y2438907D01*
X3404945Y2451603D02*
Y2436368D01*
X3412562D01*
X3415102Y2438907D01*
Y2441446D01*
X3412562Y2443985D01*
X3404945D01*
X3412562D01*
X3415102Y2446525D01*
Y2449064D01*
X3412562Y2451603D01*
X3404945D01*
X3454945Y2436368D02*
Y2446525D01*
X3460023Y2451603D01*
X3465102Y2446525D01*
Y2436368D01*
Y2443985D01*
X3454945D01*
X402805Y2433828D02*
Y2443985D01*
X407883Y2449063D01*
X412962Y2443985D01*
Y2433828D01*
Y2441445D01*
X402805D01*
X352805Y2449063D02*
Y2433828D01*
X360422D01*
X362962Y2436367D01*
Y2438906D01*
X360422Y2441445D01*
X352805D01*
X360422D01*
X362962Y2443985D01*
Y2446524D01*
X360422Y2449063D01*
X352805D01*
X312417Y2446524D02*
X309877Y2449063D01*
X304799D01*
X302260Y2446524D01*
Y2436367D01*
X304799Y2433828D01*
X309877D01*
X312417Y2436367D01*
X1109989Y3304543D02*
Y3314699D01*
X1115067Y3319778D01*
X1120146Y3314699D01*
Y3304543D01*
Y3312160D01*
X1109989D01*
X1135381Y3317238D02*
X1132842Y3319778D01*
X1127763D01*
X1125224Y3317238D01*
Y3307082D01*
X1127763Y3304543D01*
X1132842D01*
X1135381Y3307082D01*
Y3312160D01*
X1130303D01*
X1140459Y3304543D02*
Y3319778D01*
X1150616Y3304543D01*
Y3319778D01*
X1155694D02*
Y3304543D01*
X1163312D01*
X1165851Y3307082D01*
Y3317238D01*
X1163312Y3319778D01*
X1155694D01*
X2466354Y3355342D02*
Y3370577D01*
X2473972D01*
X2476511Y3368038D01*
Y3362960D01*
X2473972Y3360421D01*
X2466354D01*
X2481589Y3370577D02*
Y3355342D01*
X2486667Y3360421D01*
X2491746Y3355342D01*
Y3370577D01*
X2496824Y3355342D02*
Y3370577D01*
X2501902Y3365499D01*
X2506981Y3370577D01*
Y3355342D01*
X2522216Y3370577D02*
X2512059D01*
Y3355342D01*
X2522216D01*
X2512059Y3362960D02*
X2517137D01*
X2527294Y3355342D02*
Y3370577D01*
X2537451Y3355342D01*
Y3370577D01*
X2552686Y3355342D02*
X2542529D01*
X2552686Y3365499D01*
Y3368038D01*
X2550147Y3370577D01*
X2545069D01*
X2542529Y3368038D01*
X2476504Y3416298D02*
X2471426D01*
X2468887Y3413758D01*
Y3403602D01*
X2471426Y3401063D01*
X2476504D01*
X2479043Y3403602D01*
Y3413758D01*
X2476504Y3416298D01*
X2484122D02*
X2494278D01*
X2489200D01*
Y3401063D01*
X2509513D02*
X2499357D01*
X2509513Y3411219D01*
Y3413758D01*
X2506974Y3416298D01*
X2501896D01*
X2499357Y3413758D01*
X1844053Y3403603D02*
Y3418838D01*
X1851671D01*
X1854210Y3416298D01*
Y3411220D01*
X1851671Y3408681D01*
X1844053D01*
X1859288Y3418838D02*
Y3403603D01*
X1864367Y3408681D01*
X1869445Y3403603D01*
Y3418838D01*
X1874523Y3403603D02*
Y3418838D01*
X1879602Y3413759D01*
X1884680Y3418838D01*
Y3403603D01*
X1899915Y3418838D02*
X1889758D01*
Y3403603D01*
X1899915D01*
X1889758Y3411220D02*
X1894837D01*
X1904993Y3403603D02*
Y3418838D01*
X1915150Y3403603D01*
Y3418838D01*
X1920228Y3403603D02*
X1925307D01*
X1922768D01*
Y3418838D01*
X1920228Y3416298D01*
X1902463Y3370577D02*
X1897385D01*
X1894846Y3368038D01*
Y3357882D01*
X1897385Y3355342D01*
X1902463D01*
X1905002Y3357882D01*
Y3368038D01*
X1902463Y3370577D01*
X1910081D02*
X1920238D01*
X1915159D01*
Y3355342D01*
X1925316D02*
X1930394D01*
X1927855D01*
Y3370577D01*
X1925316Y3368038D01*
X1249687Y3215638D02*
Y3205481D01*
X1254765Y3200403D01*
X1259843Y3205481D01*
Y3215638D01*
X1264922D02*
Y3200403D01*
X1272539D01*
X1275078Y3202942D01*
Y3213098D01*
X1272539Y3215638D01*
X1264922D01*
X1290313Y3213098D02*
X1287774Y3215638D01*
X1282696D01*
X1280157Y3213098D01*
Y3202942D01*
X1282696Y3200403D01*
X1287774D01*
X1290313Y3202942D01*
X1266194Y3169918D02*
X1271272D01*
X1268733D01*
Y3154683D01*
X1266194D01*
X1271272D01*
X1278890Y3167378D02*
X1281429Y3169918D01*
X1286507D01*
X1289046Y3167378D01*
Y3164839D01*
X1286507Y3162300D01*
X1283968D01*
X1286507D01*
X1289046Y3159761D01*
Y3157222D01*
X1286507Y3154683D01*
X1281429D01*
X1278890Y3157222D01*
X1410974Y3213098D02*
X1416052D01*
X1413513D01*
Y3197863D01*
X1410974D01*
X1416052D01*
X1433826D02*
X1423670D01*
X1433826Y3208019D01*
Y3210558D01*
X1431287Y3213098D01*
X1426209D01*
X1423670Y3210558D01*
X1413513Y3172458D02*
X1418591D01*
X1416052D01*
Y3157223D01*
X1413513D01*
X1418591D01*
X1426209D02*
X1431287D01*
X1428748D01*
Y3172458D01*
X1426209Y3169918D01*
X1151901Y3087367D02*
Y3077210D01*
X1156979Y3072132D01*
X1162058Y3077210D01*
Y3087367D01*
X1177293Y3084828D02*
X1174754Y3087367D01*
X1169675D01*
X1167136Y3084828D01*
Y3074671D01*
X1169675Y3072132D01*
X1174754D01*
X1177293Y3074671D01*
X1182371Y3069593D02*
X1192528D01*
X1197606Y3072132D02*
X1202685D01*
X1200145D01*
Y3087367D01*
X1197606Y3084828D01*
X1220459D02*
X1217920Y3087367D01*
X1212841D01*
X1210302Y3084828D01*
Y3074671D01*
X1212841Y3072132D01*
X1217920D01*
X1220459Y3074671D01*
X1421141Y3089907D02*
Y3079750D01*
X1426219Y3074672D01*
X1431298Y3079750D01*
Y3089907D01*
X1446533Y3087368D02*
X1443994Y3089907D01*
X1438915D01*
X1436376Y3087368D01*
Y3077211D01*
X1438915Y3074672D01*
X1443994D01*
X1446533Y3077211D01*
X1451611Y3072133D02*
X1461768D01*
X1466846Y3074672D02*
X1471925D01*
X1469386D01*
Y3089907D01*
X1466846Y3087368D01*
X1479542Y3089907D02*
Y3074672D01*
X1487160D01*
X1489699Y3077211D01*
Y3079750D01*
X1487160Y3082290D01*
X1479542D01*
X1487160D01*
X1489699Y3084829D01*
Y3087368D01*
X1487160Y3089907D01*
X1479542D01*
X1670061Y3087367D02*
Y3077210D01*
X1675139Y3072132D01*
X1680218Y3077210D01*
Y3087367D01*
X1695453Y3084828D02*
X1692914Y3087367D01*
X1687835D01*
X1685296Y3084828D01*
Y3074671D01*
X1687835Y3072132D01*
X1692914D01*
X1695453Y3074671D01*
X1700531Y3069593D02*
X1710688D01*
X1715766Y3072132D02*
X1720845D01*
X1718306D01*
Y3087367D01*
X1715766Y3084828D01*
X1728462Y3072132D02*
Y3082289D01*
X1733541Y3087367D01*
X1738619Y3082289D01*
Y3072132D01*
Y3079749D01*
X1728462D01*
X1920251Y3100067D02*
Y3089910D01*
X1925330Y3084832D01*
X1930408Y3089910D01*
Y3100067D01*
X1945643Y3097528D02*
X1943104Y3100067D01*
X1938026D01*
X1935487Y3097528D01*
Y3087371D01*
X1938026Y3084832D01*
X1943104D01*
X1945643Y3087371D01*
X1950722Y3082293D02*
X1960878D01*
X1976113Y3084832D02*
X1965957D01*
X1976113Y3094989D01*
Y3097528D01*
X1973574Y3100067D01*
X1968496D01*
X1965957Y3097528D01*
X1991349D02*
X1988809Y3100067D01*
X1983731D01*
X1981192Y3097528D01*
Y3087371D01*
X1983731Y3084832D01*
X1988809D01*
X1991349Y3087371D01*
X2186951Y3102607D02*
Y3092450D01*
X2192030Y3087372D01*
X2197108Y3092450D01*
Y3102607D01*
X2212343Y3100068D02*
X2209804Y3102607D01*
X2204726D01*
X2202187Y3100068D01*
Y3089911D01*
X2204726Y3087372D01*
X2209804D01*
X2212343Y3089911D01*
X2217422Y3084833D02*
X2227578D01*
X2242813Y3087372D02*
X2232657D01*
X2242813Y3097529D01*
Y3100068D01*
X2240274Y3102607D01*
X2235196D01*
X2232657Y3100068D01*
X2247892Y3102607D02*
Y3087372D01*
X2255509D01*
X2258049Y3089911D01*
Y3092450D01*
X2255509Y3094990D01*
X2247892D01*
X2255509D01*
X2258049Y3097529D01*
Y3100068D01*
X2255509Y3102607D01*
X2247892D01*
X2438412Y3107687D02*
Y3097531D01*
X2443490Y3092452D01*
X2448568Y3097531D01*
Y3107687D01*
X2463803Y3105148D02*
X2461264Y3107687D01*
X2456186D01*
X2453647Y3105148D01*
Y3094991D01*
X2456186Y3092452D01*
X2461264D01*
X2463803Y3094991D01*
X2468882Y3089913D02*
X2479038D01*
X2494273Y3092452D02*
X2484117D01*
X2494273Y3102609D01*
Y3105148D01*
X2491734Y3107687D01*
X2486656D01*
X2484117Y3105148D01*
X2499352Y3092452D02*
Y3102609D01*
X2504430Y3107687D01*
X2509509Y3102609D01*
Y3092452D01*
Y3100070D01*
X2499352D01*
X1656087Y3195317D02*
Y3185161D01*
X1661165Y3180082D01*
X1666243Y3185161D01*
Y3195317D01*
X1671322D02*
Y3180082D01*
X1678939D01*
X1681478Y3182622D01*
Y3192778D01*
X1678939Y3195317D01*
X1671322D01*
X1696713Y3192778D02*
X1694174Y3195317D01*
X1689096D01*
X1686557Y3192778D01*
Y3182622D01*
X1689096Y3180082D01*
X1694174D01*
X1696713Y3182622D01*
X1675134Y3235958D02*
X1680212D01*
X1677673D01*
Y3220722D01*
X1675134D01*
X1680212D01*
X1697986D02*
X1687830D01*
X1697986Y3230879D01*
Y3233418D01*
X1695447Y3235958D01*
X1690369D01*
X1687830Y3233418D01*
X1832613Y3197857D02*
X1837691D01*
X1835152D01*
Y3182622D01*
X1832613D01*
X1837691D01*
X1845309D02*
X1850387D01*
X1847848D01*
Y3197857D01*
X1845309Y3195318D01*
X1827534Y3235958D02*
X1832612D01*
X1830073D01*
Y3220722D01*
X1827534D01*
X1832612D01*
X1840230Y3233418D02*
X1842769Y3235958D01*
X1847847D01*
X1850386Y3233418D01*
Y3230879D01*
X1847847Y3228340D01*
X1845308D01*
X1847847D01*
X1850386Y3225801D01*
Y3223262D01*
X1847847Y3220722D01*
X1842769D01*
X1840230Y3223262D01*
X312436Y2480307D02*
Y2465072D01*
X322592D01*
X337827Y2477768D02*
X335288Y2480307D01*
X330210D01*
X327671Y2477768D01*
Y2467611D01*
X330210Y2465072D01*
X335288D01*
X337827Y2467611D01*
X342906Y2480307D02*
Y2465072D01*
X353063D01*
X358141D02*
X363219D01*
X360680D01*
Y2480307D01*
X358141Y2477768D01*
X370837Y2462533D02*
X380993D01*
X386072Y2480307D02*
X391150D01*
X388611D01*
Y2465072D01*
X386072D01*
X391150D01*
X398768D02*
Y2475229D01*
X406385D01*
X408924Y2472690D01*
Y2465072D01*
X2745748Y3340097D02*
X2735591D01*
Y3324862D01*
X2745748D01*
X2735591Y3332480D02*
X2740670D01*
X2750827Y3324862D02*
Y3340097D01*
X2758444D01*
X2760983Y3337558D01*
Y3332480D01*
X2758444Y3329941D01*
X2750827D01*
X2766062Y3340097D02*
Y3324862D01*
X2771140Y3329941D01*
X2776218Y3324862D01*
Y3340097D01*
X2781297Y3324862D02*
Y3340097D01*
X2786375Y3335019D01*
X2791454Y3340097D01*
Y3324862D01*
X2806689D02*
X2796532D01*
X2806689Y3335019D01*
Y3337558D01*
X2804149Y3340097D01*
X2799071D01*
X2796532Y3337558D01*
X2730509Y2971802D02*
Y2981959D01*
X2735587Y2987037D01*
X2740666Y2981959D01*
Y2971802D01*
Y2979420D01*
X2730509D01*
X2745744Y2987037D02*
Y2971802D01*
X2753362D01*
X2755901Y2974342D01*
Y2984498D01*
X2753362Y2987037D01*
X2745744D01*
X2771136Y2984498D02*
X2768597Y2987037D01*
X2763518D01*
X2760979Y2984498D01*
Y2974342D01*
X2763518Y2971802D01*
X2768597D01*
X2771136Y2974342D01*
X2786371Y2971802D02*
X2776214D01*
X2786371Y2981959D01*
Y2984498D01*
X2783832Y2987037D01*
X2778753D01*
X2776214Y2984498D01*
X3359166Y2482847D02*
Y2467612D01*
X3369323D01*
X3384558Y2480308D02*
X3382019Y2482847D01*
X3376940D01*
X3374401Y2480308D01*
Y2470151D01*
X3376940Y2467612D01*
X3382019D01*
X3384558Y2470151D01*
X3389636Y2482847D02*
Y2467612D01*
X3399793D01*
X3415028D02*
X3404871D01*
X3415028Y2477769D01*
Y2480308D01*
X3412489Y2482847D01*
X3407410D01*
X3404871Y2480308D01*
X3420106Y2465073D02*
X3430263D01*
X3435341Y2482847D02*
X3440420D01*
X3437881D01*
Y2467612D01*
X3435341D01*
X3440420D01*
X3448037D02*
Y2477769D01*
X3455655D01*
X3458194Y2475230D01*
Y2467612D01*
X2006618Y1736087D02*
Y1720852D01*
X2016775D01*
X2032010Y1733548D02*
X2029471Y1736087D01*
X2024392D01*
X2021853Y1733548D01*
Y1723391D01*
X2024392Y1720852D01*
X2029471D01*
X2032010Y1723391D01*
X2037088Y1736087D02*
Y1720852D01*
X2047245D01*
X2062480D02*
X2052323D01*
X2062480Y1731009D01*
Y1733548D01*
X2059941Y1736087D01*
X2054863D01*
X2052323Y1733548D01*
X2067558Y1718313D02*
X2077715D01*
X2090411Y1736087D02*
X2085333D01*
X2082793Y1733548D01*
Y1723391D01*
X2085333Y1720852D01*
X2090411D01*
X2092950Y1723391D01*
Y1733548D01*
X2090411Y1736087D01*
X2098029Y1731009D02*
Y1723391D01*
X2100568Y1720852D01*
X2108185D01*
Y1731009D01*
X2115803Y1733548D02*
Y1731009D01*
X2113264D01*
X2118342D01*
X2115803D01*
Y1723391D01*
X2118342Y1720852D01*
X1644668Y1733547D02*
Y1718312D01*
X1654824D01*
X1670060Y1731008D02*
X1667520Y1733547D01*
X1662442D01*
X1659903Y1731008D01*
Y1720851D01*
X1662442Y1718312D01*
X1667520D01*
X1670060Y1720851D01*
X1675138Y1733547D02*
Y1718312D01*
X1685294D01*
X1690373D02*
X1695451D01*
X1692912D01*
Y1733547D01*
X1690373Y1731008D01*
X1703069Y1715773D02*
X1713226D01*
X1725921Y1733547D02*
X1720843D01*
X1718304Y1731008D01*
Y1720851D01*
X1720843Y1718312D01*
X1725921D01*
X1728461Y1720851D01*
Y1731008D01*
X1725921Y1733547D01*
X1733539Y1728469D02*
Y1720851D01*
X1736078Y1718312D01*
X1743696D01*
Y1728469D01*
X1751313Y1731008D02*
Y1728469D01*
X1748774D01*
X1753852D01*
X1751313D01*
Y1720851D01*
X1753852Y1718312D01*
X535683Y3336793D02*
X525526D01*
Y3321558D01*
X535683D01*
X525526Y3329175D02*
X530604D01*
X540761Y3321558D02*
Y3336793D01*
X548379D01*
X550918Y3334254D01*
Y3329175D01*
X548379Y3326636D01*
X540761D01*
X555996Y3336793D02*
Y3321558D01*
X561074Y3326636D01*
X566153Y3321558D01*
Y3336793D01*
X571231Y3321558D02*
Y3336793D01*
X576310Y3331715D01*
X581388Y3336793D01*
Y3321558D01*
X586466D02*
X591545D01*
X589006D01*
Y3336793D01*
X586466Y3334254D01*
X515628Y2974343D02*
Y2984499D01*
X520707Y2989578D01*
X525785Y2984499D01*
Y2974343D01*
Y2981960D01*
X515628D01*
X530863Y2989578D02*
Y2974343D01*
X538481D01*
X541020Y2976882D01*
Y2987038D01*
X538481Y2989578D01*
X530863D01*
X556255Y2987038D02*
X553716Y2989578D01*
X548638D01*
X546098Y2987038D01*
Y2976882D01*
X548638Y2974343D01*
X553716D01*
X556255Y2976882D01*
X561333Y2974343D02*
X566412D01*
X563873D01*
Y2989578D01*
X561333Y2987038D01*
X2221250Y3352798D02*
X2211093D01*
Y3337563D01*
X2221250D01*
X2211093Y3345180D02*
X2216172D01*
X2226328Y3337563D02*
Y3352798D01*
X2233946D01*
X2236485Y3350258D01*
Y3345180D01*
X2233946Y3342641D01*
X2226328D01*
X2241564Y3352798D02*
Y3337563D01*
X2246642Y3342641D01*
X2251720Y3337563D01*
Y3352798D01*
X2256799Y3337563D02*
Y3352798D01*
X2261877Y3347719D01*
X2266955Y3352798D01*
Y3337563D01*
X2272034D02*
X2282190Y3347719D01*
X2287269Y3352798D02*
Y3337563D01*
X2294886D01*
X2297426Y3340102D01*
Y3350258D01*
X2294886Y3352798D01*
X2287269D01*
X2312661Y3350258D02*
X2310121Y3352798D01*
X2305043D01*
X2302504Y3350258D01*
Y3340102D01*
X2305043Y3337563D01*
X2310121D01*
X2312661Y3340102D01*
Y3345180D01*
X2307582D01*
X2317739Y3337563D02*
Y3352798D01*
X2325356D01*
X2327896Y3350258D01*
Y3345180D01*
X2325356Y3342641D01*
X2317739D01*
X2332974Y3352798D02*
X2338052D01*
X2335513D01*
Y3337563D01*
X2332974D01*
X2338052D01*
X2353287Y3352798D02*
X2348209D01*
X2345670Y3350258D01*
Y3340102D01*
X2348209Y3337563D01*
X2353287D01*
X2355827Y3340102D01*
Y3350258D01*
X2353287Y3352798D01*
X1635767Y3342643D02*
Y3352799D01*
X1640845Y3357878D01*
X1645923Y3352799D01*
Y3342643D01*
Y3350260D01*
X1635767D01*
X1651002Y3357878D02*
Y3342643D01*
X1658619D01*
X1661158Y3345182D01*
Y3355338D01*
X1658619Y3357878D01*
X1651002D01*
X1676393Y3355338D02*
X1673854Y3357878D01*
X1668776D01*
X1666237Y3355338D01*
Y3345182D01*
X1668776Y3342643D01*
X1673854D01*
X1676393Y3345182D01*
D13*
X2802780Y3125020D02*
X2820780D01*
X2802780Y3037020D02*
X2820780D01*
X2802780D02*
Y3125020D01*
X2820780Y3037020D02*
Y3125020D01*
X630600Y3084990D02*
X648600D01*
X630600Y3172990D02*
X648600D01*
Y3084990D02*
Y3172990D01*
X630600Y3084990D02*
Y3172990D01*
X3041540Y3059880D02*
X3059540D01*
X3041540Y3147880D02*
X3059540D01*
Y3059880D02*
Y3147880D01*
X3041540Y3059880D02*
Y3147880D01*
X372660Y3165370D02*
X390660D01*
X372660Y3077370D02*
X390660D01*
X372660D02*
Y3165370D01*
X390660Y3077370D02*
Y3165370D01*
X3333381Y2345390D02*
X3384181D01*
X3485781Y2362690D02*
Y2412990D01*
X3333381Y2362690D02*
Y2421390D01*
X3485781D01*
Y2345390D02*
Y2362690D01*
Y2412990D02*
Y2421390D01*
X3434981Y2345390D02*
X3485781D01*
X3384181D02*
X3434981D01*
X3333381D02*
Y2362690D01*
X2246059Y1769410D02*
X2296859D01*
X2144459Y1701810D02*
Y1752110D01*
X2296859Y1693410D02*
Y1752110D01*
X2144459Y1693410D02*
X2296859D01*
X2144459Y1752110D02*
Y1769410D01*
Y1693410D02*
Y1701810D01*
Y1769410D02*
X2195259D01*
X2246059D01*
X2296859Y1752110D02*
Y1769410D01*
X283781Y2345390D02*
X334581D01*
X436181Y2362690D02*
Y2412990D01*
X283781Y2362690D02*
Y2421390D01*
X436181D01*
Y2345390D02*
Y2362690D01*
Y2412990D02*
Y2421390D01*
X385381Y2345390D02*
X436181D01*
X334581D02*
X385381D01*
X283781D02*
Y2362690D01*
X1572959Y1766870D02*
X1623759D01*
X1471359Y1699270D02*
Y1749570D01*
X1623759Y1690870D02*
Y1749570D01*
X1471359Y1690870D02*
X1623759D01*
X1471359Y1749570D02*
Y1766870D01*
Y1690870D02*
Y1699270D01*
Y1766870D02*
X1522159D01*
X1572959D01*
X1623759Y1749570D02*
Y1766870D01*
X3145790Y2795270D02*
X3260090D01*
X3145790Y2757170D02*
Y2795270D01*
Y2757170D02*
X3260090D01*
Y2795270D01*
X3197807Y2763638D02*
Y2789038D01*
X3207967Y2763638D02*
Y2789038D01*
Y2776338D02*
X3221937D01*
X3183837D02*
X3197807D01*
X1692370Y2317006D02*
Y2304510D01*
X1698618D01*
X1700701Y2306593D01*
Y2308675D01*
X1698618Y2310758D01*
X1692370D01*
X1698618D01*
X1700701Y2312841D01*
Y2314923D01*
X1698618Y2317006D01*
X1692370D01*
X1711114D02*
X1706949D01*
X1704866Y2314923D01*
Y2306593D01*
X1706949Y2304510D01*
X1711114D01*
X1713197Y2306593D01*
Y2314923D01*
X1711114Y2317006D01*
X1723610D02*
X1719445D01*
X1717362Y2314923D01*
Y2306593D01*
X1719445Y2304510D01*
X1723610D01*
X1725693Y2306593D01*
Y2314923D01*
X1723610Y2317006D01*
X1738188Y2314923D02*
X1736106Y2317006D01*
X1731940D01*
X1729858Y2314923D01*
Y2312841D01*
X1731940Y2310758D01*
X1736106D01*
X1738188Y2308675D01*
Y2306593D01*
X1736106Y2304510D01*
X1731940D01*
X1729858Y2306593D01*
X1742354Y2317006D02*
X1750685D01*
X1746519D01*
Y2304510D01*
X1754850Y2317006D02*
X1763180Y2304510D01*
Y2317006D02*
X1754850Y2304510D01*
X1767346Y2317006D02*
Y2304510D01*
X1775676D01*
X1779842Y2310758D02*
X1788172D01*
X1792338Y2314923D02*
X1794420Y2317006D01*
X1798586D01*
X1800668Y2314923D01*
Y2312841D01*
X1798586Y2310758D01*
X1796503D01*
X1798586D01*
X1800668Y2308675D01*
Y2306593D01*
X1798586Y2304510D01*
X1794420D01*
X1792338Y2306593D01*
X1804834Y2304510D02*
Y2317006D01*
X1811082D01*
X1813164Y2314923D01*
Y2310758D01*
X1811082Y2308675D01*
X1804834D01*
X1817330Y2317006D02*
Y2304510D01*
Y2310758D01*
X1825660D01*
Y2317006D01*
Y2304510D01*
X1838156Y2314923D02*
X1836073Y2317006D01*
X1831908D01*
X1829826Y2314923D01*
Y2306593D01*
X1831908Y2304510D01*
X1836073D01*
X1838156Y2306593D01*
Y2310758D01*
X1833991D01*
X1842321Y2304510D02*
Y2312841D01*
X1846487Y2317006D01*
X1850652Y2312841D01*
Y2304510D01*
Y2310758D01*
X1842321D01*
X1854818Y2304510D02*
Y2317006D01*
X1863148Y2304510D01*
Y2317006D01*
X1867314D02*
X1871479D01*
X1869396D01*
Y2304510D01*
X1867314D01*
X1871479D01*
X1877727D02*
Y2317006D01*
X1886057Y2304510D01*
Y2317006D01*
X1890223D02*
Y2308675D01*
X1894388Y2304510D01*
X1898553Y2308675D01*
Y2317006D01*
X1915215D02*
X1919380D01*
X1917297D01*
Y2304510D01*
X1915215D01*
X1919380D01*
X1925628D02*
Y2312841D01*
X1931876D01*
X1933959Y2310758D01*
Y2304510D01*
X1940206Y2314923D02*
Y2312841D01*
X1938124D01*
X1942289D01*
X1940206D01*
Y2306593D01*
X1942289Y2304510D01*
X1954785D02*
X1950620D01*
X1948537Y2306593D01*
Y2310758D01*
X1950620Y2312841D01*
X1954785D01*
X1956868Y2310758D01*
Y2308675D01*
X1948537D01*
X1961033Y2312841D02*
Y2304510D01*
Y2308675D01*
X1963116Y2310758D01*
X1965199Y2312841D01*
X1967281D01*
X1975612Y2304510D02*
Y2314923D01*
Y2310758D01*
X1973529D01*
X1977694D01*
X1975612D01*
Y2314923D01*
X1977694Y2317006D01*
X1986025Y2312841D02*
X1990190D01*
X1992273Y2310758D01*
Y2304510D01*
X1986025D01*
X1983942Y2306593D01*
X1986025Y2308675D01*
X1992273D01*
X2004769Y2312841D02*
X1998521D01*
X1996438Y2310758D01*
Y2306593D01*
X1998521Y2304510D01*
X2004769D01*
X2015182D02*
X2011017D01*
X2008934Y2306593D01*
Y2310758D01*
X2011017Y2312841D01*
X2015182D01*
X2017265Y2310758D01*
Y2308675D01*
X2008934D01*
X2033926Y2317006D02*
Y2304510D01*
X2040174D01*
X2042257Y2306593D01*
Y2308675D01*
X2040174Y2310758D01*
X2033926D01*
X2040174D01*
X2042257Y2312841D01*
Y2314923D01*
X2040174Y2317006D01*
X2033926D01*
X2048505Y2304510D02*
X2052670D01*
X2054753Y2306593D01*
Y2310758D01*
X2052670Y2312841D01*
X2048505D01*
X2046422Y2310758D01*
Y2306593D01*
X2048505Y2304510D01*
X2061001Y2312841D02*
X2065166D01*
X2067249Y2310758D01*
Y2304510D01*
X2061001D01*
X2058918Y2306593D01*
X2061001Y2308675D01*
X2067249D01*
X2071414Y2312841D02*
Y2304510D01*
Y2308675D01*
X2073497Y2310758D01*
X2075579Y2312841D01*
X2077662D01*
X2092241Y2317006D02*
Y2304510D01*
X2085993D01*
X2083910Y2306593D01*
Y2310758D01*
X2085993Y2312841D01*
X2092241D01*
D14*
X2106540Y3073480D02*
Y3083480D01*
X2089540Y3073480D02*
Y3083480D01*
X2375780Y3073480D02*
Y3083480D01*
X2358780Y3073480D02*
Y3083480D01*
X2642480Y3073480D02*
Y3083480D01*
X2625480Y3073480D02*
Y3083480D01*
X1963140Y2683020D02*
X1995140D01*
X1963140Y2717020D02*
X1995140D01*
X2215660Y2668780D02*
Y2700780D01*
X2249660Y2668780D02*
Y2700780D01*
X2464580Y2666240D02*
Y2698240D01*
X2498580Y2666240D02*
Y2698240D01*
X1308980Y3068400D02*
Y3078400D01*
X1291980Y3068400D02*
Y3078400D01*
X1575680Y3073480D02*
Y3083480D01*
X1558680Y3073480D02*
Y3083480D01*
X1842380Y3073480D02*
Y3083480D01*
X1825380Y3073480D02*
Y3083480D01*
X1131080Y2671320D02*
Y2703320D01*
X1165080Y2671320D02*
Y2703320D01*
X1397780Y2671320D02*
Y2703320D01*
X1431780Y2671320D02*
Y2703320D01*
X1635000Y2714480D02*
X1667000D01*
X1635000Y2680480D02*
X1667000D01*
D15*
X433578Y2594860D02*
Y2587750D01*
X437133Y2584195D01*
X440688Y2587750D01*
Y2594860D01*
X451352Y2593083D02*
X449575Y2594860D01*
X446020D01*
X444243Y2593083D01*
Y2585973D01*
X446020Y2584195D01*
X449575D01*
X451352Y2585973D01*
X454907Y2582418D02*
X462017D01*
X472681Y2584195D02*
X465572D01*
X472681Y2591305D01*
Y2593083D01*
X470904Y2594860D01*
X467349D01*
X465572Y2593083D01*
X483346D02*
X481568Y2594860D01*
X478014D01*
X476236Y2593083D01*
Y2585973D01*
X478014Y2584195D01*
X481568D01*
X483346Y2585973D01*
X433578Y2610100D02*
Y2602990D01*
X437133Y2599435D01*
X440688Y2602990D01*
Y2610100D01*
X451352Y2608322D02*
X449575Y2610100D01*
X446020D01*
X444243Y2608322D01*
Y2601213D01*
X446020Y2599435D01*
X449575D01*
X451352Y2601213D01*
X454907Y2597658D02*
X462017D01*
X472681Y2599435D02*
X465572D01*
X472681Y2606545D01*
Y2608322D01*
X470904Y2610100D01*
X467349D01*
X465572Y2608322D01*
X476236Y2610100D02*
Y2599435D01*
X481568D01*
X483346Y2601213D01*
Y2602990D01*
X481568Y2604768D01*
X476236D01*
X481568D01*
X483346Y2606545D01*
Y2608322D01*
X481568Y2610100D01*
X476236D01*
X433578Y2625340D02*
Y2618230D01*
X437133Y2614675D01*
X440688Y2618230D01*
Y2625340D01*
X451352Y2623563D02*
X449575Y2625340D01*
X446020D01*
X444243Y2623563D01*
Y2616453D01*
X446020Y2614675D01*
X449575D01*
X451352Y2616453D01*
X454907Y2612898D02*
X462017D01*
X472681Y2614675D02*
X465572D01*
X472681Y2621785D01*
Y2623563D01*
X470904Y2625340D01*
X467349D01*
X465572Y2623563D01*
X476236Y2614675D02*
Y2621785D01*
X479791Y2625340D01*
X483346Y2621785D01*
Y2614675D01*
Y2620008D01*
X476236D01*
X433578Y2564380D02*
X437133D01*
X435355D01*
Y2553715D01*
X433578D01*
X437133D01*
X442465Y2564380D02*
Y2553715D01*
X449575D01*
X453130Y2551938D02*
X460239D01*
X470904Y2553715D02*
X463794D01*
X470904Y2560825D01*
Y2562603D01*
X469127Y2564380D01*
X465572D01*
X463794Y2562603D01*
X474459Y2564380D02*
Y2553715D01*
X479791D01*
X481568Y2555493D01*
Y2557270D01*
X479791Y2559048D01*
X474459D01*
X479791D01*
X481568Y2560825D01*
Y2562603D01*
X479791Y2564380D01*
X474459D01*
X433578Y2579620D02*
X437133D01*
X435355D01*
Y2568955D01*
X433578D01*
X437133D01*
X442465Y2579620D02*
Y2568955D01*
X449575D01*
X453130Y2567178D02*
X460239D01*
X470904Y2568955D02*
X463794D01*
X470904Y2576065D01*
Y2577842D01*
X469127Y2579620D01*
X465572D01*
X463794Y2577842D01*
X474459Y2568955D02*
Y2576065D01*
X478014Y2579620D01*
X481568Y2576065D01*
Y2568955D01*
Y2574288D01*
X474459D01*
X433578Y2549140D02*
X437133D01*
X435355D01*
Y2538475D01*
X433578D01*
X437133D01*
X442465Y2549140D02*
Y2538475D01*
X449575D01*
X453130Y2536698D02*
X460239D01*
X470904Y2538475D02*
X463794D01*
X470904Y2545585D01*
Y2547363D01*
X469127Y2549140D01*
X465572D01*
X463794Y2547363D01*
X481568D02*
X479791Y2549140D01*
X476236D01*
X474459Y2547363D01*
Y2540253D01*
X476236Y2538475D01*
X479791D01*
X481568Y2540253D01*
X433578Y2531360D02*
Y2524250D01*
X437133Y2520695D01*
X440688Y2524250D01*
Y2531360D01*
X444243D02*
Y2520695D01*
X449575D01*
X451352Y2522473D01*
Y2529583D01*
X449575Y2531360D01*
X444243D01*
X462017Y2529583D02*
X460239Y2531360D01*
X456684D01*
X454907Y2529583D01*
Y2522473D01*
X456684Y2520695D01*
X460239D01*
X462017Y2522473D01*
X465572Y2518918D02*
X472681D01*
X483346Y2520695D02*
X476236D01*
X483346Y2527805D01*
Y2529583D01*
X481568Y2531360D01*
X478014D01*
X476236Y2529583D01*
X499618Y2521458D02*
Y2528568D01*
X503173Y2532122D01*
X506728Y2528568D01*
Y2521458D01*
Y2526790D01*
X499618D01*
X515615Y2521458D02*
Y2532122D01*
X510283Y2526790D01*
X517392D01*
X499618Y2539238D02*
Y2546348D01*
X503173Y2549902D01*
X506728Y2546348D01*
Y2539238D01*
Y2544570D01*
X499618D01*
X510283Y2539238D02*
X513837D01*
X512060D01*
Y2549902D01*
X510283Y2548125D01*
X499618Y2569718D02*
Y2576828D01*
X503173Y2580382D01*
X506728Y2576828D01*
Y2569718D01*
Y2575050D01*
X499618D01*
X517392Y2569718D02*
X510283D01*
X517392Y2576828D01*
Y2578605D01*
X515615Y2580382D01*
X512060D01*
X510283Y2578605D01*
X499618Y2554478D02*
Y2561588D01*
X503173Y2565143D01*
X506728Y2561588D01*
Y2554478D01*
Y2559810D01*
X499618D01*
X510283Y2563365D02*
X512060Y2565143D01*
X515615D01*
X517392Y2563365D01*
Y2561588D01*
X515615Y2559810D01*
X513837D01*
X515615D01*
X517392Y2558033D01*
Y2556255D01*
X515615Y2554478D01*
X512060D01*
X510283Y2556255D01*
X499618Y2626103D02*
Y2615438D01*
X504950D01*
X506728Y2617215D01*
Y2618993D01*
X504950Y2620770D01*
X499618D01*
X504950D01*
X506728Y2622548D01*
Y2624325D01*
X504950Y2626103D01*
X499618D01*
X510283Y2615438D02*
X513837D01*
X512060D01*
Y2626103D01*
X510283Y2624325D01*
X499618Y2610862D02*
Y2600198D01*
X504950D01*
X506728Y2601975D01*
Y2603753D01*
X504950Y2605530D01*
X499618D01*
X504950D01*
X506728Y2607308D01*
Y2609085D01*
X504950Y2610862D01*
X499618D01*
X517392Y2600198D02*
X510283D01*
X517392Y2607308D01*
Y2609085D01*
X515615Y2610862D01*
X512060D01*
X510283Y2609085D01*
X499618Y2595623D02*
Y2584958D01*
X504950D01*
X506728Y2586736D01*
Y2588513D01*
X504950Y2590290D01*
X499618D01*
X504950D01*
X506728Y2592068D01*
Y2593845D01*
X504950Y2595623D01*
X499618D01*
X510283Y2593845D02*
X512060Y2595623D01*
X515615D01*
X517392Y2593845D01*
Y2592068D01*
X515615Y2590290D01*
X513837D01*
X515615D01*
X517392Y2588513D01*
Y2586736D01*
X515615Y2584958D01*
X512060D01*
X510283Y2586736D01*
X506728Y2715765D02*
X504950Y2717542D01*
X501395D01*
X499618Y2715765D01*
Y2708655D01*
X501395Y2706878D01*
X504950D01*
X506728Y2708655D01*
X510283Y2715765D02*
X512060Y2717542D01*
X515615D01*
X517392Y2715765D01*
Y2713988D01*
X515615Y2712210D01*
X513837D01*
X515615D01*
X517392Y2710433D01*
Y2708655D01*
X515615Y2706878D01*
X512060D01*
X510283Y2708655D01*
X506728Y2731005D02*
X504950Y2732783D01*
X501395D01*
X499618Y2731005D01*
Y2723895D01*
X501395Y2722118D01*
X504950D01*
X506728Y2723895D01*
X517392Y2722118D02*
X510283D01*
X517392Y2729228D01*
Y2731005D01*
X515615Y2732783D01*
X512060D01*
X510283Y2731005D01*
X506728Y2746245D02*
X504950Y2748022D01*
X501395D01*
X499618Y2746245D01*
Y2739135D01*
X501395Y2737358D01*
X504950D01*
X506728Y2739135D01*
X510283Y2737358D02*
X513837D01*
X512060D01*
Y2748022D01*
X510283Y2746245D01*
X499618Y2687062D02*
Y2676398D01*
X504950D01*
X506728Y2678175D01*
Y2685285D01*
X504950Y2687062D01*
X499618D01*
X517392Y2676398D02*
X510283D01*
X517392Y2683508D01*
Y2685285D01*
X515615Y2687062D01*
X512060D01*
X510283Y2685285D01*
X499618Y2702303D02*
Y2691638D01*
X504950D01*
X506728Y2693416D01*
Y2700525D01*
X504950Y2702303D01*
X499618D01*
X510283Y2691638D02*
X513837D01*
X512060D01*
Y2702303D01*
X510283Y2700525D01*
X499618Y2671823D02*
Y2661158D01*
X504950D01*
X506728Y2662935D01*
Y2670045D01*
X504950Y2671823D01*
X499618D01*
X510283Y2670045D02*
X512060Y2671823D01*
X515615D01*
X517392Y2670045D01*
Y2668268D01*
X515615Y2666490D01*
X513837D01*
X515615D01*
X517392Y2664713D01*
Y2662935D01*
X515615Y2661158D01*
X512060D01*
X510283Y2662935D01*
X499618Y2654042D02*
Y2643378D01*
X504950D01*
X506728Y2645155D01*
Y2652265D01*
X504950Y2654042D01*
X499618D01*
X515615Y2643378D02*
Y2654042D01*
X510283Y2648710D01*
X517392D01*
X433578Y2653280D02*
Y2646170D01*
X437133Y2642615D01*
X440688Y2646170D01*
Y2653280D01*
X444243D02*
Y2642615D01*
X449575D01*
X451352Y2644393D01*
Y2651502D01*
X449575Y2653280D01*
X444243D01*
X462017Y2651502D02*
X460239Y2653280D01*
X456684D01*
X454907Y2651502D01*
Y2644393D01*
X456684Y2642615D01*
X460239D01*
X462017Y2644393D01*
X465572Y2640838D02*
X472681D01*
X476236Y2642615D02*
X479791D01*
X478014D01*
Y2653280D01*
X476236Y2651502D01*
X433578Y2671060D02*
X437133D01*
X435355D01*
Y2660396D01*
X433578D01*
X437133D01*
X442465Y2671060D02*
Y2660396D01*
X449575D01*
X453130Y2658618D02*
X460239D01*
X463794Y2660396D02*
X467349D01*
X465572D01*
Y2671060D01*
X463794Y2669283D01*
X479791D02*
X478014Y2671060D01*
X474459D01*
X472681Y2669283D01*
Y2662173D01*
X474459Y2660396D01*
X478014D01*
X479791Y2662173D01*
X433578Y2701540D02*
X437133D01*
X435355D01*
Y2690876D01*
X433578D01*
X437133D01*
X442465Y2701540D02*
Y2690876D01*
X449575D01*
X453130Y2689098D02*
X460239D01*
X463794Y2690876D02*
X467349D01*
X465572D01*
Y2701540D01*
X463794Y2699763D01*
X472681Y2690876D02*
Y2697985D01*
X476236Y2701540D01*
X479791Y2697985D01*
Y2690876D01*
Y2696208D01*
X472681D01*
X433578Y2686300D02*
X437133D01*
X435355D01*
Y2675635D01*
X433578D01*
X437133D01*
X442465Y2686300D02*
Y2675635D01*
X449575D01*
X453130Y2673858D02*
X460239D01*
X463794Y2675635D02*
X467349D01*
X465572D01*
Y2686300D01*
X463794Y2684522D01*
X472681Y2686300D02*
Y2675635D01*
X478014D01*
X479791Y2677413D01*
Y2679190D01*
X478014Y2680968D01*
X472681D01*
X478014D01*
X479791Y2682745D01*
Y2684522D01*
X478014Y2686300D01*
X472681D01*
X433578Y2747260D02*
Y2740150D01*
X437133Y2736595D01*
X440688Y2740150D01*
Y2747260D01*
X451352Y2745482D02*
X449575Y2747260D01*
X446020D01*
X444243Y2745482D01*
Y2738373D01*
X446020Y2736595D01*
X449575D01*
X451352Y2738373D01*
X454907Y2734818D02*
X462017D01*
X465572Y2736595D02*
X469127D01*
X467349D01*
Y2747260D01*
X465572Y2745482D01*
X474459Y2736595D02*
Y2743705D01*
X478014Y2747260D01*
X481568Y2743705D01*
Y2736595D01*
Y2741928D01*
X474459D01*
X443228Y2769105D02*
X441450Y2770883D01*
X437895D01*
X436118Y2769105D01*
Y2761996D01*
X437895Y2760218D01*
X441450D01*
X443228Y2761996D01*
X446782Y2770883D02*
Y2760218D01*
Y2765550D01*
X448560Y2767328D01*
X452115D01*
X453892Y2765550D01*
Y2760218D01*
X459225Y2767328D02*
X462779D01*
X464557Y2765550D01*
Y2760218D01*
X459225D01*
X457447Y2761996D01*
X459225Y2763773D01*
X464557D01*
X468112Y2760218D02*
Y2767328D01*
X473444D01*
X475221Y2765550D01*
Y2760218D01*
X478776D02*
Y2767328D01*
X484109D01*
X485886Y2765550D01*
Y2760218D01*
X494773D02*
X491218D01*
X489441Y2761996D01*
Y2765550D01*
X491218Y2767328D01*
X494773D01*
X496550Y2765550D01*
Y2763773D01*
X489441D01*
X500105Y2760218D02*
X503660D01*
X501883D01*
Y2770883D01*
X500105D01*
X508992Y2760218D02*
X514325D01*
X516102Y2761996D01*
X514325Y2763773D01*
X510770D01*
X508992Y2765550D01*
X510770Y2767328D01*
X516102D01*
X433578Y2732020D02*
Y2724910D01*
X437133Y2721355D01*
X440688Y2724910D01*
Y2732020D01*
X451352Y2730243D02*
X449575Y2732020D01*
X446020D01*
X444243Y2730243D01*
Y2723133D01*
X446020Y2721355D01*
X449575D01*
X451352Y2723133D01*
X454907Y2719578D02*
X462017D01*
X465572Y2721355D02*
X469127D01*
X467349D01*
Y2732020D01*
X465572Y2730243D01*
X474459Y2732020D02*
Y2721355D01*
X479791D01*
X481568Y2723133D01*
Y2724910D01*
X479791Y2726688D01*
X474459D01*
X479791D01*
X481568Y2728465D01*
Y2730243D01*
X479791Y2732020D01*
X474459D01*
X433578Y2716780D02*
Y2709670D01*
X437133Y2706115D01*
X440688Y2709670D01*
Y2716780D01*
X451352Y2715002D02*
X449575Y2716780D01*
X446020D01*
X444243Y2715002D01*
Y2707893D01*
X446020Y2706115D01*
X449575D01*
X451352Y2707893D01*
X454907Y2704338D02*
X462017D01*
X465572Y2706115D02*
X469127D01*
X467349D01*
Y2716780D01*
X465572Y2715002D01*
X481568D02*
X479791Y2716780D01*
X476236D01*
X474459Y2715002D01*
Y2707893D01*
X476236Y2706115D01*
X479791D01*
X481568Y2707893D01*
X1873248Y3245862D02*
X1866138D01*
Y3235198D01*
X1873248D01*
X1866138Y3240530D02*
X1869693D01*
X1876803Y3235198D02*
Y3245862D01*
X1882135D01*
X1883912Y3244085D01*
Y3240530D01*
X1882135Y3238753D01*
X1876803D01*
X1887467Y3245862D02*
Y3235198D01*
X1891022Y3238753D01*
X1894577Y3235198D01*
Y3245862D01*
X1898132Y3235198D02*
Y3245862D01*
X1901687Y3242308D01*
X1905241Y3245862D01*
Y3235198D01*
X1866138Y3219958D02*
X1869693D01*
X1867915D01*
Y3230623D01*
X1866138Y3228845D01*
X1875025Y3219958D02*
Y3227068D01*
X1878580Y3230623D01*
X1882135Y3227068D01*
Y3219958D01*
Y3225290D01*
X1875025D01*
X1885690Y3219958D02*
X1892799Y3227068D01*
X1896354Y3230623D02*
Y3219958D01*
X1901687D01*
X1903464Y3221736D01*
Y3223513D01*
X1901687Y3225290D01*
X1896354D01*
X1901687D01*
X1903464Y3227068D01*
Y3228845D01*
X1901687Y3230623D01*
X1896354D01*
X1873248Y3204718D02*
X1866138D01*
X1873248Y3211828D01*
Y3213605D01*
X1871470Y3215382D01*
X1867915D01*
X1866138Y3213605D01*
X1876803Y3204718D02*
Y3211828D01*
X1880357Y3215382D01*
X1883912Y3211828D01*
Y3204718D01*
Y3210050D01*
X1876803D01*
X1887467Y3204718D02*
X1894577Y3211828D01*
X1898132Y3215382D02*
Y3204718D01*
X1903464D01*
X1905241Y3206495D01*
Y3208273D01*
X1903464Y3210050D01*
X1898132D01*
X1903464D01*
X1905241Y3211828D01*
Y3213605D01*
X1903464Y3215382D01*
X1898132D01*
X1866138Y3198365D02*
X1867915Y3200143D01*
X1871470D01*
X1873248Y3198365D01*
Y3196588D01*
X1871470Y3194810D01*
X1869693D01*
X1871470D01*
X1873248Y3193033D01*
Y3191255D01*
X1871470Y3189478D01*
X1867915D01*
X1866138Y3191255D01*
X1876803Y3189478D02*
Y3196588D01*
X1880357Y3200143D01*
X1883912Y3196588D01*
Y3189478D01*
Y3194810D01*
X1876803D01*
X1887467Y3189478D02*
X1894577Y3196588D01*
X1898132Y3200143D02*
Y3189478D01*
X1903464D01*
X1905241Y3191255D01*
Y3193033D01*
X1903464Y3194810D01*
X1898132D01*
X1903464D01*
X1905241Y3196588D01*
Y3198365D01*
X1903464Y3200143D01*
X1898132D01*
X1465070Y3166618D02*
Y3177282D01*
X1459738Y3171950D01*
X1466848D01*
X1470403Y3177282D02*
Y3166618D01*
X1475735D01*
X1477512Y3168395D01*
Y3170173D01*
X1475735Y3171950D01*
X1470403D01*
X1475735D01*
X1477512Y3173728D01*
Y3175505D01*
X1475735Y3177282D01*
X1470403D01*
X1481067Y3166618D02*
X1488177Y3173728D01*
X1491732Y3166618D02*
Y3173728D01*
X1495287Y3177282D01*
X1498841Y3173728D01*
Y3166618D01*
Y3171950D01*
X1491732D01*
X1466848Y3192523D02*
X1459738D01*
Y3187190D01*
X1463293Y3188968D01*
X1465070D01*
X1466848Y3187190D01*
Y3183635D01*
X1465070Y3181858D01*
X1461515D01*
X1459738Y3183635D01*
X1470403Y3192523D02*
Y3181858D01*
X1475735D01*
X1477512Y3183635D01*
Y3185413D01*
X1475735Y3187190D01*
X1470403D01*
X1475735D01*
X1477512Y3188968D01*
Y3190745D01*
X1475735Y3192523D01*
X1470403D01*
X1481067Y3181858D02*
X1488177Y3188968D01*
X1491732Y3181858D02*
Y3188968D01*
X1495287Y3192523D01*
X1498841Y3188968D01*
Y3181858D01*
Y3187190D01*
X1491732D01*
X1466848Y3207762D02*
X1463293Y3205985D01*
X1459738Y3202430D01*
Y3198875D01*
X1461515Y3197098D01*
X1465070D01*
X1466848Y3198875D01*
Y3200653D01*
X1465070Y3202430D01*
X1459738D01*
X1470403Y3207762D02*
Y3197098D01*
X1475735D01*
X1477512Y3198875D01*
Y3200653D01*
X1475735Y3202430D01*
X1470403D01*
X1475735D01*
X1477512Y3204208D01*
Y3205985D01*
X1475735Y3207762D01*
X1470403D01*
X1481067Y3197098D02*
X1488177Y3204208D01*
X1491732Y3197098D02*
Y3204208D01*
X1495287Y3207762D01*
X1498841Y3204208D01*
Y3197098D01*
Y3202430D01*
X1491732D01*
X1466848Y3223003D02*
X1459738D01*
Y3212338D01*
X1466848D01*
X1459738Y3217670D02*
X1463293D01*
X1470403Y3212338D02*
Y3223003D01*
X1475735D01*
X1477512Y3221225D01*
Y3217670D01*
X1475735Y3215893D01*
X1470403D01*
X1481067Y3223003D02*
Y3212338D01*
X1484622Y3215893D01*
X1488177Y3212338D01*
Y3223003D01*
X1491732Y3212338D02*
Y3223003D01*
X1495287Y3219448D01*
X1498841Y3223003D01*
Y3212338D01*
X2846068Y2814062D02*
X2844290Y2815840D01*
X2840735D01*
X2838958Y2814062D01*
Y2806953D01*
X2840735Y2805175D01*
X2844290D01*
X2846068Y2806953D01*
X2851400Y2805175D02*
Y2814062D01*
Y2810508D01*
X2849622D01*
X2853177D01*
X2851400D01*
Y2814062D01*
X2853177Y2815840D01*
X2858510Y2803398D02*
X2865620D01*
X2869174Y2805175D02*
Y2812285D01*
X2872729Y2815840D01*
X2876284Y2812285D01*
Y2805175D01*
Y2810508D01*
X2869174D01*
X2861308Y2781042D02*
X2859530Y2782820D01*
X2855975D01*
X2854198Y2781042D01*
Y2773933D01*
X2855975Y2772155D01*
X2859530D01*
X2861308Y2773933D01*
X2866640Y2772155D02*
Y2781042D01*
Y2777488D01*
X2864862D01*
X2868417D01*
X2866640D01*
Y2781042D01*
X2868417Y2782820D01*
X2873750Y2770378D02*
X2880859D01*
X2884414Y2782820D02*
Y2772155D01*
X2889746D01*
X2891524Y2773933D01*
Y2775710D01*
X2889746Y2777488D01*
X2884414D01*
X2889746D01*
X2891524Y2779265D01*
Y2781042D01*
X2889746Y2782820D01*
X2884414D01*
X2837937Y2713482D02*
X2827273D01*
Y2706372D01*
X2823718Y2699263D02*
Y2697485D01*
X2825495Y2695708D01*
X2834383D01*
Y2701040D01*
X2832605Y2702817D01*
X2829050D01*
X2827273Y2701040D01*
Y2695708D01*
X2825495Y2692153D02*
Y2685043D01*
X2827273Y2681488D02*
X2834383D01*
X2837937Y2677933D01*
X2834383Y2674379D01*
X2827273D01*
X2832605D01*
Y2681488D01*
X2884168Y2748022D02*
X2882390Y2749800D01*
X2878835D01*
X2877058Y2748022D01*
Y2740913D01*
X2878835Y2739135D01*
X2882390D01*
X2884168Y2740913D01*
X2889500Y2739135D02*
Y2748022D01*
Y2744468D01*
X2887722D01*
X2891277D01*
X2889500D01*
Y2748022D01*
X2891277Y2749800D01*
X2896610Y2737358D02*
X2903719D01*
X2914384Y2748022D02*
X2912607Y2749800D01*
X2909052D01*
X2907274Y2748022D01*
Y2740913D01*
X2909052Y2739135D01*
X2912607D01*
X2914384Y2740913D01*
X3006598Y2752340D02*
Y2741675D01*
X3013708D01*
X3017263Y2739898D02*
X3024372D01*
X3035037Y2750562D02*
X3033259Y2752340D01*
X3029705D01*
X3027927Y2750562D01*
Y2743453D01*
X3029705Y2741675D01*
X3033259D01*
X3035037Y2743453D01*
X3038592Y2741675D02*
Y2752340D01*
X3042147Y2748785D01*
X3045701Y2752340D01*
Y2741675D01*
X2943098Y2798060D02*
Y2787395D01*
X2950208D01*
X2955540D02*
Y2796282D01*
Y2792728D01*
X2953763D01*
X2957318D01*
X2955540D01*
Y2796282D01*
X2957318Y2798060D01*
X2962650Y2785618D02*
X2969760D01*
X2973314Y2787395D02*
Y2794505D01*
X2976869Y2798060D01*
X2980424Y2794505D01*
Y2787395D01*
Y2792728D01*
X2973314D01*
X2943098Y2721860D02*
Y2711195D01*
X2950208D01*
X2955540D02*
Y2720082D01*
Y2716528D01*
X2953763D01*
X2957318D01*
X2955540D01*
Y2720082D01*
X2957318Y2721860D01*
X2962650Y2709418D02*
X2969760D01*
X2980424Y2720082D02*
X2978647Y2721860D01*
X2975092D01*
X2973314Y2720082D01*
Y2712973D01*
X2975092Y2711195D01*
X2978647D01*
X2980424Y2712973D01*
X2943098Y2759960D02*
Y2749295D01*
X2950208D01*
X2955540D02*
Y2758182D01*
Y2754628D01*
X2953763D01*
X2957318D01*
X2955540D01*
Y2758182D01*
X2957318Y2759960D01*
X2962650Y2747518D02*
X2969760D01*
X2973314Y2759960D02*
Y2749295D01*
X2978647D01*
X2980424Y2751073D01*
Y2752850D01*
X2978647Y2754628D01*
X2973314D01*
X2978647D01*
X2980424Y2756405D01*
Y2758182D01*
X2978647Y2759960D01*
X2973314D01*
X2876037Y2713482D02*
X2865373D01*
Y2706372D01*
X2861818Y2699263D02*
Y2697485D01*
X2863595Y2695708D01*
X2872483D01*
Y2701040D01*
X2870705Y2702817D01*
X2867150D01*
X2865373Y2701040D01*
Y2695708D01*
X2863595Y2692153D02*
Y2685043D01*
X2876037Y2681488D02*
X2865373D01*
Y2676156D01*
X2867150Y2674379D01*
X2868928D01*
X2870705Y2676156D01*
Y2681488D01*
Y2676156D01*
X2872483Y2674379D01*
X2874260D01*
X2876037Y2676156D01*
Y2681488D01*
X2916678Y2713482D02*
X2906013D01*
Y2706372D01*
X2902458Y2699263D02*
Y2697485D01*
X2904236Y2695708D01*
X2913123D01*
Y2701040D01*
X2911345Y2702817D01*
X2907790D01*
X2906013Y2701040D01*
Y2695708D01*
X2904236Y2692153D02*
Y2685043D01*
X2914900Y2674379D02*
X2916678Y2676156D01*
Y2679711D01*
X2914900Y2681488D01*
X2907790D01*
X2906013Y2679711D01*
Y2676156D01*
X2907790Y2674379D01*
X732788Y2750562D02*
X731010Y2752340D01*
X727455D01*
X725678Y2750562D01*
Y2743453D01*
X727455Y2741675D01*
X731010D01*
X732788Y2743453D01*
X738120Y2741675D02*
Y2750562D01*
Y2747008D01*
X736342D01*
X739897D01*
X738120D01*
Y2750562D01*
X739897Y2752340D01*
X745230Y2739898D02*
X752339D01*
X763004Y2750562D02*
X761227Y2752340D01*
X757672D01*
X755894Y2750562D01*
Y2743453D01*
X757672Y2741675D01*
X761227D01*
X763004Y2743453D01*
X768348Y2816602D02*
X766570Y2818380D01*
X763015D01*
X761238Y2816602D01*
Y2809493D01*
X763015Y2807715D01*
X766570D01*
X768348Y2809493D01*
X773680Y2807715D02*
Y2816602D01*
Y2813048D01*
X771902D01*
X775457D01*
X773680D01*
Y2816602D01*
X775457Y2818380D01*
X780790Y2805938D02*
X787899D01*
X791454Y2807715D02*
Y2814825D01*
X795009Y2818380D01*
X798564Y2814825D01*
Y2807715D01*
Y2813048D01*
X791454D01*
X750568Y2783582D02*
X748790Y2785360D01*
X745235D01*
X743458Y2783582D01*
Y2776473D01*
X745235Y2774695D01*
X748790D01*
X750568Y2776473D01*
X755900Y2774695D02*
Y2783582D01*
Y2780028D01*
X754122D01*
X757677D01*
X755900D01*
Y2783582D01*
X757677Y2785360D01*
X763010Y2772918D02*
X770119D01*
X773674Y2785360D02*
Y2774695D01*
X779007D01*
X780784Y2776473D01*
Y2778250D01*
X779007Y2780028D01*
X773674D01*
X779007D01*
X780784Y2781805D01*
Y2783582D01*
X779007Y2785360D01*
X773674D01*
X593598Y2754880D02*
Y2744215D01*
X600708D01*
X604263Y2742438D02*
X611372D01*
X622037Y2753102D02*
X620259Y2754880D01*
X616704D01*
X614927Y2753102D01*
Y2745993D01*
X616704Y2744215D01*
X620259D01*
X622037Y2745993D01*
X625592Y2744215D02*
Y2754880D01*
X629146Y2751325D01*
X632701Y2754880D01*
Y2744215D01*
X657098Y2759960D02*
Y2749295D01*
X664208D01*
X669540D02*
Y2758182D01*
Y2754628D01*
X667763D01*
X671317D01*
X669540D01*
Y2758182D01*
X671317Y2759960D01*
X676650Y2747518D02*
X683759D01*
X687314Y2759960D02*
Y2749295D01*
X692646D01*
X694424Y2751073D01*
Y2752850D01*
X692646Y2754628D01*
X687314D01*
X692646D01*
X694424Y2756405D01*
Y2758182D01*
X692646Y2759960D01*
X687314D01*
X657098Y2798060D02*
Y2787395D01*
X664208D01*
X669540D02*
Y2796282D01*
Y2792728D01*
X667763D01*
X671317D01*
X669540D01*
Y2796282D01*
X671317Y2798060D01*
X676650Y2785618D02*
X683759D01*
X687314Y2787395D02*
Y2794505D01*
X690869Y2798060D01*
X694424Y2794505D01*
Y2787395D01*
Y2792728D01*
X687314D01*
X734817Y2716022D02*
X724153D01*
Y2708912D01*
X720598Y2701803D02*
Y2700025D01*
X722375Y2698248D01*
X731263D01*
Y2703580D01*
X729485Y2705357D01*
X725930D01*
X724153Y2703580D01*
Y2698248D01*
X722375Y2694693D02*
Y2687583D01*
X733040Y2676919D02*
X734817Y2678696D01*
Y2682251D01*
X733040Y2684028D01*
X725930D01*
X724153Y2682251D01*
Y2678696D01*
X725930Y2676919D01*
X657098Y2721860D02*
Y2711195D01*
X664208D01*
X669540D02*
Y2720082D01*
Y2716528D01*
X667763D01*
X671317D01*
X669540D01*
Y2720082D01*
X671317Y2721860D01*
X676650Y2709418D02*
X683759D01*
X694424Y2720082D02*
X692646Y2721860D01*
X689092D01*
X687314Y2720082D01*
Y2712973D01*
X689092Y2711195D01*
X692646D01*
X694424Y2712973D01*
X772917Y2716022D02*
X762253D01*
Y2708912D01*
X758698Y2701803D02*
Y2700025D01*
X760475Y2698248D01*
X769362D01*
Y2703580D01*
X767585Y2705357D01*
X764030D01*
X762253Y2703580D01*
Y2698248D01*
X760475Y2694693D02*
Y2687583D01*
X772917Y2684028D02*
X762253D01*
Y2678696D01*
X764030Y2676919D01*
X765808D01*
X767585Y2678696D01*
Y2684028D01*
Y2678696D01*
X769362Y2676919D01*
X771140D01*
X772917Y2678696D01*
Y2684028D01*
X811017Y2716022D02*
X800353D01*
Y2708912D01*
X796798Y2701803D02*
Y2700025D01*
X798575Y2698248D01*
X807462D01*
Y2703580D01*
X805685Y2705357D01*
X802130D01*
X800353Y2703580D01*
Y2698248D01*
X798575Y2694693D02*
Y2687583D01*
X800353Y2684028D02*
X807462D01*
X811017Y2680474D01*
X807462Y2676919D01*
X800353D01*
X805685D01*
Y2684028D01*
X2775458Y3145533D02*
Y3136646D01*
X2777235Y3134868D01*
X2780790D01*
X2782568Y3136646D01*
Y3145533D01*
X2793232D02*
X2789677Y3143755D01*
X2786122Y3140200D01*
Y3136646D01*
X2787900Y3134868D01*
X2791455D01*
X2793232Y3136646D01*
Y3138423D01*
X2791455Y3140200D01*
X2786122D01*
X585473Y3193032D02*
Y3184145D01*
X587250Y3182368D01*
X590805D01*
X592583Y3184145D01*
Y3193032D01*
X603247D02*
X596137D01*
Y3187700D01*
X599692Y3189478D01*
X601470D01*
X603247Y3187700D01*
Y3184145D01*
X601470Y3182368D01*
X597915D01*
X596137Y3184145D01*
X566936Y3211196D02*
Y3221861D01*
X572268D01*
X574046Y3220084D01*
Y3216529D01*
X572268Y3214751D01*
X566936D01*
X570491D02*
X574046Y3211196D01*
X577601Y3220084D02*
X579378Y3221861D01*
X582933D01*
X584710Y3220084D01*
Y3218306D01*
X582933Y3216529D01*
X581156D01*
X582933D01*
X584710Y3214751D01*
Y3212974D01*
X582933Y3211196D01*
X579378D01*
X577601Y3212974D01*
X588265Y3220084D02*
X590043Y3221861D01*
X593597D01*
X595375Y3220084D01*
Y3218306D01*
X593597Y3216529D01*
X595375Y3214751D01*
Y3212974D01*
X593597Y3211196D01*
X590043D01*
X588265Y3212974D01*
Y3214751D01*
X590043Y3216529D01*
X588265Y3218306D01*
Y3220084D01*
X590043Y3216529D02*
X593597D01*
X598930Y3209419D02*
X606039D01*
X609594Y3220084D02*
X611372Y3221861D01*
X614926D01*
X616704Y3220084D01*
Y3218306D01*
X614926Y3216529D01*
X613149D01*
X614926D01*
X616704Y3214751D01*
Y3212974D01*
X614926Y3211196D01*
X611372D01*
X609594Y3212974D01*
X665996Y3023236D02*
Y3033901D01*
X671328D01*
X673106Y3032124D01*
Y3028569D01*
X671328Y3026791D01*
X665996D01*
X669551D02*
X673106Y3023236D01*
X676661Y3032124D02*
X678438Y3033901D01*
X681993D01*
X683770Y3032124D01*
Y3030346D01*
X681993Y3028569D01*
X680216D01*
X681993D01*
X683770Y3026791D01*
Y3025014D01*
X681993Y3023236D01*
X678438D01*
X676661Y3025014D01*
X687325Y3032124D02*
X689103Y3033901D01*
X692657D01*
X694435Y3032124D01*
Y3030346D01*
X692657Y3028569D01*
X694435Y3026791D01*
Y3025014D01*
X692657Y3023236D01*
X689103D01*
X687325Y3025014D01*
Y3026791D01*
X689103Y3028569D01*
X687325Y3030346D01*
Y3032124D01*
X689103Y3028569D02*
X692657D01*
X697990Y3021459D02*
X705099D01*
X715764Y3023236D02*
X708654D01*
X715764Y3030346D01*
Y3032124D01*
X713987Y3033901D01*
X710432D01*
X708654Y3032124D01*
X581413Y3023236D02*
Y3033901D01*
X586746D01*
X588523Y3032124D01*
Y3028569D01*
X586746Y3026791D01*
X581413D01*
X584968D02*
X588523Y3023236D01*
X592078Y3032124D02*
X593856Y3033901D01*
X597410D01*
X599188Y3032124D01*
Y3030346D01*
X597410Y3028569D01*
X595633D01*
X597410D01*
X599188Y3026791D01*
Y3025014D01*
X597410Y3023236D01*
X593856D01*
X592078Y3025014D01*
X602743Y3032124D02*
X604520Y3033901D01*
X608075D01*
X609852Y3032124D01*
Y3030346D01*
X608075Y3028569D01*
X609852Y3026791D01*
Y3025014D01*
X608075Y3023236D01*
X604520D01*
X602743Y3025014D01*
Y3026791D01*
X604520Y3028569D01*
X602743Y3030346D01*
Y3032124D01*
X604520Y3028569D02*
X608075D01*
X613407Y3021459D02*
X620517D01*
X624072Y3023236D02*
X627626D01*
X625849D01*
Y3033901D01*
X624072Y3032124D01*
X691396Y3208656D02*
Y3219321D01*
X696728D01*
X698506Y3217544D01*
Y3213989D01*
X696728Y3212211D01*
X691396D01*
X694951D02*
X698506Y3208656D01*
X702061Y3217544D02*
X703838Y3219321D01*
X707393D01*
X709170Y3217544D01*
Y3215766D01*
X707393Y3213989D01*
X705615D01*
X707393D01*
X709170Y3212211D01*
Y3210434D01*
X707393Y3208656D01*
X703838D01*
X702061Y3210434D01*
X712725Y3219321D02*
X719835D01*
Y3217544D01*
X712725Y3210434D01*
Y3208656D01*
X723390Y3206879D02*
X730499D01*
X734054Y3217544D02*
X735832Y3219321D01*
X739387D01*
X741164Y3217544D01*
Y3215766D01*
X739387Y3213989D01*
X737609D01*
X739387D01*
X741164Y3212211D01*
Y3210434D01*
X739387Y3208656D01*
X735832D01*
X734054Y3210434D01*
X715644Y3117096D02*
X704979D01*
Y3122428D01*
X706756Y3124206D01*
X710311D01*
X712089Y3122428D01*
Y3117096D01*
Y3120651D02*
X715644Y3124206D01*
X706756Y3127761D02*
X704979Y3129538D01*
Y3133093D01*
X706756Y3134870D01*
X708534D01*
X710311Y3133093D01*
Y3131316D01*
Y3133093D01*
X712089Y3134870D01*
X713866D01*
X715644Y3133093D01*
Y3129538D01*
X713866Y3127761D01*
X704979Y3138425D02*
Y3145535D01*
X706756D01*
X713866Y3138425D01*
X715644D01*
X717421Y3149090D02*
Y3156199D01*
X715644Y3166864D02*
Y3159754D01*
X708534Y3166864D01*
X706756D01*
X704979Y3165086D01*
Y3161532D01*
X706756Y3159754D01*
X568324Y3116334D02*
X557659D01*
Y3121666D01*
X559436Y3123443D01*
X562991D01*
X564769Y3121666D01*
Y3116334D01*
Y3119888D02*
X568324Y3123443D01*
X559436Y3126998D02*
X557659Y3128776D01*
Y3132330D01*
X559436Y3134108D01*
X561214D01*
X562991Y3132330D01*
Y3130553D01*
Y3132330D01*
X564769Y3134108D01*
X566546D01*
X568324Y3132330D01*
Y3128776D01*
X566546Y3126998D01*
X557659Y3137663D02*
Y3144772D01*
X559436D01*
X566546Y3137663D01*
X568324D01*
X570101Y3148327D02*
Y3155437D01*
X568324Y3158992D02*
Y3162546D01*
Y3160769D01*
X557659D01*
X559436Y3158992D01*
X2985016Y3190876D02*
Y3201541D01*
X2990348D01*
X2992126Y3199763D01*
Y3196209D01*
X2990348Y3194431D01*
X2985016D01*
X2988571D02*
X2992126Y3190876D01*
X2995681Y3199763D02*
X2997458Y3201541D01*
X3001013D01*
X3002790Y3199763D01*
Y3197986D01*
X3001013Y3196209D01*
X2999236D01*
X3001013D01*
X3002790Y3194431D01*
Y3192654D01*
X3001013Y3190876D01*
X2997458D01*
X2995681Y3192654D01*
X3011678Y3190876D02*
Y3201541D01*
X3006345Y3196209D01*
X3013455D01*
X3017010Y3189099D02*
X3024119D01*
X3027674Y3199763D02*
X3029452Y3201541D01*
X3033007D01*
X3034784Y3199763D01*
Y3197986D01*
X3033007Y3196209D01*
X3031229D01*
X3033007D01*
X3034784Y3194431D01*
Y3192654D01*
X3033007Y3190876D01*
X3029452D01*
X3027674Y3192654D01*
X3063756Y3000376D02*
Y3011041D01*
X3069088D01*
X3070866Y3009264D01*
Y3005709D01*
X3069088Y3003931D01*
X3063756D01*
X3067311D02*
X3070866Y3000376D01*
X3074420Y3009264D02*
X3076198Y3011041D01*
X3079753D01*
X3081530Y3009264D01*
Y3007486D01*
X3079753Y3005709D01*
X3077975D01*
X3079753D01*
X3081530Y3003931D01*
Y3002154D01*
X3079753Y3000376D01*
X3076198D01*
X3074420Y3002154D01*
X3090417Y3000376D02*
Y3011041D01*
X3085085Y3005709D01*
X3092195D01*
X3095750Y2998599D02*
X3102859D01*
X3113524Y3000376D02*
X3106414D01*
X3113524Y3007486D01*
Y3009264D01*
X3111747Y3011041D01*
X3108192D01*
X3106414Y3009264D01*
X2973704Y3111253D02*
X2963039D01*
Y3116586D01*
X2964816Y3118363D01*
X2968371D01*
X2970149Y3116586D01*
Y3111253D01*
Y3114808D02*
X2973704Y3118363D01*
X2964816Y3121918D02*
X2963039Y3123695D01*
Y3127250D01*
X2964816Y3129028D01*
X2966594D01*
X2968371Y3127250D01*
Y3125473D01*
Y3127250D01*
X2970149Y3129028D01*
X2971926D01*
X2973704Y3127250D01*
Y3123695D01*
X2971926Y3121918D01*
X2973704Y3137915D02*
X2963039D01*
X2968371Y3132583D01*
Y3139692D01*
X2975481Y3143247D02*
Y3150357D01*
X2973704Y3153912D02*
Y3157466D01*
Y3155689D01*
X2963039D01*
X2964816Y3153912D01*
X3076456Y3190876D02*
Y3201541D01*
X3081788D01*
X3083566Y3199763D01*
Y3196209D01*
X3081788Y3194431D01*
X3076456D01*
X3080011D02*
X3083566Y3190876D01*
X3087121Y3199763D02*
X3088898Y3201541D01*
X3092453D01*
X3094230Y3199763D01*
Y3197986D01*
X3092453Y3196209D01*
X3090675D01*
X3092453D01*
X3094230Y3194431D01*
Y3192654D01*
X3092453Y3190876D01*
X3088898D01*
X3087121Y3192654D01*
X3097785Y3199763D02*
X3099563Y3201541D01*
X3103117D01*
X3104895Y3199763D01*
Y3197986D01*
X3103117Y3196209D01*
X3101340D01*
X3103117D01*
X3104895Y3194431D01*
Y3192654D01*
X3103117Y3190876D01*
X3099563D01*
X3097785Y3192654D01*
X3108450Y3189099D02*
X3115559D01*
X3119114Y3199763D02*
X3120892Y3201541D01*
X3124446D01*
X3126224Y3199763D01*
Y3197986D01*
X3124446Y3196209D01*
X3122669D01*
X3124446D01*
X3126224Y3194431D01*
Y3192654D01*
X3124446Y3190876D01*
X3120892D01*
X3119114Y3192654D01*
X3121024Y3081536D02*
X3110359D01*
Y3086868D01*
X3112137Y3088646D01*
X3115691D01*
X3117469Y3086868D01*
Y3081536D01*
Y3085091D02*
X3121024Y3088646D01*
X3112137Y3092201D02*
X3110359Y3093978D01*
Y3097533D01*
X3112137Y3099310D01*
X3113914D01*
X3115691Y3097533D01*
Y3095756D01*
Y3097533D01*
X3117469Y3099310D01*
X3119246D01*
X3121024Y3097533D01*
Y3093978D01*
X3119246Y3092201D01*
X3112137Y3102865D02*
X3110359Y3104643D01*
Y3108197D01*
X3112137Y3109975D01*
X3113914D01*
X3115691Y3108197D01*
Y3106420D01*
Y3108197D01*
X3117469Y3109975D01*
X3119246D01*
X3121024Y3108197D01*
Y3104643D01*
X3119246Y3102865D01*
X3122801Y3113530D02*
Y3120639D01*
X3121024Y3131304D02*
Y3124194D01*
X3113914Y3131304D01*
X3112137D01*
X3110359Y3129526D01*
Y3125972D01*
X3112137Y3124194D01*
X2928373Y3025776D02*
Y3036441D01*
X2933706D01*
X2935483Y3034664D01*
Y3031109D01*
X2933706Y3029331D01*
X2928373D01*
X2931928D02*
X2935483Y3025776D01*
X2939038Y3034664D02*
X2940815Y3036441D01*
X2944370D01*
X2946148Y3034664D01*
Y3032886D01*
X2944370Y3031109D01*
X2942593D01*
X2944370D01*
X2946148Y3029331D01*
Y3027554D01*
X2944370Y3025776D01*
X2940815D01*
X2939038Y3027554D01*
X2949702Y3034664D02*
X2951480Y3036441D01*
X2955035D01*
X2956812Y3034664D01*
Y3032886D01*
X2955035Y3031109D01*
X2953257D01*
X2955035D01*
X2956812Y3029331D01*
Y3027554D01*
X2955035Y3025776D01*
X2951480D01*
X2949702Y3027554D01*
X2960367Y3023999D02*
X2967477D01*
X2971032Y3025776D02*
X2974586D01*
X2972809D01*
Y3036441D01*
X2971032Y3034664D01*
X2904745Y3005583D02*
X2902968Y3003805D01*
Y3000250D01*
X2904745Y2998473D01*
X2911855D01*
X2913632Y3000250D01*
Y3003805D01*
X2911855Y3005583D01*
X2902968Y3016247D02*
X2904745Y3012692D01*
X2908300Y3009137D01*
X2911855D01*
X2913632Y3010915D01*
Y3014470D01*
X2911855Y3016247D01*
X2910078D01*
X2908300Y3014470D01*
Y3009137D01*
X518923Y3082035D02*
X517145Y3083812D01*
X513590D01*
X511813Y3082035D01*
Y3074925D01*
X513590Y3073148D01*
X517145D01*
X518923Y3074925D01*
X527810Y3073148D02*
Y3083812D01*
X522477Y3078480D01*
X529587D01*
X2919733Y3203192D02*
Y3194305D01*
X2921510Y3192528D01*
X2925065D01*
X2926843Y3194305D01*
Y3203192D01*
X2935730Y3192528D02*
Y3203192D01*
X2930397Y3197860D01*
X2937507D01*
X345440Y3185919D02*
Y3177031D01*
X347217Y3175254D01*
X350772D01*
X352550Y3177031D01*
Y3185919D01*
X356105Y3184141D02*
X357882Y3185919D01*
X361437D01*
X363214Y3184141D01*
Y3182364D01*
X361437Y3180586D01*
X359659D01*
X361437D01*
X363214Y3178809D01*
Y3177031D01*
X361437Y3175254D01*
X357882D01*
X356105Y3177031D01*
X2791712Y2996569D02*
X2781048D01*
Y3001902D01*
X2782825Y3003679D01*
X2786380D01*
X2788157Y3001902D01*
Y2996569D01*
Y3000124D02*
X2791712Y3003679D01*
Y3007234D02*
Y3010789D01*
Y3009011D01*
X2781048D01*
X2782825Y3007234D01*
X2781048Y3023231D02*
Y3016121D01*
X2786380D01*
X2784602Y3019676D01*
Y3021453D01*
X2786380Y3023231D01*
X2789935D01*
X2791712Y3021453D01*
Y3017898D01*
X2789935Y3016121D01*
X2911092Y3049909D02*
X2900428D01*
Y3055242D01*
X2902205Y3057019D01*
X2905760D01*
X2907538Y3055242D01*
Y3049909D01*
Y3053464D02*
X2911092Y3057019D01*
Y3060574D02*
Y3064129D01*
Y3062351D01*
X2900428D01*
X2902205Y3060574D01*
X2911092Y3074793D02*
X2900428D01*
X2905760Y3069461D01*
Y3076571D01*
X2913632Y3100709D02*
X2902968D01*
Y3106042D01*
X2904745Y3107819D01*
X2908300D01*
X2910078Y3106042D01*
Y3100709D01*
Y3104264D02*
X2913632Y3107819D01*
Y3111374D02*
Y3114929D01*
Y3113151D01*
X2902968D01*
X2904745Y3111374D01*
X2913632Y3127371D02*
Y3120261D01*
X2906523Y3127371D01*
X2904745D01*
X2902968Y3125593D01*
Y3122038D01*
X2904745Y3120261D01*
X2838327Y2969008D02*
Y2979672D01*
X2843659D01*
X2845436Y2977895D01*
Y2974340D01*
X2843659Y2972563D01*
X2838327D01*
X2841882D02*
X2845436Y2969008D01*
X2848991D02*
X2852546D01*
X2850769D01*
Y2979672D01*
X2848991Y2977895D01*
X2857878Y2969008D02*
X2861433D01*
X2859656D01*
Y2979672D01*
X2857878Y2977895D01*
X363472Y2993393D02*
X352808D01*
Y2998725D01*
X354585Y3000503D01*
X358140D01*
X359917Y2998725D01*
Y2993393D01*
Y2996948D02*
X363472Y3000503D01*
X361695Y3004057D02*
X363472Y3005835D01*
Y3009390D01*
X361695Y3011167D01*
X354585D01*
X352808Y3009390D01*
Y3005835D01*
X354585Y3004057D01*
X356362D01*
X358140Y3005835D01*
Y3011167D01*
X480312Y3194053D02*
X469648D01*
Y3199385D01*
X471425Y3201163D01*
X474980D01*
X476757Y3199385D01*
Y3194053D01*
Y3197608D02*
X480312Y3201163D01*
X469648Y3211827D02*
X471425Y3208272D01*
X474980Y3204717D01*
X478535D01*
X480312Y3206495D01*
Y3210050D01*
X478535Y3211827D01*
X476757D01*
X474980Y3210050D01*
Y3204717D01*
X511813Y3101088D02*
Y3111752D01*
X517145D01*
X518923Y3109975D01*
Y3106420D01*
X517145Y3104643D01*
X511813D01*
X515368D02*
X518923Y3101088D01*
X529587Y3111752D02*
X522477D01*
Y3106420D01*
X526032Y3108197D01*
X527810D01*
X529587Y3106420D01*
Y3102865D01*
X527810Y3101088D01*
X524255D01*
X522477Y3102865D01*
X3153662Y2812031D02*
X3151884Y2813809D01*
X3148329D01*
X3146552Y2812031D01*
Y2804921D01*
X3148329Y2803144D01*
X3151884D01*
X3153662Y2804921D01*
X3164326Y2803144D02*
X3157216D01*
X3164326Y2810254D01*
Y2812031D01*
X3162549Y2813809D01*
X3158994D01*
X3157216Y2812031D01*
X2062223Y3116198D02*
Y3126863D01*
X2067556D01*
X2069333Y3125085D01*
Y3121531D01*
X2067556Y3119753D01*
X2062223D01*
X2065778D02*
X2069333Y3116198D01*
X2078220D02*
Y3126863D01*
X2072888Y3121531D01*
X2079998D01*
X2083552Y3114421D02*
X2090662D01*
X2094217Y3125085D02*
X2095994Y3126863D01*
X2099549D01*
X2101327Y3125085D01*
Y3123308D01*
X2099549Y3121531D01*
X2097772D01*
X2099549D01*
X2101327Y3119753D01*
Y3117976D01*
X2099549Y3116198D01*
X2095994D01*
X2094217Y3117976D01*
X2331463Y3116198D02*
Y3126863D01*
X2336796D01*
X2338573Y3125085D01*
Y3121531D01*
X2336796Y3119753D01*
X2331463D01*
X2335018D02*
X2338573Y3116198D01*
X2347460D02*
Y3126863D01*
X2342128Y3121531D01*
X2349238D01*
X2352792Y3114421D02*
X2359902D01*
X2370567Y3116198D02*
X2363457D01*
X2370567Y3123308D01*
Y3125085D01*
X2368789Y3126863D01*
X2365234D01*
X2363457Y3125085D01*
X2602481Y3116198D02*
Y3126863D01*
X2607814D01*
X2609591Y3125085D01*
Y3121531D01*
X2607814Y3119753D01*
X2602481D01*
X2606036D02*
X2609591Y3116198D01*
X2618478D02*
Y3126863D01*
X2613146Y3121531D01*
X2620256D01*
X2623811Y3114421D02*
X2630920D01*
X2634475Y3116198D02*
X2638030D01*
X2636253D01*
Y3126863D01*
X2634475Y3125085D01*
X1890528Y2693036D02*
Y2703701D01*
X1895861D01*
X1897638Y2701924D01*
Y2698369D01*
X1895861Y2696591D01*
X1890528D01*
X1894083D02*
X1897638Y2693036D01*
X1901193Y2701924D02*
X1902970Y2703701D01*
X1906525D01*
X1908303Y2701924D01*
Y2700146D01*
X1906525Y2698369D01*
X1904748D01*
X1906525D01*
X1908303Y2696591D01*
Y2694814D01*
X1906525Y2693036D01*
X1902970D01*
X1901193Y2694814D01*
X1911857Y2691259D02*
X1918967D01*
X1922522Y2701924D02*
X1924299Y2703701D01*
X1927854D01*
X1929632Y2701924D01*
Y2700146D01*
X1927854Y2698369D01*
X1926077D01*
X1927854D01*
X1929632Y2696591D01*
Y2694814D01*
X1927854Y2693036D01*
X1924299D01*
X1922522Y2694814D01*
X2261236Y2701792D02*
X2271901D01*
Y2696459D01*
X2270124Y2694682D01*
X2266569D01*
X2264791Y2696459D01*
Y2701792D01*
Y2698237D02*
X2261236Y2694682D01*
X2270124Y2691127D02*
X2271901Y2689350D01*
Y2685795D01*
X2270124Y2684017D01*
X2268346D01*
X2266569Y2685795D01*
Y2687572D01*
Y2685795D01*
X2264791Y2684017D01*
X2263014D01*
X2261236Y2685795D01*
Y2689350D01*
X2263014Y2691127D01*
X2259459Y2680463D02*
Y2673353D01*
X2261236Y2662688D02*
Y2669798D01*
X2268346Y2662688D01*
X2270124D01*
X2271901Y2664466D01*
Y2668021D01*
X2270124Y2669798D01*
X2444116Y2700014D02*
X2454781D01*
Y2694682D01*
X2453004Y2692904D01*
X2449449D01*
X2447671Y2694682D01*
Y2700014D01*
Y2696459D02*
X2444116Y2692904D01*
X2453004Y2689350D02*
X2454781Y2687572D01*
Y2684017D01*
X2453004Y2682240D01*
X2451226D01*
X2449449Y2684017D01*
Y2685795D01*
Y2684017D01*
X2447671Y2682240D01*
X2445894D01*
X2444116Y2684017D01*
Y2687572D01*
X2445894Y2689350D01*
X2442339Y2678685D02*
Y2671575D01*
X2444116Y2668021D02*
Y2664466D01*
Y2666243D01*
X2454781D01*
X2453004Y2668021D01*
X1913388Y1791841D02*
Y1781176D01*
X1920498D01*
X1931163Y1791841D02*
X1927608Y1790064D01*
X1924053Y1786509D01*
Y1782954D01*
X1925830Y1781176D01*
X1929385D01*
X1931163Y1782954D01*
Y1784731D01*
X1929385Y1786509D01*
X1924053D01*
X1934717Y1779399D02*
X1941827D01*
X1945382Y1790064D02*
X1947159Y1791841D01*
X1950714D01*
X1952492Y1790064D01*
Y1788286D01*
X1950714Y1786509D01*
X1948937D01*
X1950714D01*
X1952492Y1784731D01*
Y1782954D01*
X1950714Y1781176D01*
X1947159D01*
X1945382Y1782954D01*
X2126748Y1794381D02*
Y1783716D01*
X2133858D01*
X2144523Y1794381D02*
X2140968Y1792604D01*
X2137413Y1789049D01*
Y1785494D01*
X2139190Y1783716D01*
X2142745D01*
X2144523Y1785494D01*
Y1787271D01*
X2142745Y1789049D01*
X2137413D01*
X2148077Y1781939D02*
X2155187D01*
X2165852Y1783716D02*
X2158742D01*
X2165852Y1790826D01*
Y1792604D01*
X2164074Y1794381D01*
X2160519D01*
X2158742Y1792604D01*
X2339346Y1794381D02*
Y1783716D01*
X2346456D01*
X2357120Y1794381D02*
X2353565Y1792604D01*
X2350010Y1789049D01*
Y1785494D01*
X2351788Y1783716D01*
X2355343D01*
X2357120Y1785494D01*
Y1787271D01*
X2355343Y1789049D01*
X2350010D01*
X2360675Y1781939D02*
X2367785D01*
X2371339Y1783716D02*
X2374894D01*
X2373117D01*
Y1794381D01*
X2371339Y1792604D01*
X3152648Y2635247D02*
Y2624582D01*
X3159758D01*
X3170422Y2635247D02*
X3163312D01*
Y2629914D01*
X3166867Y2631692D01*
X3168645D01*
X3170422Y2629914D01*
Y2626359D01*
X3168645Y2624582D01*
X3165090D01*
X3163312Y2626359D01*
X3173977Y2622805D02*
X3181087D01*
X3184642Y2633469D02*
X3186419Y2635247D01*
X3189974D01*
X3191751Y2633469D01*
Y2631692D01*
X3189974Y2629914D01*
X3188196D01*
X3189974D01*
X3191751Y2628137D01*
Y2626359D01*
X3189974Y2624582D01*
X3186419D01*
X3184642Y2626359D01*
X3152648Y2319270D02*
Y2308606D01*
X3159758D01*
X3170422Y2319270D02*
X3163312D01*
Y2313938D01*
X3166867Y2315716D01*
X3168645D01*
X3170422Y2313938D01*
Y2310383D01*
X3168645Y2308606D01*
X3165090D01*
X3163312Y2310383D01*
X3173977Y2306829D02*
X3181087D01*
X3191751Y2308606D02*
X3184642D01*
X3191751Y2315716D01*
Y2317493D01*
X3189974Y2319270D01*
X3186419D01*
X3184642Y2317493D01*
X3152648Y2000246D02*
Y1989582D01*
X3159758D01*
X3170422Y2000246D02*
X3163312D01*
Y1994914D01*
X3166867Y1996692D01*
X3168645D01*
X3170422Y1994914D01*
Y1991359D01*
X3168645Y1989582D01*
X3165090D01*
X3163312Y1991359D01*
X3173977Y1987805D02*
X3181087D01*
X3184642Y1989582D02*
X3188196D01*
X3186419D01*
Y2000246D01*
X3184642Y1998469D01*
X2149987Y2684144D02*
X2148209Y2685921D01*
X2144655D01*
X2142877Y2684144D01*
Y2677034D01*
X2144655Y2675256D01*
X2148209D01*
X2149987Y2677034D01*
X2153542Y2675256D02*
X2157096D01*
X2155319D01*
Y2685921D01*
X2153542Y2684144D01*
X2162429Y2673479D02*
X2169538D01*
X2173093Y2684144D02*
X2174871Y2685921D01*
X2178425D01*
X2180203Y2684144D01*
Y2682366D01*
X2178425Y2680589D01*
X2176648D01*
X2178425D01*
X2180203Y2678811D01*
Y2677034D01*
X2178425Y2675256D01*
X2174871D01*
X2173093Y2677034D01*
X2337947Y2516504D02*
X2336169Y2518281D01*
X2332614D01*
X2330837Y2516504D01*
Y2509394D01*
X2332614Y2507616D01*
X2336169D01*
X2337947Y2509394D01*
X2341502Y2507616D02*
X2345056D01*
X2343279D01*
Y2518281D01*
X2341502Y2516504D01*
X2350389Y2505839D02*
X2357498D01*
X2368163Y2507616D02*
X2361053D01*
X2368163Y2514726D01*
Y2516504D01*
X2366385Y2518281D01*
X2362831D01*
X2361053Y2516504D01*
X2492124Y2364104D02*
X2490347Y2365881D01*
X2486792D01*
X2485014Y2364104D01*
Y2356994D01*
X2486792Y2355216D01*
X2490347D01*
X2492124Y2356994D01*
X2495679Y2355216D02*
X2499234D01*
X2497456D01*
Y2365881D01*
X2495679Y2364104D01*
X2504566Y2353439D02*
X2511676D01*
X2515231Y2355216D02*
X2518786D01*
X2517008D01*
Y2365881D01*
X2515231Y2364104D01*
X1264663Y3111118D02*
Y3121783D01*
X1269996D01*
X1271773Y3120005D01*
Y3116451D01*
X1269996Y3114673D01*
X1264663D01*
X1268218D02*
X1271773Y3111118D01*
X1282437D02*
X1275328D01*
X1282437Y3118228D01*
Y3120005D01*
X1280660Y3121783D01*
X1277105D01*
X1275328Y3120005D01*
X1285992Y3109341D02*
X1293102D01*
X1296657Y3120005D02*
X1298434Y3121783D01*
X1301989D01*
X1303767Y3120005D01*
Y3118228D01*
X1301989Y3116451D01*
X1300212D01*
X1301989D01*
X1303767Y3114673D01*
Y3112896D01*
X1301989Y3111118D01*
X1298434D01*
X1296657Y3112896D01*
X1534928Y3132456D02*
Y3143121D01*
X1540261D01*
X1542038Y3141344D01*
Y3137789D01*
X1540261Y3136011D01*
X1534928D01*
X1538483D02*
X1542038Y3132456D01*
X1552703D02*
X1545593D01*
X1552703Y3139566D01*
Y3141344D01*
X1550925Y3143121D01*
X1547370D01*
X1545593Y3141344D01*
X1556257Y3130679D02*
X1563367D01*
X1574032Y3132456D02*
X1566922D01*
X1574032Y3139566D01*
Y3141344D01*
X1572254Y3143121D01*
X1568699D01*
X1566922Y3141344D01*
X1802381Y3116198D02*
Y3126863D01*
X1807714D01*
X1809491Y3125085D01*
Y3121531D01*
X1807714Y3119753D01*
X1802381D01*
X1805936D02*
X1809491Y3116198D01*
X1820156D02*
X1813046D01*
X1820156Y3123308D01*
Y3125085D01*
X1818378Y3126863D01*
X1814823D01*
X1813046Y3125085D01*
X1823711Y3114421D02*
X1830820D01*
X1834375Y3116198D02*
X1837930D01*
X1836153D01*
Y3126863D01*
X1834375Y3125085D01*
X3212338Y2319778D02*
Y2309114D01*
X3219448D01*
X3230112D02*
X3223003D01*
X3230112Y2316224D01*
Y2318001D01*
X3228335Y2319778D01*
X3224780D01*
X3223003Y2318001D01*
X290070Y2278534D02*
Y2267870D01*
X297180D01*
X300735D02*
X304290D01*
X302512D01*
Y2278534D01*
X300735Y2276757D01*
X1397768Y1791841D02*
Y1781176D01*
X1404878D01*
X1413765D02*
Y1791841D01*
X1408433Y1786509D01*
X1415543D01*
X1419097Y1779399D02*
X1426207D01*
X1429762Y1790064D02*
X1431539Y1791841D01*
X1435094D01*
X1436872Y1790064D01*
Y1788286D01*
X1435094Y1786509D01*
X1433317D01*
X1435094D01*
X1436872Y1784731D01*
Y1782954D01*
X1435094Y1781176D01*
X1431539D01*
X1429762Y1782954D01*
X1613668Y1791841D02*
Y1781176D01*
X1620778D01*
X1629665D02*
Y1791841D01*
X1624333Y1786509D01*
X1631443D01*
X1634997Y1779399D02*
X1642107D01*
X1652772Y1781176D02*
X1645662D01*
X1652772Y1788286D01*
Y1790064D01*
X1650994Y1791841D01*
X1647439D01*
X1645662Y1790064D01*
X1831346Y1791841D02*
Y1781176D01*
X1838456D01*
X1847343D02*
Y1791841D01*
X1842010Y1786509D01*
X1849120D01*
X1852675Y1779399D02*
X1859785D01*
X1863339Y1781176D02*
X1866894D01*
X1865117D01*
Y1791841D01*
X1863339Y1790064D01*
X568452Y2000246D02*
Y1989582D01*
X575562D01*
X579117Y1998469D02*
X580894Y2000246D01*
X584449D01*
X586226Y1998469D01*
Y1996692D01*
X584449Y1994914D01*
X582671D01*
X584449D01*
X586226Y1993137D01*
Y1991359D01*
X584449Y1989582D01*
X580894D01*
X579117Y1991359D01*
X589781Y1987805D02*
X596891D01*
X600446Y1998469D02*
X602223Y2000246D01*
X605778D01*
X607555Y1998469D01*
Y1996692D01*
X605778Y1994914D01*
X604001D01*
X605778D01*
X607555Y1993137D01*
Y1991359D01*
X605778Y1989582D01*
X602223D01*
X600446Y1991359D01*
X568452Y2319270D02*
Y2308606D01*
X575562D01*
X579117Y2317493D02*
X580894Y2319270D01*
X584449D01*
X586226Y2317493D01*
Y2315716D01*
X584449Y2313938D01*
X582671D01*
X584449D01*
X586226Y2312161D01*
Y2310383D01*
X584449Y2308606D01*
X580894D01*
X579117Y2310383D01*
X589781Y2306829D02*
X596891D01*
X607555Y2308606D02*
X600446D01*
X607555Y2315716D01*
Y2317493D01*
X605778Y2319270D01*
X602223D01*
X600446Y2317493D01*
X568452Y2635247D02*
Y2624582D01*
X575562D01*
X579117Y2633469D02*
X580894Y2635247D01*
X584449D01*
X586226Y2633469D01*
Y2631692D01*
X584449Y2629914D01*
X582671D01*
X584449D01*
X586226Y2628137D01*
Y2626359D01*
X584449Y2624582D01*
X580894D01*
X579117Y2626359D01*
X589781Y2622805D02*
X596891D01*
X600446Y2624582D02*
X604001D01*
X602223D01*
Y2635247D01*
X600446Y2633469D01*
X1176656Y2705983D02*
X1187321D01*
Y2700651D01*
X1185544Y2698873D01*
X1181989D01*
X1180211Y2700651D01*
Y2705983D01*
Y2702428D02*
X1176656Y2698873D01*
Y2695318D02*
Y2691764D01*
Y2693541D01*
X1187321D01*
X1185544Y2695318D01*
X1174879Y2686431D02*
Y2679322D01*
X1185544Y2675767D02*
X1187321Y2673989D01*
Y2670435D01*
X1185544Y2668657D01*
X1183766D01*
X1181989Y2670435D01*
Y2672212D01*
Y2670435D01*
X1180211Y2668657D01*
X1178434D01*
X1176656Y2670435D01*
Y2673989D01*
X1178434Y2675767D01*
X1445896Y2703443D02*
X1456561D01*
Y2698111D01*
X1454784Y2696333D01*
X1451229D01*
X1449451Y2698111D01*
Y2703443D01*
Y2699888D02*
X1445896Y2696333D01*
Y2692778D02*
Y2689224D01*
Y2691001D01*
X1456561D01*
X1454784Y2692778D01*
X1444119Y2683891D02*
Y2676782D01*
X1445896Y2666117D02*
Y2673227D01*
X1453006Y2666117D01*
X1454784D01*
X1456561Y2667895D01*
Y2671449D01*
X1454784Y2673227D01*
X1700155Y2693036D02*
Y2703701D01*
X1705487D01*
X1707264Y2701924D01*
Y2698369D01*
X1705487Y2696591D01*
X1700155D01*
X1703709D02*
X1707264Y2693036D01*
X1710819D02*
X1714374D01*
X1712596D01*
Y2703701D01*
X1710819Y2701924D01*
X1719706Y2691259D02*
X1726816D01*
X1730371Y2693036D02*
X1733925D01*
X1732148D01*
Y2703701D01*
X1730371Y2701924D01*
X1245868Y2358133D02*
X1244090Y2359910D01*
X1240535D01*
X1238758Y2358133D01*
Y2351023D01*
X1240535Y2349246D01*
X1244090D01*
X1245868Y2351023D01*
X1249423Y2358133D02*
X1251200Y2359910D01*
X1254755D01*
X1256532Y2358133D01*
Y2356356D01*
X1254755Y2354578D01*
X1252977D01*
X1254755D01*
X1256532Y2352801D01*
Y2351023D01*
X1254755Y2349246D01*
X1251200D01*
X1249423Y2351023D01*
X1260087Y2347469D02*
X1267197D01*
X1270752Y2358133D02*
X1272529Y2359910D01*
X1276084D01*
X1277861Y2358133D01*
Y2356356D01*
X1276084Y2354578D01*
X1274306D01*
X1276084D01*
X1277861Y2352801D01*
Y2351023D01*
X1276084Y2349246D01*
X1272529D01*
X1270752Y2351023D01*
X1421128Y2518153D02*
X1419350Y2519931D01*
X1415795D01*
X1414018Y2518153D01*
Y2511043D01*
X1415795Y2509266D01*
X1419350D01*
X1421128Y2511043D01*
X1424682Y2518153D02*
X1426460Y2519931D01*
X1430015D01*
X1431792Y2518153D01*
Y2516376D01*
X1430015Y2514598D01*
X1428237D01*
X1430015D01*
X1431792Y2512821D01*
Y2511043D01*
X1430015Y2509266D01*
X1426460D01*
X1424682Y2511043D01*
X1435347Y2507489D02*
X1442457D01*
X1453121Y2509266D02*
X1446012D01*
X1453121Y2516376D01*
Y2518153D01*
X1451344Y2519931D01*
X1447789D01*
X1446012Y2518153D01*
X1555748Y2683253D02*
X1553970Y2685031D01*
X1550415D01*
X1548638Y2683253D01*
Y2676143D01*
X1550415Y2674366D01*
X1553970D01*
X1555748Y2676143D01*
X1559303Y2683253D02*
X1561080Y2685031D01*
X1564635D01*
X1566412Y2683253D01*
Y2681476D01*
X1564635Y2679698D01*
X1562857D01*
X1564635D01*
X1566412Y2677921D01*
Y2676143D01*
X1564635Y2674366D01*
X1561080D01*
X1559303Y2676143D01*
X1569967Y2672589D02*
X1577077D01*
X1580632Y2674366D02*
X1584187D01*
X1582409D01*
Y2685031D01*
X1580632Y2683253D01*
D16*
X1839005Y2269849D02*
X1832340D01*
Y2264851D01*
X1835672D01*
X1832340D01*
Y2259852D01*
X1842337Y2269849D02*
Y2268183D01*
X1845669Y2264851D01*
X1849001Y2268183D01*
Y2269849D01*
X1845669Y2264851D02*
Y2259852D01*
X1852334D02*
Y2269849D01*
X1857332D01*
X1858998Y2268183D01*
Y2264851D01*
X1857332Y2263185D01*
X1852334D01*
X1873993Y2259852D02*
Y2268183D01*
Y2264851D01*
X1872327D01*
X1875659D01*
X1873993D01*
Y2268183D01*
X1875659Y2269849D01*
X1882324Y2259852D02*
X1885656D01*
X1887322Y2261518D01*
Y2264851D01*
X1885656Y2266517D01*
X1882324D01*
X1880658Y2264851D01*
Y2261518D01*
X1882324Y2259852D01*
X1890654Y2266517D02*
Y2259852D01*
Y2263185D01*
X1892321Y2264851D01*
X1893987Y2266517D01*
X1895653D01*
X1910648D02*
Y2261518D01*
X1912314Y2259852D01*
X1917313D01*
Y2258186D01*
X1915647Y2256520D01*
X1913980D01*
X1917313Y2259852D02*
Y2266517D01*
X1922311Y2268183D02*
Y2266517D01*
X1920645D01*
X1923977D01*
X1922311D01*
Y2261518D01*
X1923977Y2259852D01*
X1935640Y2266517D02*
X1930642D01*
X1928976Y2264851D01*
Y2261518D01*
X1930642Y2259852D01*
X1935640D01*
X1938972D02*
X1942305D01*
X1940638D01*
Y2269849D01*
X1938972Y2268183D01*
X1947303Y2261518D02*
X1948969Y2259852D01*
X1952301D01*
X1953967Y2261518D01*
Y2268183D01*
X1952301Y2269849D01*
X1948969D01*
X1947303Y2268183D01*
Y2266517D01*
X1948969Y2264851D01*
X1953967D01*
X1751060Y2292709D02*
X1754392D01*
X1752726D01*
Y2282712D01*
X1751060D01*
X1754392D01*
X1759391D02*
Y2289377D01*
X1761057D01*
X1762723Y2287711D01*
Y2282712D01*
Y2287711D01*
X1764389Y2289377D01*
X1766055Y2287711D01*
Y2282712D01*
X1769387Y2279380D02*
Y2289377D01*
X1774386D01*
X1776052Y2287711D01*
Y2284378D01*
X1774386Y2282712D01*
X1769387D01*
X1784383D02*
X1781050D01*
X1779384Y2284378D01*
Y2287711D01*
X1781050Y2289377D01*
X1784383D01*
X1786049Y2287711D01*
Y2286044D01*
X1779384D01*
X1789381Y2289377D02*
Y2282712D01*
Y2286044D01*
X1791047Y2287711D01*
X1792713Y2289377D01*
X1794379D01*
X1799378Y2282712D02*
X1802710D01*
X1801044D01*
Y2289377D01*
X1799378D01*
X1809375D02*
X1812707D01*
X1814373Y2287711D01*
Y2282712D01*
X1809375D01*
X1807708Y2284378D01*
X1809375Y2286044D01*
X1814373D01*
X1817705Y2282712D02*
X1821037D01*
X1819371D01*
Y2292709D01*
X1817705D01*
X1842697Y2291043D02*
X1841031Y2292709D01*
X1837699D01*
X1836033Y2291043D01*
Y2284378D01*
X1837699Y2282712D01*
X1841031D01*
X1842697Y2284378D01*
X1847695Y2282712D02*
X1851028D01*
X1852694Y2284378D01*
Y2287711D01*
X1851028Y2289377D01*
X1847695D01*
X1846029Y2287711D01*
Y2284378D01*
X1847695Y2282712D01*
X1856026D02*
X1859358D01*
X1857692D01*
Y2292709D01*
X1856026D01*
X1864357Y2282712D02*
X1867689D01*
X1866023D01*
Y2292709D01*
X1864357D01*
X1877686Y2282712D02*
X1874354D01*
X1872687Y2284378D01*
Y2287711D01*
X1874354Y2289377D01*
X1877686D01*
X1879352Y2287711D01*
Y2286044D01*
X1872687D01*
X1886017Y2279380D02*
X1887683D01*
X1889349Y2281046D01*
Y2289377D01*
X1884350D01*
X1882684Y2287711D01*
Y2284378D01*
X1884350Y2282712D01*
X1889349D01*
X1897679D02*
X1894347D01*
X1892681Y2284378D01*
Y2287711D01*
X1894347Y2289377D01*
X1897679D01*
X1899346Y2287711D01*
Y2286044D01*
X1892681D01*
X1912675Y2292709D02*
Y2282712D01*
X1917673D01*
X1919339Y2284378D01*
Y2291043D01*
X1917673Y2292709D01*
X1912675D01*
X1927670Y2282712D02*
X1924337D01*
X1922671Y2284378D01*
Y2287711D01*
X1924337Y2289377D01*
X1927670D01*
X1929336Y2287711D01*
Y2286044D01*
X1922671D01*
X1932668Y2279380D02*
Y2289377D01*
X1937666D01*
X1939333Y2287711D01*
Y2284378D01*
X1937666Y2282712D01*
X1932668D01*
X1944331Y2291043D02*
Y2289377D01*
X1942665D01*
X1945997D01*
X1944331D01*
Y2284378D01*
X1945997Y2282712D01*
X1950995D02*
Y2284378D01*
X1952662D01*
Y2282712D01*
X1950995D01*
X1970989D02*
X1974321D01*
X1975988Y2284378D01*
Y2287711D01*
X1974321Y2289377D01*
X1970989D01*
X1969323Y2287711D01*
Y2284378D01*
X1970989Y2282712D01*
X1980986D02*
Y2291043D01*
Y2287711D01*
X1979320D01*
X1982652D01*
X1980986D01*
Y2291043D01*
X1982652Y2292709D01*
X2004312D02*
X1997647D01*
Y2282712D01*
X2004312D01*
X1997647Y2287711D02*
X2000979D01*
X2014308Y2292709D02*
X2007644D01*
Y2282712D01*
X2014308D01*
X2007644Y2287711D02*
X2010976D01*
X2024305Y2292709D02*
X2017641D01*
Y2282712D01*
X2024305D01*
X2017641Y2287711D02*
X2020973D01*
X1865360Y2248737D02*
Y2242072D01*
X1868692Y2238740D01*
X1872025Y2242072D01*
Y2248737D01*
X1880355Y2238740D02*
X1877023D01*
X1875357Y2240406D01*
Y2243738D01*
X1877023Y2245405D01*
X1880355D01*
X1882021Y2243738D01*
Y2242072D01*
X1875357D01*
X1885354Y2245405D02*
Y2238740D01*
Y2242072D01*
X1887020Y2243738D01*
X1888686Y2245405D01*
X1890352D01*
X1902015Y2238740D02*
X1895350D01*
X1902015Y2245405D01*
Y2247071D01*
X1900349Y2248737D01*
X1897016D01*
X1895350Y2247071D01*
X1905347Y2238740D02*
Y2240406D01*
X1907013D01*
Y2238740D01*
X1905347D01*
X1913678Y2247071D02*
X1915344Y2248737D01*
X1918676D01*
X1920342Y2247071D01*
Y2240406D01*
X1918676Y2238740D01*
X1915344D01*
X1913678Y2240406D01*
Y2247071D01*
D17*
X3461081Y2422890D02*
D03*
X2169159Y1691910D02*
D03*
X411480Y2422890D02*
D03*
X1496059Y1689370D02*
D03*
M02*
