G04*
G04 #@! TF.GenerationSoftware,Altium Limited,Altium Designer,22.11.1 (43)*
G04*
G04 Layer_Color=8388736*
%FSLAX44Y44*%
%MOMM*%
G71*
G04*
G04 #@! TF.SameCoordinates,B38BEB0A-FF2B-4473-85C9-27130B265984*
G04*
G04*
G04 #@! TF.FilePolarity,Negative*
G04*
G01*
G75*
%ADD24O,2.4032X0.8032*%
%ADD25R,1.2232X1.6732*%
%ADD26R,1.6732X1.2232*%
%ADD27R,2.7032X1.7032*%
%ADD28R,2.2032X4.2032*%
%ADD29R,4.2032X2.2032*%
%ADD30C,2.7032*%
%ADD31C,2.4032*%
%ADD32C,3.7032*%
%ADD33C,3.2032*%
%ADD34O,3.8032X3.4032*%
%ADD35C,5.7032*%
%ADD36C,10.2032*%
%ADD37C,1.6032*%
%ADD38R,1.6032X1.6032*%
%ADD39R,2.7032X2.7032*%
%ADD40C,1.8520*%
%ADD41R,1.8520X1.8520*%
%ADD42C,1.2192*%
%ADD43C,1.4732*%
D24*
X2787780Y3119120D02*
D03*
Y3106420D02*
D03*
Y3093720D02*
D03*
Y3081020D02*
D03*
Y3068320D02*
D03*
Y3055620D02*
D03*
Y3042920D02*
D03*
X2835780Y3119120D02*
D03*
Y3106420D02*
D03*
Y3093720D02*
D03*
Y3081020D02*
D03*
Y3068320D02*
D03*
Y3055620D02*
D03*
Y3042920D02*
D03*
X663600Y3090890D02*
D03*
Y3103590D02*
D03*
Y3116290D02*
D03*
Y3128990D02*
D03*
Y3141690D02*
D03*
Y3154390D02*
D03*
Y3167090D02*
D03*
X615600Y3090890D02*
D03*
Y3103590D02*
D03*
Y3116290D02*
D03*
Y3128990D02*
D03*
Y3141690D02*
D03*
Y3154390D02*
D03*
Y3167090D02*
D03*
X3074540Y3065780D02*
D03*
Y3078480D02*
D03*
Y3091180D02*
D03*
Y3103880D02*
D03*
Y3116580D02*
D03*
Y3129280D02*
D03*
Y3141980D02*
D03*
X3026540Y3065780D02*
D03*
Y3078480D02*
D03*
Y3091180D02*
D03*
Y3103880D02*
D03*
Y3116580D02*
D03*
Y3129280D02*
D03*
Y3141980D02*
D03*
X357660Y3159470D02*
D03*
Y3146770D02*
D03*
Y3134070D02*
D03*
Y3121370D02*
D03*
Y3108670D02*
D03*
Y3095970D02*
D03*
Y3083270D02*
D03*
X405660Y3159470D02*
D03*
Y3146770D02*
D03*
Y3134070D02*
D03*
Y3121370D02*
D03*
Y3108670D02*
D03*
Y3095970D02*
D03*
Y3083270D02*
D03*
D25*
X644500Y3187700D02*
D03*
X625500D02*
D03*
X677520Y3055620D02*
D03*
X658520D02*
D03*
X592480D02*
D03*
X611480D02*
D03*
X687020Y3187700D02*
D03*
X668020D02*
D03*
X3037180Y3167380D02*
D03*
X3018180D02*
D03*
X3080360Y3032760D02*
D03*
X3061360D02*
D03*
X3092400Y3167380D02*
D03*
X3073400D02*
D03*
X3019400Y3032760D02*
D03*
X3000400D02*
D03*
X490220Y3106130D02*
D03*
X471220D02*
D03*
X470560Y3078480D02*
D03*
X489560D02*
D03*
D26*
X708660Y3091180D02*
D03*
Y3072180D02*
D03*
X563880Y3090520D02*
D03*
Y3071520D02*
D03*
X2969260Y3065780D02*
D03*
Y3084780D02*
D03*
X3116580Y3052420D02*
D03*
Y3033420D02*
D03*
X2809240Y3014320D02*
D03*
Y2995320D02*
D03*
X2880360Y3070860D02*
D03*
Y3051860D02*
D03*
Y3102000D02*
D03*
Y3121000D02*
D03*
X2849880Y2995320D02*
D03*
Y3014320D02*
D03*
X358140Y3049880D02*
D03*
Y3030880D02*
D03*
X473100Y3152510D02*
D03*
Y3171510D02*
D03*
X2882900Y3014320D02*
D03*
Y2995320D02*
D03*
D27*
X2098040Y3095480D02*
D03*
Y3061480D02*
D03*
X2367280Y3095480D02*
D03*
Y3061480D02*
D03*
X2633980Y3095480D02*
D03*
Y3061480D02*
D03*
X1300480Y3090400D02*
D03*
Y3056400D02*
D03*
X1567180Y3095480D02*
D03*
Y3061480D02*
D03*
X1833880Y3095480D02*
D03*
Y3061480D02*
D03*
D28*
X2009140Y2700020D02*
D03*
X1949140D02*
D03*
X1621000Y2697480D02*
D03*
X1681000D02*
D03*
D29*
X2232660Y2654780D02*
D03*
Y2714780D02*
D03*
X2481580Y2652240D02*
D03*
Y2712240D02*
D03*
X1148080Y2657320D02*
D03*
Y2717320D02*
D03*
X1414780Y2657320D02*
D03*
Y2717320D02*
D03*
D30*
X1722120Y3228340D02*
D03*
X1795780D02*
D03*
Y3187700D02*
D03*
X1724660D02*
D03*
X2440940Y3362960D02*
D03*
Y3411220D02*
D03*
X1955800Y3413760D02*
D03*
Y3365500D02*
D03*
X1315720Y3208020D02*
D03*
X1313180Y3164840D02*
D03*
X1389380Y3208020D02*
D03*
Y3167380D02*
D03*
X1247140Y3078480D02*
D03*
X1518920Y3081020D02*
D03*
X1767840Y3078480D02*
D03*
X2019300Y3091180D02*
D03*
X2286000Y3093720D02*
D03*
X2537460Y3098800D02*
D03*
X3359480Y2387600D02*
D03*
X3409480D02*
D03*
X2270760Y1727200D02*
D03*
X2220760D02*
D03*
X309880Y2387600D02*
D03*
X359880D02*
D03*
X1597660Y1724660D02*
D03*
X1547660D02*
D03*
X1537040Y2263140D02*
D03*
X1262040D02*
D03*
X1712300Y2423160D02*
D03*
X1437300D02*
D03*
X1846920Y2588260D02*
D03*
X1571920D02*
D03*
X1904660D02*
D03*
X2179660D02*
D03*
X2087540Y2423160D02*
D03*
X2362540D02*
D03*
X2234860Y2263140D02*
D03*
X2509860D02*
D03*
D31*
X2100580Y2781300D02*
D03*
Y2984500D02*
D03*
X2024380D02*
D03*
X1948180D02*
D03*
Y2781300D02*
D03*
X2367280D02*
D03*
Y2984500D02*
D03*
X2291080D02*
D03*
X2214880D02*
D03*
Y2781300D02*
D03*
X2633980D02*
D03*
Y2984500D02*
D03*
X2557780D02*
D03*
X2481580D02*
D03*
Y2781300D02*
D03*
X1300480D02*
D03*
Y2984500D02*
D03*
X1224280D02*
D03*
X1148080D02*
D03*
Y2781300D02*
D03*
X1567180D02*
D03*
Y2984500D02*
D03*
X1490980D02*
D03*
X1414780D02*
D03*
Y2781300D02*
D03*
X1833880D02*
D03*
Y2984500D02*
D03*
X1757680D02*
D03*
X1681480D02*
D03*
Y2781300D02*
D03*
D32*
X1135380Y3345180D02*
D03*
D33*
X1919920Y1988820D02*
D03*
X2083120D02*
D03*
X2133280D02*
D03*
X2296480D02*
D03*
X2346640D02*
D03*
X2509840D02*
D03*
X1417640D02*
D03*
X1254440D02*
D03*
X1631000D02*
D03*
X1467800D02*
D03*
X1846900D02*
D03*
X1683700D02*
D03*
X3459480Y1900956D02*
D03*
X3248480D02*
D03*
X3459480Y2220956D02*
D03*
X3248480D02*
D03*
X3459480Y2060956D02*
D03*
X3248480D02*
D03*
X308790Y2220956D02*
D03*
X519790D02*
D03*
X308790Y1900956D02*
D03*
X519790D02*
D03*
X308790Y2060956D02*
D03*
X519790D02*
D03*
D34*
X2872740Y2585096D02*
D03*
Y2380096D02*
D03*
Y2269120D02*
D03*
Y2064120D02*
D03*
Y1950096D02*
D03*
Y1745096D02*
D03*
X892990Y1950096D02*
D03*
Y1745096D02*
D03*
Y2269120D02*
D03*
Y2064120D02*
D03*
Y2585096D02*
D03*
Y2380096D02*
D03*
D35*
X2484120Y1744980D02*
D03*
X330200Y2677160D02*
D03*
X2578100D02*
D03*
X1280160D02*
D03*
X330200Y3274060D02*
D03*
X3429000D02*
D03*
Y1752600D02*
D03*
X330200Y1755140D02*
D03*
X1280160Y1742440D02*
D03*
D36*
X3423920Y2768600D02*
D03*
D37*
X2974340Y3384550D02*
D03*
Y3359150D02*
D03*
X2948940Y3384550D02*
D03*
Y3359150D02*
D03*
X2923540Y3384550D02*
D03*
Y3359150D02*
D03*
X2898140Y3384550D02*
D03*
Y3359150D02*
D03*
X2872740Y3384550D02*
D03*
Y3359150D02*
D03*
X2847340Y3384550D02*
D03*
Y3359150D02*
D03*
X2821940Y3384550D02*
D03*
Y3359150D02*
D03*
X2796540Y3384550D02*
D03*
Y3359150D02*
D03*
X2771140Y3384550D02*
D03*
Y3359150D02*
D03*
X2745740Y3384550D02*
D03*
X2974340Y2952750D02*
D03*
Y2927350D02*
D03*
X2948940Y2952750D02*
D03*
Y2927350D02*
D03*
X2923540Y2952750D02*
D03*
Y2927350D02*
D03*
X2898140Y2952750D02*
D03*
Y2927350D02*
D03*
X2872740Y2952750D02*
D03*
Y2927350D02*
D03*
X2847340Y2952750D02*
D03*
Y2927350D02*
D03*
X2821940Y2952750D02*
D03*
Y2927350D02*
D03*
X2796540Y2952750D02*
D03*
Y2927350D02*
D03*
X2771140Y2952750D02*
D03*
Y2927350D02*
D03*
X2745740Y2952750D02*
D03*
X551180Y3384550D02*
D03*
Y3359150D02*
D03*
X525780Y3384550D02*
D03*
Y3359150D02*
D03*
X500380Y3384550D02*
D03*
Y3359150D02*
D03*
X474980Y3384550D02*
D03*
Y3359150D02*
D03*
X449580Y3384550D02*
D03*
Y3359150D02*
D03*
X424180Y3384550D02*
D03*
Y3359150D02*
D03*
X398780Y3384550D02*
D03*
Y3359150D02*
D03*
X373380Y3384550D02*
D03*
Y3359150D02*
D03*
X347980Y3384550D02*
D03*
Y3359150D02*
D03*
X322580Y3384550D02*
D03*
X551180Y2952750D02*
D03*
Y2927350D02*
D03*
X525780Y2952750D02*
D03*
Y2927350D02*
D03*
X500380Y2952750D02*
D03*
Y2927350D02*
D03*
X474980Y2952750D02*
D03*
Y2927350D02*
D03*
X449580Y2952750D02*
D03*
Y2927350D02*
D03*
X424180Y2952750D02*
D03*
Y2927350D02*
D03*
X398780Y2952750D02*
D03*
Y2927350D02*
D03*
X373380Y2952750D02*
D03*
Y2927350D02*
D03*
X347980Y2952750D02*
D03*
Y2927350D02*
D03*
X322580Y2952750D02*
D03*
X3164840Y2776220D02*
D03*
X3241040D02*
D03*
D38*
X2745740Y3359150D02*
D03*
Y2927350D02*
D03*
X322580Y3359150D02*
D03*
Y2927350D02*
D03*
D39*
X3459480Y2387600D02*
D03*
X2170760Y1727200D02*
D03*
X409880Y2387600D02*
D03*
X1497660Y1724660D02*
D03*
D40*
X2047240Y3324860D02*
D03*
Y3312160D02*
D03*
X2059940Y3324860D02*
D03*
Y3312160D02*
D03*
X2072640Y3324860D02*
D03*
Y3312160D02*
D03*
X2085340Y3324860D02*
D03*
Y3312160D02*
D03*
X2098040Y3324860D02*
D03*
Y3312160D02*
D03*
X2110740Y3324860D02*
D03*
Y3312160D02*
D03*
X2123440Y3324860D02*
D03*
Y3312160D02*
D03*
X2136140Y3324860D02*
D03*
Y3312160D02*
D03*
X2148840Y3324860D02*
D03*
Y3312160D02*
D03*
X2161540Y3324860D02*
D03*
Y3312160D02*
D03*
X2174240Y3324860D02*
D03*
Y3312160D02*
D03*
X2186940Y3324860D02*
D03*
Y3312160D02*
D03*
X2199640Y3324860D02*
D03*
Y3312160D02*
D03*
X2212340Y3324860D02*
D03*
Y3312160D02*
D03*
X2225040Y3324860D02*
D03*
Y3312160D02*
D03*
X2237740Y3324860D02*
D03*
Y3312160D02*
D03*
X2250440Y3324860D02*
D03*
Y3312160D02*
D03*
X2263140Y3324860D02*
D03*
Y3312160D02*
D03*
X2275840Y3324860D02*
D03*
Y3312160D02*
D03*
X2288540Y3324860D02*
D03*
Y3312160D02*
D03*
X2301240Y3324860D02*
D03*
Y3312160D02*
D03*
X2313940Y3324860D02*
D03*
Y3312160D02*
D03*
X2326640Y3324860D02*
D03*
Y3312160D02*
D03*
X2339340Y3324860D02*
D03*
Y3312160D02*
D03*
X2352040Y3324860D02*
D03*
X1366520D02*
D03*
Y3312160D02*
D03*
X1379220Y3324860D02*
D03*
Y3312160D02*
D03*
X1391920Y3324860D02*
D03*
Y3312160D02*
D03*
X1404620Y3324860D02*
D03*
Y3312160D02*
D03*
X1417320Y3324860D02*
D03*
Y3312160D02*
D03*
X1430020Y3324860D02*
D03*
Y3312160D02*
D03*
X1442720Y3324860D02*
D03*
Y3312160D02*
D03*
X1455420Y3324860D02*
D03*
Y3312160D02*
D03*
X1468120Y3324860D02*
D03*
Y3312160D02*
D03*
X1480820Y3324860D02*
D03*
Y3312160D02*
D03*
X1493520Y3324860D02*
D03*
Y3312160D02*
D03*
X1506220Y3324860D02*
D03*
Y3312160D02*
D03*
X1518920Y3324860D02*
D03*
Y3312160D02*
D03*
X1531620Y3324860D02*
D03*
Y3312160D02*
D03*
X1544320Y3324860D02*
D03*
Y3312160D02*
D03*
X1557020Y3324860D02*
D03*
Y3312160D02*
D03*
X1569720Y3324860D02*
D03*
Y3312160D02*
D03*
X1582420Y3324860D02*
D03*
Y3312160D02*
D03*
X1595120Y3324860D02*
D03*
Y3312160D02*
D03*
X1607820Y3324860D02*
D03*
Y3312160D02*
D03*
X1620520Y3324860D02*
D03*
Y3312160D02*
D03*
X1633220Y3324860D02*
D03*
Y3312160D02*
D03*
X1645920Y3324860D02*
D03*
Y3312160D02*
D03*
X1658620Y3324860D02*
D03*
Y3312160D02*
D03*
X1671320Y3324860D02*
D03*
D41*
X2352040Y3312160D02*
D03*
X1671320D02*
D03*
D42*
X3053380Y3086100D02*
D03*
X2815590Y3073400D02*
D03*
X643110Y3111500D02*
D03*
X3046340Y3122540D02*
D03*
D43*
X2753360Y3114040D02*
D03*
X2981960Y3106420D02*
D03*
X451849Y3106130D02*
D03*
X1221740Y3140710D02*
D03*
X2755900Y3167380D02*
D03*
X2971800Y3162300D02*
D03*
X3141980Y3091180D02*
D03*
X2667000Y3134360D02*
D03*
X2608580Y3114040D02*
D03*
X2557780Y3126740D02*
D03*
X2494280Y3205480D02*
D03*
X2466340D02*
D03*
X1135380Y3149600D02*
D03*
X1163320D02*
D03*
X1595120Y3274060D02*
D03*
X2860040Y3093720D02*
D03*
Y3068320D02*
D03*
X2997200Y3091180D02*
D03*
X3106420Y3116580D02*
D03*
X731520Y3122730D02*
D03*
X642620Y3218180D02*
D03*
X2481580Y2628900D02*
D03*
X2235200Y2623820D02*
D03*
X1414780D02*
D03*
X1148080Y2627720D02*
D03*
X578460Y3137190D02*
D03*
X665480Y3230880D02*
D03*
X589657Y3108040D02*
D03*
X381000Y3060700D02*
D03*
X323240Y3118830D02*
D03*
X447700Y3154390D02*
D03*
X450240Y3134070D02*
D03*
X429351Y3117185D02*
D03*
X694011Y3139796D02*
D03*
X1800860Y3096260D02*
D03*
X1879600Y3093720D02*
D03*
X1442720Y3121660D02*
D03*
X2326484Y3095686D02*
D03*
X2059940Y3096260D02*
D03*
X1539240Y3119120D02*
D03*
X1341120Y3091180D02*
D03*
M02*
