G04*
G04 #@! TF.GenerationSoftware,Altium Limited,Altium Designer,22.11.1 (43)*
G04*
G04 Layer_Color=2752767*
%FSLAX44Y44*%
%MOMM*%
G71*
G04*
G04 #@! TF.SameCoordinates,B38BEB0A-FF2B-4473-85C9-27130B265984*
G04*
G04*
G04 #@! TF.FilePolarity,Positive*
G04*
G01*
G75*
%ADD14C,0.1270*%
%ADD63C,0.1693*%
%ADD64C,0.1016*%
D14*
X1717040Y3223260D02*
X1719580Y3228340D01*
X1717040Y3233420D01*
X1722120Y3230880D01*
X1727200Y3233420D01*
X1724660Y3228340D01*
X1727200Y3223260D01*
X1722120Y3225800D01*
X1717040Y3223260D01*
X1790700D02*
X1793240Y3228340D01*
X1790700Y3233420D01*
X1795780Y3230880D01*
X1800860Y3233420D01*
X1798320Y3228340D01*
X1800860Y3223260D01*
X1795780Y3225800D01*
X1790700Y3223260D01*
Y3182620D02*
X1793240Y3187700D01*
X1790700Y3192780D01*
X1795780Y3190240D01*
X1800860Y3192780D01*
X1798320Y3187700D01*
X1800860Y3182620D01*
X1795780Y3185160D01*
X1790700Y3182620D01*
X1719580D02*
X1722120Y3187700D01*
X1719580Y3192780D01*
X1724660Y3190240D01*
X1729740Y3192780D01*
X1727200Y3187700D01*
X1729740Y3182620D01*
X1724660Y3185160D01*
X1719580Y3182620D01*
X2095500Y2776220D02*
Y2786380D01*
X2105660D01*
Y2776220D01*
X2095500D01*
Y2979420D02*
Y2989580D01*
X2105660D01*
Y2979420D01*
X2095500D01*
X2019300D02*
Y2989580D01*
X2029460D01*
Y2979420D01*
X2019300D01*
X1943100D02*
Y2989580D01*
X1953260D01*
Y2979420D01*
X1943100D01*
Y2776220D02*
Y2786380D01*
X1953260D01*
Y2776220D01*
X1943100D01*
X2362200D02*
Y2786380D01*
X2372360D01*
Y2776220D01*
X2362200D01*
Y2979420D02*
Y2989580D01*
X2372360D01*
Y2979420D01*
X2362200D01*
X2286000D02*
Y2989580D01*
X2296160D01*
Y2979420D01*
X2286000D01*
X2209800D02*
Y2989580D01*
X2219960D01*
Y2979420D01*
X2209800D01*
Y2776220D02*
Y2786380D01*
X2219960D01*
Y2776220D01*
X2209800D01*
X2628900D02*
Y2786380D01*
X2639060D01*
Y2776220D01*
X2628900D01*
Y2979420D02*
Y2989580D01*
X2639060D01*
Y2979420D01*
X2628900D01*
X2552700D02*
Y2989580D01*
X2562860D01*
Y2979420D01*
X2552700D01*
X2476500D02*
Y2989580D01*
X2486660D01*
Y2979420D01*
X2476500D01*
Y2776220D02*
Y2786380D01*
X2486660D01*
Y2776220D01*
X2476500D01*
X1295400D02*
Y2786380D01*
X1305560D01*
Y2776220D01*
X1295400D01*
Y2979420D02*
Y2989580D01*
X1305560D01*
Y2979420D01*
X1295400D01*
X1219200D02*
Y2989580D01*
X1229360D01*
Y2979420D01*
X1219200D01*
X1143000D02*
Y2989580D01*
X1153160D01*
Y2979420D01*
X1143000D01*
Y2776220D02*
Y2786380D01*
X1153160D01*
Y2776220D01*
X1143000D01*
X1562100D02*
Y2786380D01*
X1572260D01*
Y2776220D01*
X1562100D01*
Y2979420D02*
Y2989580D01*
X1572260D01*
Y2979420D01*
X1562100D01*
X1485900D02*
Y2989580D01*
X1496060D01*
Y2979420D01*
X1485900D01*
X1409700D02*
Y2989580D01*
X1419860D01*
Y2979420D01*
X1409700D01*
Y2776220D02*
Y2786380D01*
X1419860D01*
Y2776220D01*
X1409700D01*
X1828800D02*
Y2786380D01*
X1838960D01*
Y2776220D01*
X1828800D01*
Y2979420D02*
Y2989580D01*
X1838960D01*
Y2979420D01*
X1828800D01*
X1752600D02*
Y2989580D01*
X1762760D01*
Y2979420D01*
X1752600D01*
X1676400D02*
Y2989580D01*
X1686560D01*
Y2979420D01*
X1676400D01*
Y2776220D02*
Y2786380D01*
X1686560D01*
Y2776220D01*
X1676400D01*
X1130300Y3345180D02*
X1135380Y3350260D01*
X1140460Y3345180D01*
X1135380Y3340100D01*
X1130300Y3345180D01*
X2435860Y3357880D02*
X2438400Y3362960D01*
X2435860Y3368040D01*
X2440940Y3365500D01*
X2446020Y3368040D01*
X2443480Y3362960D01*
X2446020Y3357880D01*
X2440940Y3360420D01*
X2435860Y3357880D01*
Y3406140D02*
X2438400Y3411220D01*
X2435860Y3416300D01*
X2440940Y3413760D01*
X2446020Y3416300D01*
X2443480Y3411220D01*
X2446020Y3406140D01*
X2440940Y3408680D01*
X2435860Y3406140D01*
X1950720Y3408680D02*
X1953260Y3413760D01*
X1950720Y3418840D01*
X1955800Y3416300D01*
X1960880Y3418840D01*
X1958340Y3413760D01*
X1960880Y3408680D01*
X1955800Y3411220D01*
X1950720Y3408680D01*
Y3360420D02*
X1953260Y3365500D01*
X1950720Y3370580D01*
X1955800Y3368040D01*
X1960880Y3370580D01*
X1958340Y3365500D01*
X1960880Y3360420D01*
X1955800Y3362960D01*
X1950720Y3360420D01*
X1310640Y3202940D02*
X1313180Y3208020D01*
X1310640Y3213100D01*
X1315720Y3210560D01*
X1320800Y3213100D01*
X1318260Y3208020D01*
X1320800Y3202940D01*
X1315720Y3205480D01*
X1310640Y3202940D01*
X1308100Y3159760D02*
X1310640Y3164840D01*
X1308100Y3169920D01*
X1313180Y3167380D01*
X1318260Y3169920D01*
X1315720Y3164840D01*
X1318260Y3159760D01*
X1313180Y3162300D01*
X1308100Y3159760D01*
X1384300Y3202940D02*
X1386840Y3208020D01*
X1384300Y3213100D01*
X1389380Y3210560D01*
X1394460Y3213100D01*
X1391920Y3208020D01*
X1394460Y3202940D01*
X1389380Y3205480D01*
X1384300Y3202940D01*
Y3162300D02*
X1386840Y3167380D01*
X1384300Y3172460D01*
X1389380Y3169920D01*
X1394460Y3172460D01*
X1391920Y3167380D01*
X1394460Y3162300D01*
X1389380Y3164840D01*
X1384300Y3162300D01*
X1242060Y3073400D02*
X1244600Y3078480D01*
X1242060Y3083560D01*
X1247140Y3081020D01*
X1252220Y3083560D01*
X1249680Y3078480D01*
X1252220Y3073400D01*
X1247140Y3075940D01*
X1242060Y3073400D01*
X1513840Y3075940D02*
X1516380Y3081020D01*
X1513840Y3086100D01*
X1518920Y3083560D01*
X1524000Y3086100D01*
X1521460Y3081020D01*
X1524000Y3075940D01*
X1518920Y3078480D01*
X1513840Y3075940D01*
X1762760Y3073400D02*
X1765300Y3078480D01*
X1762760Y3083560D01*
X1767840Y3081020D01*
X1772920Y3083560D01*
X1770380Y3078480D01*
X1772920Y3073400D01*
X1767840Y3075940D01*
X1762760Y3073400D01*
X2014220Y3086100D02*
X2016760Y3091180D01*
X2014220Y3096260D01*
X2019300Y3093720D01*
X2024380Y3096260D01*
X2021840Y3091180D01*
X2024380Y3086100D01*
X2019300Y3088640D01*
X2014220Y3086100D01*
X2280920Y3088640D02*
X2283460Y3093720D01*
X2280920Y3098800D01*
X2286000Y3096260D01*
X2291080Y3098800D01*
X2288540Y3093720D01*
X2291080Y3088640D01*
X2286000Y3091180D01*
X2280920Y3088640D01*
X2532380Y3093720D02*
X2534920Y3098800D01*
X2532380Y3103880D01*
X2537460Y3101340D01*
X2542540Y3103880D01*
X2540000Y3098800D01*
X2542540Y3093720D01*
X2537460Y3096260D01*
X2532380Y3093720D01*
X1919920Y1983740D02*
X1914840Y1993900D01*
X1925000D01*
X1919920Y1983740D01*
Y1985772D02*
X1916872Y1991868D01*
X1922968D01*
X1919920Y1985772D01*
X2083120Y1983740D02*
X2078040Y1993900D01*
X2088200D01*
X2083120Y1983740D01*
Y1985772D02*
X2080072Y1991868D01*
X2086168D01*
X2083120Y1985772D01*
X2133280Y1983740D02*
X2128200Y1993900D01*
X2138360D01*
X2133280Y1983740D01*
Y1985772D02*
X2130232Y1991868D01*
X2136328D01*
X2133280Y1985772D01*
X2296480Y1983740D02*
X2291400Y1993900D01*
X2301560D01*
X2296480Y1983740D01*
Y1985772D02*
X2293432Y1991868D01*
X2299528D01*
X2296480Y1985772D01*
X2346640Y1983740D02*
X2341560Y1993900D01*
X2351720D01*
X2346640Y1983740D01*
Y1985772D02*
X2343592Y1991868D01*
X2349688D01*
X2346640Y1985772D01*
X2509840Y1983740D02*
X2504760Y1993900D01*
X2514920D01*
X2509840Y1983740D01*
Y1985772D02*
X2506792Y1991868D01*
X2512888D01*
X2509840Y1985772D01*
X2872740Y2580016D02*
X2867660Y2590176D01*
X2877820D01*
X2872740Y2580016D01*
Y2582048D02*
X2869692Y2588144D01*
X2875788D01*
X2872740Y2582048D01*
Y2375016D02*
X2867660Y2385176D01*
X2877820D01*
X2872740Y2375016D01*
Y2377048D02*
X2869692Y2383144D01*
X2875788D01*
X2872740Y2377048D01*
Y2264040D02*
X2867660Y2274200D01*
X2877820D01*
X2872740Y2264040D01*
Y2266072D02*
X2869692Y2272168D01*
X2875788D01*
X2872740Y2266072D01*
Y2059040D02*
X2867660Y2069200D01*
X2877820D01*
X2872740Y2059040D01*
Y2061072D02*
X2869692Y2067168D01*
X2875788D01*
X2872740Y2061072D01*
Y1945016D02*
X2867660Y1955176D01*
X2877820D01*
X2872740Y1945016D01*
Y1947048D02*
X2869692Y1953144D01*
X2875788D01*
X2872740Y1947048D01*
Y1740016D02*
X2867660Y1750176D01*
X2877820D01*
X2872740Y1740016D01*
Y1742048D02*
X2869692Y1748144D01*
X2875788D01*
X2872740Y1742048D01*
X1417640Y1983740D02*
X1412560Y1993900D01*
X1422720D01*
X1417640Y1983740D01*
Y1985772D02*
X1414592Y1991868D01*
X1420688D01*
X1417640Y1985772D01*
X1254440Y1983740D02*
X1249360Y1993900D01*
X1259520D01*
X1254440Y1983740D01*
Y1985772D02*
X1251392Y1991868D01*
X1257488D01*
X1254440Y1985772D01*
X1631000Y1983740D02*
X1625920Y1993900D01*
X1636080D01*
X1631000Y1983740D01*
Y1985772D02*
X1627952Y1991868D01*
X1634048D01*
X1631000Y1985772D01*
X1467800Y1983740D02*
X1462720Y1993900D01*
X1472880D01*
X1467800Y1983740D01*
Y1985772D02*
X1464752Y1991868D01*
X1470848D01*
X1467800Y1985772D01*
X1846900Y1983740D02*
X1841820Y1993900D01*
X1851980D01*
X1846900Y1983740D01*
Y1985772D02*
X1843852Y1991868D01*
X1849948D01*
X1846900Y1985772D01*
X1683700Y1983740D02*
X1678620Y1993900D01*
X1688780D01*
X1683700Y1983740D01*
Y1985772D02*
X1680652Y1991868D01*
X1686748D01*
X1683700Y1985772D01*
X892990Y1945016D02*
X887910Y1955176D01*
X898070D01*
X892990Y1945016D01*
Y1947048D02*
X889942Y1953144D01*
X896038D01*
X892990Y1947048D01*
Y1740016D02*
X887910Y1750176D01*
X898070D01*
X892990Y1740016D01*
Y1742048D02*
X889942Y1748144D01*
X896038D01*
X892990Y1742048D01*
Y2264040D02*
X887910Y2274200D01*
X898070D01*
X892990Y2264040D01*
Y2266072D02*
X889942Y2272168D01*
X896038D01*
X892990Y2266072D01*
Y2059040D02*
X887910Y2069200D01*
X898070D01*
X892990Y2059040D01*
Y2061072D02*
X889942Y2067168D01*
X896038D01*
X892990Y2061072D01*
Y2580016D02*
X887910Y2590176D01*
X898070D01*
X892990Y2580016D01*
Y2582048D02*
X889942Y2588144D01*
X896038D01*
X892990Y2582048D01*
Y2375016D02*
X887910Y2385176D01*
X898070D01*
X892990Y2375016D01*
Y2377048D02*
X889942Y2383144D01*
X896038D01*
X892990Y2377048D01*
X3459480Y1895876D02*
X3454400Y1906036D01*
X3464560D01*
X3459480Y1895876D01*
Y1897908D02*
X3456432Y1904004D01*
X3462528D01*
X3459480Y1897908D01*
X3248480Y1895876D02*
X3243400Y1906036D01*
X3253560D01*
X3248480Y1895876D01*
Y1897908D02*
X3245432Y1904004D01*
X3251528D01*
X3248480Y1897908D01*
X3459480Y2215876D02*
X3454400Y2226036D01*
X3464560D01*
X3459480Y2215876D01*
Y2217908D02*
X3456432Y2224004D01*
X3462528D01*
X3459480Y2217908D01*
X3248480Y2215876D02*
X3243400Y2226036D01*
X3253560D01*
X3248480Y2215876D01*
Y2217908D02*
X3245432Y2224004D01*
X3251528D01*
X3248480Y2217908D01*
X3459480Y2055876D02*
X3454400Y2066036D01*
X3464560D01*
X3459480Y2055876D01*
Y2057908D02*
X3456432Y2064004D01*
X3462528D01*
X3459480Y2057908D01*
X3248480Y2055876D02*
X3243400Y2066036D01*
X3253560D01*
X3248480Y2055876D01*
Y2057908D02*
X3245432Y2064004D01*
X3251528D01*
X3248480Y2057908D01*
X308790Y2215876D02*
X303710Y2226036D01*
X313870D01*
X308790Y2215876D01*
Y2217908D02*
X305742Y2224004D01*
X311838D01*
X308790Y2217908D01*
X519790Y2215876D02*
X514710Y2226036D01*
X524870D01*
X519790Y2215876D01*
Y2217908D02*
X516742Y2224004D01*
X522838D01*
X519790Y2217908D01*
X308790Y1895876D02*
X303710Y1906036D01*
X313870D01*
X308790Y1895876D01*
Y1897908D02*
X305742Y1904004D01*
X311838D01*
X308790Y1897908D01*
X519790Y1895876D02*
X514710Y1906036D01*
X524870D01*
X519790Y1895876D01*
Y1897908D02*
X516742Y1904004D01*
X522838D01*
X519790Y1897908D01*
X308790Y2055876D02*
X303710Y2066036D01*
X313870D01*
X308790Y2055876D01*
Y2057908D02*
X305742Y2064004D01*
X311838D01*
X308790Y2057908D01*
X519790Y2055876D02*
X514710Y2066036D01*
X524870D01*
X519790Y2055876D01*
Y2057908D02*
X516742Y2064004D01*
X522838D01*
X519790Y2057908D01*
X2479040Y1739900D02*
X2481580D01*
X2484120Y1742440D01*
X2486660Y1739900D01*
X2489200D01*
Y1742440D01*
X2486660Y1744980D01*
X2489200Y1747520D01*
Y1750060D01*
X2486660D01*
X2484120Y1747520D01*
X2481580Y1750060D01*
X2479040D01*
Y1747520D01*
X2481580Y1744980D01*
X2479040Y1742440D01*
Y1739900D01*
X325120Y2672080D02*
X327660D01*
X330200Y2674620D01*
X332740Y2672080D01*
X335280D01*
Y2674620D01*
X332740Y2677160D01*
X335280Y2679700D01*
Y2682240D01*
X332740D01*
X330200Y2679700D01*
X327660Y2682240D01*
X325120D01*
Y2679700D01*
X327660Y2677160D01*
X325120Y2674620D01*
Y2672080D01*
X3418840Y2763520D02*
X3421380D01*
X3423920Y2766060D01*
X3426460Y2763520D01*
X3429000D01*
Y2766060D01*
X3426460Y2768600D01*
X3429000Y2771140D01*
Y2773680D01*
X3426460D01*
X3423920Y2771140D01*
X3421380Y2773680D01*
X3418840D01*
Y2771140D01*
X3421380Y2768600D01*
X3418840Y2766060D01*
Y2763520D01*
X2573020Y2672080D02*
X2575560D01*
X2578100Y2674620D01*
X2580640Y2672080D01*
X2583180D01*
Y2674620D01*
X2580640Y2677160D01*
X2583180Y2679700D01*
Y2682240D01*
X2580640D01*
X2578100Y2679700D01*
X2575560Y2682240D01*
X2573020D01*
Y2679700D01*
X2575560Y2677160D01*
X2573020Y2674620D01*
Y2672080D01*
X1275080D02*
X1277620D01*
X1280160Y2674620D01*
X1282700Y2672080D01*
X1285240D01*
Y2674620D01*
X1282700Y2677160D01*
X1285240Y2679700D01*
Y2682240D01*
X1282700D01*
X1280160Y2679700D01*
X1277620Y2682240D01*
X1275080D01*
Y2679700D01*
X1277620Y2677160D01*
X1275080Y2674620D01*
Y2672080D01*
X325120Y3268980D02*
X327660D01*
X330200Y3271520D01*
X332740Y3268980D01*
X335280D01*
Y3271520D01*
X332740Y3274060D01*
X335280Y3276600D01*
Y3279140D01*
X332740D01*
X330200Y3276600D01*
X327660Y3279140D01*
X325120D01*
Y3276600D01*
X327660Y3274060D01*
X325120Y3271520D01*
Y3268980D01*
X3423920D02*
X3426460D01*
X3429000Y3271520D01*
X3431540Y3268980D01*
X3434080D01*
Y3271520D01*
X3431540Y3274060D01*
X3434080Y3276600D01*
Y3279140D01*
X3431540D01*
X3429000Y3276600D01*
X3426460Y3279140D01*
X3423920D01*
Y3276600D01*
X3426460Y3274060D01*
X3423920Y3271520D01*
Y3268980D01*
Y1747520D02*
X3426460D01*
X3429000Y1750060D01*
X3431540Y1747520D01*
X3434080D01*
Y1750060D01*
X3431540Y1752600D01*
X3434080Y1755140D01*
Y1757680D01*
X3431540D01*
X3429000Y1755140D01*
X3426460Y1757680D01*
X3423920D01*
Y1755140D01*
X3426460Y1752600D01*
X3423920Y1750060D01*
Y1747520D01*
X2969260Y3379470D02*
Y3389630D01*
X2979420D01*
Y3379470D01*
X2969260D01*
X2971292Y3381502D02*
Y3387598D01*
X2977388D01*
Y3381502D01*
X2971292D01*
X2969260Y3354070D02*
Y3364230D01*
X2979420D01*
Y3354070D01*
X2969260D01*
X2971292Y3356102D02*
Y3362198D01*
X2977388D01*
Y3356102D01*
X2971292D01*
X2943860Y3379470D02*
Y3389630D01*
X2954020D01*
Y3379470D01*
X2943860D01*
X2945892Y3381502D02*
Y3387598D01*
X2951988D01*
Y3381502D01*
X2945892D01*
X2943860Y3354070D02*
Y3364230D01*
X2954020D01*
Y3354070D01*
X2943860D01*
X2945892Y3356102D02*
Y3362198D01*
X2951988D01*
Y3356102D01*
X2945892D01*
X2918460Y3379470D02*
Y3389630D01*
X2928620D01*
Y3379470D01*
X2918460D01*
X2920492Y3381502D02*
Y3387598D01*
X2926588D01*
Y3381502D01*
X2920492D01*
X2918460Y3354070D02*
Y3364230D01*
X2928620D01*
Y3354070D01*
X2918460D01*
X2920492Y3356102D02*
Y3362198D01*
X2926588D01*
Y3356102D01*
X2920492D01*
X2893060Y3379470D02*
Y3389630D01*
X2903220D01*
Y3379470D01*
X2893060D01*
X2895092Y3381502D02*
Y3387598D01*
X2901188D01*
Y3381502D01*
X2895092D01*
X2893060Y3354070D02*
Y3364230D01*
X2903220D01*
Y3354070D01*
X2893060D01*
X2895092Y3356102D02*
Y3362198D01*
X2901188D01*
Y3356102D01*
X2895092D01*
X2867660Y3379470D02*
Y3389630D01*
X2877820D01*
Y3379470D01*
X2867660D01*
X2869692Y3381502D02*
Y3387598D01*
X2875788D01*
Y3381502D01*
X2869692D01*
X2867660Y3354070D02*
Y3364230D01*
X2877820D01*
Y3354070D01*
X2867660D01*
X2869692Y3356102D02*
Y3362198D01*
X2875788D01*
Y3356102D01*
X2869692D01*
X2842260Y3379470D02*
Y3389630D01*
X2852420D01*
Y3379470D01*
X2842260D01*
X2844292Y3381502D02*
Y3387598D01*
X2850388D01*
Y3381502D01*
X2844292D01*
X2842260Y3354070D02*
Y3364230D01*
X2852420D01*
Y3354070D01*
X2842260D01*
X2844292Y3356102D02*
Y3362198D01*
X2850388D01*
Y3356102D01*
X2844292D01*
X2816860Y3379470D02*
Y3389630D01*
X2827020D01*
Y3379470D01*
X2816860D01*
X2818892Y3381502D02*
Y3387598D01*
X2824988D01*
Y3381502D01*
X2818892D01*
X2816860Y3354070D02*
Y3364230D01*
X2827020D01*
Y3354070D01*
X2816860D01*
X2818892Y3356102D02*
Y3362198D01*
X2824988D01*
Y3356102D01*
X2818892D01*
X2791460Y3379470D02*
Y3389630D01*
X2801620D01*
Y3379470D01*
X2791460D01*
X2793492Y3381502D02*
Y3387598D01*
X2799588D01*
Y3381502D01*
X2793492D01*
X2791460Y3354070D02*
Y3364230D01*
X2801620D01*
Y3354070D01*
X2791460D01*
X2793492Y3356102D02*
Y3362198D01*
X2799588D01*
Y3356102D01*
X2793492D01*
X2766060Y3379470D02*
Y3389630D01*
X2776220D01*
Y3379470D01*
X2766060D01*
X2768092Y3381502D02*
Y3387598D01*
X2774188D01*
Y3381502D01*
X2768092D01*
X2766060Y3354070D02*
Y3364230D01*
X2776220D01*
Y3354070D01*
X2766060D01*
X2768092Y3356102D02*
Y3362198D01*
X2774188D01*
Y3356102D01*
X2768092D01*
X2740660Y3354070D02*
Y3364230D01*
X2750820D01*
Y3354070D01*
X2740660D01*
X2742692Y3356102D02*
Y3362198D01*
X2748788D01*
Y3356102D01*
X2742692D01*
X2740660Y3379470D02*
Y3389630D01*
X2750820D01*
Y3379470D01*
X2740660D01*
X2742692Y3381502D02*
Y3387598D01*
X2748788D01*
Y3381502D01*
X2742692D01*
X2969260Y2947670D02*
Y2957830D01*
X2979420D01*
Y2947670D01*
X2969260D01*
X2971292Y2949702D02*
Y2955798D01*
X2977388D01*
Y2949702D01*
X2971292D01*
X2969260Y2922270D02*
Y2932430D01*
X2979420D01*
Y2922270D01*
X2969260D01*
X2971292Y2924302D02*
Y2930398D01*
X2977388D01*
Y2924302D01*
X2971292D01*
X2943860Y2947670D02*
Y2957830D01*
X2954020D01*
Y2947670D01*
X2943860D01*
X2945892Y2949702D02*
Y2955798D01*
X2951988D01*
Y2949702D01*
X2945892D01*
X2943860Y2922270D02*
Y2932430D01*
X2954020D01*
Y2922270D01*
X2943860D01*
X2945892Y2924302D02*
Y2930398D01*
X2951988D01*
Y2924302D01*
X2945892D01*
X2918460Y2947670D02*
Y2957830D01*
X2928620D01*
Y2947670D01*
X2918460D01*
X2920492Y2949702D02*
Y2955798D01*
X2926588D01*
Y2949702D01*
X2920492D01*
X2918460Y2922270D02*
Y2932430D01*
X2928620D01*
Y2922270D01*
X2918460D01*
X2920492Y2924302D02*
Y2930398D01*
X2926588D01*
Y2924302D01*
X2920492D01*
X2893060Y2947670D02*
Y2957830D01*
X2903220D01*
Y2947670D01*
X2893060D01*
X2895092Y2949702D02*
Y2955798D01*
X2901188D01*
Y2949702D01*
X2895092D01*
X2893060Y2922270D02*
Y2932430D01*
X2903220D01*
Y2922270D01*
X2893060D01*
X2895092Y2924302D02*
Y2930398D01*
X2901188D01*
Y2924302D01*
X2895092D01*
X2867660Y2947670D02*
Y2957830D01*
X2877820D01*
Y2947670D01*
X2867660D01*
X2869692Y2949702D02*
Y2955798D01*
X2875788D01*
Y2949702D01*
X2869692D01*
X2867660Y2922270D02*
Y2932430D01*
X2877820D01*
Y2922270D01*
X2867660D01*
X2869692Y2924302D02*
Y2930398D01*
X2875788D01*
Y2924302D01*
X2869692D01*
X2842260Y2947670D02*
Y2957830D01*
X2852420D01*
Y2947670D01*
X2842260D01*
X2844292Y2949702D02*
Y2955798D01*
X2850388D01*
Y2949702D01*
X2844292D01*
X2842260Y2922270D02*
Y2932430D01*
X2852420D01*
Y2922270D01*
X2842260D01*
X2844292Y2924302D02*
Y2930398D01*
X2850388D01*
Y2924302D01*
X2844292D01*
X2816860Y2947670D02*
Y2957830D01*
X2827020D01*
Y2947670D01*
X2816860D01*
X2818892Y2949702D02*
Y2955798D01*
X2824988D01*
Y2949702D01*
X2818892D01*
X2816860Y2922270D02*
Y2932430D01*
X2827020D01*
Y2922270D01*
X2816860D01*
X2818892Y2924302D02*
Y2930398D01*
X2824988D01*
Y2924302D01*
X2818892D01*
X2791460Y2947670D02*
Y2957830D01*
X2801620D01*
Y2947670D01*
X2791460D01*
X2793492Y2949702D02*
Y2955798D01*
X2799588D01*
Y2949702D01*
X2793492D01*
X2791460Y2922270D02*
Y2932430D01*
X2801620D01*
Y2922270D01*
X2791460D01*
X2793492Y2924302D02*
Y2930398D01*
X2799588D01*
Y2924302D01*
X2793492D01*
X2766060Y2947670D02*
Y2957830D01*
X2776220D01*
Y2947670D01*
X2766060D01*
X2768092Y2949702D02*
Y2955798D01*
X2774188D01*
Y2949702D01*
X2768092D01*
X2766060Y2922270D02*
Y2932430D01*
X2776220D01*
Y2922270D01*
X2766060D01*
X2768092Y2924302D02*
Y2930398D01*
X2774188D01*
Y2924302D01*
X2768092D01*
X2740660Y2922270D02*
Y2932430D01*
X2750820D01*
Y2922270D01*
X2740660D01*
X2742692Y2924302D02*
Y2930398D01*
X2748788D01*
Y2924302D01*
X2742692D01*
X2740660Y2947670D02*
Y2957830D01*
X2750820D01*
Y2947670D01*
X2740660D01*
X2742692Y2949702D02*
Y2955798D01*
X2748788D01*
Y2949702D01*
X2742692D01*
X325120Y1750060D02*
X327660D01*
X330200Y1752600D01*
X332740Y1750060D01*
X335280D01*
Y1752600D01*
X332740Y1755140D01*
X335280Y1757680D01*
Y1760220D01*
X332740D01*
X330200Y1757680D01*
X327660Y1760220D01*
X325120D01*
Y1757680D01*
X327660Y1755140D01*
X325120Y1752600D01*
Y1750060D01*
X3459480Y2382520D02*
X3462020Y2385060D01*
X3464560D01*
X3462020Y2387600D01*
X3464560Y2390140D01*
X3462020D01*
X3459480Y2392680D01*
X3456940Y2390140D01*
X3454400D01*
X3456940Y2387600D01*
X3454400Y2385060D01*
X3456940D01*
X3459480Y2382520D01*
X3359480D02*
X3362020Y2385060D01*
X3364560D01*
X3362020Y2387600D01*
X3364560Y2390140D01*
X3362020D01*
X3359480Y2392680D01*
X3356940Y2390140D01*
X3354400D01*
X3356940Y2387600D01*
X3354400Y2385060D01*
X3356940D01*
X3359480Y2382520D01*
X3409480D02*
X3412020Y2385060D01*
X3414560D01*
X3412020Y2387600D01*
X3414560Y2390140D01*
X3412020D01*
X3409480Y2392680D01*
X3406940Y2390140D01*
X3404400D01*
X3406940Y2387600D01*
X3404400Y2385060D01*
X3406940D01*
X3409480Y2382520D01*
X2170760Y1722120D02*
X2173300Y1724660D01*
X2175840D01*
X2173300Y1727200D01*
X2175840Y1729740D01*
X2173300D01*
X2170760Y1732280D01*
X2168220Y1729740D01*
X2165680D01*
X2168220Y1727200D01*
X2165680Y1724660D01*
X2168220D01*
X2170760Y1722120D01*
X2270760D02*
X2273300Y1724660D01*
X2275840D01*
X2273300Y1727200D01*
X2275840Y1729740D01*
X2273300D01*
X2270760Y1732280D01*
X2268220Y1729740D01*
X2265680D01*
X2268220Y1727200D01*
X2265680Y1724660D01*
X2268220D01*
X2270760Y1722120D01*
X2220760D02*
X2223300Y1724660D01*
X2225840D01*
X2223300Y1727200D01*
X2225840Y1729740D01*
X2223300D01*
X2220760Y1732280D01*
X2218220Y1729740D01*
X2215680D01*
X2218220Y1727200D01*
X2215680Y1724660D01*
X2218220D01*
X2220760Y1722120D01*
X409880Y2382520D02*
X412420Y2385060D01*
X414960D01*
X412420Y2387600D01*
X414960Y2390140D01*
X412420D01*
X409880Y2392680D01*
X407340Y2390140D01*
X404800D01*
X407340Y2387600D01*
X404800Y2385060D01*
X407340D01*
X409880Y2382520D01*
X309880D02*
X312420Y2385060D01*
X314960D01*
X312420Y2387600D01*
X314960Y2390140D01*
X312420D01*
X309880Y2392680D01*
X307340Y2390140D01*
X304800D01*
X307340Y2387600D01*
X304800Y2385060D01*
X307340D01*
X309880Y2382520D01*
X359880D02*
X362420Y2385060D01*
X364960D01*
X362420Y2387600D01*
X364960Y2390140D01*
X362420D01*
X359880Y2392680D01*
X357340Y2390140D01*
X354800D01*
X357340Y2387600D01*
X354800Y2385060D01*
X357340D01*
X359880Y2382520D01*
X1497660Y1719580D02*
X1500200Y1722120D01*
X1502740D01*
X1500200Y1724660D01*
X1502740Y1727200D01*
X1500200D01*
X1497660Y1729740D01*
X1495120Y1727200D01*
X1492580D01*
X1495120Y1724660D01*
X1492580Y1722120D01*
X1495120D01*
X1497660Y1719580D01*
X1597660D02*
X1600200Y1722120D01*
X1602740D01*
X1600200Y1724660D01*
X1602740Y1727200D01*
X1600200D01*
X1597660Y1729740D01*
X1595120Y1727200D01*
X1592580D01*
X1595120Y1724660D01*
X1592580Y1722120D01*
X1595120D01*
X1597660Y1719580D01*
X1547660D02*
X1550200Y1722120D01*
X1552740D01*
X1550200Y1724660D01*
X1552740Y1727200D01*
X1550200D01*
X1547660Y1729740D01*
X1545120Y1727200D01*
X1542580D01*
X1545120Y1724660D01*
X1542580Y1722120D01*
X1545120D01*
X1547660Y1719580D01*
X1275080Y1737360D02*
X1277620D01*
X1280160Y1739900D01*
X1282700Y1737360D01*
X1285240D01*
Y1739900D01*
X1282700Y1742440D01*
X1285240Y1744980D01*
Y1747520D01*
X1282700D01*
X1280160Y1744980D01*
X1277620Y1747520D01*
X1275080D01*
Y1744980D01*
X1277620Y1742440D01*
X1275080Y1739900D01*
Y1737360D01*
X546100Y3379470D02*
Y3389630D01*
X556260D01*
Y3379470D01*
X546100D01*
X548132Y3381502D02*
Y3387598D01*
X554228D01*
Y3381502D01*
X548132D01*
X546100Y3354070D02*
Y3364230D01*
X556260D01*
Y3354070D01*
X546100D01*
X548132Y3356102D02*
Y3362198D01*
X554228D01*
Y3356102D01*
X548132D01*
X520700Y3379470D02*
Y3389630D01*
X530860D01*
Y3379470D01*
X520700D01*
X522732Y3381502D02*
Y3387598D01*
X528828D01*
Y3381502D01*
X522732D01*
X520700Y3354070D02*
Y3364230D01*
X530860D01*
Y3354070D01*
X520700D01*
X522732Y3356102D02*
Y3362198D01*
X528828D01*
Y3356102D01*
X522732D01*
X495300Y3379470D02*
Y3389630D01*
X505460D01*
Y3379470D01*
X495300D01*
X497332Y3381502D02*
Y3387598D01*
X503428D01*
Y3381502D01*
X497332D01*
X495300Y3354070D02*
Y3364230D01*
X505460D01*
Y3354070D01*
X495300D01*
X497332Y3356102D02*
Y3362198D01*
X503428D01*
Y3356102D01*
X497332D01*
X469900Y3379470D02*
Y3389630D01*
X480060D01*
Y3379470D01*
X469900D01*
X471932Y3381502D02*
Y3387598D01*
X478028D01*
Y3381502D01*
X471932D01*
X469900Y3354070D02*
Y3364230D01*
X480060D01*
Y3354070D01*
X469900D01*
X471932Y3356102D02*
Y3362198D01*
X478028D01*
Y3356102D01*
X471932D01*
X444500Y3379470D02*
Y3389630D01*
X454660D01*
Y3379470D01*
X444500D01*
X446532Y3381502D02*
Y3387598D01*
X452628D01*
Y3381502D01*
X446532D01*
X444500Y3354070D02*
Y3364230D01*
X454660D01*
Y3354070D01*
X444500D01*
X446532Y3356102D02*
Y3362198D01*
X452628D01*
Y3356102D01*
X446532D01*
X419100Y3379470D02*
Y3389630D01*
X429260D01*
Y3379470D01*
X419100D01*
X421132Y3381502D02*
Y3387598D01*
X427228D01*
Y3381502D01*
X421132D01*
X419100Y3354070D02*
Y3364230D01*
X429260D01*
Y3354070D01*
X419100D01*
X421132Y3356102D02*
Y3362198D01*
X427228D01*
Y3356102D01*
X421132D01*
X393700Y3379470D02*
Y3389630D01*
X403860D01*
Y3379470D01*
X393700D01*
X395732Y3381502D02*
Y3387598D01*
X401828D01*
Y3381502D01*
X395732D01*
X393700Y3354070D02*
Y3364230D01*
X403860D01*
Y3354070D01*
X393700D01*
X395732Y3356102D02*
Y3362198D01*
X401828D01*
Y3356102D01*
X395732D01*
X368300Y3379470D02*
Y3389630D01*
X378460D01*
Y3379470D01*
X368300D01*
X370332Y3381502D02*
Y3387598D01*
X376428D01*
Y3381502D01*
X370332D01*
X368300Y3354070D02*
Y3364230D01*
X378460D01*
Y3354070D01*
X368300D01*
X370332Y3356102D02*
Y3362198D01*
X376428D01*
Y3356102D01*
X370332D01*
X342900Y3379470D02*
Y3389630D01*
X353060D01*
Y3379470D01*
X342900D01*
X344932Y3381502D02*
Y3387598D01*
X351028D01*
Y3381502D01*
X344932D01*
X342900Y3354070D02*
Y3364230D01*
X353060D01*
Y3354070D01*
X342900D01*
X344932Y3356102D02*
Y3362198D01*
X351028D01*
Y3356102D01*
X344932D01*
X317500Y3354070D02*
Y3364230D01*
X327660D01*
Y3354070D01*
X317500D01*
X319532Y3356102D02*
Y3362198D01*
X325628D01*
Y3356102D01*
X319532D01*
X317500Y3379470D02*
Y3389630D01*
X327660D01*
Y3379470D01*
X317500D01*
X319532Y3381502D02*
Y3387598D01*
X325628D01*
Y3381502D01*
X319532D01*
X546100Y2947670D02*
Y2957830D01*
X556260D01*
Y2947670D01*
X546100D01*
X548132Y2949702D02*
Y2955798D01*
X554228D01*
Y2949702D01*
X548132D01*
X546100Y2922270D02*
Y2932430D01*
X556260D01*
Y2922270D01*
X546100D01*
X548132Y2924302D02*
Y2930398D01*
X554228D01*
Y2924302D01*
X548132D01*
X520700Y2947670D02*
Y2957830D01*
X530860D01*
Y2947670D01*
X520700D01*
X522732Y2949702D02*
Y2955798D01*
X528828D01*
Y2949702D01*
X522732D01*
X520700Y2922270D02*
Y2932430D01*
X530860D01*
Y2922270D01*
X520700D01*
X522732Y2924302D02*
Y2930398D01*
X528828D01*
Y2924302D01*
X522732D01*
X495300Y2947670D02*
Y2957830D01*
X505460D01*
Y2947670D01*
X495300D01*
X497332Y2949702D02*
Y2955798D01*
X503428D01*
Y2949702D01*
X497332D01*
X495300Y2922270D02*
Y2932430D01*
X505460D01*
Y2922270D01*
X495300D01*
X497332Y2924302D02*
Y2930398D01*
X503428D01*
Y2924302D01*
X497332D01*
X469900Y2947670D02*
Y2957830D01*
X480060D01*
Y2947670D01*
X469900D01*
X471932Y2949702D02*
Y2955798D01*
X478028D01*
Y2949702D01*
X471932D01*
X469900Y2922270D02*
Y2932430D01*
X480060D01*
Y2922270D01*
X469900D01*
X471932Y2924302D02*
Y2930398D01*
X478028D01*
Y2924302D01*
X471932D01*
X444500Y2947670D02*
Y2957830D01*
X454660D01*
Y2947670D01*
X444500D01*
X446532Y2949702D02*
Y2955798D01*
X452628D01*
Y2949702D01*
X446532D01*
X444500Y2922270D02*
Y2932430D01*
X454660D01*
Y2922270D01*
X444500D01*
X446532Y2924302D02*
Y2930398D01*
X452628D01*
Y2924302D01*
X446532D01*
X419100Y2947670D02*
Y2957830D01*
X429260D01*
Y2947670D01*
X419100D01*
X421132Y2949702D02*
Y2955798D01*
X427228D01*
Y2949702D01*
X421132D01*
X419100Y2922270D02*
Y2932430D01*
X429260D01*
Y2922270D01*
X419100D01*
X421132Y2924302D02*
Y2930398D01*
X427228D01*
Y2924302D01*
X421132D01*
X393700Y2947670D02*
Y2957830D01*
X403860D01*
Y2947670D01*
X393700D01*
X395732Y2949702D02*
Y2955798D01*
X401828D01*
Y2949702D01*
X395732D01*
X393700Y2922270D02*
Y2932430D01*
X403860D01*
Y2922270D01*
X393700D01*
X395732Y2924302D02*
Y2930398D01*
X401828D01*
Y2924302D01*
X395732D01*
X368300Y2947670D02*
Y2957830D01*
X378460D01*
Y2947670D01*
X368300D01*
X370332Y2949702D02*
Y2955798D01*
X376428D01*
Y2949702D01*
X370332D01*
X368300Y2922270D02*
Y2932430D01*
X378460D01*
Y2922270D01*
X368300D01*
X370332Y2924302D02*
Y2930398D01*
X376428D01*
Y2924302D01*
X370332D01*
X342900Y2947670D02*
Y2957830D01*
X353060D01*
Y2947670D01*
X342900D01*
X344932Y2949702D02*
Y2955798D01*
X351028D01*
Y2949702D01*
X344932D01*
X342900Y2922270D02*
Y2932430D01*
X353060D01*
Y2922270D01*
X342900D01*
X344932Y2924302D02*
Y2930398D01*
X351028D01*
Y2924302D01*
X344932D01*
X317500Y2922270D02*
Y2932430D01*
X327660D01*
Y2922270D01*
X317500D01*
X319532Y2924302D02*
Y2930398D01*
X325628D01*
Y2924302D01*
X319532D01*
X317500Y2947670D02*
Y2957830D01*
X327660D01*
Y2947670D01*
X317500D01*
X319532Y2949702D02*
Y2955798D01*
X325628D01*
Y2949702D01*
X319532D01*
X2044700Y3322320D02*
Y3319780D01*
X2049780D01*
Y3322320D01*
X2052320D01*
Y3327400D01*
X2049780D01*
Y3329940D01*
X2044700D01*
Y3327400D01*
X2042160D01*
Y3322320D01*
X2044700D01*
Y3309620D02*
Y3307080D01*
X2049780D01*
Y3309620D01*
X2052320D01*
Y3314700D01*
X2049780D01*
Y3317240D01*
X2044700D01*
Y3314700D01*
X2042160D01*
Y3309620D01*
X2044700D01*
X2057400Y3322320D02*
Y3319780D01*
X2062480D01*
Y3322320D01*
X2065020D01*
Y3327400D01*
X2062480D01*
Y3329940D01*
X2057400D01*
Y3327400D01*
X2054860D01*
Y3322320D01*
X2057400D01*
Y3309620D02*
Y3307080D01*
X2062480D01*
Y3309620D01*
X2065020D01*
Y3314700D01*
X2062480D01*
Y3317240D01*
X2057400D01*
Y3314700D01*
X2054860D01*
Y3309620D01*
X2057400D01*
X2070100Y3322320D02*
Y3319780D01*
X2075180D01*
Y3322320D01*
X2077720D01*
Y3327400D01*
X2075180D01*
Y3329940D01*
X2070100D01*
Y3327400D01*
X2067560D01*
Y3322320D01*
X2070100D01*
Y3309620D02*
Y3307080D01*
X2075180D01*
Y3309620D01*
X2077720D01*
Y3314700D01*
X2075180D01*
Y3317240D01*
X2070100D01*
Y3314700D01*
X2067560D01*
Y3309620D01*
X2070100D01*
X2082800Y3322320D02*
Y3319780D01*
X2087880D01*
Y3322320D01*
X2090420D01*
Y3327400D01*
X2087880D01*
Y3329940D01*
X2082800D01*
Y3327400D01*
X2080260D01*
Y3322320D01*
X2082800D01*
Y3309620D02*
Y3307080D01*
X2087880D01*
Y3309620D01*
X2090420D01*
Y3314700D01*
X2087880D01*
Y3317240D01*
X2082800D01*
Y3314700D01*
X2080260D01*
Y3309620D01*
X2082800D01*
X2095500Y3322320D02*
Y3319780D01*
X2100580D01*
Y3322320D01*
X2103120D01*
Y3327400D01*
X2100580D01*
Y3329940D01*
X2095500D01*
Y3327400D01*
X2092960D01*
Y3322320D01*
X2095500D01*
Y3309620D02*
Y3307080D01*
X2100580D01*
Y3309620D01*
X2103120D01*
Y3314700D01*
X2100580D01*
Y3317240D01*
X2095500D01*
Y3314700D01*
X2092960D01*
Y3309620D01*
X2095500D01*
X2108200Y3322320D02*
Y3319780D01*
X2113280D01*
Y3322320D01*
X2115820D01*
Y3327400D01*
X2113280D01*
Y3329940D01*
X2108200D01*
Y3327400D01*
X2105660D01*
Y3322320D01*
X2108200D01*
Y3309620D02*
Y3307080D01*
X2113280D01*
Y3309620D01*
X2115820D01*
Y3314700D01*
X2113280D01*
Y3317240D01*
X2108200D01*
Y3314700D01*
X2105660D01*
Y3309620D01*
X2108200D01*
X2120900Y3322320D02*
Y3319780D01*
X2125980D01*
Y3322320D01*
X2128520D01*
Y3327400D01*
X2125980D01*
Y3329940D01*
X2120900D01*
Y3327400D01*
X2118360D01*
Y3322320D01*
X2120900D01*
Y3309620D02*
Y3307080D01*
X2125980D01*
Y3309620D01*
X2128520D01*
Y3314700D01*
X2125980D01*
Y3317240D01*
X2120900D01*
Y3314700D01*
X2118360D01*
Y3309620D01*
X2120900D01*
X2133600Y3322320D02*
Y3319780D01*
X2138680D01*
Y3322320D01*
X2141220D01*
Y3327400D01*
X2138680D01*
Y3329940D01*
X2133600D01*
Y3327400D01*
X2131060D01*
Y3322320D01*
X2133600D01*
Y3309620D02*
Y3307080D01*
X2138680D01*
Y3309620D01*
X2141220D01*
Y3314700D01*
X2138680D01*
Y3317240D01*
X2133600D01*
Y3314700D01*
X2131060D01*
Y3309620D01*
X2133600D01*
X2146300Y3322320D02*
Y3319780D01*
X2151380D01*
Y3322320D01*
X2153920D01*
Y3327400D01*
X2151380D01*
Y3329940D01*
X2146300D01*
Y3327400D01*
X2143760D01*
Y3322320D01*
X2146300D01*
Y3309620D02*
Y3307080D01*
X2151380D01*
Y3309620D01*
X2153920D01*
Y3314700D01*
X2151380D01*
Y3317240D01*
X2146300D01*
Y3314700D01*
X2143760D01*
Y3309620D01*
X2146300D01*
X2159000Y3322320D02*
Y3319780D01*
X2164080D01*
Y3322320D01*
X2166620D01*
Y3327400D01*
X2164080D01*
Y3329940D01*
X2159000D01*
Y3327400D01*
X2156460D01*
Y3322320D01*
X2159000D01*
Y3309620D02*
Y3307080D01*
X2164080D01*
Y3309620D01*
X2166620D01*
Y3314700D01*
X2164080D01*
Y3317240D01*
X2159000D01*
Y3314700D01*
X2156460D01*
Y3309620D01*
X2159000D01*
X2171700Y3322320D02*
Y3319780D01*
X2176780D01*
Y3322320D01*
X2179320D01*
Y3327400D01*
X2176780D01*
Y3329940D01*
X2171700D01*
Y3327400D01*
X2169160D01*
Y3322320D01*
X2171700D01*
Y3309620D02*
Y3307080D01*
X2176780D01*
Y3309620D01*
X2179320D01*
Y3314700D01*
X2176780D01*
Y3317240D01*
X2171700D01*
Y3314700D01*
X2169160D01*
Y3309620D01*
X2171700D01*
X2184400Y3322320D02*
Y3319780D01*
X2189480D01*
Y3322320D01*
X2192020D01*
Y3327400D01*
X2189480D01*
Y3329940D01*
X2184400D01*
Y3327400D01*
X2181860D01*
Y3322320D01*
X2184400D01*
Y3309620D02*
Y3307080D01*
X2189480D01*
Y3309620D01*
X2192020D01*
Y3314700D01*
X2189480D01*
Y3317240D01*
X2184400D01*
Y3314700D01*
X2181860D01*
Y3309620D01*
X2184400D01*
X2197100Y3322320D02*
Y3319780D01*
X2202180D01*
Y3322320D01*
X2204720D01*
Y3327400D01*
X2202180D01*
Y3329940D01*
X2197100D01*
Y3327400D01*
X2194560D01*
Y3322320D01*
X2197100D01*
Y3309620D02*
Y3307080D01*
X2202180D01*
Y3309620D01*
X2204720D01*
Y3314700D01*
X2202180D01*
Y3317240D01*
X2197100D01*
Y3314700D01*
X2194560D01*
Y3309620D01*
X2197100D01*
X2209800Y3322320D02*
Y3319780D01*
X2214880D01*
Y3322320D01*
X2217420D01*
Y3327400D01*
X2214880D01*
Y3329940D01*
X2209800D01*
Y3327400D01*
X2207260D01*
Y3322320D01*
X2209800D01*
Y3309620D02*
Y3307080D01*
X2214880D01*
Y3309620D01*
X2217420D01*
Y3314700D01*
X2214880D01*
Y3317240D01*
X2209800D01*
Y3314700D01*
X2207260D01*
Y3309620D01*
X2209800D01*
X2222500Y3322320D02*
Y3319780D01*
X2227580D01*
Y3322320D01*
X2230120D01*
Y3327400D01*
X2227580D01*
Y3329940D01*
X2222500D01*
Y3327400D01*
X2219960D01*
Y3322320D01*
X2222500D01*
Y3309620D02*
Y3307080D01*
X2227580D01*
Y3309620D01*
X2230120D01*
Y3314700D01*
X2227580D01*
Y3317240D01*
X2222500D01*
Y3314700D01*
X2219960D01*
Y3309620D01*
X2222500D01*
X2235200Y3322320D02*
Y3319780D01*
X2240280D01*
Y3322320D01*
X2242820D01*
Y3327400D01*
X2240280D01*
Y3329940D01*
X2235200D01*
Y3327400D01*
X2232660D01*
Y3322320D01*
X2235200D01*
Y3309620D02*
Y3307080D01*
X2240280D01*
Y3309620D01*
X2242820D01*
Y3314700D01*
X2240280D01*
Y3317240D01*
X2235200D01*
Y3314700D01*
X2232660D01*
Y3309620D01*
X2235200D01*
X2247900Y3322320D02*
Y3319780D01*
X2252980D01*
Y3322320D01*
X2255520D01*
Y3327400D01*
X2252980D01*
Y3329940D01*
X2247900D01*
Y3327400D01*
X2245360D01*
Y3322320D01*
X2247900D01*
Y3309620D02*
Y3307080D01*
X2252980D01*
Y3309620D01*
X2255520D01*
Y3314700D01*
X2252980D01*
Y3317240D01*
X2247900D01*
Y3314700D01*
X2245360D01*
Y3309620D01*
X2247900D01*
X2260600Y3322320D02*
Y3319780D01*
X2265680D01*
Y3322320D01*
X2268220D01*
Y3327400D01*
X2265680D01*
Y3329940D01*
X2260600D01*
Y3327400D01*
X2258060D01*
Y3322320D01*
X2260600D01*
Y3309620D02*
Y3307080D01*
X2265680D01*
Y3309620D01*
X2268220D01*
Y3314700D01*
X2265680D01*
Y3317240D01*
X2260600D01*
Y3314700D01*
X2258060D01*
Y3309620D01*
X2260600D01*
X2273300Y3322320D02*
Y3319780D01*
X2278380D01*
Y3322320D01*
X2280920D01*
Y3327400D01*
X2278380D01*
Y3329940D01*
X2273300D01*
Y3327400D01*
X2270760D01*
Y3322320D01*
X2273300D01*
Y3309620D02*
Y3307080D01*
X2278380D01*
Y3309620D01*
X2280920D01*
Y3314700D01*
X2278380D01*
Y3317240D01*
X2273300D01*
Y3314700D01*
X2270760D01*
Y3309620D01*
X2273300D01*
X2286000Y3322320D02*
Y3319780D01*
X2291080D01*
Y3322320D01*
X2293620D01*
Y3327400D01*
X2291080D01*
Y3329940D01*
X2286000D01*
Y3327400D01*
X2283460D01*
Y3322320D01*
X2286000D01*
Y3309620D02*
Y3307080D01*
X2291080D01*
Y3309620D01*
X2293620D01*
Y3314700D01*
X2291080D01*
Y3317240D01*
X2286000D01*
Y3314700D01*
X2283460D01*
Y3309620D01*
X2286000D01*
X2298700Y3322320D02*
Y3319780D01*
X2303780D01*
Y3322320D01*
X2306320D01*
Y3327400D01*
X2303780D01*
Y3329940D01*
X2298700D01*
Y3327400D01*
X2296160D01*
Y3322320D01*
X2298700D01*
Y3309620D02*
Y3307080D01*
X2303780D01*
Y3309620D01*
X2306320D01*
Y3314700D01*
X2303780D01*
Y3317240D01*
X2298700D01*
Y3314700D01*
X2296160D01*
Y3309620D01*
X2298700D01*
X2311400Y3322320D02*
Y3319780D01*
X2316480D01*
Y3322320D01*
X2319020D01*
Y3327400D01*
X2316480D01*
Y3329940D01*
X2311400D01*
Y3327400D01*
X2308860D01*
Y3322320D01*
X2311400D01*
Y3309620D02*
Y3307080D01*
X2316480D01*
Y3309620D01*
X2319020D01*
Y3314700D01*
X2316480D01*
Y3317240D01*
X2311400D01*
Y3314700D01*
X2308860D01*
Y3309620D01*
X2311400D01*
X2324100Y3322320D02*
Y3319780D01*
X2329180D01*
Y3322320D01*
X2331720D01*
Y3327400D01*
X2329180D01*
Y3329940D01*
X2324100D01*
Y3327400D01*
X2321560D01*
Y3322320D01*
X2324100D01*
Y3309620D02*
Y3307080D01*
X2329180D01*
Y3309620D01*
X2331720D01*
Y3314700D01*
X2329180D01*
Y3317240D01*
X2324100D01*
Y3314700D01*
X2321560D01*
Y3309620D01*
X2324100D01*
X2336800Y3322320D02*
Y3319780D01*
X2341880D01*
Y3322320D01*
X2344420D01*
Y3327400D01*
X2341880D01*
Y3329940D01*
X2336800D01*
Y3327400D01*
X2334260D01*
Y3322320D01*
X2336800D01*
Y3309620D02*
Y3307080D01*
X2341880D01*
Y3309620D01*
X2344420D01*
Y3314700D01*
X2341880D01*
Y3317240D01*
X2336800D01*
Y3314700D01*
X2334260D01*
Y3309620D01*
X2336800D01*
X2349500Y3322320D02*
Y3319780D01*
X2354580D01*
Y3322320D01*
X2357120D01*
Y3327400D01*
X2354580D01*
Y3329940D01*
X2349500D01*
Y3327400D01*
X2346960D01*
Y3322320D01*
X2349500D01*
Y3309620D02*
Y3307080D01*
X2354580D01*
Y3309620D01*
X2357120D01*
Y3314700D01*
X2354580D01*
Y3317240D01*
X2349500D01*
Y3314700D01*
X2346960D01*
Y3309620D01*
X2349500D01*
X1363980Y3322320D02*
Y3319780D01*
X1369060D01*
Y3322320D01*
X1371600D01*
Y3327400D01*
X1369060D01*
Y3329940D01*
X1363980D01*
Y3327400D01*
X1361440D01*
Y3322320D01*
X1363980D01*
Y3309620D02*
Y3307080D01*
X1369060D01*
Y3309620D01*
X1371600D01*
Y3314700D01*
X1369060D01*
Y3317240D01*
X1363980D01*
Y3314700D01*
X1361440D01*
Y3309620D01*
X1363980D01*
X1376680Y3322320D02*
Y3319780D01*
X1381760D01*
Y3322320D01*
X1384300D01*
Y3327400D01*
X1381760D01*
Y3329940D01*
X1376680D01*
Y3327400D01*
X1374140D01*
Y3322320D01*
X1376680D01*
Y3309620D02*
Y3307080D01*
X1381760D01*
Y3309620D01*
X1384300D01*
Y3314700D01*
X1381760D01*
Y3317240D01*
X1376680D01*
Y3314700D01*
X1374140D01*
Y3309620D01*
X1376680D01*
X1389380Y3322320D02*
Y3319780D01*
X1394460D01*
Y3322320D01*
X1397000D01*
Y3327400D01*
X1394460D01*
Y3329940D01*
X1389380D01*
Y3327400D01*
X1386840D01*
Y3322320D01*
X1389380D01*
Y3309620D02*
Y3307080D01*
X1394460D01*
Y3309620D01*
X1397000D01*
Y3314700D01*
X1394460D01*
Y3317240D01*
X1389380D01*
Y3314700D01*
X1386840D01*
Y3309620D01*
X1389380D01*
X1402080Y3322320D02*
Y3319780D01*
X1407160D01*
Y3322320D01*
X1409700D01*
Y3327400D01*
X1407160D01*
Y3329940D01*
X1402080D01*
Y3327400D01*
X1399540D01*
Y3322320D01*
X1402080D01*
Y3309620D02*
Y3307080D01*
X1407160D01*
Y3309620D01*
X1409700D01*
Y3314700D01*
X1407160D01*
Y3317240D01*
X1402080D01*
Y3314700D01*
X1399540D01*
Y3309620D01*
X1402080D01*
X1414780Y3322320D02*
Y3319780D01*
X1419860D01*
Y3322320D01*
X1422400D01*
Y3327400D01*
X1419860D01*
Y3329940D01*
X1414780D01*
Y3327400D01*
X1412240D01*
Y3322320D01*
X1414780D01*
Y3309620D02*
Y3307080D01*
X1419860D01*
Y3309620D01*
X1422400D01*
Y3314700D01*
X1419860D01*
Y3317240D01*
X1414780D01*
Y3314700D01*
X1412240D01*
Y3309620D01*
X1414780D01*
X1427480Y3322320D02*
Y3319780D01*
X1432560D01*
Y3322320D01*
X1435100D01*
Y3327400D01*
X1432560D01*
Y3329940D01*
X1427480D01*
Y3327400D01*
X1424940D01*
Y3322320D01*
X1427480D01*
Y3309620D02*
Y3307080D01*
X1432560D01*
Y3309620D01*
X1435100D01*
Y3314700D01*
X1432560D01*
Y3317240D01*
X1427480D01*
Y3314700D01*
X1424940D01*
Y3309620D01*
X1427480D01*
X1440180Y3322320D02*
Y3319780D01*
X1445260D01*
Y3322320D01*
X1447800D01*
Y3327400D01*
X1445260D01*
Y3329940D01*
X1440180D01*
Y3327400D01*
X1437640D01*
Y3322320D01*
X1440180D01*
Y3309620D02*
Y3307080D01*
X1445260D01*
Y3309620D01*
X1447800D01*
Y3314700D01*
X1445260D01*
Y3317240D01*
X1440180D01*
Y3314700D01*
X1437640D01*
Y3309620D01*
X1440180D01*
X1452880Y3322320D02*
Y3319780D01*
X1457960D01*
Y3322320D01*
X1460500D01*
Y3327400D01*
X1457960D01*
Y3329940D01*
X1452880D01*
Y3327400D01*
X1450340D01*
Y3322320D01*
X1452880D01*
Y3309620D02*
Y3307080D01*
X1457960D01*
Y3309620D01*
X1460500D01*
Y3314700D01*
X1457960D01*
Y3317240D01*
X1452880D01*
Y3314700D01*
X1450340D01*
Y3309620D01*
X1452880D01*
X1465580Y3322320D02*
Y3319780D01*
X1470660D01*
Y3322320D01*
X1473200D01*
Y3327400D01*
X1470660D01*
Y3329940D01*
X1465580D01*
Y3327400D01*
X1463040D01*
Y3322320D01*
X1465580D01*
Y3309620D02*
Y3307080D01*
X1470660D01*
Y3309620D01*
X1473200D01*
Y3314700D01*
X1470660D01*
Y3317240D01*
X1465580D01*
Y3314700D01*
X1463040D01*
Y3309620D01*
X1465580D01*
X1478280Y3322320D02*
Y3319780D01*
X1483360D01*
Y3322320D01*
X1485900D01*
Y3327400D01*
X1483360D01*
Y3329940D01*
X1478280D01*
Y3327400D01*
X1475740D01*
Y3322320D01*
X1478280D01*
Y3309620D02*
Y3307080D01*
X1483360D01*
Y3309620D01*
X1485900D01*
Y3314700D01*
X1483360D01*
Y3317240D01*
X1478280D01*
Y3314700D01*
X1475740D01*
Y3309620D01*
X1478280D01*
X1490980Y3322320D02*
Y3319780D01*
X1496060D01*
Y3322320D01*
X1498600D01*
Y3327400D01*
X1496060D01*
Y3329940D01*
X1490980D01*
Y3327400D01*
X1488440D01*
Y3322320D01*
X1490980D01*
Y3309620D02*
Y3307080D01*
X1496060D01*
Y3309620D01*
X1498600D01*
Y3314700D01*
X1496060D01*
Y3317240D01*
X1490980D01*
Y3314700D01*
X1488440D01*
Y3309620D01*
X1490980D01*
X1503680Y3322320D02*
Y3319780D01*
X1508760D01*
Y3322320D01*
X1511300D01*
Y3327400D01*
X1508760D01*
Y3329940D01*
X1503680D01*
Y3327400D01*
X1501140D01*
Y3322320D01*
X1503680D01*
Y3309620D02*
Y3307080D01*
X1508760D01*
Y3309620D01*
X1511300D01*
Y3314700D01*
X1508760D01*
Y3317240D01*
X1503680D01*
Y3314700D01*
X1501140D01*
Y3309620D01*
X1503680D01*
X1516380Y3322320D02*
Y3319780D01*
X1521460D01*
Y3322320D01*
X1524000D01*
Y3327400D01*
X1521460D01*
Y3329940D01*
X1516380D01*
Y3327400D01*
X1513840D01*
Y3322320D01*
X1516380D01*
Y3309620D02*
Y3307080D01*
X1521460D01*
Y3309620D01*
X1524000D01*
Y3314700D01*
X1521460D01*
Y3317240D01*
X1516380D01*
Y3314700D01*
X1513840D01*
Y3309620D01*
X1516380D01*
X1529080Y3322320D02*
Y3319780D01*
X1534160D01*
Y3322320D01*
X1536700D01*
Y3327400D01*
X1534160D01*
Y3329940D01*
X1529080D01*
Y3327400D01*
X1526540D01*
Y3322320D01*
X1529080D01*
Y3309620D02*
Y3307080D01*
X1534160D01*
Y3309620D01*
X1536700D01*
Y3314700D01*
X1534160D01*
Y3317240D01*
X1529080D01*
Y3314700D01*
X1526540D01*
Y3309620D01*
X1529080D01*
X1541780Y3322320D02*
Y3319780D01*
X1546860D01*
Y3322320D01*
X1549400D01*
Y3327400D01*
X1546860D01*
Y3329940D01*
X1541780D01*
Y3327400D01*
X1539240D01*
Y3322320D01*
X1541780D01*
Y3309620D02*
Y3307080D01*
X1546860D01*
Y3309620D01*
X1549400D01*
Y3314700D01*
X1546860D01*
Y3317240D01*
X1541780D01*
Y3314700D01*
X1539240D01*
Y3309620D01*
X1541780D01*
X1554480Y3322320D02*
Y3319780D01*
X1559560D01*
Y3322320D01*
X1562100D01*
Y3327400D01*
X1559560D01*
Y3329940D01*
X1554480D01*
Y3327400D01*
X1551940D01*
Y3322320D01*
X1554480D01*
Y3309620D02*
Y3307080D01*
X1559560D01*
Y3309620D01*
X1562100D01*
Y3314700D01*
X1559560D01*
Y3317240D01*
X1554480D01*
Y3314700D01*
X1551940D01*
Y3309620D01*
X1554480D01*
X1567180Y3322320D02*
Y3319780D01*
X1572260D01*
Y3322320D01*
X1574800D01*
Y3327400D01*
X1572260D01*
Y3329940D01*
X1567180D01*
Y3327400D01*
X1564640D01*
Y3322320D01*
X1567180D01*
Y3309620D02*
Y3307080D01*
X1572260D01*
Y3309620D01*
X1574800D01*
Y3314700D01*
X1572260D01*
Y3317240D01*
X1567180D01*
Y3314700D01*
X1564640D01*
Y3309620D01*
X1567180D01*
X1579880Y3322320D02*
Y3319780D01*
X1584960D01*
Y3322320D01*
X1587500D01*
Y3327400D01*
X1584960D01*
Y3329940D01*
X1579880D01*
Y3327400D01*
X1577340D01*
Y3322320D01*
X1579880D01*
Y3309620D02*
Y3307080D01*
X1584960D01*
Y3309620D01*
X1587500D01*
Y3314700D01*
X1584960D01*
Y3317240D01*
X1579880D01*
Y3314700D01*
X1577340D01*
Y3309620D01*
X1579880D01*
X1592580Y3322320D02*
Y3319780D01*
X1597660D01*
Y3322320D01*
X1600200D01*
Y3327400D01*
X1597660D01*
Y3329940D01*
X1592580D01*
Y3327400D01*
X1590040D01*
Y3322320D01*
X1592580D01*
Y3309620D02*
Y3307080D01*
X1597660D01*
Y3309620D01*
X1600200D01*
Y3314700D01*
X1597660D01*
Y3317240D01*
X1592580D01*
Y3314700D01*
X1590040D01*
Y3309620D01*
X1592580D01*
X1605280Y3322320D02*
Y3319780D01*
X1610360D01*
Y3322320D01*
X1612900D01*
Y3327400D01*
X1610360D01*
Y3329940D01*
X1605280D01*
Y3327400D01*
X1602740D01*
Y3322320D01*
X1605280D01*
Y3309620D02*
Y3307080D01*
X1610360D01*
Y3309620D01*
X1612900D01*
Y3314700D01*
X1610360D01*
Y3317240D01*
X1605280D01*
Y3314700D01*
X1602740D01*
Y3309620D01*
X1605280D01*
X1617980Y3322320D02*
Y3319780D01*
X1623060D01*
Y3322320D01*
X1625600D01*
Y3327400D01*
X1623060D01*
Y3329940D01*
X1617980D01*
Y3327400D01*
X1615440D01*
Y3322320D01*
X1617980D01*
Y3309620D02*
Y3307080D01*
X1623060D01*
Y3309620D01*
X1625600D01*
Y3314700D01*
X1623060D01*
Y3317240D01*
X1617980D01*
Y3314700D01*
X1615440D01*
Y3309620D01*
X1617980D01*
X1630680Y3322320D02*
Y3319780D01*
X1635760D01*
Y3322320D01*
X1638300D01*
Y3327400D01*
X1635760D01*
Y3329940D01*
X1630680D01*
Y3327400D01*
X1628140D01*
Y3322320D01*
X1630680D01*
Y3309620D02*
Y3307080D01*
X1635760D01*
Y3309620D01*
X1638300D01*
Y3314700D01*
X1635760D01*
Y3317240D01*
X1630680D01*
Y3314700D01*
X1628140D01*
Y3309620D01*
X1630680D01*
X1643380Y3322320D02*
Y3319780D01*
X1648460D01*
Y3322320D01*
X1651000D01*
Y3327400D01*
X1648460D01*
Y3329940D01*
X1643380D01*
Y3327400D01*
X1640840D01*
Y3322320D01*
X1643380D01*
Y3309620D02*
Y3307080D01*
X1648460D01*
Y3309620D01*
X1651000D01*
Y3314700D01*
X1648460D01*
Y3317240D01*
X1643380D01*
Y3314700D01*
X1640840D01*
Y3309620D01*
X1643380D01*
X1656080Y3322320D02*
Y3319780D01*
X1661160D01*
Y3322320D01*
X1663700D01*
Y3327400D01*
X1661160D01*
Y3329940D01*
X1656080D01*
Y3327400D01*
X1653540D01*
Y3322320D01*
X1656080D01*
Y3309620D02*
Y3307080D01*
X1661160D01*
Y3309620D01*
X1663700D01*
Y3314700D01*
X1661160D01*
Y3317240D01*
X1656080D01*
Y3314700D01*
X1653540D01*
Y3309620D01*
X1656080D01*
X1668780Y3322320D02*
Y3319780D01*
X1673860D01*
Y3322320D01*
X1676400D01*
Y3327400D01*
X1673860D01*
Y3329940D01*
X1668780D01*
Y3327400D01*
X1666240D01*
Y3322320D01*
X1668780D01*
Y3309620D02*
Y3307080D01*
X1673860D01*
Y3309620D01*
X1676400D01*
Y3314700D01*
X1673860D01*
Y3317240D01*
X1668780D01*
Y3314700D01*
X1666240D01*
Y3309620D01*
X1668780D01*
X1537040Y2258060D02*
X1531960Y2268220D01*
X1542120D01*
X1537040Y2258060D01*
X1262040D02*
X1256960Y2268220D01*
X1267120D01*
X1262040Y2258060D01*
X1712300Y2418080D02*
X1707220Y2428240D01*
X1717380D01*
X1712300Y2418080D01*
X1437300D02*
X1432220Y2428240D01*
X1442380D01*
X1437300Y2418080D01*
X1846920Y2583180D02*
X1841840Y2593340D01*
X1852000D01*
X1846920Y2583180D01*
X1571920D02*
X1566840Y2593340D01*
X1577000D01*
X1571920Y2583180D01*
X1904660D02*
X1899580Y2593340D01*
X1909740D01*
X1904660Y2583180D01*
X2179660D02*
X2174580Y2593340D01*
X2184740D01*
X2179660Y2583180D01*
X2087540Y2418080D02*
X2082460Y2428240D01*
X2092620D01*
X2087540Y2418080D01*
X2362540D02*
X2357460Y2428240D01*
X2367620D01*
X2362540Y2418080D01*
X2234860Y2258060D02*
X2229780Y2268220D01*
X2239940D01*
X2234860Y2258060D01*
X2509860D02*
X2504780Y2268220D01*
X2514940D01*
X2509860Y2258060D01*
X3053380Y3081020D02*
X3055920Y3083560D01*
X3058460D01*
X3055920Y3086100D01*
X3058460Y3088640D01*
X3055920D01*
X3053380Y3091180D01*
X3050840Y3088640D01*
X3048300D01*
X3050840Y3086100D01*
X3048300Y3083560D01*
X3050840D01*
X3053380Y3081020D01*
Y3083052D02*
X3054904Y3084576D01*
X3056428D01*
X3054904Y3086100D01*
X3056428Y3087624D01*
X3054904D01*
X3053380Y3089148D01*
X3051856Y3087624D01*
X3050332D01*
X3051856Y3086100D01*
X3050332Y3084576D01*
X3051856D01*
X3053380Y3083052D01*
X2815590Y3068320D02*
X2818130Y3070860D01*
X2820670D01*
X2818130Y3073400D01*
X2820670Y3075940D01*
X2818130D01*
X2815590Y3078480D01*
X2813050Y3075940D01*
X2810510D01*
X2813050Y3073400D01*
X2810510Y3070860D01*
X2813050D01*
X2815590Y3068320D01*
Y3070352D02*
X2817114Y3071876D01*
X2818638D01*
X2817114Y3073400D01*
X2818638Y3074924D01*
X2817114D01*
X2815590Y3076448D01*
X2814066Y3074924D01*
X2812542D01*
X2814066Y3073400D01*
X2812542Y3071876D01*
X2814066D01*
X2815590Y3070352D01*
X643110Y3106420D02*
X645650Y3108960D01*
X648190D01*
X645650Y3111500D01*
X648190Y3114040D01*
X645650D01*
X643110Y3116580D01*
X640570Y3114040D01*
X638030D01*
X640570Y3111500D01*
X638030Y3108960D01*
X640570D01*
X643110Y3106420D01*
Y3108452D02*
X644634Y3109976D01*
X646158D01*
X644634Y3111500D01*
X646158Y3113024D01*
X644634D01*
X643110Y3114548D01*
X641586Y3113024D01*
X640062D01*
X641586Y3111500D01*
X640062Y3109976D01*
X641586D01*
X643110Y3108452D01*
X3046340Y3117460D02*
X3048880Y3120000D01*
X3051420D01*
X3048880Y3122540D01*
X3051420Y3125080D01*
X3048880D01*
X3046340Y3127620D01*
X3043800Y3125080D01*
X3041259D01*
X3043800Y3122540D01*
X3041259Y3120000D01*
X3043800D01*
X3046340Y3117460D01*
Y3119492D02*
X3047863Y3121016D01*
X3049388D01*
X3047863Y3122540D01*
X3049388Y3124064D01*
X3047863D01*
X3046340Y3125587D01*
X3044816Y3124064D01*
X3043292D01*
X3044816Y3122540D01*
X3043292Y3121016D01*
X3044816D01*
X3046340Y3119492D01*
D63*
X3169920Y2776220D02*
G03*
X3169920Y2776220I-5080J0D01*
G01*
X3246120D02*
G03*
X3246120Y2776220I-5080J0D01*
G01*
X2758440Y3114040D02*
G03*
X2758440Y3114040I-5080J0D01*
G01*
X2987040Y3106420D02*
G03*
X2987040Y3106420I-5080J0D01*
G01*
X456929Y3106130D02*
G03*
X456929Y3106130I-5080J0D01*
G01*
X1226820Y3140710D02*
G03*
X1226820Y3140710I-5080J0D01*
G01*
X2760980Y3167380D02*
G03*
X2760980Y3167380I-5080J0D01*
G01*
X2976880Y3162300D02*
G03*
X2976880Y3162300I-5080J0D01*
G01*
X3147060Y3091180D02*
G03*
X3147060Y3091180I-5080J0D01*
G01*
X2672080Y3134360D02*
G03*
X2672080Y3134360I-5080J0D01*
G01*
X2613660Y3114040D02*
G03*
X2613660Y3114040I-5080J0D01*
G01*
X2562860Y3126740D02*
G03*
X2562860Y3126740I-5080J0D01*
G01*
X2499360Y3205480D02*
G03*
X2499360Y3205480I-5080J0D01*
G01*
X2471420D02*
G03*
X2471420Y3205480I-5080J0D01*
G01*
X1140460Y3149600D02*
G03*
X1140460Y3149600I-5080J0D01*
G01*
X1168400D02*
G03*
X1168400Y3149600I-5080J0D01*
G01*
X1600200Y3274060D02*
G03*
X1600200Y3274060I-5080J0D01*
G01*
X2865120Y3093720D02*
G03*
X2865120Y3093720I-5080J0D01*
G01*
Y3068320D02*
G03*
X2865120Y3068320I-5080J0D01*
G01*
X3002280Y3091180D02*
G03*
X3002280Y3091180I-5080J0D01*
G01*
X3111500Y3116580D02*
G03*
X3111500Y3116580I-5080J0D01*
G01*
X736600Y3122730D02*
G03*
X736600Y3122730I-5080J0D01*
G01*
X647700Y3218180D02*
G03*
X647700Y3218180I-5080J0D01*
G01*
X2486660Y2628900D02*
G03*
X2486660Y2628900I-5080J0D01*
G01*
X2240280Y2623820D02*
G03*
X2240280Y2623820I-5080J0D01*
G01*
X1419860D02*
G03*
X1419860Y2623820I-5080J0D01*
G01*
X1153160Y2627720D02*
G03*
X1153160Y2627720I-5080J0D01*
G01*
X583540Y3137190D02*
G03*
X583540Y3137190I-5080J0D01*
G01*
X670560Y3230880D02*
G03*
X670560Y3230880I-5080J0D01*
G01*
X594737Y3108040D02*
G03*
X594737Y3108040I-5080J0D01*
G01*
X386080Y3060700D02*
G03*
X386080Y3060700I-5080J0D01*
G01*
X328320Y3118830D02*
G03*
X328320Y3118830I-5080J0D01*
G01*
X452780Y3154390D02*
G03*
X452780Y3154390I-5080J0D01*
G01*
X455320Y3134070D02*
G03*
X455320Y3134070I-5080J0D01*
G01*
X434431Y3117185D02*
G03*
X434431Y3117185I-5080J0D01*
G01*
X699091Y3139796D02*
G03*
X699091Y3139796I-5080J0D01*
G01*
X1805940Y3096260D02*
G03*
X1805940Y3096260I-5080J0D01*
G01*
X1884680Y3093720D02*
G03*
X1884680Y3093720I-5080J0D01*
G01*
X1447800Y3121660D02*
G03*
X1447800Y3121660I-5080J0D01*
G01*
X2331564Y3095686D02*
G03*
X2331564Y3095686I-5080J0D01*
G01*
X2065020Y3096260D02*
G03*
X2065020Y3096260I-5080J0D01*
G01*
X1544320Y3119120D02*
G03*
X1544320Y3119120I-5080J0D01*
G01*
X1346200Y3091180D02*
G03*
X1346200Y3091180I-5080J0D01*
G01*
D64*
X3167888Y2776220D02*
G03*
X3167888Y2776220I-3048J0D01*
G01*
X3244088D02*
G03*
X3244088Y2776220I-3048J0D01*
G01*
M02*
