G04*
G04 #@! TF.GenerationSoftware,Altium Limited,Altium Designer,22.11.1 (43)*
G04*
G04 Layer_Color=128*
%FSLAX44Y44*%
%MOMM*%
G71*
G04*
G04 #@! TF.SameCoordinates,5C0A5EEE-47A7-48C6-A53D-BF58CD8EAAEC*
G04*
G04*
G04 #@! TF.FilePolarity,Positive*
G04*
G01*
G75*
%ADD15C,0.1270*%
D15*
X1503000Y1280000D02*
X1537000D01*
X1520000Y1263000D02*
Y1297000D01*
X323000Y1280000D02*
X357000D01*
X340000Y1263000D02*
Y1297000D01*
X323000Y2210000D02*
X357000D01*
X340000Y2193000D02*
Y2227000D01*
X1503000Y2210000D02*
X1537000D01*
X1520000Y2193000D02*
Y2227000D01*
X543500Y2210000D02*
X556500D01*
X550000Y2203500D02*
Y2216500D01*
X593500Y2210000D02*
X606500D01*
X600000Y2203500D02*
Y2216500D01*
X643500Y2210000D02*
X656500D01*
X650000Y2203500D02*
Y2216500D01*
X613500Y1280000D02*
X626500D01*
X620000Y1273500D02*
Y1286500D01*
X663500Y1280000D02*
X676500D01*
X670000Y1273500D02*
Y1286500D01*
X713500Y1280000D02*
X726500D01*
X720000Y1273500D02*
Y1286500D01*
X1303500Y2070000D02*
X1316500D01*
X1310000Y2063500D02*
Y2076500D01*
X1253500Y2070000D02*
X1266500D01*
X1260000Y2063500D02*
Y2076500D01*
X1203500Y2070000D02*
X1216500D01*
X1210000Y2063500D02*
Y2076500D01*
X1121150Y1640000D02*
X1133850D01*
X1127500Y1633650D02*
Y1646350D01*
X986150Y1640000D02*
X998850D01*
X992500Y1633650D02*
Y1646350D01*
X861150Y1910000D02*
X873850D01*
X867500Y1903650D02*
Y1916350D01*
X726150Y1910000D02*
X738850D01*
X732500Y1903650D02*
Y1916350D01*
X1321150Y1640000D02*
X1333850D01*
X1327500Y1633650D02*
Y1646350D01*
X1186150Y1640000D02*
X1198850D01*
X1192500Y1633650D02*
Y1646350D01*
X661150Y1910000D02*
X673850D01*
X667500Y1903650D02*
Y1916350D01*
X526150Y1910000D02*
X538850D01*
X532500Y1903650D02*
Y1916350D01*
X1521150Y1640000D02*
X1533850D01*
X1527500Y1633650D02*
Y1646350D01*
X1386150Y1640000D02*
X1398850D01*
X1392500Y1633650D02*
Y1646350D01*
X461150Y1910000D02*
X473850D01*
X467500Y1903650D02*
Y1916350D01*
X326150Y1910000D02*
X338850D01*
X332500Y1903650D02*
Y1916350D01*
X863650Y1640000D02*
X876350D01*
X870000Y1633650D02*
Y1646350D01*
X863650Y1365000D02*
X876350D01*
X870000Y1358650D02*
Y1371350D01*
X663650Y1640000D02*
X676350D01*
X670000Y1633650D02*
Y1646350D01*
X663650Y1365000D02*
X676350D01*
X670000Y1358650D02*
Y1371350D01*
X463650Y1640000D02*
X476350D01*
X470000Y1633650D02*
Y1646350D01*
X463650Y1365000D02*
X476350D01*
X470000Y1358650D02*
Y1371350D01*
M02*
