G04*
G04 #@! TF.GenerationSoftware,Altium Limited,Altium Designer,22.11.1 (43)*
G04*
G04 Layer_Color=2752767*
%FSLAX44Y44*%
%MOMM*%
G71*
G04*
G04 #@! TF.SameCoordinates,5C0A5EEE-47A7-48C6-A53D-BF58CD8EAAEC*
G04*
G04*
G04 #@! TF.FilePolarity,Positive*
G04*
G01*
G75*
%ADD15C,0.1270*%
%ADD16C,0.1693*%
D15*
X1520000Y1274920D02*
X1514920Y1285080D01*
X1525080D01*
X1520000Y1274920D01*
X340000D02*
X334920Y1285080D01*
X345080D01*
X340000Y1274920D01*
Y2204920D02*
X334920Y2215080D01*
X345080D01*
X340000Y2204920D01*
X1520000D02*
X1514920Y2215080D01*
X1525080D01*
X1520000Y2204920D01*
X1122420Y1634920D02*
Y1645080D01*
X1132580D01*
Y1634920D01*
X1122420D01*
X987420D02*
Y1645080D01*
X997580D01*
Y1634920D01*
X987420D01*
X862420Y1904920D02*
Y1915080D01*
X872580D01*
Y1904920D01*
X862420D01*
X727420D02*
Y1915080D01*
X737580D01*
Y1904920D01*
X727420D01*
X1322420Y1634920D02*
Y1645080D01*
X1332580D01*
Y1634920D01*
X1322420D01*
X1187420D02*
Y1645080D01*
X1197580D01*
Y1634920D01*
X1187420D01*
X662420Y1904920D02*
Y1915080D01*
X672580D01*
Y1904920D01*
X662420D01*
X527420D02*
Y1915080D01*
X537580D01*
Y1904920D01*
X527420D01*
X1522420Y1634920D02*
Y1645080D01*
X1532580D01*
Y1634920D01*
X1522420D01*
X1387420D02*
Y1645080D01*
X1397580D01*
Y1634920D01*
X1387420D01*
X462420Y1904920D02*
Y1915080D01*
X472580D01*
Y1904920D01*
X462420D01*
X327420D02*
Y1915080D01*
X337580D01*
Y1904920D01*
X327420D01*
X864920Y1634920D02*
Y1645080D01*
X875080D01*
Y1634920D01*
X864920D01*
Y1359920D02*
Y1370080D01*
X875080D01*
Y1359920D01*
X864920D01*
X664920Y1634920D02*
Y1645080D01*
X675080D01*
Y1634920D01*
X664920D01*
Y1359920D02*
Y1370080D01*
X675080D01*
Y1359920D01*
X664920D01*
X464920Y1634920D02*
Y1645080D01*
X475080D01*
Y1634920D01*
X464920D01*
Y1359920D02*
Y1370080D01*
X475080D01*
Y1359920D01*
X464920D01*
D16*
X555080Y2210000D02*
G03*
X555080Y2210000I-5080J0D01*
G01*
X605080D02*
G03*
X605080Y2210000I-5080J0D01*
G01*
X655080D02*
G03*
X655080Y2210000I-5080J0D01*
G01*
X625080Y1280000D02*
G03*
X625080Y1280000I-5080J0D01*
G01*
X675080D02*
G03*
X675080Y1280000I-5080J0D01*
G01*
X725080D02*
G03*
X725080Y1280000I-5080J0D01*
G01*
X1315080Y2070000D02*
G03*
X1315080Y2070000I-5080J0D01*
G01*
X1265080D02*
G03*
X1265080Y2070000I-5080J0D01*
G01*
X1215080D02*
G03*
X1215080Y2070000I-5080J0D01*
G01*
M02*
