G04*
G04 #@! TF.GenerationSoftware,Altium Limited,Altium Designer,22.11.1 (43)*
G04*
G04 Layer_Color=8388736*
%FSLAX44Y44*%
%MOMM*%
G71*
G04*
G04 #@! TF.SameCoordinates,5926677A-74AB-409A-8ECC-7C9113B37032*
G04*
G04*
G04 #@! TF.FilePolarity,Negative*
G04*
G01*
G75*
%ADD16R,2.7032X1.7032*%
%ADD17C,3.2032*%
%ADD18O,3.8032X3.4032*%
%ADD19R,1.6032X1.6032*%
%ADD20C,1.6032*%
%ADD21C,2.4032*%
%ADD22C,3.7032*%
%ADD23C,2.7032*%
%ADD24C,5.7032*%
%ADD25C,10.2032*%
%ADD26R,2.7032X2.7032*%
%ADD27R,1.8520X1.8520*%
%ADD28C,1.8520*%
%ADD29C,1.4732*%
D16*
X2098040Y3095480D02*
D03*
Y3061480D02*
D03*
X2367280Y3095480D02*
D03*
Y3061480D02*
D03*
X2633980Y3095480D02*
D03*
Y3061480D02*
D03*
X1948180Y2714480D02*
D03*
Y2680480D02*
D03*
X2214880Y2714480D02*
D03*
Y2680480D02*
D03*
X2481580Y2714480D02*
D03*
Y2680480D02*
D03*
X1300480Y3090400D02*
D03*
Y3056400D02*
D03*
X1567180Y3095480D02*
D03*
Y3061480D02*
D03*
X1833880Y3095480D02*
D03*
Y3061480D02*
D03*
X1148080Y2714480D02*
D03*
Y2680480D02*
D03*
X1414780Y2714480D02*
D03*
Y2680480D02*
D03*
X1681480Y2714480D02*
D03*
Y2680480D02*
D03*
D17*
X1919920Y1991360D02*
D03*
X2083120D02*
D03*
X2133280D02*
D03*
X2296480D02*
D03*
X2346640D02*
D03*
X2509840D02*
D03*
X1417640Y1988820D02*
D03*
X1254440D02*
D03*
X1631000D02*
D03*
X1467800D02*
D03*
X1846900D02*
D03*
X1683700D02*
D03*
X3248480Y2037080D02*
D03*
X3459480D02*
D03*
X3248480Y2197080D02*
D03*
X3459480D02*
D03*
X3248480Y1877080D02*
D03*
X3459480D02*
D03*
X519790Y2033114D02*
D03*
X308790D02*
D03*
X519790Y1873114D02*
D03*
X308790D02*
D03*
X519790Y2193114D02*
D03*
X308790D02*
D03*
D18*
X2872740Y2385800D02*
D03*
Y2590800D02*
D03*
Y2069200D02*
D03*
Y2274200D02*
D03*
Y1751700D02*
D03*
Y1956700D02*
D03*
X892990Y1745194D02*
D03*
Y1950194D02*
D03*
Y2064334D02*
D03*
Y2269334D02*
D03*
Y2380194D02*
D03*
Y2585194D02*
D03*
D19*
X2745740Y3359150D02*
D03*
Y2927350D02*
D03*
X322580Y3359150D02*
D03*
Y2927350D02*
D03*
D20*
X2745740Y3384550D02*
D03*
X2771140Y3359150D02*
D03*
Y3384550D02*
D03*
X2796540Y3359150D02*
D03*
Y3384550D02*
D03*
X2821940Y3359150D02*
D03*
Y3384550D02*
D03*
X2847340Y3359150D02*
D03*
Y3384550D02*
D03*
X2872740Y3359150D02*
D03*
Y3384550D02*
D03*
X2898140Y3359150D02*
D03*
Y3384550D02*
D03*
X2923540Y3359150D02*
D03*
Y3384550D02*
D03*
X2948940Y3359150D02*
D03*
Y3384550D02*
D03*
X2974340Y3359150D02*
D03*
Y3384550D02*
D03*
X2745740Y2952750D02*
D03*
X2771140Y2927350D02*
D03*
Y2952750D02*
D03*
X2796540Y2927350D02*
D03*
Y2952750D02*
D03*
X2821940Y2927350D02*
D03*
Y2952750D02*
D03*
X2847340Y2927350D02*
D03*
Y2952750D02*
D03*
X2872740Y2927350D02*
D03*
Y2952750D02*
D03*
X2898140Y2927350D02*
D03*
Y2952750D02*
D03*
X2923540Y2927350D02*
D03*
Y2952750D02*
D03*
X2948940Y2927350D02*
D03*
Y2952750D02*
D03*
X2974340Y2927350D02*
D03*
Y2952750D02*
D03*
X322580Y3384550D02*
D03*
X347980Y3359150D02*
D03*
Y3384550D02*
D03*
X373380Y3359150D02*
D03*
Y3384550D02*
D03*
X398780Y3359150D02*
D03*
Y3384550D02*
D03*
X424180Y3359150D02*
D03*
Y3384550D02*
D03*
X449580Y3359150D02*
D03*
Y3384550D02*
D03*
X474980Y3359150D02*
D03*
Y3384550D02*
D03*
X500380Y3359150D02*
D03*
Y3384550D02*
D03*
X525780Y3359150D02*
D03*
Y3384550D02*
D03*
X551180Y3359150D02*
D03*
Y3384550D02*
D03*
X322580Y2952750D02*
D03*
X347980Y2927350D02*
D03*
Y2952750D02*
D03*
X373380Y2927350D02*
D03*
Y2952750D02*
D03*
X398780Y2927350D02*
D03*
Y2952750D02*
D03*
X424180Y2927350D02*
D03*
Y2952750D02*
D03*
X449580Y2927350D02*
D03*
Y2952750D02*
D03*
X474980Y2927350D02*
D03*
Y2952750D02*
D03*
X500380Y2927350D02*
D03*
Y2952750D02*
D03*
X525780Y2927350D02*
D03*
Y2952750D02*
D03*
X551180Y2927350D02*
D03*
Y2952750D02*
D03*
X3164840Y2776220D02*
D03*
X3241040D02*
D03*
D21*
X1948180Y2781300D02*
D03*
Y2984500D02*
D03*
X2024380D02*
D03*
X2100580D02*
D03*
Y2781300D02*
D03*
X2214880D02*
D03*
Y2984500D02*
D03*
X2291080D02*
D03*
X2367280D02*
D03*
Y2781300D02*
D03*
X2481580D02*
D03*
Y2984500D02*
D03*
X2557780D02*
D03*
X2633980D02*
D03*
Y2781300D02*
D03*
X1148080D02*
D03*
Y2984500D02*
D03*
X1224280D02*
D03*
X1300480D02*
D03*
Y2781300D02*
D03*
X1414780D02*
D03*
Y2984500D02*
D03*
X1490980D02*
D03*
X1567180D02*
D03*
Y2781300D02*
D03*
X1681480D02*
D03*
Y2984500D02*
D03*
X1757680D02*
D03*
X1833880D02*
D03*
Y2781300D02*
D03*
D22*
X1254760Y3284220D02*
D03*
X2540000Y3312160D02*
D03*
D23*
X2440940Y3362960D02*
D03*
Y3411220D02*
D03*
X1955800Y3413760D02*
D03*
Y3365500D02*
D03*
X530860Y2819400D02*
D03*
X457200D02*
D03*
X383540D02*
D03*
X312420D02*
D03*
X607060D02*
D03*
X1247140Y3078480D02*
D03*
X1518920Y3081020D02*
D03*
X1767840Y3078480D02*
D03*
X2019300Y3091180D02*
D03*
X2286000Y3093720D02*
D03*
X2537460Y3098800D02*
D03*
X3050540Y2806700D02*
D03*
X2809240D02*
D03*
X2994660D02*
D03*
X2936240D02*
D03*
X2880360D02*
D03*
X3359480Y2334260D02*
D03*
X3409480D02*
D03*
X2270760Y1727200D02*
D03*
X2220760D02*
D03*
X309880Y2329180D02*
D03*
X359880D02*
D03*
X1597660Y1724660D02*
D03*
X1547660D02*
D03*
X1262040Y2263140D02*
D03*
X1537040D02*
D03*
X1437300Y2425700D02*
D03*
X1712300D02*
D03*
X1571920Y2588260D02*
D03*
X1846920D02*
D03*
X2179660D02*
D03*
X1904660D02*
D03*
X2362540Y2423160D02*
D03*
X2087540D02*
D03*
X2509860Y2263140D02*
D03*
X2234860D02*
D03*
D24*
X2494280Y1755140D02*
D03*
X294640Y2717800D02*
D03*
X2578100Y2679700D02*
D03*
X1264920Y2687320D02*
D03*
X309880Y3274060D02*
D03*
X3454400Y3380740D02*
D03*
X3480505Y1760156D02*
D03*
X297180Y1744980D02*
D03*
X1282700D02*
D03*
D25*
X3423920Y2768600D02*
D03*
D26*
X3459480Y2334260D02*
D03*
X2170760Y1727200D02*
D03*
X409880Y2329180D02*
D03*
X1497660Y1724660D02*
D03*
D27*
X2352040Y3312160D02*
D03*
X1671320D02*
D03*
D28*
X2352040Y3324860D02*
D03*
X2339340Y3312160D02*
D03*
Y3324860D02*
D03*
X2326640Y3312160D02*
D03*
Y3324860D02*
D03*
X2313940Y3312160D02*
D03*
Y3324860D02*
D03*
X2301240Y3312160D02*
D03*
Y3324860D02*
D03*
X2288540Y3312160D02*
D03*
Y3324860D02*
D03*
X2275840Y3312160D02*
D03*
Y3324860D02*
D03*
X2263140Y3312160D02*
D03*
Y3324860D02*
D03*
X2250440Y3312160D02*
D03*
Y3324860D02*
D03*
X2237740Y3312160D02*
D03*
Y3324860D02*
D03*
X2225040Y3312160D02*
D03*
Y3324860D02*
D03*
X2212340Y3312160D02*
D03*
Y3324860D02*
D03*
X2199640Y3312160D02*
D03*
Y3324860D02*
D03*
X2186940Y3312160D02*
D03*
Y3324860D02*
D03*
X2174240Y3312160D02*
D03*
Y3324860D02*
D03*
X2161540Y3312160D02*
D03*
Y3324860D02*
D03*
X2148840Y3312160D02*
D03*
Y3324860D02*
D03*
X2136140Y3312160D02*
D03*
Y3324860D02*
D03*
X2123440Y3312160D02*
D03*
Y3324860D02*
D03*
X2110740Y3312160D02*
D03*
Y3324860D02*
D03*
X2098040Y3312160D02*
D03*
Y3324860D02*
D03*
X2085340Y3312160D02*
D03*
Y3324860D02*
D03*
X2072640Y3312160D02*
D03*
Y3324860D02*
D03*
X2059940Y3312160D02*
D03*
Y3324860D02*
D03*
X2047240Y3312160D02*
D03*
Y3324860D02*
D03*
X1671320D02*
D03*
X1658620Y3312160D02*
D03*
Y3324860D02*
D03*
X1645920Y3312160D02*
D03*
Y3324860D02*
D03*
X1633220Y3312160D02*
D03*
Y3324860D02*
D03*
X1620520Y3312160D02*
D03*
Y3324860D02*
D03*
X1607820Y3312160D02*
D03*
Y3324860D02*
D03*
X1595120Y3312160D02*
D03*
Y3324860D02*
D03*
X1582420Y3312160D02*
D03*
Y3324860D02*
D03*
X1569720Y3312160D02*
D03*
Y3324860D02*
D03*
X1557020Y3312160D02*
D03*
Y3324860D02*
D03*
X1544320Y3312160D02*
D03*
Y3324860D02*
D03*
X1531620Y3312160D02*
D03*
Y3324860D02*
D03*
X1518920Y3312160D02*
D03*
Y3324860D02*
D03*
X1506220Y3312160D02*
D03*
Y3324860D02*
D03*
X1493520Y3312160D02*
D03*
Y3324860D02*
D03*
X1480820Y3312160D02*
D03*
Y3324860D02*
D03*
X1468120Y3312160D02*
D03*
Y3324860D02*
D03*
X1455420Y3312160D02*
D03*
Y3324860D02*
D03*
X1442720Y3312160D02*
D03*
Y3324860D02*
D03*
X1430020Y3312160D02*
D03*
Y3324860D02*
D03*
X1417320Y3312160D02*
D03*
Y3324860D02*
D03*
X1404620Y3312160D02*
D03*
Y3324860D02*
D03*
X1391920Y3312160D02*
D03*
Y3324860D02*
D03*
X1379220Y3312160D02*
D03*
Y3324860D02*
D03*
X1366520Y3312160D02*
D03*
Y3324860D02*
D03*
D29*
X2481580Y2651760D02*
D03*
X2557780Y3124200D02*
D03*
X2616200Y3134360D02*
D03*
X1800860Y3096260D02*
D03*
X1879600Y3093720D02*
D03*
X1442720Y3121660D02*
D03*
X1221740Y3140710D02*
D03*
X1413972Y3226608D02*
D03*
X1423670Y3210560D02*
D03*
X2326484Y3095686D02*
D03*
X2059940Y3096260D02*
D03*
X1539240Y3119120D02*
D03*
X1341120Y3091180D02*
D03*
X1592580Y3253740D02*
D03*
X1661160Y3210560D02*
D03*
X1648460Y3235960D02*
D03*
X1717040Y3210560D02*
D03*
X1681480Y3223260D02*
D03*
X1422862Y3258358D02*
D03*
X1163320Y3147060D02*
D03*
X1137920D02*
D03*
X2214880Y2646680D02*
D03*
X1414780Y2641600D02*
D03*
X1148080Y2636520D02*
D03*
M02*
