G04*
G04 #@! TF.GenerationSoftware,Altium Limited,Altium Designer,22.11.1 (43)*
G04*
G04 Layer_Physical_Order=2*
G04 Layer_Color=16711680*
%FSLAX44Y44*%
%MOMM*%
G71*
G04*
G04 #@! TF.SameCoordinates,B38BEB0A-FF2B-4473-85C9-27130B265984*
G04*
G04*
G04 #@! TF.FilePolarity,Positive*
G04*
G01*
G75*
%ADD19R,1.0200X1.4700*%
%ADD20R,1.4700X1.0200*%
%ADD21R,2.5000X1.5000*%
%ADD44C,0.5080*%
%ADD46C,1.2700*%
%ADD47C,2.5000*%
%ADD48C,2.2000*%
%ADD49C,3.5000*%
%ADD50C,3.0000*%
%ADD51O,3.6000X3.2000*%
%ADD52C,5.5000*%
%ADD53C,10.0000*%
%ADD54C,1.4000*%
%ADD55R,1.4000X1.4000*%
%ADD56R,2.5000X2.5000*%
%ADD57C,1.0900*%
%ADD58R,1.0900X1.0900*%
%ADD59C,1.0160*%
%ADD60C,1.2700*%
%ADD61R,1.5000X2.5000*%
G36*
X3304540Y2999740D02*
X3190240Y2885440D01*
Y2700020D01*
X3088640D01*
Y2885440D01*
X2727960D01*
Y2979715D01*
X2776682Y3028438D01*
X2777805Y3030118D01*
X2778199Y3032100D01*
Y3038110D01*
X2780660D01*
Y3057890D01*
X2779409D01*
Y3063440D01*
X2785480D01*
Y3093520D01*
X2772725D01*
X2759998Y3106247D01*
Y3108087D01*
X2761125Y3109557D01*
X2762021Y3111719D01*
X2762327Y3114040D01*
X2762116Y3115636D01*
X2764384Y3116960D01*
X2766330Y3115015D01*
Y3107060D01*
X2786110D01*
Y3109521D01*
X2789514D01*
X2794200Y3104835D01*
Y3092080D01*
X2804060D01*
Y3081812D01*
X2804455Y3079830D01*
X2805577Y3078149D01*
X2808216Y3075511D01*
X2808166Y3075389D01*
X2807904Y3073400D01*
X2808166Y3071411D01*
X2808934Y3069557D01*
X2810155Y3067965D01*
X2811747Y3066744D01*
X2813601Y3065976D01*
X2815590Y3065714D01*
X2817579Y3065976D01*
X2819433Y3066744D01*
X2821025Y3067965D01*
X2822246Y3069557D01*
X2823014Y3071411D01*
X2823276Y3073400D01*
X2823014Y3075389D01*
X2822246Y3077243D01*
X2821025Y3078835D01*
X2819433Y3080056D01*
X2817579Y3080824D01*
X2817549Y3080828D01*
X2814420Y3083958D01*
Y3092080D01*
X2824280D01*
Y3112160D01*
X2801525D01*
X2795323Y3118362D01*
X2793642Y3119485D01*
X2791660Y3119879D01*
X2786110D01*
Y3122340D01*
X2773655D01*
X2761079Y3134915D01*
Y3160149D01*
X2762240Y3161040D01*
X2763665Y3162897D01*
X2764561Y3165059D01*
X2764867Y3167380D01*
X2764561Y3169701D01*
X2763665Y3171863D01*
X2762240Y3173720D01*
X2760383Y3175145D01*
X2758221Y3176041D01*
X2755900Y3176347D01*
X2753579Y3176041D01*
X2751417Y3175145D01*
X2749560Y3173720D01*
X2748669Y3172560D01*
X2701290D01*
X2699308Y3172165D01*
X2697628Y3171042D01*
X2669523Y3142938D01*
X2669321Y3143021D01*
X2667000Y3143327D01*
X2664679Y3143021D01*
X2662516Y3142126D01*
X2660659Y3140700D01*
X2659235Y3138843D01*
X2658339Y3136681D01*
X2658033Y3134360D01*
X2658339Y3132039D01*
X2659235Y3129877D01*
X2660659Y3128020D01*
X2662516Y3126595D01*
X2664679Y3125699D01*
X2667000Y3125393D01*
X2669321Y3125699D01*
X2671483Y3126595D01*
X2673340Y3128020D01*
X2674765Y3129877D01*
X2675661Y3132039D01*
X2675967Y3134360D01*
X2675923Y3134688D01*
X2703435Y3162201D01*
X2748669D01*
X2749560Y3161040D01*
X2750721Y3160149D01*
Y3132770D01*
X2751115Y3130788D01*
X2752238Y3129107D01*
X2756281Y3125065D01*
X2754956Y3122797D01*
X2753360Y3123007D01*
X2751039Y3122701D01*
X2748877Y3121805D01*
X2747020Y3120380D01*
X2745594Y3118523D01*
X2744699Y3116361D01*
X2744393Y3114040D01*
X2744699Y3111719D01*
X2745594Y3109557D01*
X2747020Y3107700D01*
X2748877Y3106275D01*
X2749638Y3105959D01*
Y3104102D01*
X2750033Y3102120D01*
X2751155Y3100439D01*
X2765400Y3086195D01*
Y3063440D01*
X2769051D01*
Y3057890D01*
X2765380D01*
Y3038110D01*
X2767841D01*
Y3034245D01*
X2729843Y2996247D01*
X2726311Y2996309D01*
X2682240Y3040380D01*
X2567817D01*
Y3125670D01*
X2567511Y3127991D01*
X2566615Y3130154D01*
X2565190Y3132010D01*
X2564120Y3133080D01*
X2562263Y3134505D01*
X2560101Y3135401D01*
X2557780Y3135707D01*
X2555459Y3135401D01*
X2553297Y3134505D01*
X2551440Y3133080D01*
X2550015Y3131223D01*
X2549119Y3129061D01*
X2548813Y3126740D01*
X2549119Y3124419D01*
X2549883Y3122574D01*
Y3111215D01*
X2547343Y3110145D01*
X2545856Y3111366D01*
X2543243Y3112762D01*
X2540408Y3113622D01*
X2537460Y3113913D01*
X2534512Y3113622D01*
X2531677Y3112762D01*
X2529064Y3111366D01*
X2526774Y3109486D01*
X2524894Y3107196D01*
X2523498Y3104583D01*
X2522638Y3101748D01*
X2522347Y3098800D01*
X2522638Y3095852D01*
X2523498Y3093017D01*
X2524894Y3090404D01*
X2526774Y3088114D01*
X2529064Y3086234D01*
X2531677Y3084838D01*
X2534512Y3083978D01*
X2537460Y3083687D01*
X2540408Y3083978D01*
X2543243Y3084838D01*
X2545856Y3086234D01*
X2547343Y3087455D01*
X2549883Y3086385D01*
Y3040380D01*
X2512110D01*
Y3220720D01*
X2511913Y3221711D01*
X2511351Y3222551D01*
X2510511Y3223112D01*
X2509520Y3223310D01*
X2453640D01*
X2452649Y3223112D01*
X2451809Y3222551D01*
X2451247Y3221711D01*
X2451050Y3220720D01*
Y3040380D01*
X1809827D01*
Y3096260D01*
X1809521Y3098581D01*
X1808625Y3100743D01*
X1807200Y3102600D01*
X1805343Y3104025D01*
X1803181Y3104921D01*
X1800860Y3105227D01*
X1798539Y3104921D01*
X1796377Y3104025D01*
X1794520Y3102600D01*
X1793095Y3100743D01*
X1792199Y3098581D01*
X1791893Y3096260D01*
Y3040380D01*
X1499947D01*
Y3073400D01*
X1499641Y3075721D01*
X1498745Y3077883D01*
X1497320Y3079740D01*
X1449060Y3128000D01*
X1447203Y3129425D01*
X1445041Y3130321D01*
X1442720Y3130627D01*
X1440399Y3130321D01*
X1438237Y3129425D01*
X1436380Y3128000D01*
X1434955Y3126143D01*
X1434059Y3123981D01*
X1433753Y3121660D01*
X1434059Y3119339D01*
X1434955Y3117177D01*
X1436380Y3115320D01*
X1482013Y3069686D01*
Y3040380D01*
X1233247D01*
Y3067697D01*
X1235787Y3068606D01*
X1236454Y3067794D01*
X1238744Y3065914D01*
X1241357Y3064518D01*
X1244192Y3063658D01*
X1247140Y3063367D01*
X1250088Y3063658D01*
X1252923Y3064518D01*
X1255536Y3065914D01*
X1257826Y3067794D01*
X1259706Y3070084D01*
X1261102Y3072697D01*
X1261962Y3075532D01*
X1262253Y3078480D01*
X1261962Y3081429D01*
X1261102Y3084263D01*
X1259706Y3086876D01*
X1257826Y3089166D01*
X1255536Y3091046D01*
X1252923Y3092442D01*
X1250088Y3093302D01*
X1247140Y3093593D01*
X1244192Y3093302D01*
X1241357Y3092442D01*
X1238744Y3091046D01*
X1236454Y3089166D01*
X1235787Y3088354D01*
X1233247Y3089262D01*
Y3138170D01*
X1232941Y3140491D01*
X1232045Y3142654D01*
X1230620Y3144510D01*
X1228080Y3147050D01*
X1226223Y3148475D01*
X1224061Y3149371D01*
X1221740Y3149677D01*
X1219419Y3149371D01*
X1217257Y3148475D01*
X1215400Y3147050D01*
X1213975Y3145193D01*
X1213079Y3143031D01*
X1212773Y3140710D01*
X1213079Y3138389D01*
X1213975Y3136227D01*
X1215313Y3134482D01*
Y3040380D01*
X1181150D01*
Y3159760D01*
X1180953Y3160751D01*
X1180391Y3161591D01*
X1179551Y3162153D01*
X1178560Y3162350D01*
X1122680D01*
X1121689Y3162153D01*
X1120849Y3161591D01*
X1120287Y3160751D01*
X1120090Y3159760D01*
Y3040380D01*
X815340D01*
X660400Y2885440D01*
X297180D01*
Y3441700D01*
X3304540D01*
Y2999740D01*
D02*
G37*
G36*
X2509520Y2941320D02*
Y2910840D01*
X1122680D01*
Y3159760D01*
X1178560D01*
Y2966720D01*
X2453640D01*
Y3220720D01*
X2509520D01*
Y2941320D01*
D02*
G37*
G36*
X3500120Y2700020D02*
X3230880D01*
Y2870200D01*
X3500120D01*
Y2700020D01*
D02*
G37*
G36*
X1859280Y2479040D02*
X1565412Y2185172D01*
X1076960D01*
Y2857500D01*
X1859280D01*
Y2479040D01*
D02*
G37*
G36*
X2692058Y2859052D02*
Y2179038D01*
X2189138D01*
X1889418Y2478758D01*
Y2859758D01*
X2691071Y2860321D01*
X2692058Y2859052D01*
D02*
G37*
%LPC*%
G36*
X1955800Y3428873D02*
X1952852Y3428582D01*
X1950017Y3427722D01*
X1947404Y3426326D01*
X1945114Y3424446D01*
X1943234Y3422156D01*
X1941838Y3419543D01*
X1940978Y3416708D01*
X1940687Y3413760D01*
X1940978Y3410811D01*
X1941838Y3407977D01*
X1943234Y3405364D01*
X1945114Y3403074D01*
X1947404Y3401194D01*
X1950017Y3399798D01*
X1952852Y3398938D01*
X1955800Y3398647D01*
X1958748Y3398938D01*
X1961583Y3399798D01*
X1964196Y3401194D01*
X1966486Y3403074D01*
X1968366Y3405364D01*
X1969762Y3407977D01*
X1970622Y3410811D01*
X1970913Y3413760D01*
X1970622Y3416708D01*
X1969762Y3419543D01*
X1968366Y3422156D01*
X1966486Y3424446D01*
X1964196Y3426326D01*
X1961583Y3427722D01*
X1958748Y3428582D01*
X1955800Y3428873D01*
D02*
G37*
G36*
X2440940Y3426333D02*
X2437992Y3426042D01*
X2435157Y3425182D01*
X2432544Y3423786D01*
X2430254Y3421906D01*
X2428374Y3419616D01*
X2426978Y3417003D01*
X2426118Y3414168D01*
X2425827Y3411220D01*
X2426118Y3408271D01*
X2426978Y3405437D01*
X2428374Y3402824D01*
X2430254Y3400534D01*
X2432544Y3398654D01*
X2435157Y3397258D01*
X2437992Y3396398D01*
X2440940Y3396107D01*
X2443888Y3396398D01*
X2446723Y3397258D01*
X2449336Y3398654D01*
X2451626Y3400534D01*
X2453506Y3402824D01*
X2454902Y3405437D01*
X2455762Y3408271D01*
X2456053Y3411220D01*
X2455762Y3414168D01*
X2454902Y3417003D01*
X2453506Y3419616D01*
X2451626Y3421906D01*
X2449336Y3423786D01*
X2446723Y3425182D01*
X2443888Y3426042D01*
X2440940Y3426333D01*
D02*
G37*
G36*
X2974340Y3394172D02*
X2971850Y3393844D01*
X2969529Y3392883D01*
X2967536Y3391354D01*
X2966007Y3389361D01*
X2965045Y3387040D01*
X2964718Y3384550D01*
X2965045Y3382060D01*
X2966007Y3379739D01*
X2967536Y3377746D01*
X2969529Y3376217D01*
X2971850Y3375256D01*
X2974340Y3374928D01*
X2976830Y3375256D01*
X2979151Y3376217D01*
X2981144Y3377746D01*
X2982673Y3379739D01*
X2983634Y3382060D01*
X2983962Y3384550D01*
X2983634Y3387040D01*
X2982673Y3389361D01*
X2981144Y3391354D01*
X2979151Y3392883D01*
X2976830Y3393844D01*
X2974340Y3394172D01*
D02*
G37*
G36*
X2948940D02*
X2946450Y3393844D01*
X2944129Y3392883D01*
X2942136Y3391354D01*
X2940607Y3389361D01*
X2939646Y3387040D01*
X2939318Y3384550D01*
X2939646Y3382060D01*
X2940607Y3379739D01*
X2942136Y3377746D01*
X2944129Y3376217D01*
X2946450Y3375256D01*
X2948940Y3374928D01*
X2951430Y3375256D01*
X2953751Y3376217D01*
X2955744Y3377746D01*
X2957273Y3379739D01*
X2958234Y3382060D01*
X2958562Y3384550D01*
X2958234Y3387040D01*
X2957273Y3389361D01*
X2955744Y3391354D01*
X2953751Y3392883D01*
X2951430Y3393844D01*
X2948940Y3394172D01*
D02*
G37*
G36*
X2923540D02*
X2921049Y3393844D01*
X2918729Y3392883D01*
X2916736Y3391354D01*
X2915207Y3389361D01*
X2914246Y3387040D01*
X2913918Y3384550D01*
X2914246Y3382060D01*
X2915207Y3379739D01*
X2916736Y3377746D01*
X2918729Y3376217D01*
X2921049Y3375256D01*
X2923540Y3374928D01*
X2926030Y3375256D01*
X2928351Y3376217D01*
X2930344Y3377746D01*
X2931873Y3379739D01*
X2932834Y3382060D01*
X2933162Y3384550D01*
X2932834Y3387040D01*
X2931873Y3389361D01*
X2930344Y3391354D01*
X2928351Y3392883D01*
X2926030Y3393844D01*
X2923540Y3394172D01*
D02*
G37*
G36*
X2898140D02*
X2895650Y3393844D01*
X2893329Y3392883D01*
X2891336Y3391354D01*
X2889807Y3389361D01*
X2888846Y3387040D01*
X2888518Y3384550D01*
X2888846Y3382060D01*
X2889807Y3379739D01*
X2891336Y3377746D01*
X2893329Y3376217D01*
X2895650Y3375256D01*
X2898140Y3374928D01*
X2900630Y3375256D01*
X2902951Y3376217D01*
X2904944Y3377746D01*
X2906473Y3379739D01*
X2907434Y3382060D01*
X2907762Y3384550D01*
X2907434Y3387040D01*
X2906473Y3389361D01*
X2904944Y3391354D01*
X2902951Y3392883D01*
X2900630Y3393844D01*
X2898140Y3394172D01*
D02*
G37*
G36*
X2872740D02*
X2870250Y3393844D01*
X2867929Y3392883D01*
X2865936Y3391354D01*
X2864407Y3389361D01*
X2863446Y3387040D01*
X2863118Y3384550D01*
X2863446Y3382060D01*
X2864407Y3379739D01*
X2865936Y3377746D01*
X2867929Y3376217D01*
X2870250Y3375256D01*
X2872740Y3374928D01*
X2875230Y3375256D01*
X2877551Y3376217D01*
X2879544Y3377746D01*
X2881073Y3379739D01*
X2882034Y3382060D01*
X2882362Y3384550D01*
X2882034Y3387040D01*
X2881073Y3389361D01*
X2879544Y3391354D01*
X2877551Y3392883D01*
X2875230Y3393844D01*
X2872740Y3394172D01*
D02*
G37*
G36*
X2847340D02*
X2844850Y3393844D01*
X2842529Y3392883D01*
X2840536Y3391354D01*
X2839007Y3389361D01*
X2838046Y3387040D01*
X2837718Y3384550D01*
X2838046Y3382060D01*
X2839007Y3379739D01*
X2840536Y3377746D01*
X2842529Y3376217D01*
X2844850Y3375256D01*
X2847340Y3374928D01*
X2849830Y3375256D01*
X2852151Y3376217D01*
X2854144Y3377746D01*
X2855673Y3379739D01*
X2856635Y3382060D01*
X2856962Y3384550D01*
X2856635Y3387040D01*
X2855673Y3389361D01*
X2854144Y3391354D01*
X2852151Y3392883D01*
X2849830Y3393844D01*
X2847340Y3394172D01*
D02*
G37*
G36*
X2821940D02*
X2819449Y3393844D01*
X2817129Y3392883D01*
X2815136Y3391354D01*
X2813607Y3389361D01*
X2812646Y3387040D01*
X2812318Y3384550D01*
X2812646Y3382060D01*
X2813607Y3379739D01*
X2815136Y3377746D01*
X2817129Y3376217D01*
X2819449Y3375256D01*
X2821940Y3374928D01*
X2824431Y3375256D01*
X2826751Y3376217D01*
X2828744Y3377746D01*
X2830273Y3379739D01*
X2831234Y3382060D01*
X2831562Y3384550D01*
X2831234Y3387040D01*
X2830273Y3389361D01*
X2828744Y3391354D01*
X2826751Y3392883D01*
X2824431Y3393844D01*
X2821940Y3394172D01*
D02*
G37*
G36*
X2796540D02*
X2794050Y3393844D01*
X2791729Y3392883D01*
X2789736Y3391354D01*
X2788207Y3389361D01*
X2787245Y3387040D01*
X2786918Y3384550D01*
X2787245Y3382060D01*
X2788207Y3379739D01*
X2789736Y3377746D01*
X2791729Y3376217D01*
X2794050Y3375256D01*
X2796540Y3374928D01*
X2799030Y3375256D01*
X2801351Y3376217D01*
X2803344Y3377746D01*
X2804873Y3379739D01*
X2805834Y3382060D01*
X2806162Y3384550D01*
X2805834Y3387040D01*
X2804873Y3389361D01*
X2803344Y3391354D01*
X2801351Y3392883D01*
X2799030Y3393844D01*
X2796540Y3394172D01*
D02*
G37*
G36*
X2771140D02*
X2768650Y3393844D01*
X2766329Y3392883D01*
X2764336Y3391354D01*
X2762807Y3389361D01*
X2761846Y3387040D01*
X2761518Y3384550D01*
X2761846Y3382060D01*
X2762807Y3379739D01*
X2764336Y3377746D01*
X2766329Y3376217D01*
X2768650Y3375256D01*
X2771140Y3374928D01*
X2773630Y3375256D01*
X2775951Y3376217D01*
X2777944Y3377746D01*
X2779473Y3379739D01*
X2780434Y3382060D01*
X2780762Y3384550D01*
X2780434Y3387040D01*
X2779473Y3389361D01*
X2777944Y3391354D01*
X2775951Y3392883D01*
X2773630Y3393844D01*
X2771140Y3394172D01*
D02*
G37*
G36*
X551180D02*
X548690Y3393844D01*
X546369Y3392883D01*
X544376Y3391354D01*
X542847Y3389361D01*
X541886Y3387040D01*
X541558Y3384550D01*
X541886Y3382060D01*
X542847Y3379739D01*
X544376Y3377746D01*
X546369Y3376217D01*
X548690Y3375256D01*
X551180Y3374928D01*
X553670Y3375256D01*
X555991Y3376217D01*
X557984Y3377746D01*
X559513Y3379739D01*
X560474Y3382060D01*
X560802Y3384550D01*
X560474Y3387040D01*
X559513Y3389361D01*
X557984Y3391354D01*
X555991Y3392883D01*
X553670Y3393844D01*
X551180Y3394172D01*
D02*
G37*
G36*
X525780D02*
X523290Y3393844D01*
X520969Y3392883D01*
X518976Y3391354D01*
X517447Y3389361D01*
X516486Y3387040D01*
X516158Y3384550D01*
X516486Y3382060D01*
X517447Y3379739D01*
X518976Y3377746D01*
X520969Y3376217D01*
X523290Y3375256D01*
X525780Y3374928D01*
X528270Y3375256D01*
X530591Y3376217D01*
X532584Y3377746D01*
X534113Y3379739D01*
X535074Y3382060D01*
X535402Y3384550D01*
X535074Y3387040D01*
X534113Y3389361D01*
X532584Y3391354D01*
X530591Y3392883D01*
X528270Y3393844D01*
X525780Y3394172D01*
D02*
G37*
G36*
X500380D02*
X497890Y3393844D01*
X495569Y3392883D01*
X493576Y3391354D01*
X492047Y3389361D01*
X491086Y3387040D01*
X490758Y3384550D01*
X491086Y3382060D01*
X492047Y3379739D01*
X493576Y3377746D01*
X495569Y3376217D01*
X497890Y3375256D01*
X500380Y3374928D01*
X502870Y3375256D01*
X505191Y3376217D01*
X507184Y3377746D01*
X508713Y3379739D01*
X509674Y3382060D01*
X510002Y3384550D01*
X509674Y3387040D01*
X508713Y3389361D01*
X507184Y3391354D01*
X505191Y3392883D01*
X502870Y3393844D01*
X500380Y3394172D01*
D02*
G37*
G36*
X474980D02*
X472490Y3393844D01*
X470169Y3392883D01*
X468176Y3391354D01*
X466647Y3389361D01*
X465686Y3387040D01*
X465358Y3384550D01*
X465686Y3382060D01*
X466647Y3379739D01*
X468176Y3377746D01*
X470169Y3376217D01*
X472490Y3375256D01*
X474980Y3374928D01*
X477470Y3375256D01*
X479791Y3376217D01*
X481784Y3377746D01*
X483313Y3379739D01*
X484274Y3382060D01*
X484602Y3384550D01*
X484274Y3387040D01*
X483313Y3389361D01*
X481784Y3391354D01*
X479791Y3392883D01*
X477470Y3393844D01*
X474980Y3394172D01*
D02*
G37*
G36*
X449580D02*
X447090Y3393844D01*
X444769Y3392883D01*
X442776Y3391354D01*
X441247Y3389361D01*
X440286Y3387040D01*
X439958Y3384550D01*
X440286Y3382060D01*
X441247Y3379739D01*
X442776Y3377746D01*
X444769Y3376217D01*
X447090Y3375256D01*
X449580Y3374928D01*
X452070Y3375256D01*
X454391Y3376217D01*
X456384Y3377746D01*
X457913Y3379739D01*
X458874Y3382060D01*
X459202Y3384550D01*
X458874Y3387040D01*
X457913Y3389361D01*
X456384Y3391354D01*
X454391Y3392883D01*
X452070Y3393844D01*
X449580Y3394172D01*
D02*
G37*
G36*
X424180D02*
X421690Y3393844D01*
X419369Y3392883D01*
X417376Y3391354D01*
X415847Y3389361D01*
X414886Y3387040D01*
X414558Y3384550D01*
X414886Y3382060D01*
X415847Y3379739D01*
X417376Y3377746D01*
X419369Y3376217D01*
X421690Y3375256D01*
X424180Y3374928D01*
X426670Y3375256D01*
X428991Y3376217D01*
X430984Y3377746D01*
X432513Y3379739D01*
X433474Y3382060D01*
X433802Y3384550D01*
X433474Y3387040D01*
X432513Y3389361D01*
X430984Y3391354D01*
X428991Y3392883D01*
X426670Y3393844D01*
X424180Y3394172D01*
D02*
G37*
G36*
X398780D02*
X396290Y3393844D01*
X393969Y3392883D01*
X391976Y3391354D01*
X390447Y3389361D01*
X389486Y3387040D01*
X389158Y3384550D01*
X389486Y3382060D01*
X390447Y3379739D01*
X391976Y3377746D01*
X393969Y3376217D01*
X396290Y3375256D01*
X398780Y3374928D01*
X401270Y3375256D01*
X403591Y3376217D01*
X405584Y3377746D01*
X407113Y3379739D01*
X408074Y3382060D01*
X408402Y3384550D01*
X408074Y3387040D01*
X407113Y3389361D01*
X405584Y3391354D01*
X403591Y3392883D01*
X401270Y3393844D01*
X398780Y3394172D01*
D02*
G37*
G36*
X373380D02*
X370890Y3393844D01*
X368569Y3392883D01*
X366576Y3391354D01*
X365047Y3389361D01*
X364086Y3387040D01*
X363758Y3384550D01*
X364086Y3382060D01*
X365047Y3379739D01*
X366576Y3377746D01*
X368569Y3376217D01*
X370890Y3375256D01*
X373380Y3374928D01*
X375870Y3375256D01*
X378191Y3376217D01*
X380184Y3377746D01*
X381713Y3379739D01*
X382674Y3382060D01*
X383002Y3384550D01*
X382674Y3387040D01*
X381713Y3389361D01*
X380184Y3391354D01*
X378191Y3392883D01*
X375870Y3393844D01*
X373380Y3394172D01*
D02*
G37*
G36*
X347980D02*
X345490Y3393844D01*
X343169Y3392883D01*
X341176Y3391354D01*
X339647Y3389361D01*
X338686Y3387040D01*
X338358Y3384550D01*
X338686Y3382060D01*
X339647Y3379739D01*
X341176Y3377746D01*
X343169Y3376217D01*
X345490Y3375256D01*
X347980Y3374928D01*
X350470Y3375256D01*
X352791Y3376217D01*
X354784Y3377746D01*
X356313Y3379739D01*
X357274Y3382060D01*
X357602Y3384550D01*
X357274Y3387040D01*
X356313Y3389361D01*
X354784Y3391354D01*
X352791Y3392883D01*
X350470Y3393844D01*
X347980Y3394172D01*
D02*
G37*
G36*
X1955800Y3380613D02*
X1952852Y3380322D01*
X1950017Y3379462D01*
X1947404Y3378066D01*
X1945114Y3376186D01*
X1943234Y3373896D01*
X1941838Y3371283D01*
X1940978Y3368448D01*
X1940687Y3365500D01*
X1940978Y3362552D01*
X1941838Y3359716D01*
X1943234Y3357104D01*
X1945114Y3354814D01*
X1947404Y3352934D01*
X1950017Y3351537D01*
X1952852Y3350677D01*
X1955800Y3350387D01*
X1958748Y3350677D01*
X1961583Y3351537D01*
X1964196Y3352934D01*
X1966486Y3354814D01*
X1968366Y3357104D01*
X1969762Y3359716D01*
X1970622Y3362552D01*
X1970913Y3365500D01*
X1970622Y3368448D01*
X1969762Y3371283D01*
X1968366Y3373896D01*
X1966486Y3376186D01*
X1964196Y3378066D01*
X1961583Y3379462D01*
X1958748Y3380322D01*
X1955800Y3380613D01*
D02*
G37*
G36*
X2755280Y3368690D02*
X2736200D01*
Y3349610D01*
X2755280D01*
Y3368690D01*
D02*
G37*
G36*
X332120D02*
X313040D01*
Y3349610D01*
X332120D01*
Y3368690D01*
D02*
G37*
G36*
X2974340Y3368772D02*
X2971850Y3368445D01*
X2969529Y3367483D01*
X2967536Y3365954D01*
X2966007Y3363961D01*
X2965045Y3361640D01*
X2964718Y3359150D01*
X2965045Y3356660D01*
X2966007Y3354339D01*
X2967536Y3352346D01*
X2969529Y3350817D01*
X2971850Y3349856D01*
X2974340Y3349528D01*
X2976830Y3349856D01*
X2979151Y3350817D01*
X2981144Y3352346D01*
X2982673Y3354339D01*
X2983634Y3356660D01*
X2983962Y3359150D01*
X2983634Y3361640D01*
X2982673Y3363961D01*
X2981144Y3365954D01*
X2979151Y3367483D01*
X2976830Y3368445D01*
X2974340Y3368772D01*
D02*
G37*
G36*
X2948940D02*
X2946450Y3368445D01*
X2944129Y3367483D01*
X2942136Y3365954D01*
X2940607Y3363961D01*
X2939646Y3361640D01*
X2939318Y3359150D01*
X2939646Y3356660D01*
X2940607Y3354339D01*
X2942136Y3352346D01*
X2944129Y3350817D01*
X2946450Y3349856D01*
X2948940Y3349528D01*
X2951430Y3349856D01*
X2953751Y3350817D01*
X2955744Y3352346D01*
X2957273Y3354339D01*
X2958234Y3356660D01*
X2958562Y3359150D01*
X2958234Y3361640D01*
X2957273Y3363961D01*
X2955744Y3365954D01*
X2953751Y3367483D01*
X2951430Y3368445D01*
X2948940Y3368772D01*
D02*
G37*
G36*
X2923540D02*
X2921049Y3368445D01*
X2918729Y3367483D01*
X2916736Y3365954D01*
X2915207Y3363961D01*
X2914246Y3361640D01*
X2913918Y3359150D01*
X2914246Y3356660D01*
X2915207Y3354339D01*
X2916736Y3352346D01*
X2918729Y3350817D01*
X2921049Y3349856D01*
X2923540Y3349528D01*
X2926030Y3349856D01*
X2928351Y3350817D01*
X2930344Y3352346D01*
X2931873Y3354339D01*
X2932834Y3356660D01*
X2933162Y3359150D01*
X2932834Y3361640D01*
X2931873Y3363961D01*
X2930344Y3365954D01*
X2928351Y3367483D01*
X2926030Y3368445D01*
X2923540Y3368772D01*
D02*
G37*
G36*
X2898140D02*
X2895650Y3368445D01*
X2893329Y3367483D01*
X2891336Y3365954D01*
X2889807Y3363961D01*
X2888846Y3361640D01*
X2888518Y3359150D01*
X2888846Y3356660D01*
X2889807Y3354339D01*
X2891336Y3352346D01*
X2893329Y3350817D01*
X2895650Y3349856D01*
X2898140Y3349528D01*
X2900630Y3349856D01*
X2902951Y3350817D01*
X2904944Y3352346D01*
X2906473Y3354339D01*
X2907434Y3356660D01*
X2907762Y3359150D01*
X2907434Y3361640D01*
X2906473Y3363961D01*
X2904944Y3365954D01*
X2902951Y3367483D01*
X2900630Y3368445D01*
X2898140Y3368772D01*
D02*
G37*
G36*
X2872740D02*
X2870250Y3368445D01*
X2867929Y3367483D01*
X2865936Y3365954D01*
X2864407Y3363961D01*
X2863446Y3361640D01*
X2863118Y3359150D01*
X2863446Y3356660D01*
X2864407Y3354339D01*
X2865936Y3352346D01*
X2867929Y3350817D01*
X2870250Y3349856D01*
X2872740Y3349528D01*
X2875230Y3349856D01*
X2877551Y3350817D01*
X2879544Y3352346D01*
X2881073Y3354339D01*
X2882034Y3356660D01*
X2882362Y3359150D01*
X2882034Y3361640D01*
X2881073Y3363961D01*
X2879544Y3365954D01*
X2877551Y3367483D01*
X2875230Y3368445D01*
X2872740Y3368772D01*
D02*
G37*
G36*
X2847340D02*
X2844850Y3368445D01*
X2842529Y3367483D01*
X2840536Y3365954D01*
X2839007Y3363961D01*
X2838046Y3361640D01*
X2837718Y3359150D01*
X2838046Y3356660D01*
X2839007Y3354339D01*
X2840536Y3352346D01*
X2842529Y3350817D01*
X2844850Y3349856D01*
X2847340Y3349528D01*
X2849830Y3349856D01*
X2852151Y3350817D01*
X2854144Y3352346D01*
X2855673Y3354339D01*
X2856635Y3356660D01*
X2856962Y3359150D01*
X2856635Y3361640D01*
X2855673Y3363961D01*
X2854144Y3365954D01*
X2852151Y3367483D01*
X2849830Y3368445D01*
X2847340Y3368772D01*
D02*
G37*
G36*
X2821940D02*
X2819449Y3368445D01*
X2817129Y3367483D01*
X2815136Y3365954D01*
X2813607Y3363961D01*
X2812646Y3361640D01*
X2812318Y3359150D01*
X2812646Y3356660D01*
X2813607Y3354339D01*
X2815136Y3352346D01*
X2817129Y3350817D01*
X2819449Y3349856D01*
X2821940Y3349528D01*
X2824431Y3349856D01*
X2826751Y3350817D01*
X2828744Y3352346D01*
X2830273Y3354339D01*
X2831234Y3356660D01*
X2831562Y3359150D01*
X2831234Y3361640D01*
X2830273Y3363961D01*
X2828744Y3365954D01*
X2826751Y3367483D01*
X2824431Y3368445D01*
X2821940Y3368772D01*
D02*
G37*
G36*
X2796540D02*
X2794050Y3368445D01*
X2791729Y3367483D01*
X2789736Y3365954D01*
X2788207Y3363961D01*
X2787245Y3361640D01*
X2786918Y3359150D01*
X2787245Y3356660D01*
X2788207Y3354339D01*
X2789736Y3352346D01*
X2791729Y3350817D01*
X2794050Y3349856D01*
X2796540Y3349528D01*
X2799030Y3349856D01*
X2801351Y3350817D01*
X2803344Y3352346D01*
X2804873Y3354339D01*
X2805834Y3356660D01*
X2806162Y3359150D01*
X2805834Y3361640D01*
X2804873Y3363961D01*
X2803344Y3365954D01*
X2801351Y3367483D01*
X2799030Y3368445D01*
X2796540Y3368772D01*
D02*
G37*
G36*
X2771140D02*
X2768650Y3368445D01*
X2766329Y3367483D01*
X2764336Y3365954D01*
X2762807Y3363961D01*
X2761846Y3361640D01*
X2761518Y3359150D01*
X2761846Y3356660D01*
X2762807Y3354339D01*
X2764336Y3352346D01*
X2766329Y3350817D01*
X2768650Y3349856D01*
X2771140Y3349528D01*
X2773630Y3349856D01*
X2775951Y3350817D01*
X2777944Y3352346D01*
X2779473Y3354339D01*
X2780434Y3356660D01*
X2780762Y3359150D01*
X2780434Y3361640D01*
X2779473Y3363961D01*
X2777944Y3365954D01*
X2775951Y3367483D01*
X2773630Y3368445D01*
X2771140Y3368772D01*
D02*
G37*
G36*
X551180D02*
X548690Y3368445D01*
X546369Y3367483D01*
X544376Y3365954D01*
X542847Y3363961D01*
X541886Y3361640D01*
X541558Y3359150D01*
X541886Y3356660D01*
X542847Y3354339D01*
X544376Y3352346D01*
X546369Y3350817D01*
X548690Y3349856D01*
X551180Y3349528D01*
X553670Y3349856D01*
X555991Y3350817D01*
X557984Y3352346D01*
X559513Y3354339D01*
X560474Y3356660D01*
X560802Y3359150D01*
X560474Y3361640D01*
X559513Y3363961D01*
X557984Y3365954D01*
X555991Y3367483D01*
X553670Y3368445D01*
X551180Y3368772D01*
D02*
G37*
G36*
X525780D02*
X523290Y3368445D01*
X520969Y3367483D01*
X518976Y3365954D01*
X517447Y3363961D01*
X516486Y3361640D01*
X516158Y3359150D01*
X516486Y3356660D01*
X517447Y3354339D01*
X518976Y3352346D01*
X520969Y3350817D01*
X523290Y3349856D01*
X525780Y3349528D01*
X528270Y3349856D01*
X530591Y3350817D01*
X532584Y3352346D01*
X534113Y3354339D01*
X535074Y3356660D01*
X535402Y3359150D01*
X535074Y3361640D01*
X534113Y3363961D01*
X532584Y3365954D01*
X530591Y3367483D01*
X528270Y3368445D01*
X525780Y3368772D01*
D02*
G37*
G36*
X500380D02*
X497890Y3368445D01*
X495569Y3367483D01*
X493576Y3365954D01*
X492047Y3363961D01*
X491086Y3361640D01*
X490758Y3359150D01*
X491086Y3356660D01*
X492047Y3354339D01*
X493576Y3352346D01*
X495569Y3350817D01*
X497890Y3349856D01*
X500380Y3349528D01*
X502870Y3349856D01*
X505191Y3350817D01*
X507184Y3352346D01*
X508713Y3354339D01*
X509674Y3356660D01*
X510002Y3359150D01*
X509674Y3361640D01*
X508713Y3363961D01*
X507184Y3365954D01*
X505191Y3367483D01*
X502870Y3368445D01*
X500380Y3368772D01*
D02*
G37*
G36*
X474980D02*
X472490Y3368445D01*
X470169Y3367483D01*
X468176Y3365954D01*
X466647Y3363961D01*
X465686Y3361640D01*
X465358Y3359150D01*
X465686Y3356660D01*
X466647Y3354339D01*
X468176Y3352346D01*
X470169Y3350817D01*
X472490Y3349856D01*
X474980Y3349528D01*
X477470Y3349856D01*
X479791Y3350817D01*
X481784Y3352346D01*
X483313Y3354339D01*
X484274Y3356660D01*
X484602Y3359150D01*
X484274Y3361640D01*
X483313Y3363961D01*
X481784Y3365954D01*
X479791Y3367483D01*
X477470Y3368445D01*
X474980Y3368772D01*
D02*
G37*
G36*
X449580D02*
X447090Y3368445D01*
X444769Y3367483D01*
X442776Y3365954D01*
X441247Y3363961D01*
X440286Y3361640D01*
X439958Y3359150D01*
X440286Y3356660D01*
X441247Y3354339D01*
X442776Y3352346D01*
X444769Y3350817D01*
X447090Y3349856D01*
X449580Y3349528D01*
X452070Y3349856D01*
X454391Y3350817D01*
X456384Y3352346D01*
X457913Y3354339D01*
X458874Y3356660D01*
X459202Y3359150D01*
X458874Y3361640D01*
X457913Y3363961D01*
X456384Y3365954D01*
X454391Y3367483D01*
X452070Y3368445D01*
X449580Y3368772D01*
D02*
G37*
G36*
X424180D02*
X421690Y3368445D01*
X419369Y3367483D01*
X417376Y3365954D01*
X415847Y3363961D01*
X414886Y3361640D01*
X414558Y3359150D01*
X414886Y3356660D01*
X415847Y3354339D01*
X417376Y3352346D01*
X419369Y3350817D01*
X421690Y3349856D01*
X424180Y3349528D01*
X426670Y3349856D01*
X428991Y3350817D01*
X430984Y3352346D01*
X432513Y3354339D01*
X433474Y3356660D01*
X433802Y3359150D01*
X433474Y3361640D01*
X432513Y3363961D01*
X430984Y3365954D01*
X428991Y3367483D01*
X426670Y3368445D01*
X424180Y3368772D01*
D02*
G37*
G36*
X398780D02*
X396290Y3368445D01*
X393969Y3367483D01*
X391976Y3365954D01*
X390447Y3363961D01*
X389486Y3361640D01*
X389158Y3359150D01*
X389486Y3356660D01*
X390447Y3354339D01*
X391976Y3352346D01*
X393969Y3350817D01*
X396290Y3349856D01*
X398780Y3349528D01*
X401270Y3349856D01*
X403591Y3350817D01*
X405584Y3352346D01*
X407113Y3354339D01*
X408074Y3356660D01*
X408402Y3359150D01*
X408074Y3361640D01*
X407113Y3363961D01*
X405584Y3365954D01*
X403591Y3367483D01*
X401270Y3368445D01*
X398780Y3368772D01*
D02*
G37*
G36*
X373380D02*
X370890Y3368445D01*
X368569Y3367483D01*
X366576Y3365954D01*
X365047Y3363961D01*
X364086Y3361640D01*
X363758Y3359150D01*
X364086Y3356660D01*
X365047Y3354339D01*
X366576Y3352346D01*
X368569Y3350817D01*
X370890Y3349856D01*
X373380Y3349528D01*
X375870Y3349856D01*
X378191Y3350817D01*
X380184Y3352346D01*
X381713Y3354339D01*
X382674Y3356660D01*
X383002Y3359150D01*
X382674Y3361640D01*
X381713Y3363961D01*
X380184Y3365954D01*
X378191Y3367483D01*
X375870Y3368445D01*
X373380Y3368772D01*
D02*
G37*
G36*
X347980D02*
X345490Y3368445D01*
X343169Y3367483D01*
X341176Y3365954D01*
X339647Y3363961D01*
X338686Y3361640D01*
X338358Y3359150D01*
X338686Y3356660D01*
X339647Y3354339D01*
X341176Y3352346D01*
X343169Y3350817D01*
X345490Y3349856D01*
X347980Y3349528D01*
X350470Y3349856D01*
X352791Y3350817D01*
X354784Y3352346D01*
X356313Y3354339D01*
X357274Y3356660D01*
X357602Y3359150D01*
X357274Y3361640D01*
X356313Y3363961D01*
X354784Y3365954D01*
X352791Y3367483D01*
X350470Y3368445D01*
X347980Y3368772D01*
D02*
G37*
G36*
X2440940Y3378073D02*
X2437992Y3377782D01*
X2435157Y3376922D01*
X2432544Y3375526D01*
X2430254Y3373646D01*
X2428374Y3371356D01*
X2426978Y3368743D01*
X2426118Y3365909D01*
X2425827Y3362960D01*
X2426118Y3360012D01*
X2426978Y3357177D01*
X2428374Y3354564D01*
X2430254Y3352274D01*
X2432544Y3350394D01*
X2435157Y3348997D01*
X2437992Y3348138D01*
X2440940Y3347847D01*
X2443888Y3348138D01*
X2446723Y3348997D01*
X2449336Y3350394D01*
X2451626Y3352274D01*
X2453506Y3354564D01*
X2454902Y3357177D01*
X2455762Y3360012D01*
X2456053Y3362960D01*
X2455762Y3365909D01*
X2454902Y3368743D01*
X2453506Y3371356D01*
X2451626Y3373646D01*
X2449336Y3375526D01*
X2446723Y3376922D01*
X2443888Y3377782D01*
X2440940Y3378073D01*
D02*
G37*
G36*
X2098040Y3332919D02*
X2095954Y3332644D01*
X2094010Y3331839D01*
X2093537Y3331476D01*
X2091690Y3330798D01*
X2089843Y3331476D01*
X2089370Y3331839D01*
X2087426Y3332644D01*
X2085340Y3332919D01*
X2083254Y3332644D01*
X2081310Y3331839D01*
X2080836Y3331476D01*
X2078990Y3330798D01*
X2077144Y3331476D01*
X2076669Y3331839D01*
X2074726Y3332644D01*
X2072640Y3332919D01*
X2070554Y3332644D01*
X2068611Y3331839D01*
X2068136Y3331476D01*
X2066290Y3330798D01*
X2064444Y3331476D01*
X2063970Y3331839D01*
X2062026Y3332644D01*
X2059940Y3332919D01*
X2057854Y3332644D01*
X2055910Y3331839D01*
X2055437Y3331476D01*
X2053590Y3330798D01*
X2051743Y3331476D01*
X2051270Y3331839D01*
X2049326Y3332644D01*
X2047240Y3332919D01*
X2045154Y3332644D01*
X2043210Y3331839D01*
X2041541Y3330558D01*
X2040261Y3328889D01*
X2039456Y3326946D01*
X2039181Y3324860D01*
X2039456Y3322774D01*
X2040261Y3320830D01*
X2040625Y3320356D01*
X2041302Y3318510D01*
X2040625Y3316664D01*
X2040261Y3316190D01*
X2039456Y3314246D01*
X2039181Y3312160D01*
X2039456Y3310074D01*
X2040261Y3308130D01*
X2041541Y3306461D01*
X2043210Y3305181D01*
X2045154Y3304376D01*
X2047240Y3304101D01*
X2049326Y3304376D01*
X2051270Y3305181D01*
X2051743Y3305544D01*
X2053590Y3306222D01*
X2055437Y3305544D01*
X2055910Y3305181D01*
X2057854Y3304376D01*
X2059940Y3304101D01*
X2062026Y3304376D01*
X2063970Y3305181D01*
X2064444Y3305544D01*
X2066290Y3306222D01*
X2068136Y3305544D01*
X2068611Y3305181D01*
X2070554Y3304376D01*
X2072640Y3304101D01*
X2074726Y3304376D01*
X2076669Y3305181D01*
X2077144Y3305544D01*
X2078990Y3306222D01*
X2080836Y3305544D01*
X2081310Y3305181D01*
X2083254Y3304376D01*
X2085340Y3304101D01*
X2087426Y3304376D01*
X2089370Y3305181D01*
X2089843Y3305544D01*
X2091690Y3306222D01*
X2093537Y3305544D01*
X2094010Y3305181D01*
X2095954Y3304376D01*
X2098040Y3304101D01*
X2100126Y3304376D01*
X2102070Y3305181D01*
X2102543Y3305544D01*
X2104390Y3306222D01*
X2106237Y3305544D01*
X2106711Y3305181D01*
X2108654Y3304376D01*
X2110740Y3304101D01*
X2112826Y3304376D01*
X2114769Y3305181D01*
X2115244Y3305544D01*
X2117090Y3306222D01*
X2118936Y3305544D01*
X2119411Y3305181D01*
X2121354Y3304376D01*
X2123440Y3304101D01*
X2125526Y3304376D01*
X2127469Y3305181D01*
X2127944Y3305544D01*
X2129790Y3306222D01*
X2131637Y3305544D01*
X2132110Y3305181D01*
X2134054Y3304376D01*
X2136140Y3304101D01*
X2138226Y3304376D01*
X2140170Y3305181D01*
X2140643Y3305544D01*
X2142490Y3306222D01*
X2144337Y3305544D01*
X2144810Y3305181D01*
X2146754Y3304376D01*
X2148840Y3304101D01*
X2150926Y3304376D01*
X2152870Y3305181D01*
X2153344Y3305544D01*
X2155190Y3306222D01*
X2157036Y3305544D01*
X2157511Y3305181D01*
X2159454Y3304376D01*
X2161540Y3304101D01*
X2163626Y3304376D01*
X2165569Y3305181D01*
X2166044Y3305544D01*
X2167890Y3306222D01*
X2169736Y3305544D01*
X2170211Y3305181D01*
X2172154Y3304376D01*
X2174240Y3304101D01*
X2176326Y3304376D01*
X2178270Y3305181D01*
X2178743Y3305544D01*
X2180590Y3306222D01*
X2182437Y3305544D01*
X2182910Y3305181D01*
X2184854Y3304376D01*
X2186940Y3304101D01*
X2189026Y3304376D01*
X2190970Y3305181D01*
X2191443Y3305544D01*
X2193290Y3306222D01*
X2195137Y3305544D01*
X2195611Y3305181D01*
X2197554Y3304376D01*
X2199640Y3304101D01*
X2201726Y3304376D01*
X2203669Y3305181D01*
X2204144Y3305544D01*
X2205990Y3306222D01*
X2207836Y3305544D01*
X2208311Y3305181D01*
X2210254Y3304376D01*
X2212340Y3304101D01*
X2214426Y3304376D01*
X2216369Y3305181D01*
X2216844Y3305544D01*
X2218690Y3306222D01*
X2220536Y3305544D01*
X2221010Y3305181D01*
X2222954Y3304376D01*
X2225040Y3304101D01*
X2227126Y3304376D01*
X2229070Y3305181D01*
X2229543Y3305544D01*
X2231390Y3306222D01*
X2233237Y3305544D01*
X2233710Y3305181D01*
X2235654Y3304376D01*
X2237740Y3304101D01*
X2239826Y3304376D01*
X2241770Y3305181D01*
X2242243Y3305544D01*
X2244090Y3306222D01*
X2245936Y3305544D01*
X2246411Y3305181D01*
X2248354Y3304376D01*
X2250440Y3304101D01*
X2252526Y3304376D01*
X2254469Y3305181D01*
X2254944Y3305544D01*
X2256790Y3306222D01*
X2258636Y3305544D01*
X2259111Y3305181D01*
X2261054Y3304376D01*
X2263140Y3304101D01*
X2265226Y3304376D01*
X2267169Y3305181D01*
X2267643Y3305544D01*
X2269490Y3306222D01*
X2271337Y3305544D01*
X2271810Y3305181D01*
X2273754Y3304376D01*
X2275840Y3304101D01*
X2277926Y3304376D01*
X2279870Y3305181D01*
X2280343Y3305544D01*
X2282190Y3306222D01*
X2284037Y3305544D01*
X2284510Y3305181D01*
X2286454Y3304376D01*
X2288540Y3304101D01*
X2290626Y3304376D01*
X2292569Y3305181D01*
X2293044Y3305544D01*
X2294890Y3306222D01*
X2296736Y3305544D01*
X2297211Y3305181D01*
X2299154Y3304376D01*
X2301240Y3304101D01*
X2303326Y3304376D01*
X2305269Y3305181D01*
X2305744Y3305544D01*
X2307590Y3306222D01*
X2309436Y3305544D01*
X2309910Y3305181D01*
X2311854Y3304376D01*
X2313940Y3304101D01*
X2316026Y3304376D01*
X2317970Y3305181D01*
X2318443Y3305544D01*
X2320290Y3306222D01*
X2322137Y3305544D01*
X2322610Y3305181D01*
X2324554Y3304376D01*
X2326640Y3304101D01*
X2328726Y3304376D01*
X2330670Y3305181D01*
X2331143Y3305544D01*
X2332990Y3306222D01*
X2334836Y3305544D01*
X2335311Y3305181D01*
X2337254Y3304376D01*
X2339340Y3304101D01*
X2341426Y3304376D01*
X2341510Y3304410D01*
X2344050Y3304170D01*
Y3304170D01*
X2360030D01*
Y3320150D01*
X2344050D01*
Y3320150D01*
X2341510Y3319909D01*
X2341426Y3319944D01*
X2339340Y3320219D01*
X2337254Y3319944D01*
X2335311Y3319139D01*
X2334836Y3318776D01*
X2332990Y3318098D01*
X2331143Y3318776D01*
X2330670Y3319139D01*
X2328726Y3319944D01*
X2326640Y3320219D01*
X2324554Y3319944D01*
X2322610Y3319139D01*
X2322137Y3318776D01*
X2320290Y3318098D01*
X2318443Y3318776D01*
X2317970Y3319139D01*
X2316026Y3319944D01*
X2313940Y3320219D01*
X2311854Y3319944D01*
X2309910Y3319139D01*
X2309436Y3318776D01*
X2307590Y3318098D01*
X2305744Y3318776D01*
X2305269Y3319139D01*
X2303326Y3319944D01*
X2301240Y3320219D01*
X2299154Y3319944D01*
X2297211Y3319139D01*
X2296736Y3318776D01*
X2294890Y3318098D01*
X2293044Y3318776D01*
X2292569Y3319139D01*
X2290626Y3319944D01*
X2288540Y3320219D01*
X2286454Y3319944D01*
X2284510Y3319139D01*
X2284037Y3318776D01*
X2282190Y3318098D01*
X2280343Y3318776D01*
X2279870Y3319139D01*
X2277926Y3319944D01*
X2275840Y3320219D01*
X2273754Y3319944D01*
X2271810Y3319139D01*
X2271337Y3318776D01*
X2269490Y3318098D01*
X2267643Y3318776D01*
X2267169Y3319139D01*
X2265226Y3319944D01*
X2263140Y3320219D01*
X2261054Y3319944D01*
X2259111Y3319139D01*
X2258636Y3318776D01*
X2256790Y3318098D01*
X2254944Y3318776D01*
X2254469Y3319139D01*
X2252526Y3319944D01*
X2250440Y3320219D01*
X2248354Y3319944D01*
X2246411Y3319139D01*
X2245936Y3318776D01*
X2244090Y3318098D01*
X2242243Y3318776D01*
X2241770Y3319139D01*
X2239826Y3319944D01*
X2237740Y3320219D01*
X2235654Y3319944D01*
X2233710Y3319139D01*
X2233237Y3318776D01*
X2231390Y3318098D01*
X2229543Y3318776D01*
X2229070Y3319139D01*
X2227126Y3319944D01*
X2225040Y3320219D01*
X2222954Y3319944D01*
X2221010Y3319139D01*
X2220536Y3318776D01*
X2218690Y3318098D01*
X2216844Y3318776D01*
X2216369Y3319139D01*
X2214426Y3319944D01*
X2212340Y3320219D01*
X2210254Y3319944D01*
X2208311Y3319139D01*
X2207836Y3318776D01*
X2205990Y3318098D01*
X2204144Y3318776D01*
X2203669Y3319139D01*
X2201726Y3319944D01*
X2199640Y3320219D01*
X2197554Y3319944D01*
X2195611Y3319139D01*
X2195137Y3318776D01*
X2193290Y3318098D01*
X2191443Y3318776D01*
X2190970Y3319139D01*
X2189026Y3319944D01*
X2186940Y3320219D01*
X2184854Y3319944D01*
X2182910Y3319139D01*
X2182437Y3318776D01*
X2180590Y3318098D01*
X2178743Y3318776D01*
X2178270Y3319139D01*
X2176326Y3319944D01*
X2174240Y3320219D01*
X2172154Y3319944D01*
X2170211Y3319139D01*
X2169736Y3318776D01*
X2167890Y3318098D01*
X2166044Y3318776D01*
X2165569Y3319139D01*
X2163626Y3319944D01*
X2161540Y3320219D01*
X2159454Y3319944D01*
X2157511Y3319139D01*
X2157036Y3318776D01*
X2155190Y3318098D01*
X2153344Y3318776D01*
X2152870Y3319139D01*
X2150926Y3319944D01*
X2148840Y3320219D01*
X2146754Y3319944D01*
X2144810Y3319139D01*
X2144337Y3318776D01*
X2142490Y3318098D01*
X2140643Y3318776D01*
X2140170Y3319139D01*
X2138226Y3319944D01*
X2136140Y3320219D01*
X2134054Y3319944D01*
X2132110Y3319139D01*
X2131637Y3318776D01*
X2129790Y3318098D01*
X2127944Y3318776D01*
X2127469Y3319139D01*
X2125526Y3319944D01*
X2123440Y3320219D01*
X2121354Y3319944D01*
X2119411Y3319139D01*
X2118936Y3318776D01*
X2117612Y3318289D01*
X2115050Y3319409D01*
X2114796Y3320110D01*
X2114844Y3321858D01*
X2115525Y3322878D01*
X2115919Y3324860D01*
X2115525Y3326842D01*
X2114402Y3328523D01*
X2113289Y3329636D01*
X2111608Y3330759D01*
X2109626Y3331153D01*
X2107644Y3330759D01*
X2105964Y3329636D01*
X2104206Y3330365D01*
X2103598Y3330667D01*
X2102070Y3331839D01*
X2100126Y3332644D01*
X2098040Y3332919D01*
D02*
G37*
G36*
X1607820D02*
X1605734Y3332644D01*
X1603790Y3331839D01*
X1602121Y3330558D01*
X1600841Y3328889D01*
X1600036Y3326946D01*
X1599761Y3324860D01*
X1600036Y3322774D01*
X1600841Y3320830D01*
X1601205Y3320356D01*
X1601882Y3318510D01*
X1601205Y3316664D01*
X1600841Y3316190D01*
X1600036Y3314246D01*
X1599761Y3312160D01*
X1600036Y3310074D01*
X1600841Y3308130D01*
X1602121Y3306461D01*
X1603790Y3305181D01*
X1605734Y3304376D01*
X1607820Y3304101D01*
X1609906Y3304376D01*
X1611850Y3305181D01*
X1612323Y3305544D01*
X1614170Y3306222D01*
X1616017Y3305544D01*
X1616490Y3305181D01*
X1618434Y3304376D01*
X1620520Y3304101D01*
X1622606Y3304376D01*
X1624550Y3305181D01*
X1625023Y3305544D01*
X1626870Y3306222D01*
X1628716Y3305544D01*
X1629191Y3305181D01*
X1631134Y3304376D01*
X1633220Y3304101D01*
X1635306Y3304376D01*
X1637249Y3305181D01*
X1637724Y3305544D01*
X1639570Y3306222D01*
X1641416Y3305544D01*
X1641891Y3305181D01*
X1643834Y3304376D01*
X1645920Y3304101D01*
X1648006Y3304376D01*
X1649949Y3305181D01*
X1650423Y3305544D01*
X1652270Y3306222D01*
X1654117Y3305544D01*
X1654590Y3305181D01*
X1656534Y3304376D01*
X1658620Y3304101D01*
X1660706Y3304376D01*
X1662650Y3305181D01*
X1664319Y3306461D01*
X1665599Y3308130D01*
X1666404Y3310074D01*
X1666679Y3312160D01*
X1666404Y3314246D01*
X1665599Y3316190D01*
X1664319Y3317859D01*
X1662650Y3319139D01*
X1660706Y3319944D01*
X1658620Y3320219D01*
X1656534Y3319944D01*
X1654590Y3319139D01*
X1654117Y3318776D01*
X1652270Y3318098D01*
X1650423Y3318776D01*
X1649949Y3319139D01*
X1648006Y3319944D01*
X1645920Y3320219D01*
X1643834Y3319944D01*
X1641891Y3319139D01*
X1641416Y3318776D01*
X1639570Y3318098D01*
X1637724Y3318776D01*
X1637249Y3319139D01*
X1635306Y3319944D01*
X1633220Y3320219D01*
X1631134Y3319944D01*
X1629191Y3319139D01*
X1628716Y3318776D01*
X1626870Y3318098D01*
X1625023Y3318776D01*
X1624550Y3319139D01*
X1622606Y3319944D01*
X1620520Y3320219D01*
X1618434Y3319944D01*
X1616802Y3319268D01*
X1615749Y3319881D01*
X1615541Y3320089D01*
X1614928Y3321142D01*
X1615604Y3322774D01*
X1615879Y3324860D01*
X1615604Y3326946D01*
X1614799Y3328889D01*
X1613519Y3330558D01*
X1611850Y3331839D01*
X1609906Y3332644D01*
X1607820Y3332919D01*
D02*
G37*
G36*
X1455420D02*
X1453334Y3332644D01*
X1451391Y3331839D01*
X1449722Y3330558D01*
X1448441Y3328889D01*
X1447636Y3326946D01*
X1447361Y3324860D01*
X1447636Y3322774D01*
X1448441Y3320830D01*
X1449722Y3319161D01*
Y3317859D01*
X1448441Y3316190D01*
X1447636Y3314246D01*
X1447361Y3312160D01*
X1447636Y3310074D01*
X1448441Y3308130D01*
X1449722Y3306461D01*
X1451391Y3305181D01*
X1453334Y3304376D01*
X1455420Y3304101D01*
X1457506Y3304376D01*
X1459449Y3305181D01*
X1459924Y3305544D01*
X1461770Y3306222D01*
X1463616Y3305544D01*
X1464091Y3305181D01*
X1466034Y3304376D01*
X1468120Y3304101D01*
X1470206Y3304376D01*
X1472150Y3305181D01*
X1472623Y3305544D01*
X1474470Y3306222D01*
X1476317Y3305544D01*
X1476790Y3305181D01*
X1478734Y3304376D01*
X1480820Y3304101D01*
X1482906Y3304376D01*
X1484850Y3305181D01*
X1485323Y3305544D01*
X1487170Y3306222D01*
X1489017Y3305544D01*
X1489491Y3305181D01*
X1491434Y3304376D01*
X1493520Y3304101D01*
X1495606Y3304376D01*
X1497549Y3305181D01*
X1498024Y3305544D01*
X1499870Y3306222D01*
X1501716Y3305544D01*
X1502191Y3305181D01*
X1504134Y3304376D01*
X1506220Y3304101D01*
X1508306Y3304376D01*
X1510249Y3305181D01*
X1511918Y3306461D01*
X1513199Y3308130D01*
X1514004Y3310074D01*
X1514279Y3312160D01*
X1514004Y3314246D01*
X1513199Y3316190D01*
X1511918Y3317859D01*
X1510249Y3319139D01*
X1508306Y3319944D01*
X1506220Y3320219D01*
X1504134Y3319944D01*
X1502191Y3319139D01*
X1501716Y3318776D01*
X1499870Y3318098D01*
X1498024Y3318776D01*
X1497549Y3319139D01*
X1495606Y3319944D01*
X1493520Y3320219D01*
X1491434Y3319944D01*
X1489491Y3319139D01*
X1489017Y3318776D01*
X1487170Y3318098D01*
X1485323Y3318776D01*
X1484850Y3319139D01*
X1482906Y3319944D01*
X1480820Y3320219D01*
X1478734Y3319944D01*
X1476790Y3319139D01*
X1476317Y3318776D01*
X1474470Y3318098D01*
X1472623Y3318776D01*
X1472150Y3319139D01*
X1470206Y3319944D01*
X1468120Y3320219D01*
X1466034Y3319944D01*
X1464402Y3319268D01*
X1463349Y3319881D01*
X1463141Y3320089D01*
X1462528Y3321142D01*
X1463204Y3322774D01*
X1463479Y3324860D01*
X1463204Y3326946D01*
X1462399Y3328889D01*
X1461118Y3330558D01*
X1459449Y3331839D01*
X1457506Y3332644D01*
X1455420Y3332919D01*
D02*
G37*
G36*
X1379220D02*
X1377134Y3332644D01*
X1375190Y3331839D01*
X1373522Y3330558D01*
X1372241Y3328889D01*
X1371436Y3326946D01*
X1371161Y3324860D01*
X1371436Y3322774D01*
X1372241Y3320830D01*
X1372605Y3320356D01*
X1373282Y3318510D01*
X1372605Y3316664D01*
X1372241Y3316190D01*
X1371436Y3314246D01*
X1371161Y3312160D01*
X1371436Y3310074D01*
X1372241Y3308130D01*
X1373522Y3306461D01*
X1375190Y3305181D01*
X1377134Y3304376D01*
X1379220Y3304101D01*
X1381306Y3304376D01*
X1383250Y3305181D01*
X1383723Y3305544D01*
X1385570Y3306222D01*
X1387417Y3305544D01*
X1387890Y3305181D01*
X1389834Y3304376D01*
X1391920Y3304101D01*
X1394006Y3304376D01*
X1395950Y3305181D01*
X1396423Y3305544D01*
X1398270Y3306222D01*
X1400116Y3305544D01*
X1400591Y3305181D01*
X1402534Y3304376D01*
X1404620Y3304101D01*
X1406706Y3304376D01*
X1408649Y3305181D01*
X1409124Y3305544D01*
X1410970Y3306222D01*
X1412816Y3305544D01*
X1413291Y3305181D01*
X1415234Y3304376D01*
X1417320Y3304101D01*
X1419406Y3304376D01*
X1421349Y3305181D01*
X1421823Y3305544D01*
X1423670Y3306222D01*
X1425517Y3305544D01*
X1425990Y3305181D01*
X1427934Y3304376D01*
X1430020Y3304101D01*
X1432106Y3304376D01*
X1434050Y3305181D01*
X1435719Y3306461D01*
X1436999Y3308130D01*
X1437804Y3310074D01*
X1438079Y3312160D01*
X1437804Y3314246D01*
X1436999Y3316190D01*
X1435719Y3317859D01*
X1434050Y3319139D01*
X1432106Y3319944D01*
X1430020Y3320219D01*
X1427934Y3319944D01*
X1425990Y3319139D01*
X1425517Y3318776D01*
X1423670Y3318098D01*
X1421823Y3318776D01*
X1421349Y3319139D01*
X1419406Y3319944D01*
X1417320Y3320219D01*
X1415234Y3319944D01*
X1413291Y3319139D01*
X1412816Y3318776D01*
X1410970Y3318098D01*
X1409124Y3318776D01*
X1408649Y3319139D01*
X1406706Y3319944D01*
X1404620Y3320219D01*
X1402534Y3319944D01*
X1400591Y3319139D01*
X1400116Y3318776D01*
X1398270Y3318098D01*
X1396423Y3318776D01*
X1395950Y3319139D01*
X1394006Y3319944D01*
X1391920Y3320219D01*
X1389834Y3319944D01*
X1388202Y3319268D01*
X1387149Y3319881D01*
X1386941Y3320089D01*
X1386328Y3321142D01*
X1387004Y3322774D01*
X1387279Y3324860D01*
X1387004Y3326946D01*
X1386199Y3328889D01*
X1384919Y3330558D01*
X1383250Y3331839D01*
X1381306Y3332644D01*
X1379220Y3332919D01*
D02*
G37*
G36*
X1531620D02*
X1529534Y3332644D01*
X1527590Y3331839D01*
X1525921Y3330558D01*
X1524641Y3328889D01*
X1523836Y3326946D01*
X1523561Y3324860D01*
X1523836Y3322774D01*
X1524641Y3320830D01*
X1525004Y3320356D01*
X1525682Y3318510D01*
X1525004Y3316664D01*
X1524641Y3316190D01*
X1523836Y3314246D01*
X1523561Y3312160D01*
X1523836Y3310074D01*
X1524641Y3308130D01*
X1525921Y3306461D01*
X1527590Y3305181D01*
X1529534Y3304376D01*
X1531620Y3304101D01*
X1533706Y3304376D01*
X1535650Y3305181D01*
X1536124Y3305544D01*
X1537970Y3306222D01*
X1539816Y3305544D01*
X1540291Y3305181D01*
X1542234Y3304376D01*
X1544320Y3304101D01*
X1546406Y3304376D01*
X1548349Y3305181D01*
X1548824Y3305544D01*
X1550670Y3306222D01*
X1552516Y3305544D01*
X1552991Y3305181D01*
X1554934Y3304376D01*
X1557020Y3304101D01*
X1559106Y3304376D01*
X1561049Y3305181D01*
X1561523Y3305544D01*
X1563370Y3306222D01*
X1565217Y3305544D01*
X1565690Y3305181D01*
X1567634Y3304376D01*
X1569720Y3304101D01*
X1571806Y3304376D01*
X1573750Y3305181D01*
X1574223Y3305544D01*
X1574953Y3305812D01*
X1577010Y3305013D01*
X1577240Y3304804D01*
Y3286760D01*
X1577635Y3284778D01*
X1578757Y3283098D01*
X1586344Y3275511D01*
X1586153Y3274060D01*
X1586459Y3271739D01*
X1587355Y3269577D01*
X1588780Y3267720D01*
X1590637Y3266295D01*
X1592799Y3265399D01*
X1595120Y3265093D01*
X1597441Y3265399D01*
X1599603Y3266295D01*
X1601460Y3267720D01*
X1602885Y3269577D01*
X1603781Y3271739D01*
X1604087Y3274060D01*
X1603781Y3276381D01*
X1602885Y3278543D01*
X1601460Y3280400D01*
X1599603Y3281825D01*
X1597441Y3282721D01*
X1595120Y3283027D01*
X1593669Y3282836D01*
X1587599Y3288905D01*
Y3306063D01*
X1588118Y3306461D01*
X1589399Y3308130D01*
X1590204Y3310074D01*
X1590479Y3312160D01*
X1590204Y3314246D01*
X1589399Y3316190D01*
X1588118Y3317859D01*
X1586449Y3319139D01*
X1584506Y3319944D01*
X1582420Y3320219D01*
X1580334Y3319944D01*
X1578391Y3319139D01*
X1577917Y3318776D01*
X1576070Y3318098D01*
X1574223Y3318776D01*
X1573750Y3319139D01*
X1571806Y3319944D01*
X1569720Y3320219D01*
X1567634Y3319944D01*
X1565690Y3319139D01*
X1565217Y3318776D01*
X1563370Y3318098D01*
X1561523Y3318776D01*
X1561049Y3319139D01*
X1559106Y3319944D01*
X1557020Y3320219D01*
X1554934Y3319944D01*
X1552991Y3319139D01*
X1552516Y3318776D01*
X1550670Y3318098D01*
X1548824Y3318776D01*
X1548349Y3319139D01*
X1546406Y3319944D01*
X1544320Y3320219D01*
X1542234Y3319944D01*
X1540602Y3319268D01*
X1539549Y3319881D01*
X1539341Y3320089D01*
X1538728Y3321142D01*
X1539404Y3322774D01*
X1539679Y3324860D01*
X1539404Y3326946D01*
X1538599Y3328889D01*
X1537319Y3330558D01*
X1535650Y3331839D01*
X1533706Y3332644D01*
X1531620Y3332919D01*
D02*
G37*
G36*
X330200Y3304193D02*
X325486Y3303822D01*
X320888Y3302718D01*
X316520Y3300909D01*
X312488Y3298438D01*
X308893Y3295367D01*
X305822Y3291772D01*
X303351Y3287740D01*
X301542Y3283372D01*
X300438Y3278774D01*
X300067Y3274060D01*
X300438Y3269346D01*
X301542Y3264749D01*
X303351Y3260380D01*
X305822Y3256348D01*
X308893Y3252753D01*
X312488Y3249682D01*
X316520Y3247211D01*
X320888Y3245402D01*
X325486Y3244298D01*
X330200Y3243927D01*
X334914Y3244298D01*
X339512Y3245402D01*
X343880Y3247211D01*
X347912Y3249682D01*
X351507Y3252753D01*
X354578Y3256348D01*
X357049Y3260380D01*
X358858Y3264749D01*
X359962Y3269346D01*
X360333Y3274060D01*
X359962Y3278774D01*
X358858Y3283372D01*
X357049Y3287740D01*
X354578Y3291772D01*
X351507Y3295367D01*
X347912Y3298438D01*
X343880Y3300909D01*
X339512Y3302718D01*
X334914Y3303822D01*
X330200Y3304193D01*
D02*
G37*
G36*
X1795780Y3243453D02*
X1792832Y3243163D01*
X1789997Y3242303D01*
X1787384Y3240906D01*
X1785094Y3239026D01*
X1783214Y3236736D01*
X1781818Y3234124D01*
X1780958Y3231288D01*
X1780667Y3228340D01*
X1780958Y3225392D01*
X1781818Y3222556D01*
X1783214Y3219944D01*
X1785094Y3217654D01*
X1787384Y3215774D01*
X1789997Y3214378D01*
X1792832Y3213517D01*
X1795780Y3213227D01*
X1798728Y3213517D01*
X1801563Y3214378D01*
X1804176Y3215774D01*
X1806466Y3217654D01*
X1808346Y3219944D01*
X1809742Y3222556D01*
X1810602Y3225392D01*
X1810893Y3228340D01*
X1810602Y3231288D01*
X1809742Y3234124D01*
X1808346Y3236736D01*
X1806466Y3239026D01*
X1804176Y3240906D01*
X1801563Y3242303D01*
X1798728Y3243163D01*
X1795780Y3243453D01*
D02*
G37*
G36*
X1722120D02*
X1719172Y3243163D01*
X1716337Y3242303D01*
X1713724Y3240906D01*
X1711434Y3239026D01*
X1709554Y3236736D01*
X1708158Y3234124D01*
X1707298Y3231288D01*
X1707007Y3228340D01*
X1707298Y3225392D01*
X1708158Y3222556D01*
X1709554Y3219944D01*
X1711434Y3217654D01*
X1713724Y3215774D01*
X1716337Y3214378D01*
X1719172Y3213517D01*
X1722120Y3213227D01*
X1725068Y3213517D01*
X1727903Y3214378D01*
X1730516Y3215774D01*
X1732806Y3217654D01*
X1734686Y3219944D01*
X1736082Y3222556D01*
X1736942Y3225392D01*
X1737233Y3228340D01*
X1736942Y3231288D01*
X1736082Y3234124D01*
X1734686Y3236736D01*
X1732806Y3239026D01*
X1730516Y3240906D01*
X1727903Y3242303D01*
X1725068Y3243163D01*
X1722120Y3243453D01*
D02*
G37*
G36*
X665480Y3239847D02*
X663159Y3239541D01*
X660997Y3238645D01*
X659140Y3237220D01*
X657715Y3235363D01*
X656819Y3233201D01*
X656513Y3230880D01*
X656819Y3228559D01*
X657715Y3226396D01*
X659140Y3224539D01*
X660301Y3223649D01*
Y3205225D01*
X649993Y3194917D01*
X647652Y3196169D01*
X647800Y3196910D01*
Y3210949D01*
X648960Y3211840D01*
X650385Y3213697D01*
X651281Y3215859D01*
X651587Y3218180D01*
X651281Y3220501D01*
X650385Y3222663D01*
X648960Y3224520D01*
X647103Y3225945D01*
X644941Y3226841D01*
X642620Y3227147D01*
X640299Y3226841D01*
X638137Y3225945D01*
X636280Y3224520D01*
X634855Y3222663D01*
X633959Y3220501D01*
X633653Y3218180D01*
X633959Y3215859D01*
X634855Y3213697D01*
X636280Y3211840D01*
X637440Y3210949D01*
Y3199055D01*
X620274Y3181889D01*
X618598Y3181555D01*
X616917Y3180432D01*
X607085Y3170600D01*
X594630D01*
Y3166930D01*
X589080D01*
Y3170580D01*
X559000D01*
Y3150500D01*
X573280D01*
Y3144421D01*
X572120Y3143530D01*
X570695Y3141673D01*
X569799Y3139511D01*
X569493Y3137190D01*
X569799Y3134869D01*
X570533Y3133098D01*
X561175Y3123740D01*
X481217D01*
X478860Y3124180D01*
X478860Y3126280D01*
Y3143960D01*
X463580D01*
Y3139250D01*
X457471D01*
X456580Y3140410D01*
X454723Y3141835D01*
X452561Y3142731D01*
X450240Y3143037D01*
X448082Y3142752D01*
X447690Y3143097D01*
X446549Y3144913D01*
X447021Y3145513D01*
X447700Y3145423D01*
X450021Y3145729D01*
X452183Y3146624D01*
X454040Y3148050D01*
X455465Y3149907D01*
X456361Y3152069D01*
X456667Y3154390D01*
X456361Y3156711D01*
X455465Y3158873D01*
X454040Y3160730D01*
X452183Y3162155D01*
X450021Y3163051D01*
X447700Y3163357D01*
X445379Y3163051D01*
X443217Y3162155D01*
X441360Y3160730D01*
X439935Y3158873D01*
X439039Y3156711D01*
X438733Y3154390D01*
X438924Y3152939D01*
X422035Y3136049D01*
X391550D01*
Y3138510D01*
X371770D01*
Y3123230D01*
X391550D01*
Y3125691D01*
X421659D01*
X422355Y3124576D01*
X422723Y3123151D01*
X421585Y3121668D01*
X420689Y3119506D01*
X420384Y3117185D01*
X420689Y3114864D01*
X421585Y3112701D01*
X423010Y3110844D01*
X424867Y3109420D01*
X427030Y3108524D01*
X427281Y3108491D01*
Y3095360D01*
X419300D01*
Y3093159D01*
X403860D01*
X403460Y3093080D01*
X393970D01*
Y3077800D01*
X413750D01*
Y3082801D01*
X419300D01*
Y3075280D01*
X449380D01*
Y3093246D01*
X449380Y3094926D01*
X450837Y3097296D01*
X450954Y3097281D01*
X451849Y3097163D01*
X454170Y3097469D01*
X456332Y3098365D01*
X458189Y3099790D01*
X459080Y3100951D01*
X463580D01*
Y3096240D01*
X466740D01*
Y3088370D01*
X462920D01*
Y3068590D01*
X478200D01*
Y3088370D01*
X477099D01*
Y3096240D01*
X478860D01*
Y3113380D01*
X557180D01*
X558120Y3111230D01*
X558120Y3110840D01*
Y3091450D01*
X566075D01*
X569520Y3088004D01*
Y3080090D01*
X564810D01*
Y3064810D01*
X584590D01*
Y3080090D01*
X579879D01*
Y3090150D01*
X579485Y3092132D01*
X578491Y3093621D01*
X578750Y3094753D01*
X579333Y3096161D01*
X580895D01*
X582877Y3096555D01*
X584557Y3097678D01*
X586574Y3099695D01*
X587336Y3099379D01*
X589657Y3099073D01*
X591978Y3099379D01*
X594140Y3100275D01*
X595997Y3101700D01*
X597422Y3103557D01*
X598318Y3105719D01*
X598624Y3108040D01*
X598318Y3110361D01*
X597422Y3112523D01*
X595997Y3114380D01*
X594140Y3115805D01*
X591978Y3116701D01*
X589657Y3117007D01*
X587336Y3116701D01*
X585174Y3115805D01*
X583316Y3114380D01*
X581892Y3112523D01*
X580996Y3110361D01*
X580754Y3108524D01*
X578750Y3106519D01*
X573400D01*
Y3111230D01*
X565528D01*
X565278Y3113770D01*
X565302Y3113775D01*
X566982Y3114897D01*
X580588Y3128503D01*
X580781Y3128529D01*
X582943Y3129425D01*
X584800Y3130850D01*
X586225Y3132707D01*
X587121Y3134869D01*
X587427Y3137190D01*
X587121Y3139511D01*
X586225Y3141673D01*
X584800Y3143530D01*
X583639Y3144421D01*
Y3150500D01*
X589080D01*
Y3156570D01*
X594630D01*
Y3155320D01*
X614410D01*
Y3163275D01*
X621496Y3170361D01*
X622192Y3170234D01*
X622578Y3169835D01*
X623797Y3167361D01*
X623603Y3166382D01*
Y3140643D01*
X623997Y3138661D01*
X625120Y3136981D01*
X637930Y3124170D01*
Y3117130D01*
X637675Y3116935D01*
X636454Y3115343D01*
X635686Y3113489D01*
X635424Y3111500D01*
X635686Y3109511D01*
X636454Y3107657D01*
X637675Y3106065D01*
X638370Y3105532D01*
Y3097530D01*
X638712Y3095815D01*
X638765Y3095548D01*
X638844Y3095038D01*
X638712Y3094345D01*
X637127Y3092538D01*
X636014Y3092530D01*
X635559Y3092530D01*
X607920D01*
Y3072450D01*
X638000D01*
Y3077940D01*
X641010D01*
Y3077510D01*
X660790D01*
Y3092790D01*
X651270D01*
Y3094990D01*
X650875Y3096972D01*
X649752Y3098652D01*
X648729Y3099675D01*
Y3106306D01*
X649766Y3107657D01*
X650534Y3109511D01*
X650796Y3111500D01*
X650534Y3113489D01*
X649766Y3115343D01*
X648545Y3116935D01*
X648289Y3117130D01*
Y3126315D01*
X648289Y3126315D01*
X647895Y3128298D01*
X646773Y3129978D01*
X633962Y3142789D01*
Y3164236D01*
X669143Y3199417D01*
X670265Y3201097D01*
X670659Y3203080D01*
Y3223649D01*
X671820Y3224539D01*
X673245Y3226396D01*
X674141Y3228559D01*
X674447Y3230880D01*
X674141Y3233201D01*
X673245Y3235363D01*
X671820Y3237220D01*
X669963Y3238645D01*
X667801Y3239541D01*
X665480Y3239847D01*
D02*
G37*
G36*
X1389380Y3223133D02*
X1386432Y3222842D01*
X1383597Y3221982D01*
X1380984Y3220586D01*
X1378694Y3218706D01*
X1376814Y3216416D01*
X1375418Y3213803D01*
X1374558Y3210968D01*
X1374267Y3208020D01*
X1374558Y3205072D01*
X1375418Y3202237D01*
X1376814Y3199624D01*
X1378694Y3197334D01*
X1380984Y3195454D01*
X1383597Y3194058D01*
X1386432Y3193198D01*
X1389380Y3192907D01*
X1392328Y3193198D01*
X1395163Y3194058D01*
X1397776Y3195454D01*
X1400066Y3197334D01*
X1401946Y3199624D01*
X1403342Y3202237D01*
X1404202Y3205072D01*
X1404493Y3208020D01*
X1404202Y3210968D01*
X1403342Y3213803D01*
X1401946Y3216416D01*
X1400066Y3218706D01*
X1397776Y3220586D01*
X1395163Y3221982D01*
X1392328Y3222842D01*
X1389380Y3223133D01*
D02*
G37*
G36*
X1315720D02*
X1312772Y3222842D01*
X1309937Y3221982D01*
X1307324Y3220586D01*
X1305034Y3218706D01*
X1303154Y3216416D01*
X1301758Y3213803D01*
X1300898Y3210968D01*
X1300607Y3208020D01*
X1300898Y3205072D01*
X1301758Y3202237D01*
X1303154Y3199624D01*
X1305034Y3197334D01*
X1307324Y3195454D01*
X1309937Y3194058D01*
X1312772Y3193198D01*
X1315720Y3192907D01*
X1318668Y3193198D01*
X1321503Y3194058D01*
X1324116Y3195454D01*
X1326406Y3197334D01*
X1328286Y3199624D01*
X1329682Y3202237D01*
X1330542Y3205072D01*
X1330833Y3208020D01*
X1330542Y3210968D01*
X1329682Y3213803D01*
X1328286Y3216416D01*
X1326406Y3218706D01*
X1324116Y3220586D01*
X1321503Y3221982D01*
X1318668Y3222842D01*
X1315720Y3223133D01*
D02*
G37*
G36*
X1795780Y3202813D02*
X1792832Y3202522D01*
X1789997Y3201662D01*
X1787384Y3200266D01*
X1785094Y3198386D01*
X1783214Y3196096D01*
X1781818Y3193483D01*
X1780958Y3190648D01*
X1780667Y3187700D01*
X1780958Y3184752D01*
X1781818Y3181917D01*
X1783214Y3179304D01*
X1785094Y3177014D01*
X1787384Y3175134D01*
X1789997Y3173737D01*
X1792832Y3172878D01*
X1795780Y3172587D01*
X1798728Y3172878D01*
X1801563Y3173737D01*
X1804176Y3175134D01*
X1806466Y3177014D01*
X1808346Y3179304D01*
X1809742Y3181917D01*
X1810602Y3184752D01*
X1810893Y3187700D01*
X1810602Y3190648D01*
X1809742Y3193483D01*
X1808346Y3196096D01*
X1806466Y3198386D01*
X1804176Y3200266D01*
X1801563Y3201662D01*
X1798728Y3202522D01*
X1795780Y3202813D01*
D02*
G37*
G36*
X1724660D02*
X1721712Y3202522D01*
X1718877Y3201662D01*
X1716264Y3200266D01*
X1713974Y3198386D01*
X1712094Y3196096D01*
X1710698Y3193483D01*
X1709838Y3190648D01*
X1709547Y3187700D01*
X1709838Y3184752D01*
X1710698Y3181917D01*
X1712094Y3179304D01*
X1713974Y3177014D01*
X1716264Y3175134D01*
X1718877Y3173737D01*
X1721712Y3172878D01*
X1724660Y3172587D01*
X1727608Y3172878D01*
X1730443Y3173737D01*
X1733056Y3175134D01*
X1735346Y3177014D01*
X1737226Y3179304D01*
X1738622Y3181917D01*
X1739482Y3184752D01*
X1739773Y3187700D01*
X1739482Y3190648D01*
X1738622Y3193483D01*
X1737226Y3196096D01*
X1735346Y3198386D01*
X1733056Y3200266D01*
X1730443Y3201662D01*
X1727608Y3202522D01*
X1724660Y3202813D01*
D02*
G37*
G36*
X1389380Y3182493D02*
X1386432Y3182202D01*
X1383597Y3181342D01*
X1380984Y3179946D01*
X1378694Y3178066D01*
X1376814Y3175776D01*
X1375418Y3173163D01*
X1374558Y3170328D01*
X1374267Y3167380D01*
X1374558Y3164431D01*
X1375418Y3161597D01*
X1376814Y3158984D01*
X1378694Y3156694D01*
X1380984Y3154814D01*
X1383597Y3153418D01*
X1386432Y3152558D01*
X1389380Y3152267D01*
X1392328Y3152558D01*
X1395163Y3153418D01*
X1397776Y3154814D01*
X1400066Y3156694D01*
X1401946Y3158984D01*
X1403342Y3161597D01*
X1404202Y3164431D01*
X1404493Y3167380D01*
X1404202Y3170328D01*
X1403342Y3173163D01*
X1401946Y3175776D01*
X1400066Y3178066D01*
X1397776Y3179946D01*
X1395163Y3181342D01*
X1392328Y3182202D01*
X1389380Y3182493D01*
D02*
G37*
G36*
X1313180Y3179953D02*
X1310232Y3179662D01*
X1307397Y3178802D01*
X1304784Y3177406D01*
X1302494Y3175526D01*
X1300614Y3173236D01*
X1299218Y3170623D01*
X1298358Y3167788D01*
X1298067Y3164840D01*
X1298358Y3161891D01*
X1299218Y3159057D01*
X1300614Y3156444D01*
X1302494Y3154154D01*
X1304784Y3152274D01*
X1307397Y3150878D01*
X1310232Y3150018D01*
X1313180Y3149727D01*
X1316128Y3150018D01*
X1318963Y3150878D01*
X1321576Y3152274D01*
X1323866Y3154154D01*
X1325746Y3156444D01*
X1327142Y3159057D01*
X1328002Y3161891D01*
X1328293Y3164840D01*
X1328002Y3167788D01*
X1327142Y3170623D01*
X1325746Y3173236D01*
X1323866Y3175526D01*
X1321576Y3177406D01*
X1318963Y3178802D01*
X1316128Y3179662D01*
X1313180Y3179953D01*
D02*
G37*
G36*
X718550Y3175680D02*
X698770D01*
Y3160400D01*
X702870D01*
Y3151580D01*
X699800D01*
Y3149574D01*
X697260Y3148072D01*
X696332Y3148457D01*
X694011Y3148762D01*
X691690Y3148457D01*
X689528Y3147561D01*
X687671Y3146136D01*
X686245Y3144279D01*
X685350Y3142116D01*
X685044Y3139796D01*
X685350Y3137475D01*
X686245Y3135312D01*
X687671Y3133455D01*
X689528Y3132030D01*
X691690Y3131135D01*
X694011Y3130829D01*
X696332Y3131135D01*
X697359Y3131560D01*
X699800Y3131800D01*
X699800Y3131800D01*
X699800Y3131800D01*
X715080D01*
Y3151580D01*
X713230D01*
Y3160400D01*
X718550D01*
Y3175680D01*
D02*
G37*
G36*
X390890Y3162980D02*
X371110D01*
Y3160519D01*
X366030D01*
X364048Y3160125D01*
X362368Y3159002D01*
X356818Y3153452D01*
X356382Y3152800D01*
X335480D01*
Y3140045D01*
X323231Y3127795D01*
X320919Y3127491D01*
X318757Y3126595D01*
X316900Y3125170D01*
X315475Y3123313D01*
X314579Y3121151D01*
X314273Y3118830D01*
X314579Y3116509D01*
X315475Y3114347D01*
X316900Y3112490D01*
X318757Y3111064D01*
X320919Y3110169D01*
X323240Y3109863D01*
X325561Y3110169D01*
X327723Y3111064D01*
X329580Y3112490D01*
X331005Y3114347D01*
X331901Y3116509D01*
X332207Y3118830D01*
X331901Y3121151D01*
X331706Y3121621D01*
X342805Y3132720D01*
X365560D01*
Y3147220D01*
X365641Y3147626D01*
X368175Y3150161D01*
X371110D01*
Y3147700D01*
X390890D01*
Y3162980D01*
D02*
G37*
G36*
X3140120Y3156950D02*
X3124840D01*
Y3137170D01*
X3127300D01*
Y3126470D01*
X3124840D01*
Y3121760D01*
X3113651D01*
X3112760Y3122921D01*
X3110903Y3124345D01*
X3108741Y3125241D01*
X3106420Y3125547D01*
X3104099Y3125241D01*
X3101937Y3124345D01*
X3100080Y3122921D01*
X3098654Y3121064D01*
X3097759Y3118901D01*
X3097453Y3116580D01*
X3097759Y3114259D01*
X3098654Y3112097D01*
X3100080Y3110240D01*
X3101937Y3108815D01*
X3104099Y3107919D01*
X3106420Y3107613D01*
X3108741Y3107919D01*
X3110903Y3108815D01*
X3112760Y3110240D01*
X3113651Y3111400D01*
X3124840D01*
Y3106690D01*
X3140120D01*
Y3126470D01*
X3137660D01*
Y3137170D01*
X3140120D01*
Y3156950D01*
D02*
G37*
G36*
X2971800Y3171267D02*
X2969479Y3170961D01*
X2967317Y3170065D01*
X2965460Y3168640D01*
X2964035Y3166783D01*
X2963139Y3164621D01*
X2962833Y3162300D01*
X2963139Y3159979D01*
X2964035Y3157816D01*
X2965460Y3155959D01*
X2967317Y3154535D01*
X2969479Y3153639D01*
X2971800Y3153333D01*
X2974121Y3153639D01*
X2976283Y3154535D01*
X2976355Y3154590D01*
X2976402Y3154580D01*
X2984770D01*
Y3152120D01*
X3004550D01*
Y3154580D01*
X3007485D01*
X3010100Y3151965D01*
Y3137800D01*
X3032855D01*
X3039702Y3130953D01*
Y3126407D01*
X3039684Y3126382D01*
X3038916Y3124529D01*
X3038654Y3122540D01*
X3038916Y3120551D01*
X3039684Y3118697D01*
X3040905Y3117105D01*
X3042497Y3115883D01*
X3044350Y3115116D01*
X3046340Y3114854D01*
X3048329Y3115116D01*
X3050182Y3115883D01*
X3051774Y3117105D01*
X3052996Y3118697D01*
X3053763Y3120551D01*
X3054025Y3122540D01*
X3053763Y3124529D01*
X3052996Y3126382D01*
X3051774Y3127974D01*
X3050182Y3129196D01*
X3050061Y3129246D01*
Y3133098D01*
X3049667Y3135081D01*
X3048544Y3136761D01*
X3048544Y3136761D01*
X3040180Y3145125D01*
Y3157880D01*
X3018835D01*
X3013293Y3163423D01*
X3011612Y3164545D01*
X3009630Y3164940D01*
X3004550D01*
Y3167400D01*
X2984770D01*
Y3164940D01*
X2980329D01*
X2979565Y3166783D01*
X2978140Y3168640D01*
X2976283Y3170065D01*
X2974121Y3170961D01*
X2971800Y3171267D01*
D02*
G37*
G36*
X3159120Y3126470D02*
X3143840D01*
Y3106690D01*
X3151795D01*
X3152040Y3106445D01*
Y3096687D01*
X3150645Y3096064D01*
X3149500Y3095982D01*
X3148320Y3097520D01*
X3146463Y3098945D01*
X3144301Y3099841D01*
X3141980Y3100147D01*
X3139659Y3099841D01*
X3137497Y3098945D01*
X3135640Y3097520D01*
X3134214Y3095663D01*
X3133451Y3093820D01*
X3128640D01*
Y3098530D01*
X3113360D01*
Y3078750D01*
X3115821D01*
Y3060060D01*
X3106690D01*
Y3044780D01*
X3126470D01*
Y3060060D01*
X3126180D01*
Y3078750D01*
X3128640D01*
Y3083460D01*
X3137378D01*
X3137425Y3083470D01*
X3137497Y3083415D01*
X3139659Y3082519D01*
X3141980Y3082213D01*
X3144301Y3082519D01*
X3146463Y3083415D01*
X3148320Y3084839D01*
X3149500Y3086378D01*
X3150645Y3086295D01*
X3152040Y3085673D01*
Y3056145D01*
X3128817Y3032921D01*
X3126470Y3033893D01*
Y3041060D01*
X3106690D01*
Y3025780D01*
X3107965D01*
Y3022845D01*
X3070605Y2985486D01*
X2951096D01*
X2949114Y2985092D01*
X2947434Y2983969D01*
X2925570Y2962105D01*
X2923540Y2962372D01*
X2921049Y2962044D01*
X2918729Y2961083D01*
X2916736Y2959554D01*
X2915207Y2957561D01*
X2914246Y2955240D01*
X2913918Y2952750D01*
X2914246Y2950260D01*
X2915207Y2947939D01*
X2916736Y2945946D01*
X2918729Y2944417D01*
X2921049Y2943456D01*
X2923540Y2943128D01*
X2926030Y2943456D01*
X2928351Y2944417D01*
X2930344Y2945946D01*
X2931873Y2947939D01*
X2932834Y2950260D01*
X2933162Y2952750D01*
X2932895Y2954780D01*
X2953242Y2975127D01*
X2960673D01*
X2961645Y2972780D01*
X2950970Y2962105D01*
X2948940Y2962372D01*
X2946450Y2962044D01*
X2944129Y2961083D01*
X2942136Y2959554D01*
X2940607Y2957561D01*
X2939646Y2955240D01*
X2939318Y2952750D01*
X2939646Y2950260D01*
X2940607Y2947939D01*
X2942136Y2945946D01*
X2944129Y2944417D01*
X2946450Y2943456D01*
X2948940Y2943128D01*
X2951430Y2943456D01*
X2953751Y2944417D01*
X2955744Y2945946D01*
X2957273Y2947939D01*
X2958234Y2950260D01*
X2958562Y2952750D01*
X2958295Y2954780D01*
X2971022Y2967507D01*
X3075907D01*
X3077889Y2967901D01*
X3079569Y2969024D01*
X3160883Y3050337D01*
X3162005Y3052018D01*
X3162400Y3054000D01*
Y3108590D01*
X3162400Y3108590D01*
X3162005Y3110572D01*
X3160883Y3112253D01*
X3159120Y3114015D01*
Y3126470D01*
D02*
G37*
G36*
X2883580Y3129010D02*
X2868300D01*
Y3116555D01*
X2857835Y3106090D01*
X2856713Y3104410D01*
X2856318Y3102428D01*
Y3101801D01*
X2855557Y3101485D01*
X2853700Y3100060D01*
X2852274Y3098203D01*
X2851379Y3096041D01*
X2851073Y3093720D01*
X2851379Y3091399D01*
X2852274Y3089236D01*
X2853700Y3087379D01*
X2855557Y3085955D01*
X2857719Y3085059D01*
X2860040Y3084753D01*
X2862361Y3085059D01*
X2864523Y3085955D01*
X2866380Y3087379D01*
X2867805Y3089236D01*
X2868701Y3091399D01*
X2869007Y3093720D01*
X2868701Y3096041D01*
X2867805Y3098203D01*
X2866678Y3099673D01*
Y3100283D01*
X2875625Y3109230D01*
X2883580D01*
Y3129010D01*
D02*
G37*
G36*
X2981960Y3115387D02*
X2979639Y3115081D01*
X2977477Y3114185D01*
X2975620Y3112760D01*
X2974195Y3110903D01*
X2973299Y3108741D01*
X2972993Y3106420D01*
X2973184Y3104969D01*
X2969384Y3101169D01*
X2887710D01*
X2885728Y3100775D01*
X2884048Y3099652D01*
X2861491Y3077096D01*
X2860040Y3077287D01*
X2857719Y3076981D01*
X2855557Y3076086D01*
X2853700Y3074660D01*
X2852274Y3072803D01*
X2851379Y3070641D01*
X2851073Y3068320D01*
X2851264Y3066869D01*
X2845496Y3061101D01*
X2844373Y3059421D01*
X2843979Y3057439D01*
Y3023840D01*
X2839268D01*
Y3008560D01*
X2859048D01*
Y3011350D01*
X2872289D01*
Y3009220D01*
X2892068D01*
Y3024500D01*
X2872289D01*
Y3021710D01*
X2859048D01*
Y3023840D01*
X2854338D01*
Y3055293D01*
X2858589Y3059544D01*
X2860040Y3059353D01*
X2862361Y3059659D01*
X2864523Y3060555D01*
X2866380Y3061980D01*
X2867805Y3063837D01*
X2868701Y3065999D01*
X2869007Y3068320D01*
X2868816Y3069771D01*
X2889855Y3090811D01*
X2963500D01*
Y3073670D01*
X2971455D01*
X2979320Y3065805D01*
Y3060060D01*
X2974610D01*
Y3044780D01*
X2994390D01*
Y3060060D01*
X2989680D01*
Y3067950D01*
X2989285Y3069932D01*
X2988163Y3071613D01*
X2978780Y3080995D01*
Y3084151D01*
X2979612Y3084708D01*
X2980905Y3086000D01*
X2989969D01*
X2990860Y3084839D01*
X2992717Y3083415D01*
X2994879Y3082519D01*
X2997200Y3082213D01*
X2999521Y3082519D01*
X3001683Y3083415D01*
X3003540Y3084839D01*
X3004966Y3086696D01*
X3005861Y3088859D01*
X3006167Y3091180D01*
X3005861Y3093501D01*
X3004966Y3095663D01*
X3003540Y3097520D01*
X3001683Y3098945D01*
X2999521Y3099841D01*
X2997200Y3100147D01*
X2994879Y3099841D01*
X2992717Y3098945D01*
X2990860Y3097520D01*
X2989969Y3096360D01*
X2987467D01*
X2986844Y3097755D01*
X2986762Y3098900D01*
X2988300Y3100080D01*
X2989725Y3101937D01*
X2990621Y3104099D01*
X2990927Y3106420D01*
X2990621Y3108741D01*
X2989725Y3110903D01*
X2988300Y3112760D01*
X2986443Y3114185D01*
X2984281Y3115081D01*
X2981960Y3115387D01*
D02*
G37*
G36*
X2286000Y3108833D02*
X2283052Y3108542D01*
X2280217Y3107682D01*
X2277604Y3106286D01*
X2275314Y3104406D01*
X2273434Y3102116D01*
X2272038Y3099503D01*
X2271178Y3096668D01*
X2270887Y3093720D01*
X2271178Y3090771D01*
X2272038Y3087937D01*
X2273434Y3085324D01*
X2275314Y3083034D01*
X2277604Y3081154D01*
X2280217Y3079758D01*
X2283052Y3078898D01*
X2286000Y3078607D01*
X2288948Y3078898D01*
X2291783Y3079758D01*
X2294396Y3081154D01*
X2296686Y3083034D01*
X2298566Y3085324D01*
X2299962Y3087937D01*
X2300822Y3090771D01*
X2301113Y3093720D01*
X2300822Y3096668D01*
X2299962Y3099503D01*
X2298566Y3102116D01*
X2296686Y3104406D01*
X2294396Y3106286D01*
X2291783Y3107682D01*
X2288948Y3108542D01*
X2286000Y3108833D01*
D02*
G37*
G36*
X2019300Y3106293D02*
X2016352Y3106003D01*
X2013517Y3105143D01*
X2010904Y3103746D01*
X2008614Y3101866D01*
X2006734Y3099576D01*
X2005338Y3096964D01*
X2004478Y3094128D01*
X2004187Y3091180D01*
X2004478Y3088232D01*
X2005338Y3085397D01*
X2006734Y3082784D01*
X2008614Y3080494D01*
X2010904Y3078614D01*
X2013517Y3077218D01*
X2016352Y3076358D01*
X2019300Y3076067D01*
X2022248Y3076358D01*
X2025083Y3077218D01*
X2027696Y3078614D01*
X2029986Y3080494D01*
X2031866Y3082784D01*
X2033262Y3085397D01*
X2034122Y3088232D01*
X2034413Y3091180D01*
X2034122Y3094128D01*
X2033262Y3096964D01*
X2031866Y3099576D01*
X2029986Y3101866D01*
X2027696Y3103746D01*
X2025083Y3105143D01*
X2022248Y3106003D01*
X2019300Y3106293D01*
D02*
G37*
G36*
X734080Y3151580D02*
X718800D01*
Y3131800D01*
X724564D01*
X725427Y3129260D01*
X725180Y3129070D01*
X723755Y3127213D01*
X722859Y3125051D01*
X722577Y3122908D01*
X718598Y3118929D01*
X715640D01*
Y3121390D01*
X700360D01*
Y3101610D01*
X701930D01*
Y3092790D01*
X696890D01*
Y3077510D01*
X716670D01*
Y3092790D01*
X712290D01*
Y3101610D01*
X715640D01*
Y3108571D01*
X720743D01*
X722726Y3108965D01*
X724406Y3110088D01*
X728625Y3114307D01*
X729199Y3114069D01*
X731520Y3113763D01*
X733841Y3114069D01*
X736003Y3114965D01*
X737860Y3116389D01*
X739285Y3118246D01*
X740181Y3120409D01*
X740413Y3122170D01*
X741879Y3122984D01*
X742989Y3123187D01*
X746661Y3119514D01*
Y3093721D01*
X719017Y3066077D01*
X716670Y3067049D01*
Y3073790D01*
X696890D01*
Y3064090D01*
X696790Y3063590D01*
Y3063485D01*
X591235Y2957929D01*
X568405D01*
X568045Y2959736D01*
X566922Y2961416D01*
X559846Y2968492D01*
X558166Y2969615D01*
X556184Y2970009D01*
X520776D01*
X518794Y2969615D01*
X517114Y2968492D01*
X510037Y2961416D01*
X509534Y2960663D01*
X508904Y2960366D01*
X506906Y2960068D01*
X506407Y2960150D01*
X505191Y2961083D01*
X502870Y2962044D01*
X500380Y2962372D01*
X497890Y2962044D01*
X495569Y2961083D01*
X493576Y2959554D01*
X492047Y2957561D01*
X491086Y2955240D01*
X490758Y2952750D01*
X491086Y2950260D01*
X492047Y2947939D01*
X493576Y2945946D01*
X495569Y2944417D01*
X497890Y2943456D01*
X500380Y2943128D01*
X502870Y2943456D01*
X505191Y2944417D01*
X507184Y2945946D01*
X508562Y2947742D01*
X510724D01*
X512706Y2948136D01*
X514202Y2949136D01*
X514519Y2949224D01*
X517216Y2948496D01*
X517447Y2947939D01*
X518976Y2945946D01*
X520969Y2944417D01*
X523290Y2943456D01*
X525780Y2943128D01*
X527810Y2943395D01*
X534198Y2937007D01*
X535878Y2935885D01*
X537860Y2935490D01*
X542200D01*
X543452Y2932950D01*
X542847Y2932161D01*
X541886Y2929840D01*
X541558Y2927350D01*
X541886Y2924860D01*
X542847Y2922539D01*
X544376Y2920546D01*
X546369Y2919017D01*
X548690Y2918056D01*
X551180Y2917728D01*
X553670Y2918056D01*
X555991Y2919017D01*
X557984Y2920546D01*
X559513Y2922539D01*
X560474Y2924860D01*
X560802Y2927350D01*
X560474Y2929840D01*
X559513Y2932161D01*
X558908Y2932950D01*
X560160Y2935490D01*
X600934D01*
X602916Y2935885D01*
X604597Y2937007D01*
X755502Y3087913D01*
X755502Y3087913D01*
X756625Y3089594D01*
X757020Y3091576D01*
Y3121660D01*
X756625Y3123642D01*
X755502Y3125323D01*
X740263Y3140562D01*
X738582Y3141685D01*
X736600Y3142079D01*
X734080D01*
Y3151580D01*
D02*
G37*
G36*
X1518920Y3096133D02*
X1515972Y3095842D01*
X1513137Y3094982D01*
X1510524Y3093586D01*
X1508234Y3091706D01*
X1506354Y3089416D01*
X1504958Y3086803D01*
X1504098Y3083969D01*
X1503807Y3081020D01*
X1504098Y3078072D01*
X1504958Y3075237D01*
X1506354Y3072624D01*
X1508234Y3070334D01*
X1510524Y3068454D01*
X1513137Y3067057D01*
X1515972Y3066198D01*
X1518920Y3065907D01*
X1521868Y3066198D01*
X1524703Y3067057D01*
X1527316Y3068454D01*
X1529606Y3070334D01*
X1531486Y3072624D01*
X1532882Y3075237D01*
X1533742Y3078072D01*
X1534033Y3081020D01*
X1533742Y3083969D01*
X1532882Y3086803D01*
X1531486Y3089416D01*
X1529606Y3091706D01*
X1527316Y3093586D01*
X1524703Y3094982D01*
X1521868Y3095842D01*
X1518920Y3096133D01*
D02*
G37*
G36*
X1767840Y3093593D02*
X1764892Y3093302D01*
X1762057Y3092442D01*
X1759444Y3091046D01*
X1757154Y3089166D01*
X1755274Y3086876D01*
X1753878Y3084263D01*
X1753018Y3081429D01*
X1752727Y3078480D01*
X1753018Y3075532D01*
X1753878Y3072697D01*
X1755274Y3070084D01*
X1757154Y3067794D01*
X1759444Y3065914D01*
X1762057Y3064518D01*
X1764892Y3063658D01*
X1767840Y3063367D01*
X1770788Y3063658D01*
X1773623Y3064518D01*
X1776236Y3065914D01*
X1778526Y3067794D01*
X1780406Y3070084D01*
X1781802Y3072697D01*
X1782662Y3075532D01*
X1782953Y3078480D01*
X1782662Y3081429D01*
X1781802Y3084263D01*
X1780406Y3086876D01*
X1778526Y3089166D01*
X1776236Y3091046D01*
X1773623Y3092442D01*
X1770788Y3093302D01*
X1767840Y3093593D01*
D02*
G37*
G36*
X391550Y3119510D02*
X371770D01*
Y3104230D01*
X376151D01*
Y3068185D01*
X374660Y3067040D01*
X373235Y3065183D01*
X372339Y3063021D01*
X372033Y3060700D01*
X372339Y3058379D01*
X373235Y3056217D01*
X374660Y3054360D01*
X376517Y3052935D01*
X378679Y3052039D01*
X381000Y3051733D01*
X383321Y3052039D01*
X385483Y3052935D01*
X387340Y3054360D01*
X388765Y3056217D01*
X389661Y3058379D01*
X389967Y3060700D01*
X389661Y3063021D01*
X388765Y3065183D01*
X387340Y3067040D01*
X386510Y3067678D01*
Y3104230D01*
X391550D01*
Y3119510D01*
D02*
G37*
G36*
X3053380Y3093786D02*
X3051391Y3093524D01*
X3049537Y3092756D01*
X3047945Y3091535D01*
X3046724Y3089943D01*
X3045956Y3088089D01*
X3045694Y3086100D01*
X3045956Y3084111D01*
X3046724Y3082257D01*
X3047945Y3080665D01*
X3048555Y3080197D01*
Y3073005D01*
X3046877Y3071328D01*
X3045755Y3069647D01*
X3045360Y3067665D01*
Y3054980D01*
X3040650D01*
Y3039700D01*
X3060430D01*
Y3043370D01*
X3065980D01*
Y3039720D01*
X3096060D01*
Y3059800D01*
X3065980D01*
Y3053730D01*
X3060430D01*
Y3054980D01*
X3055720D01*
Y3065520D01*
X3057397Y3067198D01*
X3058520Y3068878D01*
X3058914Y3070860D01*
Y3080795D01*
X3060036Y3082257D01*
X3060804Y3084111D01*
X3061066Y3086100D01*
X3060804Y3088089D01*
X3060036Y3089943D01*
X3058815Y3091535D01*
X3057223Y3092756D01*
X3055369Y3093524D01*
X3053380Y3093786D01*
D02*
G37*
G36*
X2994390Y3041060D02*
X2974610D01*
Y3033105D01*
X2939946Y2998441D01*
X2938652D01*
X2936670Y2998047D01*
X2934989Y2996924D01*
X2900170Y2962105D01*
X2898140Y2962372D01*
X2895650Y2962044D01*
X2893329Y2961083D01*
X2891336Y2959554D01*
X2889807Y2957561D01*
X2888846Y2955240D01*
X2888518Y2952750D01*
X2888846Y2950260D01*
X2889807Y2947939D01*
X2891336Y2945946D01*
X2893329Y2944417D01*
X2895650Y2943456D01*
X2898140Y2943128D01*
X2900630Y2943456D01*
X2902951Y2944417D01*
X2904944Y2945946D01*
X2906473Y2947939D01*
X2907434Y2950260D01*
X2907762Y2952750D01*
X2907495Y2954780D01*
X2940797Y2988082D01*
X2942092D01*
X2944074Y2988477D01*
X2945754Y2989599D01*
X2981935Y3025780D01*
X2994390D01*
Y3041060D01*
D02*
G37*
G36*
X2974340Y2962372D02*
X2971850Y2962044D01*
X2969529Y2961083D01*
X2967536Y2959554D01*
X2966007Y2957561D01*
X2965045Y2955240D01*
X2964718Y2952750D01*
X2965045Y2950260D01*
X2966007Y2947939D01*
X2967536Y2945946D01*
X2969529Y2944417D01*
X2971850Y2943456D01*
X2974340Y2943128D01*
X2976830Y2943456D01*
X2979151Y2944417D01*
X2981144Y2945946D01*
X2982673Y2947939D01*
X2983634Y2950260D01*
X2983962Y2952750D01*
X2983634Y2955240D01*
X2982673Y2957561D01*
X2981144Y2959554D01*
X2979151Y2961083D01*
X2976830Y2962044D01*
X2974340Y2962372D01*
D02*
G37*
G36*
X2872740D02*
X2870250Y2962044D01*
X2867929Y2961083D01*
X2865936Y2959554D01*
X2864407Y2957561D01*
X2863446Y2955240D01*
X2863118Y2952750D01*
X2863446Y2950260D01*
X2864407Y2947939D01*
X2865936Y2945946D01*
X2867929Y2944417D01*
X2870250Y2943456D01*
X2872740Y2943128D01*
X2875230Y2943456D01*
X2877551Y2944417D01*
X2879544Y2945946D01*
X2881073Y2947939D01*
X2882034Y2950260D01*
X2882362Y2952750D01*
X2882034Y2955240D01*
X2881073Y2957561D01*
X2879544Y2959554D01*
X2877551Y2961083D01*
X2875230Y2962044D01*
X2872740Y2962372D01*
D02*
G37*
G36*
X2847340D02*
X2844850Y2962044D01*
X2842529Y2961083D01*
X2840536Y2959554D01*
X2839007Y2957561D01*
X2838046Y2955240D01*
X2837718Y2952750D01*
X2838046Y2950260D01*
X2839007Y2947939D01*
X2840536Y2945946D01*
X2842529Y2944417D01*
X2844850Y2943456D01*
X2847340Y2943128D01*
X2849830Y2943456D01*
X2852151Y2944417D01*
X2854144Y2945946D01*
X2855673Y2947939D01*
X2856635Y2950260D01*
X2856962Y2952750D01*
X2856635Y2955240D01*
X2855673Y2957561D01*
X2854144Y2959554D01*
X2852151Y2961083D01*
X2849830Y2962044D01*
X2847340Y2962372D01*
D02*
G37*
G36*
X2821940D02*
X2819449Y2962044D01*
X2817129Y2961083D01*
X2815136Y2959554D01*
X2813607Y2957561D01*
X2812646Y2955240D01*
X2812318Y2952750D01*
X2812646Y2950260D01*
X2813607Y2947939D01*
X2815136Y2945946D01*
X2817129Y2944417D01*
X2819449Y2943456D01*
X2821940Y2943128D01*
X2824431Y2943456D01*
X2826751Y2944417D01*
X2828744Y2945946D01*
X2830273Y2947939D01*
X2831234Y2950260D01*
X2831562Y2952750D01*
X2831234Y2955240D01*
X2830273Y2957561D01*
X2828744Y2959554D01*
X2826751Y2961083D01*
X2824431Y2962044D01*
X2821940Y2962372D01*
D02*
G37*
G36*
X2796540D02*
X2794050Y2962044D01*
X2791729Y2961083D01*
X2789736Y2959554D01*
X2788207Y2957561D01*
X2787245Y2955240D01*
X2786918Y2952750D01*
X2787245Y2950260D01*
X2788207Y2947939D01*
X2789736Y2945946D01*
X2791729Y2944417D01*
X2794050Y2943456D01*
X2796540Y2943128D01*
X2799030Y2943456D01*
X2801351Y2944417D01*
X2803344Y2945946D01*
X2804873Y2947939D01*
X2805834Y2950260D01*
X2806162Y2952750D01*
X2805834Y2955240D01*
X2804873Y2957561D01*
X2803344Y2959554D01*
X2801351Y2961083D01*
X2799030Y2962044D01*
X2796540Y2962372D01*
D02*
G37*
G36*
X2745740D02*
X2743250Y2962044D01*
X2740929Y2961083D01*
X2738936Y2959554D01*
X2737407Y2957561D01*
X2736446Y2955240D01*
X2736118Y2952750D01*
X2736446Y2950260D01*
X2737407Y2947939D01*
X2738936Y2945946D01*
X2740929Y2944417D01*
X2743250Y2943456D01*
X2745740Y2943128D01*
X2748230Y2943456D01*
X2750551Y2944417D01*
X2752544Y2945946D01*
X2754073Y2947939D01*
X2755034Y2950260D01*
X2755362Y2952750D01*
X2755034Y2955240D01*
X2754073Y2957561D01*
X2752544Y2959554D01*
X2750551Y2961083D01*
X2748230Y2962044D01*
X2745740Y2962372D01*
D02*
G37*
G36*
X584590Y3061090D02*
X564810D01*
Y3053135D01*
X473906Y2962231D01*
X472490Y2962044D01*
X470169Y2961083D01*
X468176Y2959554D01*
X466647Y2957561D01*
X465686Y2955240D01*
X465358Y2952750D01*
X465686Y2950260D01*
X466647Y2947939D01*
X468176Y2945946D01*
X470169Y2944417D01*
X472490Y2943456D01*
X474980Y2943128D01*
X477470Y2943456D01*
X479791Y2944417D01*
X481784Y2945946D01*
X483313Y2947939D01*
X484274Y2950260D01*
X484602Y2952750D01*
X484274Y2955240D01*
X483481Y2957156D01*
X572135Y3045810D01*
X584590D01*
Y3061090D01*
D02*
G37*
G36*
X449580Y2962372D02*
X447090Y2962044D01*
X444769Y2961083D01*
X442776Y2959554D01*
X441247Y2957561D01*
X440286Y2955240D01*
X439958Y2952750D01*
X440286Y2950260D01*
X441247Y2947939D01*
X442776Y2945946D01*
X444769Y2944417D01*
X447090Y2943456D01*
X449580Y2943128D01*
X452070Y2943456D01*
X454391Y2944417D01*
X456384Y2945946D01*
X457913Y2947939D01*
X458874Y2950260D01*
X459202Y2952750D01*
X458874Y2955240D01*
X457913Y2957561D01*
X456384Y2959554D01*
X454391Y2961083D01*
X452070Y2962044D01*
X449580Y2962372D01*
D02*
G37*
G36*
X424180D02*
X421690Y2962044D01*
X419369Y2961083D01*
X417376Y2959554D01*
X415847Y2957561D01*
X414886Y2955240D01*
X414558Y2952750D01*
X414886Y2950260D01*
X415847Y2947939D01*
X417376Y2945946D01*
X419369Y2944417D01*
X421690Y2943456D01*
X424180Y2943128D01*
X426670Y2943456D01*
X428991Y2944417D01*
X430984Y2945946D01*
X432513Y2947939D01*
X433474Y2950260D01*
X433802Y2952750D01*
X433474Y2955240D01*
X432513Y2957561D01*
X430984Y2959554D01*
X428991Y2961083D01*
X426670Y2962044D01*
X424180Y2962372D01*
D02*
G37*
G36*
X398780D02*
X396290Y2962044D01*
X393969Y2961083D01*
X391976Y2959554D01*
X390447Y2957561D01*
X389486Y2955240D01*
X389158Y2952750D01*
X389486Y2950260D01*
X390447Y2947939D01*
X391976Y2945946D01*
X393969Y2944417D01*
X396290Y2943456D01*
X398780Y2943128D01*
X401270Y2943456D01*
X403591Y2944417D01*
X405584Y2945946D01*
X407113Y2947939D01*
X408074Y2950260D01*
X408402Y2952750D01*
X408074Y2955240D01*
X407113Y2957561D01*
X405584Y2959554D01*
X403591Y2961083D01*
X401270Y2962044D01*
X398780Y2962372D01*
D02*
G37*
G36*
X373380D02*
X370890Y2962044D01*
X368569Y2961083D01*
X366576Y2959554D01*
X365047Y2957561D01*
X364086Y2955240D01*
X363758Y2952750D01*
X364086Y2950260D01*
X365047Y2947939D01*
X366576Y2945946D01*
X368569Y2944417D01*
X370890Y2943456D01*
X373380Y2943128D01*
X375870Y2943456D01*
X378191Y2944417D01*
X380184Y2945946D01*
X381713Y2947939D01*
X382674Y2950260D01*
X383002Y2952750D01*
X382674Y2955240D01*
X381713Y2957561D01*
X380184Y2959554D01*
X378191Y2961083D01*
X375870Y2962044D01*
X373380Y2962372D01*
D02*
G37*
G36*
X322580D02*
X320090Y2962044D01*
X317769Y2961083D01*
X315776Y2959554D01*
X314247Y2957561D01*
X313286Y2955240D01*
X312958Y2952750D01*
X313286Y2950260D01*
X314247Y2947939D01*
X315776Y2945946D01*
X317769Y2944417D01*
X320090Y2943456D01*
X322580Y2943128D01*
X325070Y2943456D01*
X327391Y2944417D01*
X329384Y2945946D01*
X330913Y2947939D01*
X331874Y2950260D01*
X332202Y2952750D01*
X331874Y2955240D01*
X330913Y2957561D01*
X329384Y2959554D01*
X327391Y2961083D01*
X325070Y2962044D01*
X322580Y2962372D01*
D02*
G37*
G36*
X2755280Y2936890D02*
X2736200D01*
Y2917810D01*
X2755280D01*
Y2936890D01*
D02*
G37*
G36*
X332120D02*
X313040D01*
Y2917810D01*
X332120D01*
Y2936890D01*
D02*
G37*
G36*
X2974340Y2936972D02*
X2971850Y2936644D01*
X2969529Y2935683D01*
X2967536Y2934154D01*
X2966007Y2932161D01*
X2965045Y2929840D01*
X2964718Y2927350D01*
X2965045Y2924860D01*
X2966007Y2922539D01*
X2967536Y2920546D01*
X2969529Y2919017D01*
X2971850Y2918056D01*
X2974340Y2917728D01*
X2976830Y2918056D01*
X2979151Y2919017D01*
X2981144Y2920546D01*
X2982673Y2922539D01*
X2983634Y2924860D01*
X2983962Y2927350D01*
X2983634Y2929840D01*
X2982673Y2932161D01*
X2981144Y2934154D01*
X2979151Y2935683D01*
X2976830Y2936644D01*
X2974340Y2936972D01*
D02*
G37*
G36*
X2948940D02*
X2946450Y2936644D01*
X2944129Y2935683D01*
X2942136Y2934154D01*
X2940607Y2932161D01*
X2939646Y2929840D01*
X2939318Y2927350D01*
X2939646Y2924860D01*
X2940607Y2922539D01*
X2942136Y2920546D01*
X2944129Y2919017D01*
X2946450Y2918056D01*
X2948940Y2917728D01*
X2951430Y2918056D01*
X2953751Y2919017D01*
X2955744Y2920546D01*
X2957273Y2922539D01*
X2958234Y2924860D01*
X2958562Y2927350D01*
X2958234Y2929840D01*
X2957273Y2932161D01*
X2955744Y2934154D01*
X2953751Y2935683D01*
X2951430Y2936644D01*
X2948940Y2936972D01*
D02*
G37*
G36*
X2923540D02*
X2921049Y2936644D01*
X2918729Y2935683D01*
X2916736Y2934154D01*
X2915207Y2932161D01*
X2914246Y2929840D01*
X2913918Y2927350D01*
X2914246Y2924860D01*
X2915207Y2922539D01*
X2916736Y2920546D01*
X2918729Y2919017D01*
X2921049Y2918056D01*
X2923540Y2917728D01*
X2926030Y2918056D01*
X2928351Y2919017D01*
X2930344Y2920546D01*
X2931873Y2922539D01*
X2932834Y2924860D01*
X2933162Y2927350D01*
X2932834Y2929840D01*
X2931873Y2932161D01*
X2930344Y2934154D01*
X2928351Y2935683D01*
X2926030Y2936644D01*
X2923540Y2936972D01*
D02*
G37*
G36*
X2898140D02*
X2895650Y2936644D01*
X2893329Y2935683D01*
X2891336Y2934154D01*
X2889807Y2932161D01*
X2888846Y2929840D01*
X2888518Y2927350D01*
X2888846Y2924860D01*
X2889807Y2922539D01*
X2891336Y2920546D01*
X2893329Y2919017D01*
X2895650Y2918056D01*
X2898140Y2917728D01*
X2900630Y2918056D01*
X2902951Y2919017D01*
X2904944Y2920546D01*
X2906473Y2922539D01*
X2907434Y2924860D01*
X2907762Y2927350D01*
X2907434Y2929840D01*
X2906473Y2932161D01*
X2904944Y2934154D01*
X2902951Y2935683D01*
X2900630Y2936644D01*
X2898140Y2936972D01*
D02*
G37*
G36*
X2872740D02*
X2870250Y2936644D01*
X2867929Y2935683D01*
X2865936Y2934154D01*
X2864407Y2932161D01*
X2863446Y2929840D01*
X2863118Y2927350D01*
X2863446Y2924860D01*
X2864407Y2922539D01*
X2865936Y2920546D01*
X2867929Y2919017D01*
X2870250Y2918056D01*
X2872740Y2917728D01*
X2875230Y2918056D01*
X2877551Y2919017D01*
X2879544Y2920546D01*
X2881073Y2922539D01*
X2882034Y2924860D01*
X2882362Y2927350D01*
X2882034Y2929840D01*
X2881073Y2932161D01*
X2879544Y2934154D01*
X2877551Y2935683D01*
X2875230Y2936644D01*
X2872740Y2936972D01*
D02*
G37*
G36*
X2847340D02*
X2844850Y2936644D01*
X2842529Y2935683D01*
X2840536Y2934154D01*
X2839007Y2932161D01*
X2838046Y2929840D01*
X2837718Y2927350D01*
X2838046Y2924860D01*
X2839007Y2922539D01*
X2840536Y2920546D01*
X2842529Y2919017D01*
X2844850Y2918056D01*
X2847340Y2917728D01*
X2849830Y2918056D01*
X2852151Y2919017D01*
X2854144Y2920546D01*
X2855673Y2922539D01*
X2856635Y2924860D01*
X2856962Y2927350D01*
X2856635Y2929840D01*
X2855673Y2932161D01*
X2854144Y2934154D01*
X2852151Y2935683D01*
X2849830Y2936644D01*
X2847340Y2936972D01*
D02*
G37*
G36*
X2821940D02*
X2819449Y2936644D01*
X2817129Y2935683D01*
X2815136Y2934154D01*
X2813607Y2932161D01*
X2812646Y2929840D01*
X2812318Y2927350D01*
X2812646Y2924860D01*
X2813607Y2922539D01*
X2815136Y2920546D01*
X2817129Y2919017D01*
X2819449Y2918056D01*
X2821940Y2917728D01*
X2824431Y2918056D01*
X2826751Y2919017D01*
X2828744Y2920546D01*
X2830273Y2922539D01*
X2831234Y2924860D01*
X2831562Y2927350D01*
X2831234Y2929840D01*
X2830273Y2932161D01*
X2828744Y2934154D01*
X2826751Y2935683D01*
X2824431Y2936644D01*
X2821940Y2936972D01*
D02*
G37*
G36*
X2796540D02*
X2794050Y2936644D01*
X2791729Y2935683D01*
X2789736Y2934154D01*
X2788207Y2932161D01*
X2787245Y2929840D01*
X2786918Y2927350D01*
X2787245Y2924860D01*
X2788207Y2922539D01*
X2789736Y2920546D01*
X2791729Y2919017D01*
X2794050Y2918056D01*
X2796540Y2917728D01*
X2799030Y2918056D01*
X2801351Y2919017D01*
X2803344Y2920546D01*
X2804873Y2922539D01*
X2805834Y2924860D01*
X2806162Y2927350D01*
X2805834Y2929840D01*
X2804873Y2932161D01*
X2803344Y2934154D01*
X2801351Y2935683D01*
X2799030Y2936644D01*
X2796540Y2936972D01*
D02*
G37*
G36*
X2771140D02*
X2768650Y2936644D01*
X2766329Y2935683D01*
X2764336Y2934154D01*
X2762807Y2932161D01*
X2761846Y2929840D01*
X2761518Y2927350D01*
X2761846Y2924860D01*
X2762807Y2922539D01*
X2764336Y2920546D01*
X2766329Y2919017D01*
X2768650Y2918056D01*
X2771140Y2917728D01*
X2773630Y2918056D01*
X2775951Y2919017D01*
X2777944Y2920546D01*
X2779473Y2922539D01*
X2780434Y2924860D01*
X2780762Y2927350D01*
X2780434Y2929840D01*
X2779473Y2932161D01*
X2777944Y2934154D01*
X2775951Y2935683D01*
X2773630Y2936644D01*
X2771140Y2936972D01*
D02*
G37*
G36*
X525780D02*
X523290Y2936644D01*
X520969Y2935683D01*
X518976Y2934154D01*
X517447Y2932161D01*
X516486Y2929840D01*
X516158Y2927350D01*
X516486Y2924860D01*
X517447Y2922539D01*
X518976Y2920546D01*
X520969Y2919017D01*
X523290Y2918056D01*
X525780Y2917728D01*
X528270Y2918056D01*
X530591Y2919017D01*
X532584Y2920546D01*
X534113Y2922539D01*
X535074Y2924860D01*
X535402Y2927350D01*
X535074Y2929840D01*
X534113Y2932161D01*
X532584Y2934154D01*
X530591Y2935683D01*
X528270Y2936644D01*
X525780Y2936972D01*
D02*
G37*
G36*
X500380D02*
X497890Y2936644D01*
X495569Y2935683D01*
X493576Y2934154D01*
X492047Y2932161D01*
X491086Y2929840D01*
X490758Y2927350D01*
X491086Y2924860D01*
X492047Y2922539D01*
X493576Y2920546D01*
X495569Y2919017D01*
X497890Y2918056D01*
X500380Y2917728D01*
X502870Y2918056D01*
X505191Y2919017D01*
X507184Y2920546D01*
X508713Y2922539D01*
X509674Y2924860D01*
X510002Y2927350D01*
X509674Y2929840D01*
X508713Y2932161D01*
X507184Y2934154D01*
X505191Y2935683D01*
X502870Y2936644D01*
X500380Y2936972D01*
D02*
G37*
G36*
X474980D02*
X472490Y2936644D01*
X470169Y2935683D01*
X468176Y2934154D01*
X466647Y2932161D01*
X465686Y2929840D01*
X465358Y2927350D01*
X465686Y2924860D01*
X466647Y2922539D01*
X468176Y2920546D01*
X470169Y2919017D01*
X472490Y2918056D01*
X474980Y2917728D01*
X477470Y2918056D01*
X479791Y2919017D01*
X481784Y2920546D01*
X483313Y2922539D01*
X484274Y2924860D01*
X484602Y2927350D01*
X484274Y2929840D01*
X483313Y2932161D01*
X481784Y2934154D01*
X479791Y2935683D01*
X477470Y2936644D01*
X474980Y2936972D01*
D02*
G37*
G36*
X449580D02*
X447090Y2936644D01*
X444769Y2935683D01*
X442776Y2934154D01*
X441247Y2932161D01*
X440286Y2929840D01*
X439958Y2927350D01*
X440286Y2924860D01*
X441247Y2922539D01*
X442776Y2920546D01*
X444769Y2919017D01*
X447090Y2918056D01*
X449580Y2917728D01*
X452070Y2918056D01*
X454391Y2919017D01*
X456384Y2920546D01*
X457913Y2922539D01*
X458874Y2924860D01*
X459202Y2927350D01*
X458874Y2929840D01*
X457913Y2932161D01*
X456384Y2934154D01*
X454391Y2935683D01*
X452070Y2936644D01*
X449580Y2936972D01*
D02*
G37*
G36*
X424180D02*
X421690Y2936644D01*
X419369Y2935683D01*
X417376Y2934154D01*
X415847Y2932161D01*
X414886Y2929840D01*
X414558Y2927350D01*
X414886Y2924860D01*
X415847Y2922539D01*
X417376Y2920546D01*
X419369Y2919017D01*
X421690Y2918056D01*
X424180Y2917728D01*
X426670Y2918056D01*
X428991Y2919017D01*
X430984Y2920546D01*
X432513Y2922539D01*
X433474Y2924860D01*
X433802Y2927350D01*
X433474Y2929840D01*
X432513Y2932161D01*
X430984Y2934154D01*
X428991Y2935683D01*
X426670Y2936644D01*
X424180Y2936972D01*
D02*
G37*
G36*
X398780D02*
X396290Y2936644D01*
X393969Y2935683D01*
X391976Y2934154D01*
X390447Y2932161D01*
X389486Y2929840D01*
X389158Y2927350D01*
X389486Y2924860D01*
X390447Y2922539D01*
X391976Y2920546D01*
X393969Y2919017D01*
X396290Y2918056D01*
X398780Y2917728D01*
X401270Y2918056D01*
X403591Y2919017D01*
X405584Y2920546D01*
X407113Y2922539D01*
X408074Y2924860D01*
X408402Y2927350D01*
X408074Y2929840D01*
X407113Y2932161D01*
X405584Y2934154D01*
X403591Y2935683D01*
X401270Y2936644D01*
X398780Y2936972D01*
D02*
G37*
G36*
X373380D02*
X370890Y2936644D01*
X368569Y2935683D01*
X366576Y2934154D01*
X365047Y2932161D01*
X364086Y2929840D01*
X363758Y2927350D01*
X364086Y2924860D01*
X365047Y2922539D01*
X366576Y2920546D01*
X368569Y2919017D01*
X370890Y2918056D01*
X373380Y2917728D01*
X375870Y2918056D01*
X378191Y2919017D01*
X380184Y2920546D01*
X381713Y2922539D01*
X382674Y2924860D01*
X383002Y2927350D01*
X382674Y2929840D01*
X381713Y2932161D01*
X380184Y2934154D01*
X378191Y2935683D01*
X375870Y2936644D01*
X373380Y2936972D01*
D02*
G37*
G36*
X347980D02*
X345490Y2936644D01*
X343169Y2935683D01*
X341176Y2934154D01*
X339647Y2932161D01*
X338686Y2929840D01*
X338358Y2927350D01*
X338686Y2924860D01*
X339647Y2922539D01*
X341176Y2920546D01*
X343169Y2919017D01*
X345490Y2918056D01*
X347980Y2917728D01*
X350470Y2918056D01*
X352791Y2919017D01*
X354784Y2920546D01*
X356313Y2922539D01*
X357274Y2924860D01*
X357602Y2927350D01*
X357274Y2929840D01*
X356313Y2932161D01*
X354784Y2934154D01*
X352791Y2935683D01*
X350470Y2936644D01*
X347980Y2936972D01*
D02*
G37*
G36*
X1683263Y2794840D02*
X1679697D01*
X1676254Y2793917D01*
X1673166Y2792135D01*
X1670645Y2789614D01*
X1668863Y2786526D01*
X1667940Y2783083D01*
Y2779518D01*
X1668863Y2776074D01*
X1670645Y2772986D01*
X1673166Y2770465D01*
X1676254Y2768683D01*
X1679697Y2767760D01*
X1683263D01*
X1686706Y2768683D01*
X1689794Y2770465D01*
X1692315Y2772986D01*
X1694097Y2776074D01*
X1695020Y2779518D01*
Y2783083D01*
X1694097Y2786526D01*
X1692315Y2789614D01*
X1689794Y2792135D01*
X1686706Y2793917D01*
X1683263Y2794840D01*
D02*
G37*
G36*
X1416563D02*
X1412997D01*
X1409554Y2793917D01*
X1406466Y2792135D01*
X1403945Y2789614D01*
X1402163Y2786526D01*
X1401240Y2783083D01*
Y2779518D01*
X1402163Y2776074D01*
X1403945Y2772986D01*
X1406466Y2770465D01*
X1409554Y2768683D01*
X1412997Y2767760D01*
X1416563D01*
X1420006Y2768683D01*
X1423094Y2770465D01*
X1425615Y2772986D01*
X1427397Y2776074D01*
X1428320Y2779518D01*
Y2783083D01*
X1427397Y2786526D01*
X1425615Y2789614D01*
X1423094Y2792135D01*
X1420006Y2793917D01*
X1416563Y2794840D01*
D02*
G37*
G36*
X1149863D02*
X1146297D01*
X1142854Y2793917D01*
X1139766Y2792135D01*
X1137245Y2789614D01*
X1135463Y2786526D01*
X1134540Y2783083D01*
Y2779518D01*
X1135463Y2776074D01*
X1137245Y2772986D01*
X1139766Y2770465D01*
X1142854Y2768683D01*
X1146297Y2767760D01*
X1149863D01*
X1153306Y2768683D01*
X1156394Y2770465D01*
X1158915Y2772986D01*
X1160697Y2776074D01*
X1161620Y2779518D01*
Y2783083D01*
X1160697Y2786526D01*
X1158915Y2789614D01*
X1156394Y2792135D01*
X1153306Y2793917D01*
X1149863Y2794840D01*
D02*
G37*
G36*
X1282524Y2707200D02*
X1277796D01*
X1273126Y2706460D01*
X1268629Y2704999D01*
X1264416Y2702852D01*
X1260590Y2700073D01*
X1257247Y2696730D01*
X1254467Y2692904D01*
X1252321Y2688691D01*
X1250860Y2684194D01*
X1250120Y2679524D01*
Y2674796D01*
X1250860Y2670126D01*
X1252321Y2665629D01*
X1254467Y2661416D01*
X1257247Y2657590D01*
X1260590Y2654247D01*
X1264416Y2651468D01*
X1268629Y2649321D01*
X1273126Y2647860D01*
X1277796Y2647120D01*
X1282524D01*
X1287194Y2647860D01*
X1291691Y2649321D01*
X1295904Y2651468D01*
X1299730Y2654247D01*
X1303073Y2657590D01*
X1305853Y2661416D01*
X1307999Y2665629D01*
X1309460Y2670126D01*
X1310200Y2674796D01*
Y2679524D01*
X1309460Y2684194D01*
X1307999Y2688691D01*
X1305853Y2692904D01*
X1303073Y2696730D01*
X1299730Y2700073D01*
X1295904Y2702852D01*
X1291691Y2704999D01*
X1287194Y2706460D01*
X1282524Y2707200D01*
D02*
G37*
G36*
X1573401Y2603300D02*
X1570439D01*
X1567533Y2602722D01*
X1564796Y2601588D01*
X1562333Y2599942D01*
X1560238Y2597847D01*
X1558592Y2595384D01*
X1557458Y2592647D01*
X1556880Y2589741D01*
Y2586779D01*
X1557458Y2583873D01*
X1558592Y2581136D01*
X1560238Y2578672D01*
X1562333Y2576578D01*
X1564796Y2574932D01*
X1567533Y2573798D01*
X1570439Y2573220D01*
X1573401D01*
X1576307Y2573798D01*
X1579044Y2574932D01*
X1581507Y2576578D01*
X1583602Y2578672D01*
X1585248Y2581136D01*
X1586382Y2583873D01*
X1586960Y2586779D01*
Y2589741D01*
X1586382Y2592647D01*
X1585248Y2595384D01*
X1583602Y2597847D01*
X1581507Y2599942D01*
X1579044Y2601588D01*
X1576307Y2602722D01*
X1573401Y2603300D01*
D02*
G37*
G36*
X1414780Y2637867D02*
X1412459Y2637561D01*
X1410297Y2636665D01*
X1408440Y2635240D01*
X1407015Y2633383D01*
X1406119Y2631221D01*
X1405813Y2628900D01*
Y2448220D01*
X1406119Y2445899D01*
X1407015Y2443737D01*
X1408440Y2441880D01*
X1422827Y2427492D01*
X1422260Y2424641D01*
Y2421679D01*
X1422838Y2418773D01*
X1423972Y2416036D01*
X1425618Y2413573D01*
X1427713Y2411478D01*
X1430176Y2409832D01*
X1432913Y2408698D01*
X1435819Y2408120D01*
X1438781D01*
X1441687Y2408698D01*
X1444424Y2409832D01*
X1446887Y2411478D01*
X1448982Y2413573D01*
X1450628Y2416036D01*
X1451762Y2418773D01*
X1452340Y2421679D01*
Y2424641D01*
X1451762Y2427547D01*
X1450628Y2430284D01*
X1448982Y2432747D01*
X1446887Y2434842D01*
X1444424Y2436488D01*
X1441687Y2437622D01*
X1438781Y2438200D01*
X1437481D01*
X1423747Y2451934D01*
Y2628900D01*
X1423441Y2631221D01*
X1422545Y2633383D01*
X1421120Y2635240D01*
X1419263Y2636665D01*
X1417101Y2637561D01*
X1414780Y2637867D01*
D02*
G37*
G36*
X1148080D02*
X1145759Y2637561D01*
X1143597Y2636665D01*
X1141740Y2635240D01*
X1140315Y2633383D01*
X1139419Y2631221D01*
X1139113Y2628900D01*
Y2377100D01*
X1139419Y2374779D01*
X1140315Y2372617D01*
X1141740Y2370760D01*
X1247146Y2265354D01*
X1247000Y2264621D01*
Y2261659D01*
X1247578Y2258753D01*
X1248712Y2256016D01*
X1250358Y2253553D01*
X1252453Y2251458D01*
X1254916Y2249812D01*
X1257653Y2248678D01*
X1260559Y2248100D01*
X1263521D01*
X1266427Y2248678D01*
X1269164Y2249812D01*
X1271627Y2251458D01*
X1273722Y2253553D01*
X1275368Y2256016D01*
X1276502Y2258753D01*
X1277080Y2261659D01*
Y2264621D01*
X1276502Y2267527D01*
X1275368Y2270264D01*
X1273722Y2272727D01*
X1271627Y2274822D01*
X1269164Y2276468D01*
X1266427Y2277602D01*
X1263521Y2278180D01*
X1260559D01*
X1259827Y2278034D01*
X1157047Y2380814D01*
Y2628900D01*
X1156741Y2631221D01*
X1155845Y2633383D01*
X1154420Y2635240D01*
X1152563Y2636665D01*
X1150401Y2637561D01*
X1148080Y2637867D01*
D02*
G37*
G36*
X2483363Y2794840D02*
X2479797D01*
X2476354Y2793917D01*
X2473266Y2792135D01*
X2470745Y2789614D01*
X2468963Y2786526D01*
X2468040Y2783083D01*
Y2779518D01*
X2468963Y2776074D01*
X2470745Y2772986D01*
X2473266Y2770465D01*
X2476354Y2768683D01*
X2479797Y2767760D01*
X2483363D01*
X2486806Y2768683D01*
X2489894Y2770465D01*
X2492415Y2772986D01*
X2494197Y2776074D01*
X2495120Y2779518D01*
Y2783083D01*
X2494197Y2786526D01*
X2492415Y2789614D01*
X2489894Y2792135D01*
X2486806Y2793917D01*
X2483363Y2794840D01*
D02*
G37*
G36*
X2216663D02*
X2213097D01*
X2209654Y2793917D01*
X2206566Y2792135D01*
X2204045Y2789614D01*
X2202263Y2786526D01*
X2201340Y2783083D01*
Y2779518D01*
X2202263Y2776074D01*
X2204045Y2772986D01*
X2206566Y2770465D01*
X2209654Y2768683D01*
X2213097Y2767760D01*
X2216663D01*
X2220106Y2768683D01*
X2223194Y2770465D01*
X2225715Y2772986D01*
X2227497Y2776074D01*
X2228420Y2779518D01*
Y2783083D01*
X2227497Y2786526D01*
X2225715Y2789614D01*
X2223194Y2792135D01*
X2220106Y2793917D01*
X2216663Y2794840D01*
D02*
G37*
G36*
X1949963D02*
X1946397D01*
X1942954Y2793917D01*
X1939866Y2792135D01*
X1937345Y2789614D01*
X1935563Y2786526D01*
X1934640Y2783083D01*
Y2779518D01*
X1935563Y2776074D01*
X1937345Y2772986D01*
X1939866Y2770465D01*
X1942954Y2768683D01*
X1946397Y2767760D01*
X1949963D01*
X1953406Y2768683D01*
X1956494Y2770465D01*
X1959015Y2772986D01*
X1960797Y2776074D01*
X1961720Y2779518D01*
Y2783083D01*
X1960797Y2786526D01*
X1959015Y2789614D01*
X1956494Y2792135D01*
X1953406Y2793917D01*
X1949963Y2794840D01*
D02*
G37*
G36*
X2580464Y2707200D02*
X2575736D01*
X2571066Y2706460D01*
X2566569Y2704999D01*
X2562356Y2702852D01*
X2558530Y2700073D01*
X2555187Y2696730D01*
X2552408Y2692904D01*
X2550261Y2688691D01*
X2548800Y2684194D01*
X2548060Y2679524D01*
Y2674796D01*
X2548800Y2670126D01*
X2550261Y2665629D01*
X2552408Y2661416D01*
X2555187Y2657590D01*
X2558530Y2654247D01*
X2562356Y2651468D01*
X2566569Y2649321D01*
X2571066Y2647860D01*
X2575736Y2647120D01*
X2580464D01*
X2585134Y2647860D01*
X2589631Y2649321D01*
X2593844Y2651468D01*
X2597670Y2654247D01*
X2601013Y2657590D01*
X2603792Y2661416D01*
X2605939Y2665629D01*
X2607400Y2670126D01*
X2608140Y2674796D01*
Y2679524D01*
X2607400Y2684194D01*
X2605939Y2688691D01*
X2603792Y2692904D01*
X2601013Y2696730D01*
X2597670Y2700073D01*
X2593844Y2702852D01*
X2589631Y2704999D01*
X2585134Y2706460D01*
X2580464Y2707200D01*
D02*
G37*
G36*
X2181141Y2603300D02*
X2178179D01*
X2175273Y2602722D01*
X2172536Y2601588D01*
X2170073Y2599942D01*
X2167978Y2597847D01*
X2166332Y2595384D01*
X2165198Y2592647D01*
X2164620Y2589741D01*
Y2586779D01*
X2165198Y2583873D01*
X2166332Y2581136D01*
X2167978Y2578672D01*
X2170073Y2576578D01*
X2172536Y2574932D01*
X2175273Y2573798D01*
X2178179Y2573220D01*
X2181141D01*
X2184047Y2573798D01*
X2186784Y2574932D01*
X2189247Y2576578D01*
X2191342Y2578672D01*
X2192988Y2581136D01*
X2194122Y2583873D01*
X2194700Y2586779D01*
Y2589741D01*
X2194122Y2592647D01*
X2192988Y2595384D01*
X2191342Y2597847D01*
X2189247Y2599942D01*
X2186784Y2601588D01*
X2184047Y2602722D01*
X2181141Y2603300D01*
D02*
G37*
G36*
X2235200Y2632787D02*
X2234617Y2632710D01*
X2234030D01*
X2233462Y2632558D01*
X2232879Y2632481D01*
X2232336Y2632256D01*
X2231769Y2632104D01*
X2231259Y2631810D01*
X2230717Y2631585D01*
X2230251Y2631228D01*
X2229741Y2630934D01*
X2229326Y2630518D01*
X2228860Y2630161D01*
X2228502Y2629694D01*
X2228086Y2629279D01*
X2227792Y2628770D01*
X2227435Y2628304D01*
X2227210Y2627761D01*
X2226916Y2627251D01*
X2226764Y2626684D01*
X2226539Y2626141D01*
X2226462Y2625558D01*
X2226310Y2624991D01*
Y2624403D01*
X2226233Y2623820D01*
Y2550500D01*
X2226539Y2548179D01*
X2227435Y2546017D01*
X2228860Y2544160D01*
X2347646Y2425374D01*
X2347500Y2424641D01*
Y2421679D01*
X2348078Y2418773D01*
X2349212Y2416036D01*
X2350858Y2413573D01*
X2352953Y2411478D01*
X2355416Y2409832D01*
X2358153Y2408698D01*
X2361059Y2408120D01*
X2364021D01*
X2366927Y2408698D01*
X2369664Y2409832D01*
X2372127Y2411478D01*
X2374222Y2413573D01*
X2375868Y2416036D01*
X2377002Y2418773D01*
X2377580Y2421679D01*
Y2424641D01*
X2377002Y2427547D01*
X2375868Y2430284D01*
X2374222Y2432747D01*
X2372127Y2434842D01*
X2369664Y2436488D01*
X2366927Y2437622D01*
X2364021Y2438200D01*
X2361059D01*
X2360327Y2438054D01*
X2244167Y2554214D01*
Y2623820D01*
X2244090Y2624403D01*
Y2624991D01*
X2243938Y2625558D01*
X2243861Y2626141D01*
X2243636Y2626684D01*
X2243484Y2627251D01*
X2243190Y2627761D01*
X2242965Y2628304D01*
X2242608Y2628770D01*
X2242314Y2629279D01*
X2241898Y2629694D01*
X2241540Y2630161D01*
X2241074Y2630518D01*
X2240659Y2630934D01*
X2240150Y2631228D01*
X2239683Y2631585D01*
X2239140Y2631810D01*
X2238631Y2632104D01*
X2238064Y2632256D01*
X2237521Y2632481D01*
X2236938Y2632558D01*
X2236370Y2632710D01*
X2235783D01*
X2235200Y2632787D01*
D02*
G37*
G36*
X2481580Y2637867D02*
X2480997Y2637790D01*
X2480410D01*
X2479842Y2637638D01*
X2479259Y2637561D01*
X2478716Y2637336D01*
X2478149Y2637184D01*
X2477639Y2636890D01*
X2477097Y2636665D01*
X2476631Y2636308D01*
X2476121Y2636014D01*
X2475706Y2635598D01*
X2475240Y2635240D01*
X2474882Y2634774D01*
X2474466Y2634359D01*
X2474172Y2633849D01*
X2473815Y2633383D01*
X2473590Y2632841D01*
X2473296Y2632332D01*
X2473144Y2631764D01*
X2472919Y2631221D01*
X2472842Y2630638D01*
X2472690Y2630070D01*
Y2629483D01*
X2472613Y2628900D01*
Y2291420D01*
X2472919Y2289099D01*
X2473815Y2286937D01*
X2475240Y2285080D01*
X2494966Y2265354D01*
X2494820Y2264621D01*
Y2261659D01*
X2495398Y2258753D01*
X2496532Y2256016D01*
X2498178Y2253553D01*
X2500273Y2251458D01*
X2502736Y2249812D01*
X2505473Y2248678D01*
X2508379Y2248100D01*
X2511341D01*
X2514247Y2248678D01*
X2516984Y2249812D01*
X2519447Y2251458D01*
X2521542Y2253553D01*
X2523188Y2256016D01*
X2524322Y2258753D01*
X2524900Y2261659D01*
Y2264621D01*
X2524322Y2267527D01*
X2523188Y2270264D01*
X2521542Y2272727D01*
X2519447Y2274822D01*
X2516984Y2276468D01*
X2514247Y2277602D01*
X2511341Y2278180D01*
X2508379D01*
X2507646Y2278034D01*
X2490547Y2295134D01*
Y2628900D01*
X2490470Y2629483D01*
Y2630070D01*
X2490318Y2630638D01*
X2490241Y2631221D01*
X2490016Y2631764D01*
X2489864Y2632332D01*
X2489570Y2632841D01*
X2489345Y2633383D01*
X2488988Y2633849D01*
X2488694Y2634359D01*
X2488278Y2634774D01*
X2487920Y2635240D01*
X2487454Y2635598D01*
X2487039Y2636014D01*
X2486530Y2636308D01*
X2486063Y2636665D01*
X2485520Y2636890D01*
X2485011Y2637184D01*
X2484444Y2637336D01*
X2483901Y2637561D01*
X2483318Y2637638D01*
X2482750Y2637790D01*
X2482163D01*
X2481580Y2637867D01*
D02*
G37*
%LPD*%
D19*
X708000Y3111500D02*
D03*
X689000D02*
D03*
X565760Y3101340D02*
D03*
X546760D02*
D03*
X707440Y3141690D02*
D03*
X726440D02*
D03*
X3132480Y3147060D02*
D03*
X3151480D02*
D03*
X3121000Y3088640D02*
D03*
X3102000D02*
D03*
X2971140Y3083560D02*
D03*
X2952140D02*
D03*
X3132480Y3116580D02*
D03*
X3151480D02*
D03*
X2894940Y3119120D02*
D03*
X2875940D02*
D03*
X490220Y3134070D02*
D03*
X471220D02*
D03*
Y3106130D02*
D03*
X490220D02*
D03*
X2441600Y3053080D02*
D03*
X2460600D02*
D03*
X1113180Y3046450D02*
D03*
X1132180D02*
D03*
X2754020Y3048000D02*
D03*
X2773020D02*
D03*
X489560Y3078480D02*
D03*
X470560D02*
D03*
D20*
X708660Y3168040D02*
D03*
Y3187040D02*
D03*
X706780Y3085150D02*
D03*
Y3066150D02*
D03*
X574700Y3072450D02*
D03*
Y3053450D02*
D03*
X3116580Y3052420D02*
D03*
Y3033420D02*
D03*
X2984500Y3052420D02*
D03*
Y3033420D02*
D03*
X2882179Y3016860D02*
D03*
Y2997860D02*
D03*
X381660Y3130870D02*
D03*
Y3111870D02*
D03*
X1935480Y3047340D02*
D03*
Y3028340D02*
D03*
X2194560Y3046860D02*
D03*
Y3027860D02*
D03*
X2059940Y3047340D02*
D03*
Y3028340D02*
D03*
X2311400Y3047340D02*
D03*
Y3028340D02*
D03*
X2585720Y3047340D02*
D03*
Y3028340D02*
D03*
X1384300Y3047340D02*
D03*
Y3028340D02*
D03*
X1651000Y3047340D02*
D03*
Y3028340D02*
D03*
X1247140Y3049400D02*
D03*
Y3030400D02*
D03*
X1516380Y3047340D02*
D03*
Y3028340D02*
D03*
X1760220Y3046860D02*
D03*
Y3027860D02*
D03*
X2776220Y3133700D02*
D03*
Y3114700D02*
D03*
X3050540Y3028340D02*
D03*
Y3047340D02*
D03*
X2994660Y3178760D02*
D03*
Y3159760D02*
D03*
X381000Y3174340D02*
D03*
Y3155340D02*
D03*
X403860Y3066440D02*
D03*
Y3085440D02*
D03*
X650900Y3066150D02*
D03*
Y3085150D02*
D03*
X604520Y3181960D02*
D03*
Y3162960D02*
D03*
X2849159Y2997200D02*
D03*
Y3016200D02*
D03*
D21*
X1971040Y3052300D02*
D03*
Y3018300D02*
D03*
X2227580Y3049760D02*
D03*
Y3015760D02*
D03*
X2021840Y3052300D02*
D03*
Y3018300D02*
D03*
X2270760Y3049760D02*
D03*
Y3015760D02*
D03*
X2529840Y3049760D02*
D03*
Y3015760D02*
D03*
X1414780Y3049760D02*
D03*
Y3015760D02*
D03*
X1681480Y3047220D02*
D03*
Y3013220D02*
D03*
X1196340Y3054840D02*
D03*
Y3020840D02*
D03*
X1465580Y3049760D02*
D03*
Y3015760D02*
D03*
X1727200Y3047220D02*
D03*
Y3013220D02*
D03*
X2809240Y3136120D02*
D03*
Y3102120D02*
D03*
X3081020Y3015760D02*
D03*
Y3049760D02*
D03*
X3025140Y3181840D02*
D03*
Y3147840D02*
D03*
X350520Y3176760D02*
D03*
Y3142760D02*
D03*
X434340Y3051320D02*
D03*
Y3085320D02*
D03*
X622960Y3048490D02*
D03*
Y3082490D02*
D03*
X574040Y3194540D02*
D03*
Y3160540D02*
D03*
D44*
X2754818Y3104102D02*
Y3112582D01*
X2775440Y3078480D02*
Y3083480D01*
X2754818Y3104102D02*
X2775440Y3083480D01*
X2753360Y3114040D02*
X2754818Y3112582D01*
X3051960Y3087520D02*
X3053735Y3085745D01*
X3050540Y3067665D02*
X3053735Y3070860D01*
X3053380Y3086100D02*
Y3087475D01*
X3053735Y3070860D02*
Y3085745D01*
X3050540Y3047340D02*
Y3067665D01*
X2860040Y3068320D02*
X2887710Y3095990D01*
X2971530D01*
X2981960Y3106420D01*
X2809240Y3081812D02*
Y3102120D01*
X2815590Y3073400D02*
Y3075462D01*
X2809240Y3081812D02*
X2815590Y3075462D01*
X628782Y3140643D02*
X643110Y3126315D01*
Y3111500D02*
Y3126315D01*
Y3111500D02*
X643550Y3111060D01*
Y3097530D02*
X646090Y3094990D01*
Y3090686D02*
Y3094990D01*
X643550Y3097530D02*
Y3111060D01*
X646090Y3090686D02*
X646090Y3090686D01*
Y3086310D02*
Y3090686D01*
Y3086310D02*
X648650Y3083750D01*
X3044882Y3123997D02*
X3046340Y3122540D01*
X3044882Y3123997D02*
Y3133098D01*
X3030140Y3147840D02*
X3044882Y3133098D01*
X580895Y3101340D02*
X587595Y3108040D01*
X589657D01*
X565760Y3101340D02*
X580895D01*
X565760Y3099090D02*
Y3101340D01*
X574700Y3072450D02*
Y3090150D01*
X565760Y3099090D02*
X574700Y3090150D01*
X431680Y3087980D02*
X434340Y3085320D01*
X403860Y3087980D02*
X431680D01*
X451849Y3106130D02*
X471220D01*
X471920Y3105430D01*
X2755900Y3132770D02*
Y3167380D01*
Y3132770D02*
X2773970Y3114700D01*
X2668270Y3134360D02*
X2701290Y3167380D01*
X2755900D01*
X2755900Y3167380D01*
X2773020Y3032100D02*
Y3048000D01*
X2694940Y2954020D02*
X2773020Y3032100D01*
X2774230Y3049210D02*
Y3077270D01*
X2773020Y3048000D02*
X2774230Y3049210D01*
Y3077270D02*
X2775440Y3078480D01*
X2773970Y3114700D02*
X2791660D01*
X2971800Y3162300D02*
X2973862D01*
X2976402Y3159760D01*
X2667000Y3134360D02*
X2668270D01*
X2976402Y3159760D02*
X2994660D01*
X3151480Y3114330D02*
X3157220Y3108590D01*
Y3054000D02*
Y3108590D01*
X3075907Y2972686D02*
X3157220Y3054000D01*
X3118986Y3088640D02*
X3137378D01*
X3139918Y3091180D01*
X3141980D01*
X3121000Y3054980D02*
Y3088640D01*
X3118440Y3052420D02*
X3121000Y3054980D01*
X3116580Y3052420D02*
X3118440D01*
X2512060Y2954020D02*
X2694940D01*
X2481580Y2984500D02*
X2512060Y2954020D01*
X1582420Y3286760D02*
Y3312160D01*
Y3286760D02*
X1595120Y3274060D01*
X2861498Y3102428D02*
X2875940Y3116870D01*
X2861498Y3095178D02*
Y3102428D01*
X2860040Y3093720D02*
X2861498Y3095178D01*
X2875940Y3116870D02*
Y3119120D01*
X575250Y3161750D02*
X603310D01*
X574040Y3160540D02*
X575250Y3161750D01*
X603310D02*
X604520Y3162960D01*
X620580Y3176770D02*
X622480D01*
X604520Y3162960D02*
X606770D01*
X620580Y3176770D01*
X431395Y3089045D02*
X432460Y3090110D01*
X323240Y3118830D02*
Y3120480D01*
X345520Y3142760D02*
X350520D01*
X323240Y3120480D02*
X345520Y3142760D01*
X360480Y3147720D02*
Y3149790D01*
X366030Y3155340D02*
X381000D01*
X360480Y3149790D02*
X366030Y3155340D01*
X355520Y3142760D02*
X360480Y3147720D01*
X350520Y3142760D02*
X355520D01*
X2804240Y3102120D02*
X2809240D01*
X2791660Y3114700D02*
X2804240Y3102120D01*
X2849159Y3057439D02*
X2860040Y3068320D01*
X2849159Y3016200D02*
Y3057439D01*
X2849489Y3016530D02*
X2881848D01*
X2849159Y3016200D02*
X2849489Y3016530D01*
X2881848D02*
X2882179Y3016860D01*
X3050540Y3047340D02*
X3051750Y3048550D01*
X3079810D02*
X3081020Y3049760D01*
X3051750Y3048550D02*
X3079810D01*
X3025140Y3147840D02*
X3030140D01*
X3009630Y3159760D02*
X3015180Y3154210D01*
Y3152800D02*
X3020140Y3147840D01*
X2994660Y3159760D02*
X3009630D01*
X3015180Y3152800D02*
Y3154210D01*
X3020140Y3147840D02*
X3025140D01*
X3151480Y3114330D02*
Y3116580D01*
X2948940Y2952750D02*
X2968876Y2972686D01*
X3075907D01*
X2923540Y2952750D02*
X2951096Y2980306D01*
X3072751D02*
X3113144Y3020700D01*
X2951096Y2980306D02*
X3072751D01*
X3113144Y3030860D02*
X3115704Y3033420D01*
X3116580D01*
X3113144Y3020700D02*
Y3030860D01*
X2898140Y2952750D02*
X2938652Y2993262D01*
X2982250Y3033420D02*
X2984500D01*
X2942092Y2993262D02*
X2982250Y3033420D01*
X2938652Y2993262D02*
X2942092D01*
X2971140Y3085810D02*
X2973700Y3088370D01*
X2975950D01*
X2971140Y3083560D02*
Y3085810D01*
X2975950Y3088370D02*
X2978760Y3091180D01*
X2997200D01*
X2971140Y3081310D02*
X2984500Y3067950D01*
Y3052420D02*
Y3067950D01*
X2971140Y3081310D02*
Y3083560D01*
X3132480Y3116580D02*
Y3147060D01*
X3106420Y3116580D02*
X3132480D01*
X729724Y3122730D02*
X731520D01*
X707110Y3085480D02*
Y3110320D01*
X720743Y3113750D02*
X729724Y3122730D01*
X710540Y3113750D02*
X720743D01*
X707110Y3110320D02*
X710540Y3113750D01*
X563320Y3118560D02*
X581660Y3136900D01*
X1247140Y3007360D02*
Y3031800D01*
X1516380Y3009900D02*
Y3029740D01*
X1757970Y3029260D02*
X1760220D01*
X2289740Y3029740D02*
X2311400D01*
X2585720Y3012440D02*
Y3029740D01*
X2038280D02*
X2059940D01*
X579780Y3160250D02*
X584780D01*
X642620Y3196910D02*
Y3218180D01*
X650270Y3083120D02*
X650900Y3083750D01*
X648650D02*
X650900D01*
X623590Y3083120D02*
X650270D01*
X430726Y3118560D02*
X563320D01*
X429351Y3117185D02*
X430726Y3118560D01*
X578460Y3137190D02*
Y3158660D01*
X708050Y3162350D02*
X708660Y3162960D01*
X708050Y3142300D02*
Y3162350D01*
X707440Y3141690D02*
X708050Y3142300D01*
X563260Y2955726D02*
Y2957754D01*
X520776Y2964830D02*
X556184D01*
X513700Y2955898D02*
Y2957754D01*
X510724Y2952921D02*
X513700Y2955898D01*
X701970Y3063590D02*
X704530Y3066150D01*
X500552Y2952921D02*
X510724D01*
X500380Y2952750D02*
X500552Y2952921D01*
X593380Y2952750D02*
X701970Y3061340D01*
X563260Y2955726D02*
X566236Y2952750D01*
X556184Y2964830D02*
X563260Y2957754D01*
X701970Y3061340D02*
Y3063590D01*
X566236Y2952750D02*
X593380D01*
X513700Y2957754D02*
X520776Y2964830D01*
X704530Y3066150D02*
X706780D01*
X665480Y3203080D02*
Y3230880D01*
X628782Y3166382D02*
X665480Y3203080D01*
X628782Y3140643D02*
Y3166382D01*
X622480Y3176770D02*
X642620Y3196910D01*
X588199Y3106582D02*
X589657Y3108040D01*
X600934Y2940670D02*
X751840Y3091576D01*
X736600Y3136900D02*
X751840Y3121660D01*
Y3091576D02*
Y3121660D01*
X726440Y3139460D02*
X729000Y3136900D01*
X736600D01*
X726440Y3139460D02*
Y3141690D01*
X537860Y2940670D02*
X600934D01*
X525780Y2952750D02*
X537860Y2940670D01*
X476687Y2957687D02*
X572450Y3053450D01*
X574700D01*
X476687Y2954457D02*
Y2957687D01*
X474980Y2952750D02*
X476687Y2954457D01*
X381000Y3060700D02*
X381330Y3061030D01*
Y3111540D01*
X381660Y3111870D01*
Y3130870D02*
X424180D01*
X447700Y3154390D01*
X450240Y3134070D02*
X471220D01*
X450240D02*
Y3136132D01*
X471920Y3083970D02*
X472620Y3083270D01*
X471920Y3083970D02*
Y3105430D01*
X429351Y3117185D02*
X432460Y3114075D01*
Y3090110D02*
Y3114075D01*
X622960Y3082490D02*
X623590Y3083120D01*
X694958Y3140743D02*
X706493D01*
X707440Y3141690D01*
X694011Y3139796D02*
X694958Y3140743D01*
X574370Y3072780D02*
X574700Y3072450D01*
Y3053450D02*
X576950D01*
X706780Y3085150D02*
X707110Y3085480D01*
X1224280Y2984500D02*
X1247140Y3007360D01*
X1201340Y3020840D02*
X1206300Y3015880D01*
Y3002480D02*
X1224280Y2984500D01*
X1196340Y3020840D02*
X1201340D01*
X1206300Y3002480D02*
Y3015880D01*
X1470580Y3015760D02*
X1475540Y3010800D01*
Y2999940D02*
X1490980Y2984500D01*
X1465580Y3015760D02*
X1470580D01*
X1475540Y2999940D02*
Y3010800D01*
X1490980Y2984500D02*
X1516380Y3009900D01*
X1414780Y2984500D02*
Y3015760D01*
X1404820Y3020720D02*
X1409780Y3015760D01*
X1414780D01*
X1384300Y3029740D02*
X1399270D01*
X1404820Y3024190D01*
Y3020720D02*
Y3024190D01*
X1671520Y3018180D02*
X1676480Y3013220D01*
X1681480D01*
X1651000Y3029740D02*
X1664960D01*
X1671520Y3023180D01*
Y3018180D02*
Y3023180D01*
X1681480Y2984500D02*
Y3013220D01*
X1727200D02*
X1732200D01*
X1757680Y2984500D02*
Y2987740D01*
X1732200Y3013220D02*
X1757680Y2987740D01*
X1732160Y3018180D02*
X1746890D01*
X1757970Y3029260D01*
X1727200Y3013220D02*
X1732160Y3018180D01*
X1961080Y3013340D02*
X1966040Y3018300D01*
X1961080Y3008340D02*
Y3013340D01*
X1951418Y2998677D02*
X1961080Y3008340D01*
X1966040Y3018300D02*
X1971040D01*
X1951418Y2987737D02*
Y2998677D01*
X1948180Y2984500D02*
X1951418Y2987737D01*
X1935480Y3029740D02*
X1954600D01*
X1966040Y3018300D01*
X2021840D02*
X2024380Y3015760D01*
Y2984500D02*
Y3015760D01*
X2021840Y3018300D02*
X2026840D01*
X2038280Y3029740D01*
X2280720Y3005800D02*
X2287843Y2998677D01*
Y2987737D02*
X2291080Y2984500D01*
X2270760Y3015760D02*
X2275760D01*
X2280720Y3010800D01*
Y3005800D02*
Y3010800D01*
X2287843Y2987737D02*
Y2998677D01*
X2275760Y3015760D02*
X2289740Y3029740D01*
X2217620Y2987240D02*
Y3010800D01*
X2222580Y3015760D02*
X2227580D01*
X2217620Y3010800D02*
X2222580Y3015760D01*
X2214880Y2984500D02*
X2217620Y2987240D01*
Y3020720D02*
Y3021170D01*
X2194560Y3029260D02*
X2209530D01*
X2217620Y3021170D01*
Y3020720D02*
X2222580Y3015760D01*
X2470640Y3078560D02*
Y3083560D01*
X2558850Y2985570D02*
X2585720Y3012440D01*
X2557780Y2984500D02*
X2558850Y2985570D01*
X2539800Y3002480D02*
X2557780Y2984500D01*
X2539800Y3002480D02*
Y3010800D01*
X2534840Y3015760D02*
X2539800Y3010800D01*
X2529840Y3015760D02*
X2534840D01*
X2109626Y3325974D02*
X2110740Y3324860D01*
D46*
X2214880Y2954020D02*
Y2984500D01*
X1224280D02*
Y3138170D01*
X1221740Y3140710D02*
X1224280Y3138170D01*
X2558850Y2985570D02*
Y3125670D01*
X2557780Y3126740D02*
X2558850Y3125670D01*
X2481580Y2291420D02*
Y2628900D01*
Y2291420D02*
X2509860Y2263140D01*
X2235200Y2550500D02*
X2362540Y2423160D01*
X2235200Y2550500D02*
Y2623820D01*
X1414780Y2448220D02*
Y2628900D01*
X1148080Y2377100D02*
Y2628900D01*
X1490980Y2984500D02*
Y3073400D01*
X1800860Y3027680D02*
Y3096260D01*
X1757680Y2984500D02*
X1800860Y3027680D01*
X1442720Y3121660D02*
X1490980Y3073400D01*
X1414780Y2946400D02*
Y2984500D01*
X1681480Y2943860D02*
Y2984500D01*
X1948180Y2954020D02*
X1953260Y2948940D01*
X1948180Y2954020D02*
Y2984500D01*
X1148080Y2377100D02*
X1262040Y2263140D01*
X2099566Y2985514D02*
X2100580Y2984500D01*
X1414780Y2448220D02*
X1437300Y2425700D01*
D47*
X1722120Y3228340D02*
D03*
X1795780D02*
D03*
Y3187700D02*
D03*
X1724660D02*
D03*
X2440940Y3362960D02*
D03*
Y3411220D02*
D03*
X1955800Y3413760D02*
D03*
Y3365500D02*
D03*
X1315720Y3208020D02*
D03*
X1313180Y3164840D02*
D03*
X1389380Y3208020D02*
D03*
Y3167380D02*
D03*
X1247140Y3078480D02*
D03*
X1518920Y3081020D02*
D03*
X1767840Y3078480D02*
D03*
X2019300Y3091180D02*
D03*
X2286000Y3093720D02*
D03*
X2537460Y3098800D02*
D03*
X3359480Y2387600D02*
D03*
X3409480D02*
D03*
X2270760Y1727200D02*
D03*
X2220760D02*
D03*
X309880Y2387600D02*
D03*
X359880D02*
D03*
X1597660Y1724660D02*
D03*
X1547660D02*
D03*
X1537040Y2263140D02*
D03*
X1262040D02*
D03*
X1712300Y2423160D02*
D03*
X1437300D02*
D03*
X1846920Y2588260D02*
D03*
X1571920D02*
D03*
X1904660D02*
D03*
X2179660D02*
D03*
X2087540Y2423160D02*
D03*
X2362540D02*
D03*
X2234860Y2263140D02*
D03*
X2509860D02*
D03*
D48*
X2100580Y2781300D02*
D03*
Y2984500D02*
D03*
X2024380D02*
D03*
X1948180D02*
D03*
Y2781300D02*
D03*
X2367280D02*
D03*
Y2984500D02*
D03*
X2291080D02*
D03*
X2214880D02*
D03*
Y2781300D02*
D03*
X2633980D02*
D03*
Y2984500D02*
D03*
X2557780D02*
D03*
X2481580D02*
D03*
Y2781300D02*
D03*
X1300480D02*
D03*
Y2984500D02*
D03*
X1224280D02*
D03*
X1148080D02*
D03*
Y2781300D02*
D03*
X1567180D02*
D03*
Y2984500D02*
D03*
X1490980D02*
D03*
X1414780D02*
D03*
Y2781300D02*
D03*
X1833880D02*
D03*
Y2984500D02*
D03*
X1757680D02*
D03*
X1681480D02*
D03*
Y2781300D02*
D03*
D49*
X1135380Y3345180D02*
D03*
D50*
X1919920Y1988820D02*
D03*
X2083120D02*
D03*
X2133280D02*
D03*
X2296480D02*
D03*
X2346640D02*
D03*
X2509840D02*
D03*
X1417640D02*
D03*
X1254440D02*
D03*
X1631000D02*
D03*
X1467800D02*
D03*
X1846900D02*
D03*
X1683700D02*
D03*
X3459480Y1900956D02*
D03*
X3248480D02*
D03*
X3459480Y2220956D02*
D03*
X3248480D02*
D03*
X3459480Y2060956D02*
D03*
X3248480D02*
D03*
X308790Y2220956D02*
D03*
X519790D02*
D03*
X308790Y1900956D02*
D03*
X519790D02*
D03*
X308790Y2060956D02*
D03*
X519790D02*
D03*
D51*
X2872740Y2585096D02*
D03*
Y2380096D02*
D03*
Y2269120D02*
D03*
Y2064120D02*
D03*
Y1950096D02*
D03*
Y1745096D02*
D03*
X892990Y1950096D02*
D03*
Y1745096D02*
D03*
Y2269120D02*
D03*
Y2064120D02*
D03*
Y2585096D02*
D03*
Y2380096D02*
D03*
D52*
X2484120Y1744980D02*
D03*
X330200Y2677160D02*
D03*
X2578100D02*
D03*
X1280160D02*
D03*
X330200Y3274060D02*
D03*
X3429000D02*
D03*
Y1752600D02*
D03*
X330200Y1755140D02*
D03*
X1280160Y1742440D02*
D03*
D53*
X3423920Y2768600D02*
D03*
D54*
X2974340Y3384550D02*
D03*
Y3359150D02*
D03*
X2948940Y3384550D02*
D03*
Y3359150D02*
D03*
X2923540Y3384550D02*
D03*
Y3359150D02*
D03*
X2898140Y3384550D02*
D03*
Y3359150D02*
D03*
X2872740Y3384550D02*
D03*
Y3359150D02*
D03*
X2847340Y3384550D02*
D03*
Y3359150D02*
D03*
X2821940Y3384550D02*
D03*
Y3359150D02*
D03*
X2796540Y3384550D02*
D03*
Y3359150D02*
D03*
X2771140Y3384550D02*
D03*
Y3359150D02*
D03*
X2745740Y3384550D02*
D03*
X2974340Y2952750D02*
D03*
Y2927350D02*
D03*
X2948940Y2952750D02*
D03*
Y2927350D02*
D03*
X2923540Y2952750D02*
D03*
Y2927350D02*
D03*
X2898140Y2952750D02*
D03*
Y2927350D02*
D03*
X2872740Y2952750D02*
D03*
Y2927350D02*
D03*
X2847340Y2952750D02*
D03*
Y2927350D02*
D03*
X2821940Y2952750D02*
D03*
Y2927350D02*
D03*
X2796540Y2952750D02*
D03*
Y2927350D02*
D03*
X2771140Y2952750D02*
D03*
Y2927350D02*
D03*
X2745740Y2952750D02*
D03*
X551180Y3384550D02*
D03*
Y3359150D02*
D03*
X525780Y3384550D02*
D03*
Y3359150D02*
D03*
X500380Y3384550D02*
D03*
Y3359150D02*
D03*
X474980Y3384550D02*
D03*
Y3359150D02*
D03*
X449580Y3384550D02*
D03*
Y3359150D02*
D03*
X424180Y3384550D02*
D03*
Y3359150D02*
D03*
X398780Y3384550D02*
D03*
Y3359150D02*
D03*
X373380Y3384550D02*
D03*
Y3359150D02*
D03*
X347980Y3384550D02*
D03*
Y3359150D02*
D03*
X322580Y3384550D02*
D03*
X551180Y2952750D02*
D03*
Y2927350D02*
D03*
X525780Y2952750D02*
D03*
Y2927350D02*
D03*
X500380Y2952750D02*
D03*
Y2927350D02*
D03*
X474980Y2952750D02*
D03*
Y2927350D02*
D03*
X449580Y2952750D02*
D03*
Y2927350D02*
D03*
X424180Y2952750D02*
D03*
Y2927350D02*
D03*
X398780Y2952750D02*
D03*
Y2927350D02*
D03*
X373380Y2952750D02*
D03*
Y2927350D02*
D03*
X347980Y2952750D02*
D03*
Y2927350D02*
D03*
X322580Y2952750D02*
D03*
X3164840Y2776220D02*
D03*
X3241040D02*
D03*
D55*
X2745740Y3359150D02*
D03*
Y2927350D02*
D03*
X322580Y3359150D02*
D03*
Y2927350D02*
D03*
D56*
X3459480Y2387600D02*
D03*
X2170760Y1727200D02*
D03*
X409880Y2387600D02*
D03*
X1497660Y1724660D02*
D03*
D57*
X2047240Y3324860D02*
D03*
Y3312160D02*
D03*
X2059940Y3324860D02*
D03*
Y3312160D02*
D03*
X2072640Y3324860D02*
D03*
Y3312160D02*
D03*
X2085340Y3324860D02*
D03*
Y3312160D02*
D03*
X2098040Y3324860D02*
D03*
Y3312160D02*
D03*
X2110740Y3324860D02*
D03*
Y3312160D02*
D03*
X2123440Y3324860D02*
D03*
Y3312160D02*
D03*
X2136140Y3324860D02*
D03*
Y3312160D02*
D03*
X2148840Y3324860D02*
D03*
Y3312160D02*
D03*
X2161540Y3324860D02*
D03*
Y3312160D02*
D03*
X2174240Y3324860D02*
D03*
Y3312160D02*
D03*
X2186940Y3324860D02*
D03*
Y3312160D02*
D03*
X2199640Y3324860D02*
D03*
Y3312160D02*
D03*
X2212340Y3324860D02*
D03*
Y3312160D02*
D03*
X2225040Y3324860D02*
D03*
Y3312160D02*
D03*
X2237740Y3324860D02*
D03*
Y3312160D02*
D03*
X2250440Y3324860D02*
D03*
Y3312160D02*
D03*
X2263140Y3324860D02*
D03*
Y3312160D02*
D03*
X2275840Y3324860D02*
D03*
Y3312160D02*
D03*
X2288540Y3324860D02*
D03*
Y3312160D02*
D03*
X2301240Y3324860D02*
D03*
Y3312160D02*
D03*
X2313940Y3324860D02*
D03*
Y3312160D02*
D03*
X2326640Y3324860D02*
D03*
Y3312160D02*
D03*
X2339340Y3324860D02*
D03*
Y3312160D02*
D03*
X2352040Y3324860D02*
D03*
X1366520D02*
D03*
Y3312160D02*
D03*
X1379220Y3324860D02*
D03*
Y3312160D02*
D03*
X1391920Y3324860D02*
D03*
Y3312160D02*
D03*
X1404620Y3324860D02*
D03*
Y3312160D02*
D03*
X1417320Y3324860D02*
D03*
Y3312160D02*
D03*
X1430020Y3324860D02*
D03*
Y3312160D02*
D03*
X1442720Y3324860D02*
D03*
Y3312160D02*
D03*
X1455420Y3324860D02*
D03*
Y3312160D02*
D03*
X1468120Y3324860D02*
D03*
Y3312160D02*
D03*
X1480820Y3324860D02*
D03*
Y3312160D02*
D03*
X1493520Y3324860D02*
D03*
Y3312160D02*
D03*
X1506220Y3324860D02*
D03*
Y3312160D02*
D03*
X1518920Y3324860D02*
D03*
Y3312160D02*
D03*
X1531620Y3324860D02*
D03*
Y3312160D02*
D03*
X1544320Y3324860D02*
D03*
Y3312160D02*
D03*
X1557020Y3324860D02*
D03*
Y3312160D02*
D03*
X1569720Y3324860D02*
D03*
Y3312160D02*
D03*
X1582420Y3324860D02*
D03*
Y3312160D02*
D03*
X1595120Y3324860D02*
D03*
Y3312160D02*
D03*
X1607820Y3324860D02*
D03*
Y3312160D02*
D03*
X1620520Y3324860D02*
D03*
Y3312160D02*
D03*
X1633220Y3324860D02*
D03*
Y3312160D02*
D03*
X1645920Y3324860D02*
D03*
Y3312160D02*
D03*
X1658620Y3324860D02*
D03*
Y3312160D02*
D03*
X1671320Y3324860D02*
D03*
D58*
X2352040Y3312160D02*
D03*
X1671320D02*
D03*
D59*
X3053380Y3086100D02*
D03*
X2815590Y3073400D02*
D03*
X643110Y3111500D02*
D03*
X3046340Y3122540D02*
D03*
D60*
X2753360Y3114040D02*
D03*
X2981960Y3106420D02*
D03*
X451849Y3106130D02*
D03*
X1221740Y3140710D02*
D03*
X2755900Y3167380D02*
D03*
X2971800Y3162300D02*
D03*
X3141980Y3091180D02*
D03*
X2667000Y3134360D02*
D03*
X2608580Y3114040D02*
D03*
X2557780Y3126740D02*
D03*
X2494280Y3205480D02*
D03*
X2466340D02*
D03*
X1135380Y3149600D02*
D03*
X1163320D02*
D03*
X1595120Y3274060D02*
D03*
X2860040Y3093720D02*
D03*
Y3068320D02*
D03*
X2997200Y3091180D02*
D03*
X3106420Y3116580D02*
D03*
X731520Y3122730D02*
D03*
X642620Y3218180D02*
D03*
X2481580Y2628900D02*
D03*
X2235200Y2623820D02*
D03*
X1414780D02*
D03*
X1148080Y2627720D02*
D03*
X578460Y3137190D02*
D03*
X665480Y3230880D02*
D03*
X589657Y3108040D02*
D03*
X381000Y3060700D02*
D03*
X323240Y3118830D02*
D03*
X447700Y3154390D02*
D03*
X450240Y3134070D02*
D03*
X429351Y3117185D02*
D03*
X694011Y3139796D02*
D03*
X1800860Y3096260D02*
D03*
X1879600Y3093720D02*
D03*
X1442720Y3121660D02*
D03*
X2326484Y3095686D02*
D03*
X2059940Y3096260D02*
D03*
X1539240Y3119120D02*
D03*
X1341120Y3091180D02*
D03*
D61*
X2429020Y3083560D02*
D03*
X2463020D02*
D03*
X1103140Y3075940D02*
D03*
X1137140D02*
D03*
X2741440Y3078480D02*
D03*
X2775440D02*
D03*
M02*
