G04*
G04 #@! TF.GenerationSoftware,Altium Limited,Altium Designer,22.11.1 (43)*
G04*
G04 Layer_Physical_Order=1*
G04 Layer_Color=255*
%FSLAX44Y44*%
%MOMM*%
G71*
G04*
G04 #@! TF.SameCoordinates,B38BEB0A-FF2B-4473-85C9-27130B265984*
G04*
G04*
G04 #@! TF.FilePolarity,Positive*
G04*
G01*
G75*
%ADD18O,2.2000X0.6000*%
%ADD19R,1.0200X1.4700*%
%ADD20R,1.4700X1.0200*%
%ADD21R,2.5000X1.5000*%
%ADD22R,2.0000X4.0000*%
%ADD23R,4.0000X2.0000*%
%ADD44C,0.5080*%
%ADD45C,3.5560*%
%ADD46C,1.2700*%
%ADD47C,2.5000*%
%ADD48C,2.2000*%
%ADD49C,3.5000*%
%ADD50C,3.0000*%
%ADD51O,3.6000X3.2000*%
%ADD52C,5.5000*%
%ADD53C,10.0000*%
%ADD54C,1.4000*%
%ADD55R,1.4000X1.4000*%
%ADD56R,2.5000X2.5000*%
%ADD57C,1.0900*%
%ADD58R,1.0900X1.0900*%
%ADD59C,1.0160*%
%ADD60C,1.2700*%
G36*
X2001520Y3223260D02*
X2512060D01*
Y3187700D01*
X1935480D01*
X1785620Y3337560D01*
X1252220D01*
X1178560Y3263900D01*
X1178560Y3139340D01*
X1122680D01*
Y3276600D01*
X1221740Y3375660D01*
X1849120D01*
X2001520Y3223260D01*
D02*
G37*
G36*
X2575560Y2913380D02*
X1209040D01*
Y2966720D01*
X2575560D01*
Y2913380D01*
D02*
G37*
D18*
X2787780Y3119120D02*
D03*
Y3106420D02*
D03*
Y3093720D02*
D03*
Y3081020D02*
D03*
Y3068320D02*
D03*
Y3055620D02*
D03*
Y3042920D02*
D03*
X2835780Y3119120D02*
D03*
Y3106420D02*
D03*
Y3093720D02*
D03*
Y3081020D02*
D03*
Y3068320D02*
D03*
Y3055620D02*
D03*
Y3042920D02*
D03*
X663600Y3090890D02*
D03*
Y3103590D02*
D03*
Y3116290D02*
D03*
Y3128990D02*
D03*
Y3141690D02*
D03*
Y3154390D02*
D03*
Y3167090D02*
D03*
X615600Y3090890D02*
D03*
Y3103590D02*
D03*
Y3116290D02*
D03*
Y3128990D02*
D03*
Y3141690D02*
D03*
Y3154390D02*
D03*
Y3167090D02*
D03*
X3074540Y3065780D02*
D03*
Y3078480D02*
D03*
Y3091180D02*
D03*
Y3103880D02*
D03*
Y3116580D02*
D03*
Y3129280D02*
D03*
Y3141980D02*
D03*
X3026540Y3065780D02*
D03*
Y3078480D02*
D03*
Y3091180D02*
D03*
Y3103880D02*
D03*
Y3116580D02*
D03*
Y3129280D02*
D03*
Y3141980D02*
D03*
X357660Y3159470D02*
D03*
Y3146770D02*
D03*
Y3134070D02*
D03*
Y3121370D02*
D03*
Y3108670D02*
D03*
Y3095970D02*
D03*
Y3083270D02*
D03*
X405660Y3159470D02*
D03*
Y3146770D02*
D03*
Y3134070D02*
D03*
Y3121370D02*
D03*
Y3108670D02*
D03*
Y3095970D02*
D03*
Y3083270D02*
D03*
D19*
X644500Y3187700D02*
D03*
X625500D02*
D03*
X677520Y3055620D02*
D03*
X658520D02*
D03*
X592480D02*
D03*
X611480D02*
D03*
X687020Y3187700D02*
D03*
X668020D02*
D03*
X3037180Y3167380D02*
D03*
X3018180D02*
D03*
X3080360Y3032760D02*
D03*
X3061360D02*
D03*
X3092400Y3167380D02*
D03*
X3073400D02*
D03*
X3019400Y3032760D02*
D03*
X3000400D02*
D03*
X490220Y3106130D02*
D03*
X471220D02*
D03*
X470560Y3078480D02*
D03*
X489560D02*
D03*
D20*
X708660Y3091180D02*
D03*
Y3072180D02*
D03*
X563880Y3090520D02*
D03*
Y3071520D02*
D03*
X2969260Y3065780D02*
D03*
Y3084780D02*
D03*
X3116580Y3052420D02*
D03*
Y3033420D02*
D03*
X2809240Y3014320D02*
D03*
Y2995320D02*
D03*
X2880360Y3070860D02*
D03*
Y3051860D02*
D03*
Y3102000D02*
D03*
Y3121000D02*
D03*
X2849880Y2995320D02*
D03*
Y3014320D02*
D03*
X358140Y3049880D02*
D03*
Y3030880D02*
D03*
X473100Y3152510D02*
D03*
Y3171510D02*
D03*
X2882900Y3014320D02*
D03*
Y2995320D02*
D03*
D21*
X2098040Y3095480D02*
D03*
Y3061480D02*
D03*
X2367280Y3095480D02*
D03*
Y3061480D02*
D03*
X2633980Y3095480D02*
D03*
Y3061480D02*
D03*
X1300480Y3090400D02*
D03*
Y3056400D02*
D03*
X1567180Y3095480D02*
D03*
Y3061480D02*
D03*
X1833880Y3095480D02*
D03*
Y3061480D02*
D03*
D22*
X2009140Y2700020D02*
D03*
X1949140D02*
D03*
X1621000Y2697480D02*
D03*
X1681000D02*
D03*
D23*
X2232660Y2654780D02*
D03*
Y2714780D02*
D03*
X2481580Y2652240D02*
D03*
Y2712240D02*
D03*
X1148080Y2657320D02*
D03*
Y2717320D02*
D03*
X1414780Y2657320D02*
D03*
Y2717320D02*
D03*
D44*
X2817160Y3093720D02*
X2860040D01*
X2811480Y3088040D02*
X2817160Y3093720D01*
X2811480Y3087217D02*
Y3088040D01*
X2804160Y3079897D02*
X2811480Y3087217D01*
X2697713Y3152140D02*
X2879630D01*
X2344823Y3179810D02*
X3082220D01*
X2694557Y3144520D02*
X2876474D01*
X2969738Y3162300D02*
X2971800D01*
X2755900Y3167380D02*
X2964658D01*
X1797050Y3229610D02*
X1847850Y3178810D01*
X2679933Y3169920D02*
X2697713Y3152140D01*
X2343823Y3178810D02*
X2344823Y3179810D01*
X2853036Y3136900D02*
X2857500Y3132436D01*
X2691401Y3136900D02*
X2853036D01*
X1719580Y3225800D02*
X1783080Y3162300D01*
X2673621Y3154680D02*
X2691401Y3136900D01*
X1704340Y3279140D02*
X1795780Y3187700D01*
X2676777Y3162300D02*
X2694557Y3144520D01*
X1724660Y3187700D02*
X1757680Y3154680D01*
X2853036Y3121660D02*
X2857500Y3126124D01*
X3082220Y3179810D02*
X3092400Y3169630D01*
X1847850Y3178810D02*
X2343823D01*
X1795780Y3187700D02*
X1813560Y3169920D01*
X2964658Y3167380D02*
X2969738Y3162300D01*
X2857500Y3126124D02*
Y3132436D01*
X2876474Y3144520D02*
X2935463Y3085531D01*
X2494280Y3205480D02*
X3073934D01*
X1813560Y3169920D02*
X2679933D01*
X3073934Y3205480D02*
X3117850Y3161564D01*
X1620520Y3291840D02*
X1724660Y3187700D01*
X2787780Y3081020D02*
X2795531D01*
X2853036Y3119296D02*
X2876116D01*
X2795531Y3081020D02*
X2795956Y3081445D01*
X2804160Y3037982D02*
Y3079897D01*
X2835956Y3119296D02*
X2853036D01*
X2795956Y3081445D02*
Y3082469D01*
X2879630Y3152140D02*
X2943083Y3088687D01*
X2835780Y3119120D02*
X2835956Y3119296D01*
X2754818Y3105982D02*
X2779780Y3081020D01*
X3117850Y3111845D02*
Y3161564D01*
X3109885Y3103880D02*
X3117850Y3111845D01*
X3074540Y3103880D02*
X3109885D01*
X1634334Y3307274D02*
Y3311046D01*
X1633220Y3312160D02*
X1634334Y3311046D01*
Y3307274D02*
X1709456Y3232151D01*
X1719580Y3228340D02*
X1722120D01*
X1715768Y3232151D02*
X1719580Y3228340D01*
X1709456Y3232151D02*
X1715768D01*
X1757680Y3154680D02*
X2673621D01*
X1620520Y3291840D02*
Y3312160D01*
X1783080Y3162300D02*
X2676777D01*
X1647034Y3305350D02*
X1673244Y3279140D01*
X1647034Y3305350D02*
Y3311046D01*
X1659734Y3303427D02*
Y3311046D01*
X1676400Y3286760D02*
X1739900D01*
X1659734Y3303427D02*
X1676400Y3286760D01*
X1673244Y3279140D02*
X1704340D01*
X1645920Y3312160D02*
X1647034Y3311046D01*
X1739900Y3286760D02*
X1797050Y3229610D01*
X1658620Y3312160D02*
X1659734Y3311046D01*
X3053380Y3086100D02*
X3054352Y3087072D01*
Y3091692D02*
X3066240Y3103579D01*
X3054352Y3087072D02*
Y3091692D01*
X3043220Y3094821D02*
X3057769Y3109371D01*
X3043220Y3053150D02*
Y3094821D01*
Y3053150D02*
X3061360Y3035010D01*
X2754818Y3105982D02*
Y3112582D01*
X2753360Y3114040D02*
X2754818Y3112582D01*
X2779780Y3081020D02*
X2787780D01*
X2806990Y2995320D02*
X2809240D01*
X2796540Y2952750D02*
Y2984870D01*
X2806990Y2995320D01*
X2792776Y2939430D02*
X2860660D01*
Y2984540D01*
X2784757Y2958051D02*
Y2962259D01*
X2691405Y3055611D02*
X2784757Y2962259D01*
X2784460Y2957754D02*
X2784757Y2958051D01*
X2784460Y2947746D02*
X2792776Y2939430D01*
X2784460Y2947746D02*
Y2957754D01*
X2969260Y3109885D02*
X2988480Y3129104D01*
X2992120Y3116580D02*
X3026540D01*
X2981960Y3106420D02*
X2992120Y3116580D01*
X2988480Y3129104D02*
X3026364D01*
X2969260Y3084780D02*
Y3109885D01*
X3100970Y3065780D02*
X3114330Y3052420D01*
X3074540Y3065780D02*
X3100970D01*
X3114330Y3052420D02*
X3116580D01*
X3034840Y3104181D02*
X3045869Y3115209D01*
Y3122069D01*
X3046340Y3122540D01*
X2815590Y3073400D02*
X2817652D01*
X2821655Y3077403D02*
X2823914D01*
X2817652Y3073400D02*
X2821655Y3077403D01*
X2823914D02*
X2827531Y3081020D01*
X643110Y3111500D02*
X644568Y3112958D01*
Y3117958D01*
X663299Y3128690D02*
X663600Y3128990D01*
X655300Y3128690D02*
X663299D01*
X644568Y3117958D02*
X655300Y3128690D01*
X631680Y3106286D02*
Y3146310D01*
X639300Y3069420D02*
Y3098666D01*
X631680Y3106286D02*
X639300Y3098666D01*
X3057769Y3109371D02*
Y3127274D01*
X3051074Y3133970D02*
X3057769Y3127274D01*
X3034789Y3129280D02*
X3039478Y3133970D01*
X3026841Y3104181D02*
X3034840D01*
X3026540Y3103880D02*
X3026841Y3104181D01*
X3039478Y3133970D02*
X3051074D01*
X3026540Y3129280D02*
X3034789D01*
X3074240Y3103579D02*
X3074540Y3103880D01*
X3066240Y3103579D02*
X3074240D01*
X3054378Y3060992D02*
Y3066154D01*
X3066704Y3078480D01*
X3074540D01*
X451849Y3106130D02*
X471220D01*
X424616Y3105755D02*
X446451D01*
X446826Y3106130D01*
X451849D01*
X471220D02*
X471920Y3105430D01*
X2860660Y2939430D02*
X2872740Y2927350D01*
X2870326D02*
X2872740D01*
X1388110Y3171190D02*
X1428906Y3211986D01*
X607351Y3090714D02*
X615424D01*
X1397000Y3210560D02*
X1417320Y3230880D01*
X1241860Y3126540D02*
X1391920Y3276600D01*
Y3312160D01*
X840940Y3126540D02*
X1241860D01*
X837784Y3118920D02*
X1269800D01*
X1404620Y3253740D02*
Y3312160D01*
X1269800Y3118920D02*
X1404620Y3253740D01*
X1428906Y3211986D02*
Y3311046D01*
X870404Y3103680D02*
X1320600D01*
X1388110Y3171190D01*
X1595120Y3213100D02*
X1661160Y3147060D01*
X2670464D01*
X1595120Y3213100D02*
Y3274060D01*
X1221740Y3152488D02*
X1377050Y3307798D01*
X1221740Y3140710D02*
Y3152488D01*
X1377050Y3307798D02*
Y3308415D01*
X1379220Y3310585D01*
Y3312160D01*
X1297740Y3111300D02*
X1397000Y3210560D01*
X728780Y3111300D02*
X1297740D01*
X1417320Y3230880D02*
Y3312160D01*
X1214954Y3134160D02*
X1221504Y3140710D01*
X2971510Y3065780D02*
X2997840Y3039450D01*
X2971510Y3065780D02*
X2984210Y3078480D01*
X2990039Y3012710D02*
X3115504D01*
X2935463Y3067286D02*
X2990039Y3012710D01*
X2984210Y3078480D02*
X3026540D01*
X2943083Y3070443D02*
Y3088687D01*
X2993196Y3020330D02*
X3009220D01*
X2997840Y3035320D02*
Y3039450D01*
Y3035320D02*
X3000400Y3032760D01*
X2943083Y3070443D02*
X2993196Y3020330D01*
X2935463Y3067286D02*
Y3085531D01*
X3009220Y3020330D02*
X3019400Y3030510D01*
X3115504Y3012710D02*
X3129010Y3026216D01*
X3019400Y3030510D02*
Y3065355D01*
X3092400Y3165130D02*
Y3169630D01*
X3074540Y3091180D02*
X3141980D01*
X2665294Y3134360D02*
X2667000D01*
X2545080Y3139440D02*
X2660214D01*
X2665294Y3134360D01*
X2691405Y3055611D02*
Y3126119D01*
X2670464Y3147060D02*
X2691405Y3126119D01*
X1656696Y3139440D02*
X2545080D01*
X2557780Y3126740D01*
X1161258Y3149600D02*
X1163320D01*
X1153438Y3141780D02*
X1161258Y3149600D01*
X851716Y3141780D02*
X1153438D01*
X2395220Y3268980D02*
X2655570D01*
X2352040Y3312160D02*
X2395220Y3268980D01*
X2655570D02*
X2745740Y3359150D01*
X2384756Y3261360D02*
X2673350D01*
X2381599Y3253740D02*
X2691130D01*
X2327754Y3307586D02*
X2381599Y3253740D01*
X2691130D02*
X2796540Y3359150D01*
X2340454Y3305662D02*
X2384756Y3261360D01*
X2316110Y3307798D02*
X2377788Y3246120D01*
X2290710Y3307798D02*
X2367628Y3230880D01*
X2372708Y3238500D02*
X2726690D01*
X2708910Y3246120D02*
X2821940Y3359150D01*
X2367628Y3230880D02*
X2744470D01*
X2303410Y3307798D02*
X2372708Y3238500D01*
X2377788Y3246120D02*
X2708910D01*
X2726690Y3238500D02*
X2847340Y3359150D01*
X2673350Y3261360D02*
X2771140Y3359150D01*
X2744470Y3230880D02*
X2872740Y3359150D01*
X2199640Y3230880D02*
X2274726Y3305966D01*
X2006600Y3230880D02*
X2199640D01*
X1854200Y3383280D02*
X2006600Y3230880D01*
X2191672Y3238500D02*
X2260970Y3307798D01*
X1857356Y3390900D02*
X2009756Y3238500D01*
X2191672D01*
X2186592Y3246120D02*
X2234852Y3294380D01*
X1860513Y3398520D02*
X2012913Y3246120D01*
X2186592D01*
X1863669Y3406140D02*
X2016069Y3253740D01*
X2181512D02*
X2236626Y3308855D01*
X2016069Y3253740D02*
X2181512D01*
X2176432Y3261360D02*
X2222870Y3307798D01*
X1866900Y3413760D02*
X2019300Y3261360D01*
X2176432D01*
X1871980Y3421380D02*
X2024380Y3268980D01*
X2171351D01*
X2211226Y3308855D01*
X2029090Y3304642D02*
X2039722Y3294010D01*
X2056682D02*
X2070470Y3307798D01*
X2036710D02*
X2042878Y3301630D01*
X2034540Y3284220D02*
X2110392D01*
X2051602Y3301630D02*
X2057770Y3307798D01*
X2029460Y3276600D02*
X2115471D01*
X1986280Y3319780D02*
X2029460Y3276600D01*
X2115471D02*
X2146670Y3307798D01*
X2110392Y3284220D02*
X2133970Y3307798D01*
X2042878Y3301630D02*
X2051602D01*
X2069832Y3408680D02*
X2916494D01*
X2070448Y3362960D02*
X2509520D01*
X2039722Y3294010D02*
X2056682D01*
X1993900Y3324860D02*
X2034540Y3284220D01*
X2898140Y3359150D02*
X2900473D01*
X3080000Y3142405D02*
Y3152730D01*
X3074540Y3141980D02*
X3079575D01*
X3080000Y3142405D01*
Y3152730D02*
X3092400Y3165130D01*
X3053052Y3142768D02*
Y3149258D01*
Y3142768D02*
X3066540Y3129280D01*
X3037180Y3165130D02*
Y3167380D01*
Y3165130D02*
X3053052Y3149258D01*
X3066540Y3129280D02*
X3074540D01*
X3037180Y3167380D02*
X3073400D01*
X3018180Y3165130D02*
Y3167380D01*
X3026540Y3141980D02*
Y3156770D01*
X3018180Y3165130D02*
X3026540Y3156770D01*
X1544320Y3215640D02*
X1651900Y3108060D01*
X1569720Y3215640D02*
X1654674Y3130686D01*
X1557020Y3215640D02*
X1656980Y3115680D01*
X1569720Y3215640D02*
Y3312160D01*
X1654674Y3130686D02*
X2501900D01*
X1656980Y3115680D02*
X2264040D01*
X1651900Y3108060D02*
X2002420D01*
X2049000Y3061480D01*
X1544320Y3215640D02*
Y3312160D01*
X1581150Y3214986D02*
X1656696Y3139440D01*
X1557020Y3215640D02*
Y3312160D01*
X1531620Y3217564D02*
X1652924Y3096260D01*
X1800860D01*
X2264040Y3115680D02*
X2318240Y3061480D01*
X1581150Y3214986D02*
Y3283298D01*
X1531620Y3217564D02*
Y3312160D01*
X3116580Y3052420D02*
X3118830D01*
X3129010Y3026216D02*
Y3042240D01*
X3118830Y3052420D02*
X3129010Y3042240D01*
X2501900Y3130686D02*
X2534353Y3098233D01*
X1581150Y3283298D02*
X1605650Y3307798D01*
Y3312160D02*
X1607820D01*
X1605650Y3307798D02*
Y3312160D01*
X2852130Y2995320D02*
X2854690Y2992760D01*
X2849880Y2995320D02*
X2852130D01*
X2854690Y2990510D02*
Y2992760D01*
Y2990510D02*
X2860660Y2984540D01*
X2835780Y3106420D02*
X2871150D01*
X2876942Y3071738D02*
X2877820Y3070860D01*
X2871150Y3106420D02*
X2875570Y3102000D01*
X2877820Y3070860D02*
Y3102000D01*
X2875570D02*
X2877820D01*
X2835780Y3068320D02*
X2860040D01*
X2852130Y2995320D02*
X2882900D01*
X2827780Y3068320D02*
X2835780D01*
X2819700Y3060240D02*
X2827780Y3068320D01*
X2819700Y3029530D02*
Y3060240D01*
Y3029530D02*
X2834910Y3014320D01*
X2849880D01*
X2804160Y3037982D02*
X2809240Y3032902D01*
Y3014320D02*
Y3032902D01*
X2849880Y3014320D02*
X2882900D01*
X2844029Y3055620D02*
X2847789Y3051860D01*
X2877820D01*
X2835780Y3055620D02*
X2844029D01*
X2876116Y3119296D02*
X2877820Y3121000D01*
X2835355Y3042495D02*
X2835780Y3042920D01*
X2828478Y3042495D02*
X2835355D01*
X2835780Y3042920D02*
Y3055620D01*
X2827531Y3081020D02*
X2835780D01*
X3054378Y3060992D02*
X3080360Y3035010D01*
X456373Y3229610D02*
X763886D01*
X2997200Y3091180D02*
X3026540D01*
X2969260Y3065780D02*
X2971510D01*
X3019400Y3065355D02*
X3019825Y3065780D01*
X3026540D01*
X3080360Y3032760D02*
Y3035010D01*
X3061360Y3032760D02*
Y3035010D01*
X3080690Y3033090D02*
X3116250D01*
X3080360Y3032760D02*
X3080690Y3033090D01*
X3116250D02*
X3116580Y3033420D01*
X3074540Y3116580D02*
X3106420D01*
X3073400Y3167380D02*
X3074340Y3166440D01*
X3026540Y3129280D02*
Y3141980D01*
X3026364Y3129104D02*
X3026540Y3129280D01*
X692648Y3123910D02*
X730340D01*
X731520Y3122730D01*
X685028Y3116290D02*
X692648Y3123910D01*
X663600Y3116290D02*
X685028D01*
X2248270Y3307798D02*
Y3308415D01*
X2250440Y3310585D01*
Y3312160D01*
X2236626Y3308855D02*
Y3311046D01*
X2234852Y3294380D02*
X2234852D01*
X2248270Y3307798D01*
X2211226Y3311046D02*
X2212340Y3312160D01*
X2211226Y3308855D02*
Y3311046D01*
X2274726D02*
X2275840Y3312160D01*
X2274726Y3305966D02*
Y3311046D01*
X1428906D02*
X1430020Y3312160D01*
X809914Y3043190D02*
X870404Y3103680D01*
X551450Y3064316D02*
Y3080340D01*
Y3064316D02*
X572576Y3043190D01*
X809914D01*
X551450Y3080340D02*
X561630Y3090520D01*
X563880D01*
X873560Y3096060D02*
X1267636D01*
X730250Y2952750D02*
X873560Y3096060D01*
X1267636D02*
X1285876Y3077820D01*
X551180Y2952750D02*
X730250D01*
X677520Y3060700D02*
X694930D01*
X647520Y3087543D02*
Y3095510D01*
X677520Y3055620D02*
Y3057870D01*
X661403Y3073987D02*
X677520Y3057870D01*
X661077Y3073987D02*
X661403D01*
X647520Y3087543D02*
X661077Y3073987D01*
X762000Y3205480D02*
X840940Y3126540D01*
X764540Y3218180D02*
X848560Y3134160D01*
X1221504Y3140710D02*
X1221740D01*
X769004Y3187700D02*
X837784Y3118920D01*
X708660Y3091180D02*
X728780Y3111300D01*
X763886Y3229610D02*
X851716Y3141780D01*
X848560Y3134160D02*
X1214954D01*
X671849Y3091035D02*
X708515D01*
X708660Y3091180D01*
X592480Y3053370D02*
Y3055620D01*
X663600Y3090890D02*
X671849D01*
X706410Y3072180D02*
X708660D01*
X694930Y3060700D02*
X706410Y3072180D01*
X687020Y3187700D02*
X769004D01*
X642620Y3218180D02*
X764540D01*
X623646Y3205480D02*
X762000D01*
X589676Y3171510D02*
X623646Y3205480D01*
X473100Y3171510D02*
X589676D01*
X644500Y3162960D02*
Y3187700D01*
X663424Y3154566D02*
X663600Y3154390D01*
X652894Y3154566D02*
X663424D01*
X644500Y3162960D02*
X652894Y3154566D01*
X649277Y3059443D02*
X655960D01*
X658520Y3056883D01*
Y3055620D02*
Y3056883D01*
X639300Y3069420D02*
X649277Y3059443D01*
X566130Y3071520D02*
X579490Y3058160D01*
X590600D01*
X563880Y3071520D02*
X566130D01*
X517520Y3154680D02*
X594610D01*
X607299Y3141990D01*
X471220Y3108380D02*
X517520Y3154680D01*
X615424Y3090714D02*
X615600Y3090890D01*
X564074Y3090714D02*
X607351D01*
X563880Y3090520D02*
X564074Y3090714D01*
X590600Y3058530D02*
X607327Y3075257D01*
X619393D01*
X671600Y3167090D02*
X684460Y3179950D01*
Y3185140D01*
X687020Y3187700D01*
X663600Y3167090D02*
X671600D01*
X591632Y3128990D02*
X615600D01*
X583722Y3136900D02*
X591632Y3128990D01*
X607299Y3141990D02*
X615299D01*
X615600Y3141690D01*
X628040Y3058160D02*
X639300Y3069420D01*
X615600Y3103590D02*
X623600D01*
X631680Y3087543D02*
Y3095510D01*
X619393Y3075257D02*
X631680Y3087543D01*
X623600Y3103590D02*
X631680Y3095510D01*
X647520D02*
X655600Y3103590D01*
X663600D02*
X663627Y3103564D01*
X623600Y3154390D02*
X631680Y3146310D01*
X607351Y3090890D02*
X615600D01*
X609600Y3058160D02*
X628040D01*
X615600Y3154390D02*
X623600D01*
X615600D02*
Y3167090D01*
X655600Y3103590D02*
X663600D01*
X644500Y3187700D02*
X663600D01*
X625500Y3185450D02*
Y3187700D01*
X615600Y3167090D02*
Y3177710D01*
X620780Y3182890D01*
X622940D01*
X625500Y3185450D01*
X380075Y3153311D02*
X456373Y3229610D01*
X591115Y3109498D02*
X600559D01*
X589657Y3108040D02*
X591115Y3109498D01*
X607351Y3103590D02*
X615600D01*
X600559Y3109498D02*
X607351Y3116290D01*
X437500Y2939430D02*
Y2984492D01*
Y2939430D02*
X449580Y2927350D01*
X488820Y3035812D02*
Y3083270D01*
X437500Y2984492D02*
X488820Y3035812D01*
X489520Y3083970D02*
Y3105430D01*
X490220Y3106130D01*
X488820Y3083270D02*
X489520Y3083970D01*
X358140Y2967990D02*
Y3030880D01*
Y2967990D02*
X373380Y2952750D01*
X358140Y3060700D02*
X383245Y3085805D01*
Y3119655D01*
X358140Y3048141D02*
Y3060700D01*
X397660Y3134070D02*
X405660D01*
X383245Y3119655D02*
X397660Y3134070D01*
X382458Y3068068D02*
X397360Y3082969D01*
X403270D01*
X403570Y3083270D02*
X405235D01*
X405660Y3083695D02*
Y3095970D01*
X382458Y3062158D02*
Y3068068D01*
X405235Y3083270D02*
X405660Y3083695D01*
X381000Y3060700D02*
X382458Y3062158D01*
X403270Y3082969D02*
X403570Y3083270D01*
X405660D02*
Y3095970D01*
X380075Y3135785D02*
Y3153311D01*
X365660Y3121370D02*
X380075Y3135785D01*
X357660Y3121370D02*
X365660D01*
X327842D02*
X357660D01*
X323240Y3118830D02*
X325302D01*
X327842Y3121370D01*
X472160Y3153450D02*
X473100Y3152510D01*
X447161Y3154929D02*
X448640Y3153450D01*
X431114Y3154929D02*
X447161D01*
X448640Y3153450D02*
X472160D01*
X422955Y3146770D02*
X431114Y3154929D01*
X405660Y3146770D02*
X422955D01*
X433593Y3171510D02*
X473100D01*
X421553Y3159470D02*
X433593Y3171510D01*
X405660Y3159470D02*
X421553D01*
X405660Y3134070D02*
X450240D01*
X471920Y3083970D02*
Y3105430D01*
Y3083970D02*
X472620Y3083270D01*
X405836Y3108494D02*
X421877D01*
X424616Y3105755D01*
X405660Y3108670D02*
X405836Y3108494D01*
X405660Y3121370D02*
X405836Y3121194D01*
X423279D01*
X691949Y3139796D02*
X694011D01*
X690055Y3141690D02*
X691949Y3139796D01*
X663600Y3141690D02*
X690055D01*
X607351Y3116290D02*
X615600D01*
X1285876Y3077820D02*
X1343924D01*
X2541973Y3090613D02*
X2571106Y3061480D01*
X2534353Y3098233D02*
X2541973Y3090613D01*
X2571106Y3061480D02*
X2633980D01*
X2935620Y3379546D02*
Y3389554D01*
X2927304Y3371230D02*
X2935620Y3379546D01*
X2910220Y3371230D02*
X2927304D01*
X2916494Y3408680D02*
X2935620Y3389554D01*
X2898140Y3359150D02*
X2910220Y3371230D01*
X440690Y3317240D02*
X583509D01*
X398780Y3359150D02*
X440690Y3317240D01*
X347980Y3359150D02*
X350313D01*
X353559Y3355903D02*
X355037D01*
X408940Y3302000D02*
X589822D01*
X350313Y3359150D02*
X353559Y3355903D01*
X355037D02*
X408940Y3302000D01*
X2318240Y3061480D02*
X2367280D01*
X1782300D02*
X1833880D01*
X1766570Y3077210D02*
X1782300Y3061480D01*
X1620520Y3083560D02*
X1758723D01*
X1765073Y3077210D02*
X1766570D01*
X1758723Y3083560D02*
X1765073Y3077210D01*
X1518920Y3081020D02*
X1538460Y3061480D01*
X1567180D01*
X1493520Y3106420D02*
X1518920Y3081020D01*
X1506220Y3197860D02*
X1620520Y3083560D01*
X2049000Y3061480D02*
X2098040D01*
X1800860Y3096260D02*
X1823060Y3074060D01*
X1934820D02*
X2024380Y2984500D01*
X1823060Y3074060D02*
X1934820D01*
X1506220Y3197860D02*
Y3312160D01*
X1357285Y3091180D02*
X1435100D01*
X1343924Y3077820D02*
X1357285Y3091180D01*
X1435100D02*
X1468120Y3124200D01*
X2509520Y3362960D02*
X2527300D01*
X2565400Y3401060D01*
X1935480Y3436620D02*
X1955800Y3416300D01*
X550202Y3436620D02*
X1935480D01*
X1955800Y3413760D02*
Y3416300D01*
Y3413760D02*
X1958340D01*
X1993900Y3324860D02*
Y3378200D01*
X1958340Y3413760D02*
X1993900Y3378200D01*
X2036710Y3329221D02*
X2070448Y3362960D01*
X1986280Y3319780D02*
Y3335020D01*
X1955800Y3365500D02*
X1986280Y3335020D01*
X2036710Y3307798D02*
Y3329221D01*
X1892300Y3429000D02*
X1955800Y3365500D01*
X666096Y3421380D02*
X1871980D01*
X2029090Y3367938D02*
X2069832Y3408680D01*
X2565400Y3401060D02*
X2907030D01*
X2923540Y3384550D01*
X662940Y3429000D02*
X1892300D01*
X2029090Y3304642D02*
Y3367938D01*
X675565Y3398520D02*
X1860513D01*
X678721Y3390900D02*
X1857356D01*
X669253Y3413760D02*
X1866900D01*
X681878Y3383280D02*
X1854200D01*
X672409Y3406140D02*
X1863669D01*
X2057770Y3307798D02*
Y3308415D01*
X2059940Y3310585D01*
X1442720Y3121660D02*
X1455420Y3134360D01*
Y3312160D01*
X1300480Y3056400D02*
X1413020D01*
X1480820Y3124200D02*
Y3312160D01*
X1413020Y3056400D02*
X1480820Y3124200D01*
X1468120D02*
Y3312160D01*
X1493520Y3106420D02*
Y3312160D01*
X1607820Y3324860D02*
Y3347720D01*
X1531620Y3324860D02*
Y3350260D01*
X1455420Y3324860D02*
Y3347720D01*
X1379220Y3324860D02*
Y3355340D01*
X2236626Y3311046D02*
X2237740Y3312160D01*
X2133970Y3307798D02*
Y3308415D01*
X494030Y3340100D02*
X574040D01*
X449580Y3359150D02*
X476250Y3332480D01*
X574040Y3340100D02*
X662940Y3429000D01*
X424180Y3359150D02*
X458470Y3324860D01*
X474980Y3359150D02*
X494030Y3340100D01*
X577196Y3332480D02*
X666096Y3421380D01*
X476250Y3332480D02*
X577196D01*
X580353Y3324860D02*
X669253Y3413760D01*
X589822Y3302000D02*
X678721Y3390900D01*
X387350Y3294380D02*
X592978D01*
X422910Y3309620D02*
X586665D01*
X675565Y3398520D01*
X592978Y3294380D02*
X681878Y3383280D01*
X458470Y3324860D02*
X580353D01*
X322580Y3359150D02*
X387350Y3294380D01*
X583509Y3317240D02*
X672409Y3406140D01*
X373380Y3359150D02*
X422910Y3309620D01*
X500380Y3386798D02*
X550202Y3436620D01*
X2146670Y3307798D02*
Y3308415D01*
X2148840Y3310585D01*
Y3312160D01*
X500380Y3384550D02*
Y3386798D01*
X2133970Y3308415D02*
X2136140Y3310585D01*
Y3312160D01*
X2070470Y3307798D02*
Y3308415D01*
X2072640Y3310585D01*
Y3312160D01*
X2059940Y3310585D02*
Y3312160D01*
X2222870Y3308415D02*
X2225040Y3310585D01*
X2222870Y3307798D02*
Y3308415D01*
X2225040Y3310585D02*
Y3312160D01*
X2260970Y3308415D02*
X2263140Y3310585D01*
X2260970Y3307798D02*
Y3308415D01*
X2263140Y3310585D02*
Y3312160D01*
X2288540Y3310585D02*
X2290710Y3308415D01*
X2288540Y3310585D02*
Y3312160D01*
X2290710Y3307798D02*
Y3308415D01*
X2301240Y3310585D02*
X2303410Y3308415D01*
Y3307798D02*
Y3308415D01*
X2301240Y3310585D02*
Y3312160D01*
X2313940Y3310585D02*
X2316110Y3308415D01*
X2313940Y3310585D02*
Y3312160D01*
X2316110Y3307798D02*
Y3308415D01*
X2327754Y3307586D02*
Y3311046D01*
X2326640Y3312160D02*
X2327754Y3311046D01*
X2339340Y3312160D02*
X2340454Y3311046D01*
Y3305662D02*
Y3311046D01*
X2633980Y2984500D02*
Y3061480D01*
X2367280Y2984500D02*
Y3061480D01*
X2100580Y2984500D02*
Y3058940D01*
X1833880Y2984500D02*
Y3061480D01*
D45*
X409880Y2002144D02*
Y2387600D01*
X359880Y2112144D02*
Y2387600D01*
X308790Y2220956D02*
X309880Y2222046D01*
Y2387600D01*
X3359480Y2000956D02*
Y2387600D01*
X3409480Y2110956D02*
Y2387600D01*
X3359480Y2000956D02*
X3459480Y1900956D01*
X2875904Y2060956D02*
X3248480D01*
X2872740Y2064120D02*
X2875904Y2060956D01*
X3092620Y1745096D02*
X3248480Y1900956D01*
X2872740Y1745096D02*
X3092620D01*
X2872740Y2380096D02*
X3089340D01*
X3248480Y2220956D01*
X2179660Y2588260D02*
X2179660D01*
X2182824Y2585096D01*
X2872740D01*
X1568756D02*
X1571920Y2588260D01*
X1571920D01*
X892990Y2585096D02*
X1568756D01*
X1571920Y2350610D02*
Y2588260D01*
X2772780Y2269120D02*
X2872740D01*
X2618740Y2423160D02*
X2772780Y2269120D01*
X2548564Y1950096D02*
X2872740D01*
X2509840Y1988820D02*
X2548564Y1950096D01*
X3409480Y2110956D02*
X3459480Y2060956D01*
Y2220956D02*
Y2387600D01*
X519790Y2221054D02*
X678930Y2380194D01*
X892990D01*
X523070Y2064334D02*
X892990D01*
X519790Y2061054D02*
X523070Y2064334D01*
X519790Y1880114D02*
Y1901054D01*
Y1880114D02*
X654710Y1745194D01*
X308790Y1901054D02*
X409880Y2002144D01*
X308790Y2061054D02*
X359880Y2112144D01*
X2346640Y1803080D02*
Y1988820D01*
X2270760Y1727200D02*
X2346640Y1803080D01*
X2220760Y1727200D02*
Y1840700D01*
X2133280Y1928180D02*
X2220760Y1840700D01*
X2070100Y1727200D02*
X2170760D01*
X1919920Y1877380D02*
X2070100Y1727200D01*
X1467800Y1988820D02*
Y2398080D01*
X1440180Y2425700D02*
X1467800Y2398080D01*
X1223008Y2425700D02*
X1437300D01*
X2509840Y1988820D02*
Y2263120D01*
X2509860Y2263140D01*
X2179660Y2375240D02*
Y2588260D01*
X2083120Y2278700D02*
X2179660Y2375240D01*
X2083120Y1991360D02*
Y2278700D01*
X2296480Y1991360D02*
Y2357100D01*
X2362540Y2423160D01*
X2618740D01*
X1571920Y2350610D02*
X1683700Y2238830D01*
Y1988820D02*
Y2238830D01*
X1066642Y2269334D02*
X1223008Y2425700D01*
X892990Y2269334D02*
X1066642D01*
X1547660Y1724660D02*
Y1801660D01*
X1631000Y1885000D02*
Y1988820D01*
X1547660Y1801660D02*
X1631000Y1885000D01*
X1701800Y1724660D02*
X1846900Y1869760D01*
Y1988820D01*
X1597660Y1724660D02*
X1701800D01*
X1417640Y1804680D02*
X1497660Y1724660D01*
X1417640Y1804680D02*
Y1988820D01*
X1254440D02*
X1262040Y1996420D01*
Y2263140D01*
X892990Y1950194D02*
X1215814D01*
X1254440Y1988820D01*
X654710Y1745194D02*
X892990D01*
X2133280Y1928180D02*
Y1988820D01*
X1919920Y1877380D02*
Y1988820D01*
D46*
X2608580Y3114040D02*
X2610420D01*
X2628980Y3095480D02*
X2633980D01*
X2610420Y3114040D02*
X2628980Y3095480D01*
X2481580Y2712240D02*
Y2781300D01*
Y2628900D02*
Y2652240D01*
X2214880Y2778783D02*
X2232660Y2761003D01*
X2214880Y2778783D02*
Y2781300D01*
X2232660Y2714780D02*
Y2761003D01*
Y2654780D02*
X2235200Y2652240D01*
Y2623820D02*
Y2652240D01*
X1414780Y2623820D02*
Y2657320D01*
X1148080Y2627720D02*
Y2657320D01*
X2009140Y2700020D02*
X2067900D01*
X1948660Y2700500D02*
Y2780820D01*
Y2700500D02*
X1949140Y2700020D01*
X1948180Y2781300D02*
X1948660Y2780820D01*
X1571920Y2638400D02*
X1621000Y2687480D01*
X1571920Y2588260D02*
Y2638400D01*
X1621000Y2687480D02*
Y2697480D01*
X1681240Y2781060D02*
X1681480Y2781300D01*
X1681240Y2697720D02*
Y2781060D01*
X1681000Y2697480D02*
X1681240Y2697720D01*
X1414780Y2722400D02*
Y2781300D01*
X1148080Y2718500D02*
Y2781300D01*
X1247140Y3078480D02*
X1269220Y3056400D01*
X1300480D01*
X1877840Y3095480D02*
X1879600Y3093720D01*
X1833880Y3095480D02*
X1877840D01*
X2024380Y2948940D02*
Y2984500D01*
X2326484Y3095686D02*
X2326690Y3095480D01*
X2367280D01*
X2059940Y3096260D02*
X2060720Y3095480D01*
X2098040D01*
X1539240Y3119120D02*
X1543540D01*
X1567180Y3095480D01*
Y2984500D02*
Y3061480D01*
X1300480Y2984500D02*
Y3056400D01*
X1340340Y3090400D02*
X1341120Y3091180D01*
X1300480Y3090400D02*
X1340340D01*
X2557780Y2948940D02*
Y2984500D01*
Y2948940D02*
X2560320Y2946400D01*
X2291080Y2936240D02*
Y2984500D01*
Y2936240D02*
X2293620Y2933700D01*
X1757680Y2938780D02*
Y2984500D01*
X1490980Y2943860D02*
Y2984500D01*
Y2943860D02*
X1496060Y2938780D01*
X1224280Y2948940D02*
Y2984500D01*
X1221740Y2946400D02*
X1224280Y2948940D01*
X2214880Y2984500D02*
X2214990Y2984390D01*
X2067900Y2700020D02*
X2179660Y2588260D01*
D47*
X1722120Y3228340D02*
D03*
X1795780D02*
D03*
Y3187700D02*
D03*
X1724660D02*
D03*
X2440940Y3362960D02*
D03*
Y3411220D02*
D03*
X1955800Y3413760D02*
D03*
Y3365500D02*
D03*
X1315720Y3208020D02*
D03*
X1313180Y3164840D02*
D03*
X1389380Y3208020D02*
D03*
Y3167380D02*
D03*
X1247140Y3078480D02*
D03*
X1518920Y3081020D02*
D03*
X1767840Y3078480D02*
D03*
X2019300Y3091180D02*
D03*
X2286000Y3093720D02*
D03*
X2537460Y3098800D02*
D03*
X3359480Y2387600D02*
D03*
X3409480D02*
D03*
X2270760Y1727200D02*
D03*
X2220760D02*
D03*
X309880Y2387600D02*
D03*
X359880D02*
D03*
X1597660Y1724660D02*
D03*
X1547660D02*
D03*
X1537040Y2263140D02*
D03*
X1262040D02*
D03*
X1712300Y2423160D02*
D03*
X1437300D02*
D03*
X1846920Y2588260D02*
D03*
X1571920D02*
D03*
X1904660D02*
D03*
X2179660D02*
D03*
X2087540Y2423160D02*
D03*
X2362540D02*
D03*
X2234860Y2263140D02*
D03*
X2509860D02*
D03*
D48*
X2100580Y2781300D02*
D03*
Y2984500D02*
D03*
X2024380D02*
D03*
X1948180D02*
D03*
Y2781300D02*
D03*
X2367280D02*
D03*
Y2984500D02*
D03*
X2291080D02*
D03*
X2214880D02*
D03*
Y2781300D02*
D03*
X2633980D02*
D03*
Y2984500D02*
D03*
X2557780D02*
D03*
X2481580D02*
D03*
Y2781300D02*
D03*
X1300480D02*
D03*
Y2984500D02*
D03*
X1224280D02*
D03*
X1148080D02*
D03*
Y2781300D02*
D03*
X1567180D02*
D03*
Y2984500D02*
D03*
X1490980D02*
D03*
X1414780D02*
D03*
Y2781300D02*
D03*
X1833880D02*
D03*
Y2984500D02*
D03*
X1757680D02*
D03*
X1681480D02*
D03*
Y2781300D02*
D03*
D49*
X1135380Y3345180D02*
D03*
D50*
X1919920Y1988820D02*
D03*
X2083120D02*
D03*
X2133280D02*
D03*
X2296480D02*
D03*
X2346640D02*
D03*
X2509840D02*
D03*
X1417640D02*
D03*
X1254440D02*
D03*
X1631000D02*
D03*
X1467800D02*
D03*
X1846900D02*
D03*
X1683700D02*
D03*
X3459480Y1900956D02*
D03*
X3248480D02*
D03*
X3459480Y2220956D02*
D03*
X3248480D02*
D03*
X3459480Y2060956D02*
D03*
X3248480D02*
D03*
X308790Y2220956D02*
D03*
X519790D02*
D03*
X308790Y1900956D02*
D03*
X519790D02*
D03*
X308790Y2060956D02*
D03*
X519790D02*
D03*
D51*
X2872740Y2585096D02*
D03*
Y2380096D02*
D03*
Y2269120D02*
D03*
Y2064120D02*
D03*
Y1950096D02*
D03*
Y1745096D02*
D03*
X892990Y1950096D02*
D03*
Y1745096D02*
D03*
Y2269120D02*
D03*
Y2064120D02*
D03*
Y2585096D02*
D03*
Y2380096D02*
D03*
D52*
X2484120Y1744980D02*
D03*
X330200Y2677160D02*
D03*
X2578100D02*
D03*
X1280160D02*
D03*
X330200Y3274060D02*
D03*
X3429000D02*
D03*
Y1752600D02*
D03*
X330200Y1755140D02*
D03*
X1280160Y1742440D02*
D03*
D53*
X3423920Y2768600D02*
D03*
D54*
X2974340Y3384550D02*
D03*
Y3359150D02*
D03*
X2948940Y3384550D02*
D03*
Y3359150D02*
D03*
X2923540Y3384550D02*
D03*
Y3359150D02*
D03*
X2898140Y3384550D02*
D03*
Y3359150D02*
D03*
X2872740Y3384550D02*
D03*
Y3359150D02*
D03*
X2847340Y3384550D02*
D03*
Y3359150D02*
D03*
X2821940Y3384550D02*
D03*
Y3359150D02*
D03*
X2796540Y3384550D02*
D03*
Y3359150D02*
D03*
X2771140Y3384550D02*
D03*
Y3359150D02*
D03*
X2745740Y3384550D02*
D03*
X2974340Y2952750D02*
D03*
Y2927350D02*
D03*
X2948940Y2952750D02*
D03*
Y2927350D02*
D03*
X2923540Y2952750D02*
D03*
Y2927350D02*
D03*
X2898140Y2952750D02*
D03*
Y2927350D02*
D03*
X2872740Y2952750D02*
D03*
Y2927350D02*
D03*
X2847340Y2952750D02*
D03*
Y2927350D02*
D03*
X2821940Y2952750D02*
D03*
Y2927350D02*
D03*
X2796540Y2952750D02*
D03*
Y2927350D02*
D03*
X2771140Y2952750D02*
D03*
Y2927350D02*
D03*
X2745740Y2952750D02*
D03*
X551180Y3384550D02*
D03*
Y3359150D02*
D03*
X525780Y3384550D02*
D03*
Y3359150D02*
D03*
X500380Y3384550D02*
D03*
Y3359150D02*
D03*
X474980Y3384550D02*
D03*
Y3359150D02*
D03*
X449580Y3384550D02*
D03*
Y3359150D02*
D03*
X424180Y3384550D02*
D03*
Y3359150D02*
D03*
X398780Y3384550D02*
D03*
Y3359150D02*
D03*
X373380Y3384550D02*
D03*
Y3359150D02*
D03*
X347980Y3384550D02*
D03*
Y3359150D02*
D03*
X322580Y3384550D02*
D03*
X551180Y2952750D02*
D03*
Y2927350D02*
D03*
X525780Y2952750D02*
D03*
Y2927350D02*
D03*
X500380Y2952750D02*
D03*
Y2927350D02*
D03*
X474980Y2952750D02*
D03*
Y2927350D02*
D03*
X449580Y2952750D02*
D03*
Y2927350D02*
D03*
X424180Y2952750D02*
D03*
Y2927350D02*
D03*
X398780Y2952750D02*
D03*
Y2927350D02*
D03*
X373380Y2952750D02*
D03*
Y2927350D02*
D03*
X347980Y2952750D02*
D03*
Y2927350D02*
D03*
X322580Y2952750D02*
D03*
X3164840Y2776220D02*
D03*
X3241040D02*
D03*
D55*
X2745740Y3359150D02*
D03*
Y2927350D02*
D03*
X322580Y3359150D02*
D03*
Y2927350D02*
D03*
D56*
X3459480Y2387600D02*
D03*
X2170760Y1727200D02*
D03*
X409880Y2387600D02*
D03*
X1497660Y1724660D02*
D03*
D57*
X2047240Y3324860D02*
D03*
Y3312160D02*
D03*
X2059940Y3324860D02*
D03*
Y3312160D02*
D03*
X2072640Y3324860D02*
D03*
Y3312160D02*
D03*
X2085340Y3324860D02*
D03*
Y3312160D02*
D03*
X2098040Y3324860D02*
D03*
Y3312160D02*
D03*
X2110740Y3324860D02*
D03*
Y3312160D02*
D03*
X2123440Y3324860D02*
D03*
Y3312160D02*
D03*
X2136140Y3324860D02*
D03*
Y3312160D02*
D03*
X2148840Y3324860D02*
D03*
Y3312160D02*
D03*
X2161540Y3324860D02*
D03*
Y3312160D02*
D03*
X2174240Y3324860D02*
D03*
Y3312160D02*
D03*
X2186940Y3324860D02*
D03*
Y3312160D02*
D03*
X2199640Y3324860D02*
D03*
Y3312160D02*
D03*
X2212340Y3324860D02*
D03*
Y3312160D02*
D03*
X2225040Y3324860D02*
D03*
Y3312160D02*
D03*
X2237740Y3324860D02*
D03*
Y3312160D02*
D03*
X2250440Y3324860D02*
D03*
Y3312160D02*
D03*
X2263140Y3324860D02*
D03*
Y3312160D02*
D03*
X2275840Y3324860D02*
D03*
Y3312160D02*
D03*
X2288540Y3324860D02*
D03*
Y3312160D02*
D03*
X2301240Y3324860D02*
D03*
Y3312160D02*
D03*
X2313940Y3324860D02*
D03*
Y3312160D02*
D03*
X2326640Y3324860D02*
D03*
Y3312160D02*
D03*
X2339340Y3324860D02*
D03*
Y3312160D02*
D03*
X2352040Y3324860D02*
D03*
X1366520D02*
D03*
Y3312160D02*
D03*
X1379220Y3324860D02*
D03*
Y3312160D02*
D03*
X1391920Y3324860D02*
D03*
Y3312160D02*
D03*
X1404620Y3324860D02*
D03*
Y3312160D02*
D03*
X1417320Y3324860D02*
D03*
Y3312160D02*
D03*
X1430020Y3324860D02*
D03*
Y3312160D02*
D03*
X1442720Y3324860D02*
D03*
Y3312160D02*
D03*
X1455420Y3324860D02*
D03*
Y3312160D02*
D03*
X1468120Y3324860D02*
D03*
Y3312160D02*
D03*
X1480820Y3324860D02*
D03*
Y3312160D02*
D03*
X1493520Y3324860D02*
D03*
Y3312160D02*
D03*
X1506220Y3324860D02*
D03*
Y3312160D02*
D03*
X1518920Y3324860D02*
D03*
Y3312160D02*
D03*
X1531620Y3324860D02*
D03*
Y3312160D02*
D03*
X1544320Y3324860D02*
D03*
Y3312160D02*
D03*
X1557020Y3324860D02*
D03*
Y3312160D02*
D03*
X1569720Y3324860D02*
D03*
Y3312160D02*
D03*
X1582420Y3324860D02*
D03*
Y3312160D02*
D03*
X1595120Y3324860D02*
D03*
Y3312160D02*
D03*
X1607820Y3324860D02*
D03*
Y3312160D02*
D03*
X1620520Y3324860D02*
D03*
Y3312160D02*
D03*
X1633220Y3324860D02*
D03*
Y3312160D02*
D03*
X1645920Y3324860D02*
D03*
Y3312160D02*
D03*
X1658620Y3324860D02*
D03*
Y3312160D02*
D03*
X1671320Y3324860D02*
D03*
D58*
X2352040Y3312160D02*
D03*
X1671320D02*
D03*
D59*
X3053380Y3086100D02*
D03*
X2815590Y3073400D02*
D03*
X643110Y3111500D02*
D03*
X3046340Y3122540D02*
D03*
D60*
X2753360Y3114040D02*
D03*
X2981960Y3106420D02*
D03*
X451849Y3106130D02*
D03*
X1221740Y3140710D02*
D03*
X2755900Y3167380D02*
D03*
X2971800Y3162300D02*
D03*
X3141980Y3091180D02*
D03*
X2667000Y3134360D02*
D03*
X2608580Y3114040D02*
D03*
X2557780Y3126740D02*
D03*
X2494280Y3205480D02*
D03*
X2466340D02*
D03*
X1135380Y3149600D02*
D03*
X1163320D02*
D03*
X1595120Y3274060D02*
D03*
X2860040Y3093720D02*
D03*
Y3068320D02*
D03*
X2997200Y3091180D02*
D03*
X3106420Y3116580D02*
D03*
X731520Y3122730D02*
D03*
X642620Y3218180D02*
D03*
X2481580Y2628900D02*
D03*
X2235200Y2623820D02*
D03*
X1414780D02*
D03*
X1148080Y2627720D02*
D03*
X578460Y3137190D02*
D03*
X665480Y3230880D02*
D03*
X589657Y3108040D02*
D03*
X381000Y3060700D02*
D03*
X323240Y3118830D02*
D03*
X447700Y3154390D02*
D03*
X450240Y3134070D02*
D03*
X429351Y3117185D02*
D03*
X694011Y3139796D02*
D03*
X1800860Y3096260D02*
D03*
X1879600Y3093720D02*
D03*
X1442720Y3121660D02*
D03*
X2326484Y3095686D02*
D03*
X2059940Y3096260D02*
D03*
X1539240Y3119120D02*
D03*
X1341120Y3091180D02*
D03*
M02*
