G04*
G04 #@! TF.GenerationSoftware,Altium Limited,Altium Designer,22.11.1 (43)*
G04*
G04 Layer_Color=128*
%FSLAX44Y44*%
%MOMM*%
G71*
G04*
G04 #@! TF.SameCoordinates,B38BEB0A-FF2B-4473-85C9-27130B265984*
G04*
G04*
G04 #@! TF.FilePolarity,Positive*
G04*
G01*
G75*
%ADD14C,0.1270*%
D14*
X1715520Y3228340D02*
X1728720D01*
X1722120Y3221740D02*
Y3234940D01*
X1789180Y3228340D02*
X1802380D01*
X1795780Y3221740D02*
Y3234940D01*
X1789180Y3187700D02*
X1802380D01*
X1795780Y3181100D02*
Y3194300D01*
X1718060Y3187700D02*
X1731260D01*
X1724660Y3181100D02*
Y3194300D01*
X2094580Y2781300D02*
X2106580D01*
X2100580Y2775300D02*
Y2787300D01*
X2094580Y2984500D02*
X2106580D01*
X2100580Y2978500D02*
Y2990500D01*
X2018380Y2984500D02*
X2030380D01*
X2024380Y2978500D02*
Y2990500D01*
X1942180Y2984500D02*
X1954180D01*
X1948180Y2978500D02*
Y2990500D01*
X1942180Y2781300D02*
X1954180D01*
X1948180Y2775300D02*
Y2787300D01*
X2361280Y2781300D02*
X2373280D01*
X2367280Y2775300D02*
Y2787300D01*
X2361280Y2984500D02*
X2373280D01*
X2367280Y2978500D02*
Y2990500D01*
X2285080Y2984500D02*
X2297080D01*
X2291080Y2978500D02*
Y2990500D01*
X2208880Y2984500D02*
X2220880D01*
X2214880Y2978500D02*
Y2990500D01*
X2208880Y2781300D02*
X2220880D01*
X2214880Y2775300D02*
Y2787300D01*
X2627980Y2781300D02*
X2639980D01*
X2633980Y2775300D02*
Y2787300D01*
X2627980Y2984500D02*
X2639980D01*
X2633980Y2978500D02*
Y2990500D01*
X2551780Y2984500D02*
X2563780D01*
X2557780Y2978500D02*
Y2990500D01*
X2475580Y2984500D02*
X2487580D01*
X2481580Y2978500D02*
Y2990500D01*
X2475580Y2781300D02*
X2487580D01*
X2481580Y2775300D02*
Y2787300D01*
X1294480Y2781300D02*
X1306480D01*
X1300480Y2775300D02*
Y2787300D01*
X1294480Y2984500D02*
X1306480D01*
X1300480Y2978500D02*
Y2990500D01*
X1218280Y2984500D02*
X1230280D01*
X1224280Y2978500D02*
Y2990500D01*
X1142080Y2984500D02*
X1154080D01*
X1148080Y2978500D02*
Y2990500D01*
X1142080Y2781300D02*
X1154080D01*
X1148080Y2775300D02*
Y2787300D01*
X1561180Y2781300D02*
X1573180D01*
X1567180Y2775300D02*
Y2787300D01*
X1561180Y2984500D02*
X1573180D01*
X1567180Y2978500D02*
Y2990500D01*
X1484980Y2984500D02*
X1496980D01*
X1490980Y2978500D02*
Y2990500D01*
X1408780Y2984500D02*
X1420780D01*
X1414780Y2978500D02*
Y2990500D01*
X1408780Y2781300D02*
X1420780D01*
X1414780Y2775300D02*
Y2787300D01*
X1827880Y2781300D02*
X1839880D01*
X1833880Y2775300D02*
Y2787300D01*
X1827880Y2984500D02*
X1839880D01*
X1833880Y2978500D02*
Y2990500D01*
X1751680Y2984500D02*
X1763680D01*
X1757680Y2978500D02*
Y2990500D01*
X1675480Y2984500D02*
X1687480D01*
X1681480Y2978500D02*
Y2990500D01*
X1675480Y2781300D02*
X1687480D01*
X1681480Y2775300D02*
Y2787300D01*
X1125880Y3345180D02*
X1144880D01*
X1135380Y3335680D02*
Y3354680D01*
X2434340Y3362960D02*
X2447540D01*
X2440940Y3356360D02*
Y3369560D01*
X2434340Y3411220D02*
X2447540D01*
X2440940Y3404620D02*
Y3417820D01*
X1949200Y3413760D02*
X1962400D01*
X1955800Y3407160D02*
Y3420360D01*
X1949200Y3365500D02*
X1962400D01*
X1955800Y3358900D02*
Y3372100D01*
X1309120Y3208020D02*
X1322320D01*
X1315720Y3201420D02*
Y3214620D01*
X1306580Y3164840D02*
X1319780D01*
X1313180Y3158240D02*
Y3171440D01*
X1382780Y3208020D02*
X1395980D01*
X1389380Y3201420D02*
Y3214620D01*
X1382780Y3167380D02*
X1395980D01*
X1389380Y3160780D02*
Y3173980D01*
X1240540Y3078480D02*
X1253740D01*
X1247140Y3071880D02*
Y3085080D01*
X1512320Y3081020D02*
X1525520D01*
X1518920Y3074420D02*
Y3087620D01*
X1761240Y3078480D02*
X1774440D01*
X1767840Y3071880D02*
Y3085080D01*
X2012700Y3091180D02*
X2025900D01*
X2019300Y3084580D02*
Y3097780D01*
X2279400Y3093720D02*
X2292600D01*
X2286000Y3087120D02*
Y3100320D01*
X2530860Y3098800D02*
X2544060D01*
X2537460Y3092200D02*
Y3105400D01*
X1910920Y1988820D02*
X1928920D01*
X1919920Y1979820D02*
Y1997820D01*
X2074120Y1988820D02*
X2092120D01*
X2083120Y1979820D02*
Y1997820D01*
X2124280Y1988820D02*
X2142280D01*
X2133280Y1979820D02*
Y1997820D01*
X2287480Y1988820D02*
X2305480D01*
X2296480Y1979820D02*
Y1997820D01*
X2337640Y1988820D02*
X2355640D01*
X2346640Y1979820D02*
Y1997820D01*
X2500840Y1988820D02*
X2518840D01*
X2509840Y1979820D02*
Y1997820D01*
X2863740Y2585096D02*
X2881740D01*
X2872740Y2576096D02*
Y2594096D01*
X2863740Y2380096D02*
X2881740D01*
X2872740Y2371096D02*
Y2389096D01*
X2863740Y2269120D02*
X2881740D01*
X2872740Y2260120D02*
Y2278120D01*
X2863740Y2064120D02*
X2881740D01*
X2872740Y2055120D02*
Y2073120D01*
X2863740Y1950096D02*
X2881740D01*
X2872740Y1941096D02*
Y1959096D01*
X2863740Y1745096D02*
X2881740D01*
X2872740Y1736096D02*
Y1754096D01*
X1408640Y1988820D02*
X1426640D01*
X1417640Y1979820D02*
Y1997820D01*
X1245440Y1988820D02*
X1263440D01*
X1254440Y1979820D02*
Y1997820D01*
X1622000Y1988820D02*
X1640000D01*
X1631000Y1979820D02*
Y1997820D01*
X1458800Y1988820D02*
X1476800D01*
X1467800Y1979820D02*
Y1997820D01*
X1837900Y1988820D02*
X1855900D01*
X1846900Y1979820D02*
Y1997820D01*
X1674700Y1988820D02*
X1692700D01*
X1683700Y1979820D02*
Y1997820D01*
X883990Y1950096D02*
X901990D01*
X892990Y1941096D02*
Y1959096D01*
X883990Y1745096D02*
X901990D01*
X892990Y1736096D02*
Y1754096D01*
X883990Y2269120D02*
X901990D01*
X892990Y2260120D02*
Y2278120D01*
X883990Y2064120D02*
X901990D01*
X892990Y2055120D02*
Y2073120D01*
X883990Y2585096D02*
X901990D01*
X892990Y2576096D02*
Y2594096D01*
X883990Y2380096D02*
X901990D01*
X892990Y2371096D02*
Y2389096D01*
X3450480Y1900956D02*
X3468480D01*
X3459480Y1891956D02*
Y1909956D01*
X3239480Y1900956D02*
X3257480D01*
X3248480Y1891956D02*
Y1909956D01*
X3450480Y2220956D02*
X3468480D01*
X3459480Y2211956D02*
Y2229956D01*
X3239480Y2220956D02*
X3257480D01*
X3248480Y2211956D02*
Y2229956D01*
X3450480Y2060956D02*
X3468480D01*
X3459480Y2051956D02*
Y2069956D01*
X3239480Y2060956D02*
X3257480D01*
X3248480Y2051956D02*
Y2069956D01*
X299790Y2220956D02*
X317790D01*
X308790Y2211956D02*
Y2229956D01*
X510790Y2220956D02*
X528790D01*
X519790Y2211956D02*
Y2229956D01*
X299790Y1900956D02*
X317790D01*
X308790Y1891956D02*
Y1909956D01*
X510790Y1900956D02*
X528790D01*
X519790Y1891956D02*
Y1909956D01*
X299790Y2060956D02*
X317790D01*
X308790Y2051956D02*
Y2069956D01*
X510790Y2060956D02*
X528790D01*
X519790Y2051956D02*
Y2069956D01*
X2456620Y1744980D02*
X2511620D01*
X2484120Y1717480D02*
Y1772480D01*
X302700Y2677160D02*
X357700D01*
X330200Y2649660D02*
Y2704660D01*
X3396420Y2768600D02*
X3451420D01*
X3423920Y2741100D02*
Y2796100D01*
X2550600Y2677160D02*
X2605600D01*
X2578100Y2649660D02*
Y2704660D01*
X1252660Y2677160D02*
X1307660D01*
X1280160Y2649660D02*
Y2704660D01*
X302700Y3274060D02*
X357700D01*
X330200Y3246560D02*
Y3301560D01*
X3401500Y3274060D02*
X3456500D01*
X3429000Y3246560D02*
Y3301560D01*
X3401500Y1752600D02*
X3456500D01*
X3429000Y1725100D02*
Y1780100D01*
X2969240Y3384550D02*
X2979440D01*
X2974340Y3379450D02*
Y3389650D01*
X2969240Y3359150D02*
X2979440D01*
X2974340Y3354050D02*
Y3364250D01*
X2943840Y3384550D02*
X2954040D01*
X2948940Y3379450D02*
Y3389650D01*
X2943840Y3359150D02*
X2954040D01*
X2948940Y3354050D02*
Y3364250D01*
X2918440Y3384550D02*
X2928640D01*
X2923540Y3379450D02*
Y3389650D01*
X2918440Y3359150D02*
X2928640D01*
X2923540Y3354050D02*
Y3364250D01*
X2893040Y3384550D02*
X2903240D01*
X2898140Y3379450D02*
Y3389650D01*
X2893040Y3359150D02*
X2903240D01*
X2898140Y3354050D02*
Y3364250D01*
X2867640Y3384550D02*
X2877840D01*
X2872740Y3379450D02*
Y3389650D01*
X2867640Y3359150D02*
X2877840D01*
X2872740Y3354050D02*
Y3364250D01*
X2842240Y3384550D02*
X2852440D01*
X2847340Y3379450D02*
Y3389650D01*
X2842240Y3359150D02*
X2852440D01*
X2847340Y3354050D02*
Y3364250D01*
X2816840Y3384550D02*
X2827040D01*
X2821940Y3379450D02*
Y3389650D01*
X2816840Y3359150D02*
X2827040D01*
X2821940Y3354050D02*
Y3364250D01*
X2791440Y3384550D02*
X2801640D01*
X2796540Y3379450D02*
Y3389650D01*
X2791440Y3359150D02*
X2801640D01*
X2796540Y3354050D02*
Y3364250D01*
X2766040Y3384550D02*
X2776240D01*
X2771140Y3379450D02*
Y3389650D01*
X2766040Y3359150D02*
X2776240D01*
X2771140Y3354050D02*
Y3364250D01*
X2740640Y3359150D02*
X2750840D01*
X2745740Y3354050D02*
Y3364250D01*
X2740640Y3384550D02*
X2750840D01*
X2745740Y3379450D02*
Y3389650D01*
X2969240Y2952750D02*
X2979440D01*
X2974340Y2947650D02*
Y2957850D01*
X2969240Y2927350D02*
X2979440D01*
X2974340Y2922250D02*
Y2932450D01*
X2943840Y2952750D02*
X2954040D01*
X2948940Y2947650D02*
Y2957850D01*
X2943840Y2927350D02*
X2954040D01*
X2948940Y2922250D02*
Y2932450D01*
X2918440Y2952750D02*
X2928640D01*
X2923540Y2947650D02*
Y2957850D01*
X2918440Y2927350D02*
X2928640D01*
X2923540Y2922250D02*
Y2932450D01*
X2893040Y2952750D02*
X2903240D01*
X2898140Y2947650D02*
Y2957850D01*
X2893040Y2927350D02*
X2903240D01*
X2898140Y2922250D02*
Y2932450D01*
X2867640Y2952750D02*
X2877840D01*
X2872740Y2947650D02*
Y2957850D01*
X2867640Y2927350D02*
X2877840D01*
X2872740Y2922250D02*
Y2932450D01*
X2842240Y2952750D02*
X2852440D01*
X2847340Y2947650D02*
Y2957850D01*
X2842240Y2927350D02*
X2852440D01*
X2847340Y2922250D02*
Y2932450D01*
X2816840Y2952750D02*
X2827040D01*
X2821940Y2947650D02*
Y2957850D01*
X2816840Y2927350D02*
X2827040D01*
X2821940Y2922250D02*
Y2932450D01*
X2791440Y2952750D02*
X2801640D01*
X2796540Y2947650D02*
Y2957850D01*
X2791440Y2927350D02*
X2801640D01*
X2796540Y2922250D02*
Y2932450D01*
X2766040Y2952750D02*
X2776240D01*
X2771140Y2947650D02*
Y2957850D01*
X2766040Y2927350D02*
X2776240D01*
X2771140Y2922250D02*
Y2932450D01*
X2740640Y2927350D02*
X2750840D01*
X2745740Y2922250D02*
Y2932450D01*
X2740640Y2952750D02*
X2750840D01*
X2745740Y2947650D02*
Y2957850D01*
X302700Y1755140D02*
X357700D01*
X330200Y1727640D02*
Y1782640D01*
X3452980Y2387600D02*
X3465980D01*
X3459480Y2381100D02*
Y2394100D01*
X3352980Y2387600D02*
X3365980D01*
X3359480Y2381100D02*
Y2394100D01*
X3402980Y2387600D02*
X3415980D01*
X3409480Y2381100D02*
Y2394100D01*
X2164260Y1727200D02*
X2177260D01*
X2170760Y1720700D02*
Y1733700D01*
X2264260Y1727200D02*
X2277260D01*
X2270760Y1720700D02*
Y1733700D01*
X2214260Y1727200D02*
X2227260D01*
X2220760Y1720700D02*
Y1733700D01*
X403380Y2387600D02*
X416380D01*
X409880Y2381100D02*
Y2394100D01*
X303380Y2387600D02*
X316380D01*
X309880Y2381100D02*
Y2394100D01*
X353380Y2387600D02*
X366380D01*
X359880Y2381100D02*
Y2394100D01*
X1491160Y1724660D02*
X1504160D01*
X1497660Y1718160D02*
Y1731160D01*
X1591160Y1724660D02*
X1604160D01*
X1597660Y1718160D02*
Y1731160D01*
X1541160Y1724660D02*
X1554160D01*
X1547660Y1718160D02*
Y1731160D01*
X1252660Y1742440D02*
X1307660D01*
X1280160Y1714940D02*
Y1769940D01*
X546080Y3384550D02*
X556280D01*
X551180Y3379450D02*
Y3389650D01*
X546080Y3359150D02*
X556280D01*
X551180Y3354050D02*
Y3364250D01*
X520680Y3384550D02*
X530880D01*
X525780Y3379450D02*
Y3389650D01*
X520680Y3359150D02*
X530880D01*
X525780Y3354050D02*
Y3364250D01*
X495280Y3384550D02*
X505480D01*
X500380Y3379450D02*
Y3389650D01*
X495280Y3359150D02*
X505480D01*
X500380Y3354050D02*
Y3364250D01*
X469880Y3384550D02*
X480080D01*
X474980Y3379450D02*
Y3389650D01*
X469880Y3359150D02*
X480080D01*
X474980Y3354050D02*
Y3364250D01*
X444480Y3384550D02*
X454680D01*
X449580Y3379450D02*
Y3389650D01*
X444480Y3359150D02*
X454680D01*
X449580Y3354050D02*
Y3364250D01*
X419080Y3384550D02*
X429280D01*
X424180Y3379450D02*
Y3389650D01*
X419080Y3359150D02*
X429280D01*
X424180Y3354050D02*
Y3364250D01*
X393680Y3384550D02*
X403880D01*
X398780Y3379450D02*
Y3389650D01*
X393680Y3359150D02*
X403880D01*
X398780Y3354050D02*
Y3364250D01*
X368280Y3384550D02*
X378480D01*
X373380Y3379450D02*
Y3389650D01*
X368280Y3359150D02*
X378480D01*
X373380Y3354050D02*
Y3364250D01*
X342880Y3384550D02*
X353080D01*
X347980Y3379450D02*
Y3389650D01*
X342880Y3359150D02*
X353080D01*
X347980Y3354050D02*
Y3364250D01*
X317480Y3359150D02*
X327680D01*
X322580Y3354050D02*
Y3364250D01*
X317480Y3384550D02*
X327680D01*
X322580Y3379450D02*
Y3389650D01*
X546080Y2952750D02*
X556280D01*
X551180Y2947650D02*
Y2957850D01*
X546080Y2927350D02*
X556280D01*
X551180Y2922250D02*
Y2932450D01*
X520680Y2952750D02*
X530880D01*
X525780Y2947650D02*
Y2957850D01*
X520680Y2927350D02*
X530880D01*
X525780Y2922250D02*
Y2932450D01*
X495280Y2952750D02*
X505480D01*
X500380Y2947650D02*
Y2957850D01*
X495280Y2927350D02*
X505480D01*
X500380Y2922250D02*
Y2932450D01*
X469880Y2952750D02*
X480080D01*
X474980Y2947650D02*
Y2957850D01*
X469880Y2927350D02*
X480080D01*
X474980Y2922250D02*
Y2932450D01*
X444480Y2952750D02*
X454680D01*
X449580Y2947650D02*
Y2957850D01*
X444480Y2927350D02*
X454680D01*
X449580Y2922250D02*
Y2932450D01*
X419080Y2952750D02*
X429280D01*
X424180Y2947650D02*
Y2957850D01*
X419080Y2927350D02*
X429280D01*
X424180Y2922250D02*
Y2932450D01*
X393680Y2952750D02*
X403880D01*
X398780Y2947650D02*
Y2957850D01*
X393680Y2927350D02*
X403880D01*
X398780Y2922250D02*
Y2932450D01*
X368280Y2952750D02*
X378480D01*
X373380Y2947650D02*
Y2957850D01*
X368280Y2927350D02*
X378480D01*
X373380Y2922250D02*
Y2932450D01*
X342880Y2952750D02*
X353080D01*
X347980Y2947650D02*
Y2957850D01*
X342880Y2927350D02*
X353080D01*
X347980Y2922250D02*
Y2932450D01*
X317480Y2927350D02*
X327680D01*
X322580Y2922250D02*
Y2932450D01*
X317480Y2952750D02*
X327680D01*
X322580Y2947650D02*
Y2957850D01*
X2043540Y3324860D02*
X2050940D01*
X2047240Y3321160D02*
Y3328560D01*
X2043540Y3312160D02*
X2050940D01*
X2047240Y3308460D02*
Y3315860D01*
X2056240Y3324860D02*
X2063640D01*
X2059940Y3321160D02*
Y3328560D01*
X2056240Y3312160D02*
X2063640D01*
X2059940Y3308460D02*
Y3315860D01*
X2068940Y3324860D02*
X2076340D01*
X2072640Y3321160D02*
Y3328560D01*
X2068940Y3312160D02*
X2076340D01*
X2072640Y3308460D02*
Y3315860D01*
X2081640Y3324860D02*
X2089040D01*
X2085340Y3321160D02*
Y3328560D01*
X2081640Y3312160D02*
X2089040D01*
X2085340Y3308460D02*
Y3315860D01*
X2094340Y3324860D02*
X2101740D01*
X2098040Y3321160D02*
Y3328560D01*
X2094340Y3312160D02*
X2101740D01*
X2098040Y3308460D02*
Y3315860D01*
X2107040Y3324860D02*
X2114440D01*
X2110740Y3321160D02*
Y3328560D01*
X2107040Y3312160D02*
X2114440D01*
X2110740Y3308460D02*
Y3315860D01*
X2119740Y3324860D02*
X2127140D01*
X2123440Y3321160D02*
Y3328560D01*
X2119740Y3312160D02*
X2127140D01*
X2123440Y3308460D02*
Y3315860D01*
X2132440Y3324860D02*
X2139840D01*
X2136140Y3321160D02*
Y3328560D01*
X2132440Y3312160D02*
X2139840D01*
X2136140Y3308460D02*
Y3315860D01*
X2145140Y3324860D02*
X2152540D01*
X2148840Y3321160D02*
Y3328560D01*
X2145140Y3312160D02*
X2152540D01*
X2148840Y3308460D02*
Y3315860D01*
X2157840Y3324860D02*
X2165240D01*
X2161540Y3321160D02*
Y3328560D01*
X2157840Y3312160D02*
X2165240D01*
X2161540Y3308460D02*
Y3315860D01*
X2170540Y3324860D02*
X2177940D01*
X2174240Y3321160D02*
Y3328560D01*
X2170540Y3312160D02*
X2177940D01*
X2174240Y3308460D02*
Y3315860D01*
X2183240Y3324860D02*
X2190640D01*
X2186940Y3321160D02*
Y3328560D01*
X2183240Y3312160D02*
X2190640D01*
X2186940Y3308460D02*
Y3315860D01*
X2195940Y3324860D02*
X2203340D01*
X2199640Y3321160D02*
Y3328560D01*
X2195940Y3312160D02*
X2203340D01*
X2199640Y3308460D02*
Y3315860D01*
X2208640Y3324860D02*
X2216040D01*
X2212340Y3321160D02*
Y3328560D01*
X2208640Y3312160D02*
X2216040D01*
X2212340Y3308460D02*
Y3315860D01*
X2221340Y3324860D02*
X2228740D01*
X2225040Y3321160D02*
Y3328560D01*
X2221340Y3312160D02*
X2228740D01*
X2225040Y3308460D02*
Y3315860D01*
X2234040Y3324860D02*
X2241440D01*
X2237740Y3321160D02*
Y3328560D01*
X2234040Y3312160D02*
X2241440D01*
X2237740Y3308460D02*
Y3315860D01*
X2246740Y3324860D02*
X2254140D01*
X2250440Y3321160D02*
Y3328560D01*
X2246740Y3312160D02*
X2254140D01*
X2250440Y3308460D02*
Y3315860D01*
X2259440Y3324860D02*
X2266840D01*
X2263140Y3321160D02*
Y3328560D01*
X2259440Y3312160D02*
X2266840D01*
X2263140Y3308460D02*
Y3315860D01*
X2272140Y3324860D02*
X2279540D01*
X2275840Y3321160D02*
Y3328560D01*
X2272140Y3312160D02*
X2279540D01*
X2275840Y3308460D02*
Y3315860D01*
X2284840Y3324860D02*
X2292240D01*
X2288540Y3321160D02*
Y3328560D01*
X2284840Y3312160D02*
X2292240D01*
X2288540Y3308460D02*
Y3315860D01*
X2297540Y3324860D02*
X2304940D01*
X2301240Y3321160D02*
Y3328560D01*
X2297540Y3312160D02*
X2304940D01*
X2301240Y3308460D02*
Y3315860D01*
X2310240Y3324860D02*
X2317640D01*
X2313940Y3321160D02*
Y3328560D01*
X2310240Y3312160D02*
X2317640D01*
X2313940Y3308460D02*
Y3315860D01*
X2322940Y3324860D02*
X2330340D01*
X2326640Y3321160D02*
Y3328560D01*
X2322940Y3312160D02*
X2330340D01*
X2326640Y3308460D02*
Y3315860D01*
X2335640Y3324860D02*
X2343040D01*
X2339340Y3321160D02*
Y3328560D01*
X2335640Y3312160D02*
X2343040D01*
X2339340Y3308460D02*
Y3315860D01*
X2348340Y3324860D02*
X2355740D01*
X2352040Y3321160D02*
Y3328560D01*
X2348340Y3312160D02*
X2355740D01*
X2352040Y3308460D02*
Y3315860D01*
X1362820Y3324860D02*
X1370220D01*
X1366520Y3321160D02*
Y3328560D01*
X1362820Y3312160D02*
X1370220D01*
X1366520Y3308460D02*
Y3315860D01*
X1375520Y3324860D02*
X1382920D01*
X1379220Y3321160D02*
Y3328560D01*
X1375520Y3312160D02*
X1382920D01*
X1379220Y3308460D02*
Y3315860D01*
X1388220Y3324860D02*
X1395620D01*
X1391920Y3321160D02*
Y3328560D01*
X1388220Y3312160D02*
X1395620D01*
X1391920Y3308460D02*
Y3315860D01*
X1400920Y3324860D02*
X1408320D01*
X1404620Y3321160D02*
Y3328560D01*
X1400920Y3312160D02*
X1408320D01*
X1404620Y3308460D02*
Y3315860D01*
X1413620Y3324860D02*
X1421020D01*
X1417320Y3321160D02*
Y3328560D01*
X1413620Y3312160D02*
X1421020D01*
X1417320Y3308460D02*
Y3315860D01*
X1426320Y3324860D02*
X1433720D01*
X1430020Y3321160D02*
Y3328560D01*
X1426320Y3312160D02*
X1433720D01*
X1430020Y3308460D02*
Y3315860D01*
X1439020Y3324860D02*
X1446420D01*
X1442720Y3321160D02*
Y3328560D01*
X1439020Y3312160D02*
X1446420D01*
X1442720Y3308460D02*
Y3315860D01*
X1451720Y3324860D02*
X1459120D01*
X1455420Y3321160D02*
Y3328560D01*
X1451720Y3312160D02*
X1459120D01*
X1455420Y3308460D02*
Y3315860D01*
X1464420Y3324860D02*
X1471820D01*
X1468120Y3321160D02*
Y3328560D01*
X1464420Y3312160D02*
X1471820D01*
X1468120Y3308460D02*
Y3315860D01*
X1477120Y3324860D02*
X1484520D01*
X1480820Y3321160D02*
Y3328560D01*
X1477120Y3312160D02*
X1484520D01*
X1480820Y3308460D02*
Y3315860D01*
X1489820Y3324860D02*
X1497220D01*
X1493520Y3321160D02*
Y3328560D01*
X1489820Y3312160D02*
X1497220D01*
X1493520Y3308460D02*
Y3315860D01*
X1502520Y3324860D02*
X1509920D01*
X1506220Y3321160D02*
Y3328560D01*
X1502520Y3312160D02*
X1509920D01*
X1506220Y3308460D02*
Y3315860D01*
X1515220Y3324860D02*
X1522620D01*
X1518920Y3321160D02*
Y3328560D01*
X1515220Y3312160D02*
X1522620D01*
X1518920Y3308460D02*
Y3315860D01*
X1527920Y3324860D02*
X1535320D01*
X1531620Y3321160D02*
Y3328560D01*
X1527920Y3312160D02*
X1535320D01*
X1531620Y3308460D02*
Y3315860D01*
X1540620Y3324860D02*
X1548020D01*
X1544320Y3321160D02*
Y3328560D01*
X1540620Y3312160D02*
X1548020D01*
X1544320Y3308460D02*
Y3315860D01*
X1553320Y3324860D02*
X1560720D01*
X1557020Y3321160D02*
Y3328560D01*
X1553320Y3312160D02*
X1560720D01*
X1557020Y3308460D02*
Y3315860D01*
X1566020Y3324860D02*
X1573420D01*
X1569720Y3321160D02*
Y3328560D01*
X1566020Y3312160D02*
X1573420D01*
X1569720Y3308460D02*
Y3315860D01*
X1578720Y3324860D02*
X1586120D01*
X1582420Y3321160D02*
Y3328560D01*
X1578720Y3312160D02*
X1586120D01*
X1582420Y3308460D02*
Y3315860D01*
X1591420Y3324860D02*
X1598820D01*
X1595120Y3321160D02*
Y3328560D01*
X1591420Y3312160D02*
X1598820D01*
X1595120Y3308460D02*
Y3315860D01*
X1604120Y3324860D02*
X1611520D01*
X1607820Y3321160D02*
Y3328560D01*
X1604120Y3312160D02*
X1611520D01*
X1607820Y3308460D02*
Y3315860D01*
X1616820Y3324860D02*
X1624220D01*
X1620520Y3321160D02*
Y3328560D01*
X1616820Y3312160D02*
X1624220D01*
X1620520Y3308460D02*
Y3315860D01*
X1629520Y3324860D02*
X1636920D01*
X1633220Y3321160D02*
Y3328560D01*
X1629520Y3312160D02*
X1636920D01*
X1633220Y3308460D02*
Y3315860D01*
X1642220Y3324860D02*
X1649620D01*
X1645920Y3321160D02*
Y3328560D01*
X1642220Y3312160D02*
X1649620D01*
X1645920Y3308460D02*
Y3315860D01*
X1654920Y3324860D02*
X1662320D01*
X1658620Y3321160D02*
Y3328560D01*
X1654920Y3312160D02*
X1662320D01*
X1658620Y3308460D02*
Y3315860D01*
X1667620Y3324860D02*
X1675020D01*
X1671320Y3321160D02*
Y3328560D01*
X1667620Y3312160D02*
X1675020D01*
X1671320Y3308460D02*
Y3315860D01*
X1530690Y2263140D02*
X1543390D01*
X1537040Y2256790D02*
Y2269490D01*
X1255690Y2263140D02*
X1268390D01*
X1262040Y2256790D02*
Y2269490D01*
X1705950Y2423160D02*
X1718650D01*
X1712300Y2416810D02*
Y2429510D01*
X1430950Y2423160D02*
X1443650D01*
X1437300Y2416810D02*
Y2429510D01*
X1840570Y2588260D02*
X1853270D01*
X1846920Y2581910D02*
Y2594610D01*
X1565570Y2588260D02*
X1578270D01*
X1571920Y2581910D02*
Y2594610D01*
X3161340Y2776220D02*
X3168340D01*
X3164840Y2772720D02*
Y2779720D01*
X3237540Y2776220D02*
X3244540D01*
X3241040Y2772720D02*
Y2779720D01*
X1898310Y2588260D02*
X1911010D01*
X1904660Y2581910D02*
Y2594610D01*
X2173310Y2588260D02*
X2186010D01*
X2179660Y2581910D02*
Y2594610D01*
X2081190Y2423160D02*
X2093890D01*
X2087540Y2416810D02*
Y2429510D01*
X2356190Y2423160D02*
X2368890D01*
X2362540Y2416810D02*
Y2429510D01*
X2228510Y2263140D02*
X2241210D01*
X2234860Y2256790D02*
Y2269490D01*
X2503510Y2263140D02*
X2516210D01*
X2509860Y2256790D02*
Y2269490D01*
X3050840Y3086100D02*
X3055920D01*
X3053380Y3083560D02*
Y3088640D01*
X2749804Y3114040D02*
X2756916D01*
X2753360Y3110484D02*
Y3117596D01*
X2978404Y3106420D02*
X2985516D01*
X2981960Y3102864D02*
Y3109976D01*
X2813050Y3073400D02*
X2818130D01*
X2815590Y3070860D02*
Y3075940D01*
X640570Y3111500D02*
X645650D01*
X643110Y3108960D02*
Y3114040D01*
X3043800Y3122540D02*
X3048880D01*
X3046340Y3120000D02*
Y3125080D01*
X448293Y3106130D02*
X455405D01*
X451849Y3102574D02*
Y3109686D01*
X1218184Y3140710D02*
X1225296D01*
X1221740Y3137154D02*
Y3144266D01*
X2752344Y3167380D02*
X2759456D01*
X2755900Y3163824D02*
Y3170936D01*
X2968244Y3162300D02*
X2975356D01*
X2971800Y3158744D02*
Y3165856D01*
X3138424Y3091180D02*
X3145536D01*
X3141980Y3087624D02*
Y3094736D01*
X2663444Y3134360D02*
X2670556D01*
X2667000Y3130804D02*
Y3137916D01*
X2605024Y3114040D02*
X2612136D01*
X2608580Y3110484D02*
Y3117596D01*
X2554224Y3126740D02*
X2561336D01*
X2557780Y3123184D02*
Y3130296D01*
X2490724Y3205480D02*
X2497836D01*
X2494280Y3201924D02*
Y3209036D01*
X2462784Y3205480D02*
X2469896D01*
X2466340Y3201924D02*
Y3209036D01*
X1131824Y3149600D02*
X1138936D01*
X1135380Y3146044D02*
Y3153156D01*
X1159764Y3149600D02*
X1166876D01*
X1163320Y3146044D02*
Y3153156D01*
X1591564Y3274060D02*
X1598676D01*
X1595120Y3270504D02*
Y3277616D01*
X2856484Y3093720D02*
X2863596D01*
X2860040Y3090164D02*
Y3097276D01*
X2856484Y3068320D02*
X2863596D01*
X2860040Y3064764D02*
Y3071876D01*
X2993644Y3091180D02*
X3000756D01*
X2997200Y3087624D02*
Y3094736D01*
X3102864Y3116580D02*
X3109976D01*
X3106420Y3113024D02*
Y3120136D01*
X727964Y3122730D02*
X735076D01*
X731520Y3119174D02*
Y3126286D01*
X639064Y3218180D02*
X646176D01*
X642620Y3214624D02*
Y3221736D01*
X2478024Y2628900D02*
X2485136D01*
X2481580Y2625344D02*
Y2632456D01*
X2231644Y2623820D02*
X2238756D01*
X2235200Y2620264D02*
Y2627376D01*
X1411224Y2623820D02*
X1418336D01*
X1414780Y2620264D02*
Y2627376D01*
X1144524Y2627720D02*
X1151636D01*
X1148080Y2624164D02*
Y2631276D01*
X574904Y3137190D02*
X582016D01*
X578460Y3133634D02*
Y3140746D01*
X661924Y3230880D02*
X669036D01*
X665480Y3227324D02*
Y3234436D01*
X586101Y3108040D02*
X593213D01*
X589657Y3104484D02*
Y3111596D01*
X377444Y3060700D02*
X384556D01*
X381000Y3057144D02*
Y3064256D01*
X319684Y3118830D02*
X326796D01*
X323240Y3115274D02*
Y3122386D01*
X444144Y3154390D02*
X451256D01*
X447700Y3150834D02*
Y3157946D01*
X446684Y3134070D02*
X453796D01*
X450240Y3130514D02*
Y3137626D01*
X425794Y3117185D02*
X432906D01*
X429351Y3113629D02*
Y3120741D01*
X690455Y3139796D02*
X697567D01*
X694011Y3136240D02*
Y3143352D01*
X1797304Y3096260D02*
X1804416D01*
X1800860Y3092704D02*
Y3099816D01*
X1876044Y3093720D02*
X1883156D01*
X1879600Y3090164D02*
Y3097276D01*
X1439164Y3121660D02*
X1446276D01*
X1442720Y3118104D02*
Y3125216D01*
X2322928Y3095686D02*
X2330040D01*
X2326484Y3092130D02*
Y3099242D01*
X2056384Y3096260D02*
X2063496D01*
X2059940Y3092704D02*
Y3099816D01*
X1535684Y3119120D02*
X1542796D01*
X1539240Y3115564D02*
Y3122676D01*
X1337564Y3091180D02*
X1344676D01*
X1341120Y3087624D02*
Y3094736D01*
M02*
