%TF.GenerationSoftware,Altium Limited,Altium Designer,22.11.1 (43)*%
G04 Layer_Physical_Order=1*
G04 Layer_Color=255*
%FSLAX45Y45*%
%MOMM*%
%TF.SameCoordinates,ABC14B17-DAD6-4B0F-8560-1018B917A27C*%
%TF.FilePolarity,Positive*%
%TF.FileFunction,Copper,L1,Top,Signal*%
%TF.Part,Single*%
G01*
G75*
%TA.AperFunction,Conductor*%
%ADD10C,0.50000*%
%TA.AperFunction,ComponentPad*%
%ADD11R,1.09000X1.09000*%
%ADD12C,1.09000*%
%ADD13C,1.52400*%
%TA.AperFunction,ViaPad*%
%ADD14C,1.27000*%
G36*
X12065000Y6088587D02*
X12047013Y6070653D01*
X7747000Y6083300D01*
Y10198100D01*
X12065000D01*
Y6088587D01*
D02*
G37*
%LPC*%
G36*
X9676404Y9613900D02*
X9652996D01*
X9630386Y9607842D01*
X9610114Y9596138D01*
X9593562Y9579586D01*
X9581858Y9559314D01*
X9575800Y9536704D01*
Y9513296D01*
X9581858Y9490686D01*
X9591037Y9474787D01*
X9585865Y9459548D01*
X9578668Y9449387D01*
X9483685D01*
X9481838Y9452586D01*
X9465286Y9469138D01*
X9445014Y9480842D01*
X9422404Y9486900D01*
X9398996D01*
X9376386Y9480842D01*
X9356114Y9469138D01*
X9339562Y9452586D01*
X9327858Y9432314D01*
X9321800Y9409704D01*
Y9386296D01*
X9327858Y9363686D01*
X9337037Y9347787D01*
X9331865Y9332548D01*
X9324668Y9322387D01*
X9229685D01*
X9227838Y9325586D01*
X9211286Y9342138D01*
X9191014Y9353842D01*
X9168404Y9359900D01*
X9144996D01*
X9122386Y9353842D01*
X9102114Y9342138D01*
X9085562Y9325586D01*
X9073858Y9305314D01*
X9067800Y9282704D01*
Y9259296D01*
X9073858Y9236686D01*
X9085562Y9216414D01*
X9102114Y9199862D01*
X9122386Y9188158D01*
X9144996Y9182100D01*
X9168404D01*
X9191014Y9188158D01*
X9211286Y9199862D01*
X9227838Y9216414D01*
X9229685Y9219613D01*
X11023600D01*
Y8940800D01*
X11088173D01*
X11101981Y8937100D01*
X11123019D01*
X11136827Y8940800D01*
X11215173D01*
X11228981Y8937100D01*
X11250019D01*
X11263827Y8940800D01*
X11328400D01*
Y9223900D01*
X11195507D01*
X11189404Y9249300D01*
X11192400Y9260481D01*
Y9281519D01*
X11188700Y9295327D01*
Y9373673D01*
X11192400Y9387481D01*
Y9408519D01*
X11188700Y9422327D01*
Y9500673D01*
X11192400Y9514481D01*
Y9535519D01*
X11188700Y9549327D01*
Y9601200D01*
X11136827D01*
X11123019Y9604900D01*
X11101981D01*
X11088173Y9601200D01*
X11023600D01*
Y9576387D01*
X9737685D01*
X9735838Y9579586D01*
X9719286Y9596138D01*
X9699014Y9607842D01*
X9676404Y9613900D01*
D02*
G37*
G36*
X8914404Y8851900D02*
X8890996D01*
X8868386Y8845842D01*
X8848114Y8834138D01*
X8831562Y8817586D01*
X8819858Y8797314D01*
X8813800Y8774704D01*
Y8751296D01*
X8819858Y8728686D01*
X8829037Y8712787D01*
X8823865Y8697548D01*
X8816668Y8687387D01*
X8734385D01*
X8732538Y8690586D01*
X8715986Y8707138D01*
X8695714Y8718842D01*
X8673104Y8724900D01*
X8649696D01*
X8627086Y8718842D01*
X8606814Y8707138D01*
X8590262Y8690586D01*
X8578558Y8670314D01*
X8572500Y8647704D01*
Y8624296D01*
X8578558Y8601686D01*
X8590262Y8581414D01*
X8592239Y8579437D01*
X8581718Y8554037D01*
X8462686D01*
X8449286Y8567438D01*
X8429014Y8579142D01*
X8406404Y8585200D01*
X8382996D01*
X8360386Y8579142D01*
X8340114Y8567438D01*
X8323562Y8550886D01*
X8311858Y8530614D01*
X8305800Y8508004D01*
Y8484596D01*
X8311858Y8461986D01*
X8323562Y8441714D01*
X8340114Y8425162D01*
X8360386Y8413458D01*
X8382996Y8407400D01*
X8406404D01*
X8429014Y8413458D01*
X8449286Y8425162D01*
X8465838Y8441714D01*
X8471351Y8451263D01*
X11023600D01*
Y8178800D01*
X11088173D01*
X11101981Y8175100D01*
X11123019D01*
X11136827Y8178800D01*
X11215173D01*
X11228981Y8175100D01*
X11250019D01*
X11263827Y8178800D01*
X11328400D01*
Y8456455D01*
X11270340D01*
X11250019Y8461900D01*
X11228981D01*
X11214100Y8457912D01*
X11188700Y8470718D01*
Y8484673D01*
X11192400Y8498481D01*
Y8519519D01*
X11188700Y8533327D01*
Y8611673D01*
X11192400Y8625481D01*
Y8646519D01*
X11188700Y8660327D01*
Y8738673D01*
X11192400Y8752481D01*
Y8773519D01*
X11188700Y8787327D01*
Y8839200D01*
X11136827D01*
X11123019Y8842900D01*
X11101981D01*
X11088173Y8839200D01*
X11023600D01*
Y8814387D01*
X8975685D01*
X8973838Y8817586D01*
X8957286Y8834138D01*
X8937014Y8845842D01*
X8914404Y8851900D01*
D02*
G37*
G36*
X11123019Y8080900D02*
X11101981D01*
X11088173Y8077200D01*
X11023600D01*
Y8052387D01*
X8825261D01*
X8805596Y8048476D01*
X8788925Y8037336D01*
X8396988Y7645400D01*
X7861300D01*
Y7137400D01*
X10223500D01*
Y7391400D01*
X10452100D01*
Y7645400D01*
X10099520D01*
X10089800Y7668867D01*
X10243546Y7822613D01*
X11023600D01*
Y7416800D01*
X11088173D01*
X11101981Y7413100D01*
X11123019D01*
X11136827Y7416800D01*
X11215173D01*
X11228981Y7413100D01*
X11250019D01*
X11263827Y7416800D01*
X11328400D01*
Y7821455D01*
X11270340D01*
X11250019Y7826900D01*
X11228981D01*
X11214100Y7822912D01*
X11188700Y7835718D01*
Y7849673D01*
X11192400Y7863481D01*
Y7884519D01*
X11188700Y7898327D01*
Y7976673D01*
X11192400Y7990481D01*
Y8011519D01*
X11188700Y8025327D01*
Y8077200D01*
X11136827D01*
X11123019Y8080900D01*
D02*
G37*
G36*
X11250019Y7318900D02*
X11228981D01*
X11215173Y7315200D01*
X11136827D01*
X11123019Y7318900D01*
X11101981D01*
X11088173Y7315200D01*
X11023600D01*
Y6654800D01*
X11088173D01*
X11101981Y6651100D01*
X11123019D01*
X11136827Y6654800D01*
X11215173D01*
X11228981Y6651100D01*
X11250019D01*
X11263827Y6654800D01*
X11328400D01*
Y7315200D01*
X11263827D01*
X11250019Y7318900D01*
D02*
G37*
%LPD*%
D10*
X8394700Y8496300D02*
X8401050Y8502650D01*
X11106150D02*
X11112500Y8509000D01*
X8401050Y8502650D02*
X11106150D01*
X9512300Y8001000D02*
X11112500D01*
X8825261D02*
X9512300D01*
X9029700Y7518400D02*
X9512300Y8001000D01*
X8395100Y7570839D02*
X8825261Y8001000D01*
X8395100Y7466761D02*
Y7570839D01*
X8140300Y7391000D02*
X8319339D01*
X8395100Y7466761D01*
X8013700Y7264400D02*
X8140300Y7391000D01*
X9919100Y7391800D02*
Y7570839D01*
X9791700Y7264400D02*
X9919100Y7391800D01*
X10222261Y7874000D02*
X11112500D01*
X9919100Y7570839D02*
X10222261Y7874000D01*
X8521700Y2946400D02*
X9855200Y1612900D01*
X11112500D01*
X10057161Y1739900D02*
X11112500D01*
X8902300Y2894761D02*
X10057161Y1739900D01*
X8902300Y2894761D02*
Y3073800D01*
X8775700Y3200400D02*
X8902300Y3073800D01*
X11106366Y3130766D02*
X11112500Y3136900D01*
X10983000Y3130766D02*
X11106366D01*
X10445834Y2593600D02*
X10983000Y3130766D01*
X9156300Y2894761D02*
X9457460Y2593600D01*
X10445834D01*
X9156300Y2894761D02*
Y3073800D01*
X9029700Y3200400D02*
X9156300Y3073800D01*
X9283700Y3200400D02*
X9411100Y3073000D01*
Y2893961D02*
X9636060Y2669000D01*
X9411100Y2893961D02*
Y3073000D01*
X9636060Y2669000D02*
X10414602D01*
X10998213Y3252611D01*
X11101211D02*
X11112500Y3263900D01*
X10998213Y3252611D02*
X11101211D01*
Y3379611D02*
X11112500Y3390900D01*
X10383371Y2744400D02*
X11018582Y3379611D01*
X11101211D01*
X9814661Y2744400D02*
X10383371D01*
X9664300Y2894761D02*
X9814661Y2744400D01*
X9664300Y2894761D02*
Y3073800D01*
X9537700Y3200400D02*
X9664300Y3073800D01*
X11101211Y3506611D02*
X11112500Y3517900D01*
X9993261Y2819800D02*
X10352139D01*
X11038950Y3506611D01*
X9918300Y2894761D02*
X9993261Y2819800D01*
X9918300Y2894761D02*
Y3073800D01*
X9791700Y3200400D02*
X9918300Y3073800D01*
X11038950Y3506611D02*
X11101211D01*
X10045700Y3200400D02*
X10172300Y3073800D01*
X10362722D01*
X10933822Y3644900D01*
X11112500D01*
X10871200Y3771900D02*
X11112500D01*
X10299700Y3200400D02*
X10871200Y3771900D01*
X8661400Y8636000D02*
X11112500D01*
X8902700Y8763000D02*
X11112500D01*
X9156700Y9271000D02*
X11112500D01*
X9410700Y9398000D02*
X11112500D01*
X9664700Y9525000D02*
X11112500D01*
D11*
Y3771900D02*
D03*
Y9652000D02*
D03*
D12*
X11239500Y3771900D02*
D03*
X11112500Y3644900D02*
D03*
X11239500D02*
D03*
X11112500Y3517900D02*
D03*
X11239500D02*
D03*
X11112500Y3390900D02*
D03*
X11239500D02*
D03*
X11112500Y3263900D02*
D03*
X11239500D02*
D03*
X11112500Y3136900D02*
D03*
X11239500D02*
D03*
X11112500Y3009900D02*
D03*
X11239500D02*
D03*
X11112500Y2882900D02*
D03*
X11239500D02*
D03*
X11112500Y2755900D02*
D03*
X11239500D02*
D03*
X11112500Y2628900D02*
D03*
X11239500D02*
D03*
X11112500Y2501900D02*
D03*
X11239500D02*
D03*
X11112500Y2374900D02*
D03*
X11239500D02*
D03*
X11112500Y2247900D02*
D03*
X11239500D02*
D03*
X11112500Y2120900D02*
D03*
X11239500D02*
D03*
X11112500Y1993900D02*
D03*
X11239500D02*
D03*
X11112500Y1866900D02*
D03*
X11239500D02*
D03*
X11112500Y1739900D02*
D03*
X11239500D02*
D03*
X11112500Y1612900D02*
D03*
X11239500D02*
D03*
X11112500Y1485900D02*
D03*
X11239500D02*
D03*
X11112500Y1358900D02*
D03*
X11239500D02*
D03*
X11112500Y1231900D02*
D03*
X11239500D02*
D03*
X11112500Y1104900D02*
D03*
X11239500D02*
D03*
X11112500Y977900D02*
D03*
X11239500D02*
D03*
X11112500Y850900D02*
D03*
X11239500D02*
D03*
X11112500Y723900D02*
D03*
X11239500D02*
D03*
Y6604000D02*
D03*
X11112500D02*
D03*
X11239500Y6731000D02*
D03*
X11112500D02*
D03*
X11239500Y6858000D02*
D03*
X11112500D02*
D03*
X11239500Y6985000D02*
D03*
X11112500D02*
D03*
X11239500Y7112000D02*
D03*
X11112500D02*
D03*
X11239500Y7239000D02*
D03*
X11112500D02*
D03*
X11239500Y7366000D02*
D03*
X11112500D02*
D03*
X11239500Y7493000D02*
D03*
X11112500D02*
D03*
X11239500Y7620000D02*
D03*
X11112500D02*
D03*
X11239500Y7747000D02*
D03*
X11112500D02*
D03*
X11239500Y7874000D02*
D03*
X11112500D02*
D03*
X11239500Y8001000D02*
D03*
X11112500D02*
D03*
X11239500Y8128000D02*
D03*
X11112500D02*
D03*
X11239500Y8255000D02*
D03*
X11112500D02*
D03*
X11239500Y8382000D02*
D03*
X11112500D02*
D03*
X11239500Y8509000D02*
D03*
X11112500D02*
D03*
X11239500Y8636000D02*
D03*
X11112500D02*
D03*
X11239500Y8763000D02*
D03*
X11112500D02*
D03*
X11239500Y8890000D02*
D03*
X11112500D02*
D03*
X11239500Y9017000D02*
D03*
X11112500D02*
D03*
X11239500Y9144000D02*
D03*
X11112500D02*
D03*
X11239500Y9271000D02*
D03*
X11112500D02*
D03*
X11239500Y9398000D02*
D03*
X11112500D02*
D03*
X11239500Y9525000D02*
D03*
X11112500D02*
D03*
X11239500Y9652000D02*
D03*
D13*
X10299700Y7518400D02*
D03*
Y7264400D02*
D03*
X10045700Y7518400D02*
D03*
Y7264400D02*
D03*
X9791700Y7518400D02*
D03*
Y7264400D02*
D03*
X9537700Y7518400D02*
D03*
Y7264400D02*
D03*
X9283700Y7518400D02*
D03*
Y7264400D02*
D03*
X9029700Y7518400D02*
D03*
Y7264400D02*
D03*
X8775700Y7518400D02*
D03*
Y7264400D02*
D03*
X8521700Y7518400D02*
D03*
Y7264400D02*
D03*
X8267700Y7518400D02*
D03*
Y7264400D02*
D03*
X8013700Y7518400D02*
D03*
Y7264400D02*
D03*
X10299700Y3200400D02*
D03*
Y2946400D02*
D03*
X10045700Y3200400D02*
D03*
Y2946400D02*
D03*
X9791700Y3200400D02*
D03*
Y2946400D02*
D03*
X9537700Y3200400D02*
D03*
Y2946400D02*
D03*
X9283700Y3200400D02*
D03*
Y2946400D02*
D03*
X9029700Y3200400D02*
D03*
Y2946400D02*
D03*
X8775700Y3200400D02*
D03*
Y2946400D02*
D03*
X8521700Y3200400D02*
D03*
Y2946400D02*
D03*
X8267700Y3200400D02*
D03*
Y2946400D02*
D03*
X8013700Y3200400D02*
D03*
Y2946400D02*
D03*
D14*
X8394700Y8496300D02*
D03*
X8661400Y8636000D02*
D03*
X9156700Y9271000D02*
D03*
X9410700Y9398000D02*
D03*
X9664700Y9525000D02*
D03*
X8902700Y8763000D02*
D03*
%TF.MD5,22001b88f37e1330582fe54f2b17b03d*%
M02*
