%TF.GenerationSoftware,Altium Limited,Altium Designer,22.11.1 (43)*%
G04 Layer_Physical_Order=2*
G04 Layer_Color=16711680*
%FSLAX45Y45*%
%MOMM*%
%TF.SameCoordinates,ABC14B17-DAD6-4B0F-8560-1018B917A27C*%
%TF.FilePolarity,Positive*%
%TF.FileFunction,Copper,L2,Bot,Signal*%
%TF.Part,Single*%
G01*
G75*
%TA.AperFunction,Conductor*%
%ADD10C,0.50000*%
%TA.AperFunction,ComponentPad*%
%ADD11R,1.09000X1.09000*%
%ADD12C,1.09000*%
%ADD13C,1.52400*%
%TA.AperFunction,ViaPad*%
%ADD14C,1.27000*%
G36*
X12065000Y208487D02*
X12047013Y190553D01*
X7747000Y203200D01*
Y4318000D01*
X12065000D01*
Y208487D01*
D02*
G37*
G36*
Y6088587D02*
X12047013Y6070653D01*
X7747000Y6083300D01*
Y10198100D01*
X12065000D01*
Y6088587D01*
D02*
G37*
%LPC*%
G36*
X10210800Y3327400D02*
X7861300D01*
Y2819400D01*
X10210800D01*
Y3109695D01*
X10236200Y3120216D01*
X10237316Y3119100D01*
X10260484Y3105724D01*
X10286324Y3098800D01*
X10313076D01*
X10338916Y3105724D01*
X10362084Y3119100D01*
X10381000Y3138016D01*
X10394376Y3161184D01*
X10401300Y3187024D01*
Y3213776D01*
X10394376Y3239616D01*
X10381000Y3262784D01*
X10362084Y3281700D01*
X10338916Y3295076D01*
X10313076Y3302000D01*
X10286324D01*
X10260484Y3295076D01*
X10237316Y3281700D01*
X10236200Y3280584D01*
X10210800Y3291105D01*
Y3327400D01*
D02*
G37*
G36*
X11192400Y3851800D02*
X11032600D01*
Y3692000D01*
Y3655419D01*
Y3634381D01*
Y3528419D01*
Y3507381D01*
Y3401419D01*
Y3380381D01*
Y3274419D01*
Y3253381D01*
Y3147419D01*
Y3126381D01*
Y3020419D01*
Y2999381D01*
Y2893419D01*
Y2872381D01*
Y2766419D01*
Y2745381D01*
Y2639419D01*
Y2618381D01*
Y2512419D01*
Y2491381D01*
Y2385419D01*
Y2364381D01*
Y2258419D01*
Y2237381D01*
Y2004419D01*
Y1983381D01*
Y1877419D01*
Y1856381D01*
Y1750419D01*
Y1729381D01*
Y1623419D01*
Y1602381D01*
Y1496419D01*
Y1475381D01*
Y1369419D01*
Y1348381D01*
Y1242419D01*
Y1221381D01*
Y1115419D01*
Y1094381D01*
Y988419D01*
Y967381D01*
Y861419D01*
Y840381D01*
Y734419D01*
Y713381D01*
Y644000D01*
X11023600Y635000D01*
X11328400D01*
Y1306355D01*
X11270340D01*
X11250019Y1311800D01*
X11228981D01*
X11217800Y1308804D01*
D01*
X11208660Y1306355D01*
X11192400D01*
Y1323457D01*
Y3692000D01*
Y3851800D01*
D02*
G37*
G36*
X11123019Y9604900D02*
X11101981D01*
X11088173Y9601200D01*
X11023600D01*
Y8940800D01*
X11088173D01*
X11101981Y8937100D01*
X11123019D01*
X11136827Y8940800D01*
X11215173D01*
X11228981Y8937100D01*
X11250019D01*
X11263827Y8940800D01*
X11328400D01*
Y9223900D01*
X11188700D01*
Y9246673D01*
X11189404Y9249300D01*
D01*
X11192400Y9260481D01*
Y9281519D01*
X11188700Y9295327D01*
Y9373673D01*
X11192400Y9387481D01*
Y9408519D01*
X11188700Y9422327D01*
Y9500673D01*
X11192400Y9514481D01*
Y9535519D01*
X11188700Y9549327D01*
Y9601200D01*
X11136827D01*
X11123019Y9604900D01*
D02*
G37*
G36*
Y8842900D02*
X11101981D01*
X11088173Y8839200D01*
X11023600D01*
Y8178800D01*
X11088173D01*
X11101981Y8175100D01*
X11123019D01*
X11136827Y8178800D01*
X11215173D01*
X11228981Y8175100D01*
X11250019D01*
X11263827Y8178800D01*
X11328400D01*
Y8456455D01*
X11270340D01*
X11250019Y8461900D01*
X11228981D01*
X11208660Y8456455D01*
X11188700D01*
Y8470718D01*
Y8484673D01*
X11192400Y8498481D01*
Y8519519D01*
X11188700Y8533327D01*
Y8611673D01*
X11192400Y8625481D01*
Y8646519D01*
X11188700Y8660327D01*
Y8738673D01*
X11192400Y8752481D01*
Y8773519D01*
X11188700Y8787327D01*
Y8839200D01*
X11136827D01*
X11123019Y8842900D01*
D02*
G37*
G36*
X9676404Y9613900D02*
X9652996D01*
X9630386Y9607842D01*
X9610114Y9596138D01*
X9593562Y9579586D01*
X9581858Y9559314D01*
X9575800Y9536704D01*
Y9513296D01*
X9581858Y9490686D01*
X9593562Y9470414D01*
X9610114Y9453862D01*
X9613313Y9452015D01*
Y7645400D01*
X9462087D01*
Y9325015D01*
X9465286Y9326862D01*
X9481838Y9343414D01*
X9493542Y9363686D01*
X9499600Y9386296D01*
Y9409704D01*
X9493542Y9432314D01*
X9481838Y9452586D01*
X9465286Y9469138D01*
X9445014Y9480842D01*
X9422404Y9486900D01*
X9398996D01*
X9376386Y9480842D01*
X9356114Y9469138D01*
X9339562Y9452586D01*
X9327858Y9432314D01*
X9321800Y9409704D01*
Y9386296D01*
X9327858Y9363686D01*
X9339562Y9343414D01*
X9356114Y9326862D01*
X9359313Y9325015D01*
Y7645400D01*
X9208087D01*
Y9198015D01*
X9211286Y9199862D01*
X9227838Y9216414D01*
X9239542Y9236686D01*
X9245600Y9259296D01*
Y9282704D01*
X9239542Y9305314D01*
X9227838Y9325586D01*
X9211286Y9342138D01*
X9191014Y9353842D01*
X9168404Y9359900D01*
X9144996D01*
X9122386Y9353842D01*
X9102114Y9342138D01*
X9085562Y9325586D01*
X9073858Y9305314D01*
X9067800Y9282704D01*
Y9259296D01*
X9073858Y9236686D01*
X9085562Y9216414D01*
X9102114Y9199862D01*
X9105313Y9198015D01*
Y7645400D01*
X8954087D01*
Y8690015D01*
X8957286Y8691862D01*
X8973838Y8708414D01*
X8985542Y8728686D01*
X8991600Y8751296D01*
Y8774704D01*
X8985542Y8797314D01*
X8973838Y8817586D01*
X8957286Y8834138D01*
X8937014Y8845842D01*
X8914404Y8851900D01*
X8890996D01*
X8868386Y8845842D01*
X8848114Y8834138D01*
X8831562Y8817586D01*
X8819858Y8797314D01*
X8813800Y8774704D01*
Y8751296D01*
X8819858Y8728686D01*
X8831562Y8708414D01*
X8848114Y8691862D01*
X8851313Y8690015D01*
Y7645400D01*
X8700487D01*
Y8555914D01*
X8715986Y8564862D01*
X8732538Y8581414D01*
X8744242Y8601686D01*
X8750300Y8624296D01*
Y8647704D01*
X8744242Y8670314D01*
X8732538Y8690586D01*
X8715986Y8707138D01*
X8695714Y8718842D01*
X8673104Y8724900D01*
X8649696D01*
X8627086Y8718842D01*
X8606814Y8707138D01*
X8590262Y8690586D01*
X8578558Y8670314D01*
X8572500Y8647704D01*
Y8624296D01*
X8578558Y8601686D01*
X8590262Y8581414D01*
X8597713Y8573964D01*
Y7645400D01*
X8446087D01*
Y8423315D01*
X8449286Y8425162D01*
X8465838Y8441714D01*
X8477542Y8461986D01*
X8483600Y8484596D01*
Y8508004D01*
X8477542Y8530614D01*
X8465838Y8550886D01*
X8449286Y8567438D01*
X8429014Y8579142D01*
X8406404Y8585200D01*
X8382996D01*
X8360386Y8579142D01*
X8340114Y8567438D01*
X8323562Y8550886D01*
X8311858Y8530614D01*
X8305800Y8508004D01*
Y8484596D01*
X8311858Y8461986D01*
X8323562Y8441714D01*
X8340114Y8425162D01*
X8343313Y8423315D01*
Y7645400D01*
X7861300D01*
Y7137400D01*
X10223500D01*
Y7416557D01*
X10248900Y7430412D01*
X10260484Y7423724D01*
X10286324Y7416800D01*
X10313076D01*
X10338916Y7423724D01*
X10362084Y7437100D01*
X10381000Y7456016D01*
X10394376Y7479184D01*
X10401300Y7505024D01*
Y7531776D01*
X10394376Y7557616D01*
X10381000Y7580784D01*
X10362084Y7599700D01*
X10338916Y7613076D01*
X10313076Y7620000D01*
X10286324D01*
X10260484Y7613076D01*
X10248900Y7606388D01*
X10223500Y7620243D01*
Y7645400D01*
X9716087D01*
Y9452015D01*
X9719286Y9453862D01*
X9735838Y9470414D01*
X9747542Y9490686D01*
X9753600Y9513296D01*
Y9536704D01*
X9747542Y9559314D01*
X9735838Y9579586D01*
X9719286Y9596138D01*
X9699014Y9607842D01*
X9676404Y9613900D01*
D02*
G37*
G36*
X11123019Y8080900D02*
X11101981D01*
X11088173Y8077200D01*
X11023600D01*
Y7416800D01*
X11088173D01*
X11101981Y7413100D01*
X11123019D01*
X11136827Y7416800D01*
X11215173D01*
X11228981Y7413100D01*
X11250019D01*
X11263827Y7416800D01*
X11328400D01*
Y7821455D01*
X11270340D01*
X11250019Y7826900D01*
X11228981D01*
X11208660Y7821455D01*
X11188700D01*
Y7835718D01*
Y7849673D01*
X11192400Y7863481D01*
Y7884519D01*
X11188700Y7898327D01*
Y7976673D01*
X11192400Y7990481D01*
Y8011519D01*
X11188700Y8025327D01*
Y8077200D01*
X11136827D01*
X11123019Y8080900D01*
D02*
G37*
G36*
X11250019Y7318900D02*
X11228981D01*
X11215173Y7315200D01*
X11136827D01*
X11123019Y7318900D01*
X11101981D01*
X11088173Y7315200D01*
X11023600D01*
Y6654800D01*
X11088173D01*
X11101981Y6651100D01*
X11123019D01*
X11136827Y6654800D01*
X11215173D01*
X11228981Y6651100D01*
X11250019D01*
X11263827Y6654800D01*
X11328400D01*
Y7315200D01*
X11263827D01*
X11250019Y7318900D01*
D02*
G37*
%LPD*%
D10*
X9537700Y7264400D02*
X9664700Y7391400D01*
Y9525000D01*
X9410700Y7391400D02*
Y9398000D01*
X9283700Y7264400D02*
X9410700Y7391400D01*
X9156700D02*
Y9271000D01*
X9029700Y7264400D02*
X9156700Y7391400D01*
X8394700D02*
Y8496300D01*
X8267700Y7264400D02*
X8394700Y7391400D01*
X8775700Y7264400D02*
X8902700Y7391400D01*
Y8763000D01*
X8521700Y7264400D02*
X8649100Y7391800D01*
Y8623700D01*
X8661400Y8636000D01*
D11*
X11112500Y3771900D02*
D03*
Y9652000D02*
D03*
D12*
X11239500Y3771900D02*
D03*
X11112500Y3644900D02*
D03*
X11239500D02*
D03*
X11112500Y3517900D02*
D03*
X11239500D02*
D03*
X11112500Y3390900D02*
D03*
X11239500D02*
D03*
X11112500Y3263900D02*
D03*
X11239500D02*
D03*
X11112500Y3136900D02*
D03*
X11239500D02*
D03*
X11112500Y3009900D02*
D03*
X11239500D02*
D03*
X11112500Y2882900D02*
D03*
X11239500D02*
D03*
X11112500Y2755900D02*
D03*
X11239500D02*
D03*
X11112500Y2628900D02*
D03*
X11239500D02*
D03*
X11112500Y2501900D02*
D03*
X11239500D02*
D03*
X11112500Y2374900D02*
D03*
X11239500D02*
D03*
X11112500Y2247900D02*
D03*
X11239500D02*
D03*
X11112500Y2120900D02*
D03*
X11239500D02*
D03*
X11112500Y1993900D02*
D03*
X11239500D02*
D03*
X11112500Y1866900D02*
D03*
X11239500D02*
D03*
X11112500Y1739900D02*
D03*
X11239500D02*
D03*
X11112500Y1612900D02*
D03*
X11239500D02*
D03*
X11112500Y1485900D02*
D03*
X11239500D02*
D03*
X11112500Y1358900D02*
D03*
X11239500D02*
D03*
X11112500Y1231900D02*
D03*
X11239500D02*
D03*
X11112500Y1104900D02*
D03*
X11239500D02*
D03*
X11112500Y977900D02*
D03*
X11239500D02*
D03*
X11112500Y850900D02*
D03*
X11239500D02*
D03*
X11112500Y723900D02*
D03*
X11239500D02*
D03*
Y6604000D02*
D03*
X11112500D02*
D03*
X11239500Y6731000D02*
D03*
X11112500D02*
D03*
X11239500Y6858000D02*
D03*
X11112500D02*
D03*
X11239500Y6985000D02*
D03*
X11112500D02*
D03*
X11239500Y7112000D02*
D03*
X11112500D02*
D03*
X11239500Y7239000D02*
D03*
X11112500D02*
D03*
X11239500Y7366000D02*
D03*
X11112500D02*
D03*
X11239500Y7493000D02*
D03*
X11112500D02*
D03*
X11239500Y7620000D02*
D03*
X11112500D02*
D03*
X11239500Y7747000D02*
D03*
X11112500D02*
D03*
X11239500Y7874000D02*
D03*
X11112500D02*
D03*
X11239500Y8001000D02*
D03*
X11112500D02*
D03*
X11239500Y8128000D02*
D03*
X11112500D02*
D03*
X11239500Y8255000D02*
D03*
X11112500D02*
D03*
X11239500Y8382000D02*
D03*
X11112500D02*
D03*
X11239500Y8509000D02*
D03*
X11112500D02*
D03*
X11239500Y8636000D02*
D03*
X11112500D02*
D03*
X11239500Y8763000D02*
D03*
X11112500D02*
D03*
X11239500Y8890000D02*
D03*
X11112500D02*
D03*
X11239500Y9017000D02*
D03*
X11112500D02*
D03*
X11239500Y9144000D02*
D03*
X11112500D02*
D03*
X11239500Y9271000D02*
D03*
X11112500D02*
D03*
X11239500Y9398000D02*
D03*
X11112500D02*
D03*
X11239500Y9525000D02*
D03*
X11112500D02*
D03*
X11239500Y9652000D02*
D03*
D13*
X10299700Y7518400D02*
D03*
Y7264400D02*
D03*
X10045700Y7518400D02*
D03*
Y7264400D02*
D03*
X9791700Y7518400D02*
D03*
Y7264400D02*
D03*
X9537700Y7518400D02*
D03*
Y7264400D02*
D03*
X9283700Y7518400D02*
D03*
Y7264400D02*
D03*
X9029700Y7518400D02*
D03*
Y7264400D02*
D03*
X8775700Y7518400D02*
D03*
Y7264400D02*
D03*
X8521700Y7518400D02*
D03*
Y7264400D02*
D03*
X8267700Y7518400D02*
D03*
Y7264400D02*
D03*
X8013700Y7518400D02*
D03*
Y7264400D02*
D03*
X10299700Y3200400D02*
D03*
Y2946400D02*
D03*
X10045700Y3200400D02*
D03*
Y2946400D02*
D03*
X9791700Y3200400D02*
D03*
Y2946400D02*
D03*
X9537700Y3200400D02*
D03*
Y2946400D02*
D03*
X9283700Y3200400D02*
D03*
Y2946400D02*
D03*
X9029700Y3200400D02*
D03*
Y2946400D02*
D03*
X8775700Y3200400D02*
D03*
Y2946400D02*
D03*
X8521700Y3200400D02*
D03*
Y2946400D02*
D03*
X8267700Y3200400D02*
D03*
Y2946400D02*
D03*
X8013700Y3200400D02*
D03*
Y2946400D02*
D03*
D14*
X8394700Y8496300D02*
D03*
X8661400Y8636000D02*
D03*
X9156700Y9271000D02*
D03*
X9410700Y9398000D02*
D03*
X9664700Y9525000D02*
D03*
X8902700Y8763000D02*
D03*
%TF.MD5,c4c0fdaf63ed2e4eb4e04da0475228bc*%
M02*
