G04*
G04 #@! TF.GenerationSoftware,Altium Limited,Altium Designer,22.11.1 (43)*
G04*
G04 Layer_Physical_Order=2*
G04 Layer_Color=16711680*
%FSLAX44Y44*%
%MOMM*%
G71*
G04*
G04 #@! TF.SameCoordinates,5926677A-74AB-409A-8ECC-7C9113B37032*
G04*
G04*
G04 #@! TF.FilePolarity,Positive*
G04*
G01*
G75*
%ADD30C,0.5080*%
%ADD32C,1.2700*%
%ADD33C,3.0000*%
%ADD34O,3.6000X3.2000*%
%ADD35R,1.4000X1.4000*%
%ADD36C,1.4000*%
%ADD37C,2.2000*%
%ADD38C,3.5000*%
%ADD39C,2.5000*%
%ADD40C,5.5000*%
%ADD41C,10.0000*%
%ADD42R,2.5000X2.5000*%
%ADD43R,1.0900X1.0900*%
%ADD44C,1.0900*%
%ADD45C,1.2700*%
G36*
X3180080Y2745740D02*
X2727960D01*
X2727960Y2994660D01*
X2682240Y3040380D01*
X2567817D01*
Y3123130D01*
X2567511Y3125451D01*
X2566615Y3127614D01*
X2565190Y3129471D01*
X2564120Y3130540D01*
X2562263Y3131965D01*
X2560101Y3132861D01*
X2557780Y3133167D01*
X2555459Y3132861D01*
X2553297Y3131965D01*
X2551440Y3130540D01*
X2550015Y3128683D01*
X2549119Y3126521D01*
X2548813Y3124200D01*
X2549119Y3121879D01*
X2549883Y3120034D01*
Y3109255D01*
X2548687Y3108827D01*
X2548146Y3109486D01*
X2545856Y3111366D01*
X2543243Y3112762D01*
X2540408Y3113622D01*
X2537460Y3113913D01*
X2534512Y3113622D01*
X2531677Y3112762D01*
X2529064Y3111366D01*
X2526774Y3109486D01*
X2524894Y3107196D01*
X2523498Y3104583D01*
X2522638Y3101748D01*
X2522347Y3098800D01*
X2522638Y3095852D01*
X2523498Y3093017D01*
X2524894Y3090404D01*
X2526774Y3088114D01*
X2529064Y3086234D01*
X2531677Y3084838D01*
X2534512Y3083978D01*
X2537460Y3083687D01*
X2540408Y3083978D01*
X2543243Y3084838D01*
X2545856Y3086234D01*
X2548146Y3088114D01*
X2548687Y3088773D01*
X2549883Y3088345D01*
Y3040380D01*
X1809827D01*
Y3096260D01*
X1809521Y3098581D01*
X1808625Y3100743D01*
X1807200Y3102600D01*
X1805343Y3104025D01*
X1803181Y3104921D01*
X1800860Y3105227D01*
X1798539Y3104921D01*
X1796377Y3104025D01*
X1794520Y3102600D01*
X1793095Y3100743D01*
X1792199Y3098581D01*
X1791893Y3096260D01*
Y3040380D01*
X1499947D01*
Y3073400D01*
X1499641Y3075721D01*
X1498745Y3077883D01*
X1497320Y3079740D01*
X1449060Y3128000D01*
X1447203Y3129425D01*
X1445041Y3130321D01*
X1442720Y3130627D01*
X1440399Y3130321D01*
X1438237Y3129425D01*
X1436380Y3128000D01*
X1434955Y3126143D01*
X1434059Y3123981D01*
X1433753Y3121660D01*
X1434059Y3119339D01*
X1434955Y3117177D01*
X1436380Y3115320D01*
X1482013Y3069686D01*
Y3040380D01*
X1233247D01*
Y3069954D01*
X1234479Y3070262D01*
X1234574Y3070084D01*
X1236454Y3067794D01*
X1238744Y3065914D01*
X1241357Y3064518D01*
X1244192Y3063658D01*
X1247140Y3063367D01*
X1250088Y3063658D01*
X1252923Y3064518D01*
X1255536Y3065914D01*
X1257826Y3067794D01*
X1259706Y3070084D01*
X1261102Y3072697D01*
X1261962Y3075532D01*
X1262253Y3078480D01*
X1261962Y3081429D01*
X1261102Y3084263D01*
X1259706Y3086876D01*
X1257826Y3089166D01*
X1255536Y3091046D01*
X1252923Y3092442D01*
X1250088Y3093302D01*
X1247140Y3093593D01*
X1244192Y3093302D01*
X1241357Y3092442D01*
X1238744Y3091046D01*
X1236454Y3089166D01*
X1234574Y3086876D01*
X1234479Y3086697D01*
X1233247Y3087006D01*
Y3138170D01*
X1232941Y3140491D01*
X1232045Y3142654D01*
X1230620Y3144510D01*
X1228080Y3147050D01*
X1226223Y3148475D01*
X1224061Y3149371D01*
X1221740Y3149677D01*
X1219419Y3149371D01*
X1217257Y3148475D01*
X1215400Y3147050D01*
X1213975Y3145193D01*
X1213079Y3143031D01*
X1212773Y3140710D01*
X1213079Y3138389D01*
X1213975Y3136227D01*
X1215313Y3134482D01*
Y3040380D01*
X1181150D01*
Y3159760D01*
X1180953Y3160751D01*
X1180391Y3161591D01*
X1179551Y3162153D01*
X1178560Y3162350D01*
X1122680D01*
X1121689Y3162153D01*
X1120849Y3161591D01*
X1120287Y3160751D01*
X1120090Y3159760D01*
Y3040380D01*
X754380D01*
X640080Y2926080D01*
Y2804160D01*
X613007D01*
X612818Y2805430D01*
X612843Y2805438D01*
X615456Y2806834D01*
X617746Y2808714D01*
X619626Y2811004D01*
X621022Y2813617D01*
X621882Y2816452D01*
X622173Y2819400D01*
X621882Y2822348D01*
X621022Y2825183D01*
X619626Y2827796D01*
X617746Y2830086D01*
X615456Y2831966D01*
X612843Y2833362D01*
X610008Y2834222D01*
X607060Y2834513D01*
X604112Y2834222D01*
X601277Y2833362D01*
X598664Y2831966D01*
X596374Y2830086D01*
X594494Y2827796D01*
X593098Y2825183D01*
X592238Y2822348D01*
X591947Y2819400D01*
X592238Y2816452D01*
X593098Y2813617D01*
X594494Y2811004D01*
X596374Y2808714D01*
X598664Y2806834D01*
X601277Y2805438D01*
X601302Y2805430D01*
X601113Y2804160D01*
X536807D01*
X536618Y2805430D01*
X536643Y2805438D01*
X539256Y2806834D01*
X541546Y2808714D01*
X543426Y2811004D01*
X544822Y2813617D01*
X545682Y2816452D01*
X545973Y2819400D01*
X545682Y2822348D01*
X544822Y2825183D01*
X543426Y2827796D01*
X541546Y2830086D01*
X539256Y2831966D01*
X536643Y2833362D01*
X533808Y2834222D01*
X530860Y2834513D01*
X527912Y2834222D01*
X525077Y2833362D01*
X522464Y2831966D01*
X520174Y2830086D01*
X518294Y2827796D01*
X516898Y2825183D01*
X516038Y2822348D01*
X515747Y2819400D01*
X516038Y2816452D01*
X516898Y2813617D01*
X518294Y2811004D01*
X520174Y2808714D01*
X522464Y2806834D01*
X525077Y2805438D01*
X525102Y2805430D01*
X524913Y2804160D01*
X463147D01*
X462958Y2805430D01*
X462983Y2805438D01*
X465596Y2806834D01*
X467886Y2808714D01*
X469766Y2811004D01*
X471162Y2813617D01*
X472022Y2816452D01*
X472313Y2819400D01*
X472022Y2822348D01*
X471162Y2825183D01*
X469766Y2827796D01*
X467886Y2830086D01*
X465596Y2831966D01*
X462983Y2833362D01*
X460148Y2834222D01*
X457200Y2834513D01*
X454252Y2834222D01*
X451417Y2833362D01*
X448804Y2831966D01*
X446514Y2830086D01*
X444634Y2827796D01*
X443238Y2825183D01*
X442378Y2822348D01*
X442087Y2819400D01*
X442378Y2816452D01*
X443238Y2813617D01*
X444634Y2811004D01*
X446514Y2808714D01*
X448804Y2806834D01*
X451417Y2805438D01*
X451442Y2805430D01*
X451253Y2804160D01*
X389487D01*
X389298Y2805430D01*
X389323Y2805438D01*
X391936Y2806834D01*
X394226Y2808714D01*
X396106Y2811004D01*
X397502Y2813617D01*
X398362Y2816452D01*
X398653Y2819400D01*
X398362Y2822348D01*
X397502Y2825183D01*
X396106Y2827796D01*
X394226Y2830086D01*
X391936Y2831966D01*
X389323Y2833362D01*
X386488Y2834222D01*
X383540Y2834513D01*
X380592Y2834222D01*
X377757Y2833362D01*
X375144Y2831966D01*
X372854Y2830086D01*
X370974Y2827796D01*
X369578Y2825183D01*
X368718Y2822348D01*
X368427Y2819400D01*
X368718Y2816452D01*
X369578Y2813617D01*
X370974Y2811004D01*
X372854Y2808714D01*
X375144Y2806834D01*
X377757Y2805438D01*
X377782Y2805430D01*
X377593Y2804160D01*
X318367D01*
X318178Y2805430D01*
X318203Y2805438D01*
X320816Y2806834D01*
X323106Y2808714D01*
X324986Y2811004D01*
X326382Y2813617D01*
X327242Y2816452D01*
X327533Y2819400D01*
X327242Y2822348D01*
X326382Y2825183D01*
X324986Y2827796D01*
X323106Y2830086D01*
X320816Y2831966D01*
X318203Y2833362D01*
X315368Y2834222D01*
X312420Y2834513D01*
X309472Y2834222D01*
X306637Y2833362D01*
X304024Y2831966D01*
X301734Y2830086D01*
X299854Y2827796D01*
X298458Y2825183D01*
X298450Y2825158D01*
X297180Y2825347D01*
Y3040380D01*
Y3245663D01*
X298236Y3246368D01*
X300568Y3245402D01*
X305166Y3244298D01*
X309880Y3243927D01*
X314594Y3244298D01*
X319192Y3245402D01*
X323560Y3247211D01*
X327592Y3249682D01*
X331187Y3252753D01*
X334258Y3256348D01*
X336729Y3260380D01*
X338538Y3264749D01*
X339642Y3269346D01*
X340013Y3274060D01*
X339642Y3278774D01*
X338538Y3283372D01*
X336729Y3287740D01*
X334258Y3291772D01*
X331187Y3295367D01*
X327592Y3298438D01*
X323560Y3300909D01*
X319192Y3302718D01*
X314594Y3303822D01*
X309880Y3304193D01*
X305166Y3303822D01*
X300568Y3302718D01*
X298236Y3301752D01*
X297180Y3302458D01*
Y3441700D01*
X3180080D01*
Y2745740D01*
D02*
G37*
G36*
X1178560Y2966720D02*
X2504440D01*
Y2910840D01*
X1122680D01*
Y3159760D01*
X1178560D01*
Y2966720D01*
D02*
G37*
G36*
X3500120Y2700020D02*
X3230880D01*
Y2870200D01*
X3500120D01*
Y2700020D01*
D02*
G37*
G36*
X1859280Y2479040D02*
X1565412Y2185172D01*
X1076960D01*
Y2857500D01*
X1859280D01*
Y2479040D01*
D02*
G37*
G36*
X2692058Y2859052D02*
Y2179038D01*
X2189138D01*
X1889418Y2478758D01*
Y2859758D01*
X2691071Y2860321D01*
X2692058Y2859052D01*
D02*
G37*
%LPC*%
G36*
X1955800Y3428873D02*
X1952852Y3428582D01*
X1950017Y3427722D01*
X1947404Y3426326D01*
X1945114Y3424446D01*
X1943234Y3422156D01*
X1941838Y3419543D01*
X1940978Y3416708D01*
X1940687Y3413760D01*
X1940978Y3410811D01*
X1941838Y3407977D01*
X1943234Y3405364D01*
X1945114Y3403074D01*
X1947404Y3401194D01*
X1950017Y3399798D01*
X1952852Y3398938D01*
X1955800Y3398647D01*
X1958748Y3398938D01*
X1961583Y3399798D01*
X1964196Y3401194D01*
X1966486Y3403074D01*
X1968366Y3405364D01*
X1969762Y3407977D01*
X1970622Y3410811D01*
X1970913Y3413760D01*
X1970622Y3416708D01*
X1969762Y3419543D01*
X1968366Y3422156D01*
X1966486Y3424446D01*
X1964196Y3426326D01*
X1961583Y3427722D01*
X1958748Y3428582D01*
X1955800Y3428873D01*
D02*
G37*
G36*
X2440940Y3426333D02*
X2437992Y3426042D01*
X2435157Y3425182D01*
X2432544Y3423786D01*
X2430254Y3421906D01*
X2428374Y3419616D01*
X2426978Y3417003D01*
X2426118Y3414168D01*
X2425827Y3411220D01*
X2426118Y3408271D01*
X2426978Y3405437D01*
X2428374Y3402824D01*
X2430254Y3400534D01*
X2432544Y3398654D01*
X2435157Y3397258D01*
X2437992Y3396398D01*
X2440940Y3396107D01*
X2443888Y3396398D01*
X2446723Y3397258D01*
X2449336Y3398654D01*
X2451626Y3400534D01*
X2453506Y3402824D01*
X2454902Y3405437D01*
X2455762Y3408271D01*
X2456053Y3411220D01*
X2455762Y3414168D01*
X2454902Y3417003D01*
X2453506Y3419616D01*
X2451626Y3421906D01*
X2449336Y3423786D01*
X2446723Y3425182D01*
X2443888Y3426042D01*
X2440940Y3426333D01*
D02*
G37*
G36*
X2974340Y3394172D02*
X2971850Y3393844D01*
X2969529Y3392883D01*
X2967536Y3391354D01*
X2966007Y3389361D01*
X2965045Y3387040D01*
X2964718Y3384550D01*
X2965045Y3382060D01*
X2966007Y3379739D01*
X2967536Y3377746D01*
X2969529Y3376217D01*
X2971850Y3375256D01*
X2974340Y3374928D01*
X2976830Y3375256D01*
X2979151Y3376217D01*
X2981144Y3377746D01*
X2982673Y3379739D01*
X2983634Y3382060D01*
X2983962Y3384550D01*
X2983634Y3387040D01*
X2982673Y3389361D01*
X2981144Y3391354D01*
X2979151Y3392883D01*
X2976830Y3393844D01*
X2974340Y3394172D01*
D02*
G37*
G36*
X2948940D02*
X2946450Y3393844D01*
X2944129Y3392883D01*
X2942136Y3391354D01*
X2940607Y3389361D01*
X2939646Y3387040D01*
X2939318Y3384550D01*
X2939646Y3382060D01*
X2940607Y3379739D01*
X2942136Y3377746D01*
X2944129Y3376217D01*
X2946450Y3375256D01*
X2948940Y3374928D01*
X2951430Y3375256D01*
X2953751Y3376217D01*
X2955744Y3377746D01*
X2957273Y3379739D01*
X2958234Y3382060D01*
X2958562Y3384550D01*
X2958234Y3387040D01*
X2957273Y3389361D01*
X2955744Y3391354D01*
X2953751Y3392883D01*
X2951430Y3393844D01*
X2948940Y3394172D01*
D02*
G37*
G36*
X2923540D02*
X2921049Y3393844D01*
X2918729Y3392883D01*
X2916736Y3391354D01*
X2915207Y3389361D01*
X2914246Y3387040D01*
X2913918Y3384550D01*
X2914246Y3382060D01*
X2915207Y3379739D01*
X2916736Y3377746D01*
X2918729Y3376217D01*
X2921049Y3375256D01*
X2923540Y3374928D01*
X2926030Y3375256D01*
X2928351Y3376217D01*
X2930344Y3377746D01*
X2931873Y3379739D01*
X2932834Y3382060D01*
X2933162Y3384550D01*
X2932834Y3387040D01*
X2931873Y3389361D01*
X2930344Y3391354D01*
X2928351Y3392883D01*
X2926030Y3393844D01*
X2923540Y3394172D01*
D02*
G37*
G36*
X2898140D02*
X2895650Y3393844D01*
X2893329Y3392883D01*
X2891336Y3391354D01*
X2889807Y3389361D01*
X2888846Y3387040D01*
X2888518Y3384550D01*
X2888846Y3382060D01*
X2889807Y3379739D01*
X2891336Y3377746D01*
X2893329Y3376217D01*
X2895650Y3375256D01*
X2898140Y3374928D01*
X2900630Y3375256D01*
X2902951Y3376217D01*
X2904944Y3377746D01*
X2906473Y3379739D01*
X2907434Y3382060D01*
X2907762Y3384550D01*
X2907434Y3387040D01*
X2906473Y3389361D01*
X2904944Y3391354D01*
X2902951Y3392883D01*
X2900630Y3393844D01*
X2898140Y3394172D01*
D02*
G37*
G36*
X2872740D02*
X2870250Y3393844D01*
X2867929Y3392883D01*
X2865936Y3391354D01*
X2864407Y3389361D01*
X2863446Y3387040D01*
X2863118Y3384550D01*
X2863446Y3382060D01*
X2864407Y3379739D01*
X2865936Y3377746D01*
X2867929Y3376217D01*
X2870250Y3375256D01*
X2872740Y3374928D01*
X2875230Y3375256D01*
X2877551Y3376217D01*
X2879544Y3377746D01*
X2881073Y3379739D01*
X2882034Y3382060D01*
X2882362Y3384550D01*
X2882034Y3387040D01*
X2881073Y3389361D01*
X2879544Y3391354D01*
X2877551Y3392883D01*
X2875230Y3393844D01*
X2872740Y3394172D01*
D02*
G37*
G36*
X2847340D02*
X2844850Y3393844D01*
X2842529Y3392883D01*
X2840536Y3391354D01*
X2839007Y3389361D01*
X2838046Y3387040D01*
X2837718Y3384550D01*
X2838046Y3382060D01*
X2839007Y3379739D01*
X2840536Y3377746D01*
X2842529Y3376217D01*
X2844850Y3375256D01*
X2847340Y3374928D01*
X2849830Y3375256D01*
X2852151Y3376217D01*
X2854144Y3377746D01*
X2855673Y3379739D01*
X2856635Y3382060D01*
X2856962Y3384550D01*
X2856635Y3387040D01*
X2855673Y3389361D01*
X2854144Y3391354D01*
X2852151Y3392883D01*
X2849830Y3393844D01*
X2847340Y3394172D01*
D02*
G37*
G36*
X2821940D02*
X2819449Y3393844D01*
X2817129Y3392883D01*
X2815136Y3391354D01*
X2813607Y3389361D01*
X2812646Y3387040D01*
X2812318Y3384550D01*
X2812646Y3382060D01*
X2813607Y3379739D01*
X2815136Y3377746D01*
X2817129Y3376217D01*
X2819449Y3375256D01*
X2821940Y3374928D01*
X2824431Y3375256D01*
X2826751Y3376217D01*
X2828744Y3377746D01*
X2830273Y3379739D01*
X2831234Y3382060D01*
X2831562Y3384550D01*
X2831234Y3387040D01*
X2830273Y3389361D01*
X2828744Y3391354D01*
X2826751Y3392883D01*
X2824431Y3393844D01*
X2821940Y3394172D01*
D02*
G37*
G36*
X2796540D02*
X2794050Y3393844D01*
X2791729Y3392883D01*
X2789736Y3391354D01*
X2788207Y3389361D01*
X2787245Y3387040D01*
X2786918Y3384550D01*
X2787245Y3382060D01*
X2788207Y3379739D01*
X2789736Y3377746D01*
X2791729Y3376217D01*
X2794050Y3375256D01*
X2796540Y3374928D01*
X2799030Y3375256D01*
X2801351Y3376217D01*
X2803344Y3377746D01*
X2804873Y3379739D01*
X2805834Y3382060D01*
X2806162Y3384550D01*
X2805834Y3387040D01*
X2804873Y3389361D01*
X2803344Y3391354D01*
X2801351Y3392883D01*
X2799030Y3393844D01*
X2796540Y3394172D01*
D02*
G37*
G36*
X2771140D02*
X2768650Y3393844D01*
X2766329Y3392883D01*
X2764336Y3391354D01*
X2762807Y3389361D01*
X2761846Y3387040D01*
X2761518Y3384550D01*
X2761846Y3382060D01*
X2762807Y3379739D01*
X2764336Y3377746D01*
X2766329Y3376217D01*
X2768650Y3375256D01*
X2771140Y3374928D01*
X2773630Y3375256D01*
X2775951Y3376217D01*
X2777944Y3377746D01*
X2779473Y3379739D01*
X2780434Y3382060D01*
X2780762Y3384550D01*
X2780434Y3387040D01*
X2779473Y3389361D01*
X2777944Y3391354D01*
X2775951Y3392883D01*
X2773630Y3393844D01*
X2771140Y3394172D01*
D02*
G37*
G36*
X551180D02*
X548690Y3393844D01*
X546369Y3392883D01*
X544376Y3391354D01*
X542847Y3389361D01*
X541886Y3387040D01*
X541558Y3384550D01*
X541886Y3382060D01*
X542847Y3379739D01*
X544376Y3377746D01*
X546369Y3376217D01*
X548690Y3375256D01*
X551180Y3374928D01*
X553670Y3375256D01*
X555991Y3376217D01*
X557984Y3377746D01*
X559513Y3379739D01*
X560474Y3382060D01*
X560802Y3384550D01*
X560474Y3387040D01*
X559513Y3389361D01*
X557984Y3391354D01*
X555991Y3392883D01*
X553670Y3393844D01*
X551180Y3394172D01*
D02*
G37*
G36*
X525780D02*
X523290Y3393844D01*
X520969Y3392883D01*
X518976Y3391354D01*
X517447Y3389361D01*
X516486Y3387040D01*
X516158Y3384550D01*
X516486Y3382060D01*
X517447Y3379739D01*
X518976Y3377746D01*
X520969Y3376217D01*
X523290Y3375256D01*
X525780Y3374928D01*
X528270Y3375256D01*
X530591Y3376217D01*
X532584Y3377746D01*
X534113Y3379739D01*
X535074Y3382060D01*
X535402Y3384550D01*
X535074Y3387040D01*
X534113Y3389361D01*
X532584Y3391354D01*
X530591Y3392883D01*
X528270Y3393844D01*
X525780Y3394172D01*
D02*
G37*
G36*
X500380D02*
X497890Y3393844D01*
X495569Y3392883D01*
X493576Y3391354D01*
X492047Y3389361D01*
X491086Y3387040D01*
X490758Y3384550D01*
X491086Y3382060D01*
X492047Y3379739D01*
X493576Y3377746D01*
X495569Y3376217D01*
X497890Y3375256D01*
X500380Y3374928D01*
X502870Y3375256D01*
X505191Y3376217D01*
X507184Y3377746D01*
X508713Y3379739D01*
X509674Y3382060D01*
X510002Y3384550D01*
X509674Y3387040D01*
X508713Y3389361D01*
X507184Y3391354D01*
X505191Y3392883D01*
X502870Y3393844D01*
X500380Y3394172D01*
D02*
G37*
G36*
X474980D02*
X472490Y3393844D01*
X470169Y3392883D01*
X468176Y3391354D01*
X466647Y3389361D01*
X465686Y3387040D01*
X465358Y3384550D01*
X465686Y3382060D01*
X466647Y3379739D01*
X468176Y3377746D01*
X470169Y3376217D01*
X472490Y3375256D01*
X474980Y3374928D01*
X477470Y3375256D01*
X479791Y3376217D01*
X481784Y3377746D01*
X483313Y3379739D01*
X484274Y3382060D01*
X484602Y3384550D01*
X484274Y3387040D01*
X483313Y3389361D01*
X481784Y3391354D01*
X479791Y3392883D01*
X477470Y3393844D01*
X474980Y3394172D01*
D02*
G37*
G36*
X449580D02*
X447090Y3393844D01*
X444769Y3392883D01*
X442776Y3391354D01*
X441247Y3389361D01*
X440286Y3387040D01*
X439958Y3384550D01*
X440286Y3382060D01*
X441247Y3379739D01*
X442776Y3377746D01*
X444769Y3376217D01*
X447090Y3375256D01*
X449580Y3374928D01*
X452070Y3375256D01*
X454391Y3376217D01*
X456384Y3377746D01*
X457913Y3379739D01*
X458874Y3382060D01*
X459202Y3384550D01*
X458874Y3387040D01*
X457913Y3389361D01*
X456384Y3391354D01*
X454391Y3392883D01*
X452070Y3393844D01*
X449580Y3394172D01*
D02*
G37*
G36*
X424180D02*
X421690Y3393844D01*
X419369Y3392883D01*
X417376Y3391354D01*
X415847Y3389361D01*
X414886Y3387040D01*
X414558Y3384550D01*
X414886Y3382060D01*
X415847Y3379739D01*
X417376Y3377746D01*
X419369Y3376217D01*
X421690Y3375256D01*
X424180Y3374928D01*
X426670Y3375256D01*
X428991Y3376217D01*
X430984Y3377746D01*
X432513Y3379739D01*
X433474Y3382060D01*
X433802Y3384550D01*
X433474Y3387040D01*
X432513Y3389361D01*
X430984Y3391354D01*
X428991Y3392883D01*
X426670Y3393844D01*
X424180Y3394172D01*
D02*
G37*
G36*
X398780D02*
X396290Y3393844D01*
X393969Y3392883D01*
X391976Y3391354D01*
X390447Y3389361D01*
X389486Y3387040D01*
X389158Y3384550D01*
X389486Y3382060D01*
X390447Y3379739D01*
X391976Y3377746D01*
X393969Y3376217D01*
X396290Y3375256D01*
X398780Y3374928D01*
X401270Y3375256D01*
X403591Y3376217D01*
X405584Y3377746D01*
X407113Y3379739D01*
X408074Y3382060D01*
X408402Y3384550D01*
X408074Y3387040D01*
X407113Y3389361D01*
X405584Y3391354D01*
X403591Y3392883D01*
X401270Y3393844D01*
X398780Y3394172D01*
D02*
G37*
G36*
X373380D02*
X370890Y3393844D01*
X368569Y3392883D01*
X366576Y3391354D01*
X365047Y3389361D01*
X364086Y3387040D01*
X363758Y3384550D01*
X364086Y3382060D01*
X365047Y3379739D01*
X366576Y3377746D01*
X368569Y3376217D01*
X370890Y3375256D01*
X373380Y3374928D01*
X375870Y3375256D01*
X378191Y3376217D01*
X380184Y3377746D01*
X381713Y3379739D01*
X382674Y3382060D01*
X383002Y3384550D01*
X382674Y3387040D01*
X381713Y3389361D01*
X380184Y3391354D01*
X378191Y3392883D01*
X375870Y3393844D01*
X373380Y3394172D01*
D02*
G37*
G36*
X347980D02*
X345490Y3393844D01*
X343169Y3392883D01*
X341176Y3391354D01*
X339647Y3389361D01*
X338686Y3387040D01*
X338358Y3384550D01*
X338686Y3382060D01*
X339647Y3379739D01*
X341176Y3377746D01*
X343169Y3376217D01*
X345490Y3375256D01*
X347980Y3374928D01*
X350470Y3375256D01*
X352791Y3376217D01*
X354784Y3377746D01*
X356313Y3379739D01*
X357274Y3382060D01*
X357602Y3384550D01*
X357274Y3387040D01*
X356313Y3389361D01*
X354784Y3391354D01*
X352791Y3392883D01*
X350470Y3393844D01*
X347980Y3394172D01*
D02*
G37*
G36*
X1955800Y3380613D02*
X1952852Y3380322D01*
X1950017Y3379462D01*
X1947404Y3378066D01*
X1945114Y3376186D01*
X1943234Y3373896D01*
X1941838Y3371283D01*
X1940978Y3368448D01*
X1940687Y3365500D01*
X1940978Y3362552D01*
X1941838Y3359716D01*
X1943234Y3357104D01*
X1945114Y3354814D01*
X1947404Y3352934D01*
X1950017Y3351537D01*
X1952852Y3350677D01*
X1955800Y3350387D01*
X1958748Y3350677D01*
X1961583Y3351537D01*
X1964196Y3352934D01*
X1966486Y3354814D01*
X1968366Y3357104D01*
X1969762Y3359716D01*
X1970622Y3362552D01*
X1970913Y3365500D01*
X1970622Y3368448D01*
X1969762Y3371283D01*
X1968366Y3373896D01*
X1966486Y3376186D01*
X1964196Y3378066D01*
X1961583Y3379462D01*
X1958748Y3380322D01*
X1955800Y3380613D01*
D02*
G37*
G36*
X2755280Y3368690D02*
X2736200D01*
Y3349610D01*
X2755280D01*
Y3368690D01*
D02*
G37*
G36*
X332120D02*
X313040D01*
Y3349610D01*
X332120D01*
Y3368690D01*
D02*
G37*
G36*
X2974340Y3368772D02*
X2971850Y3368445D01*
X2969529Y3367483D01*
X2967536Y3365954D01*
X2966007Y3363961D01*
X2965045Y3361640D01*
X2964718Y3359150D01*
X2965045Y3356660D01*
X2966007Y3354339D01*
X2967536Y3352346D01*
X2969529Y3350817D01*
X2971850Y3349856D01*
X2974340Y3349528D01*
X2976830Y3349856D01*
X2979151Y3350817D01*
X2981144Y3352346D01*
X2982673Y3354339D01*
X2983634Y3356660D01*
X2983962Y3359150D01*
X2983634Y3361640D01*
X2982673Y3363961D01*
X2981144Y3365954D01*
X2979151Y3367483D01*
X2976830Y3368445D01*
X2974340Y3368772D01*
D02*
G37*
G36*
X2948940D02*
X2946450Y3368445D01*
X2944129Y3367483D01*
X2942136Y3365954D01*
X2940607Y3363961D01*
X2939646Y3361640D01*
X2939318Y3359150D01*
X2939646Y3356660D01*
X2940607Y3354339D01*
X2942136Y3352346D01*
X2944129Y3350817D01*
X2946450Y3349856D01*
X2948940Y3349528D01*
X2951430Y3349856D01*
X2953751Y3350817D01*
X2955744Y3352346D01*
X2957273Y3354339D01*
X2958234Y3356660D01*
X2958562Y3359150D01*
X2958234Y3361640D01*
X2957273Y3363961D01*
X2955744Y3365954D01*
X2953751Y3367483D01*
X2951430Y3368445D01*
X2948940Y3368772D01*
D02*
G37*
G36*
X2923540D02*
X2921049Y3368445D01*
X2918729Y3367483D01*
X2916736Y3365954D01*
X2915207Y3363961D01*
X2914246Y3361640D01*
X2913918Y3359150D01*
X2914246Y3356660D01*
X2915207Y3354339D01*
X2916736Y3352346D01*
X2918729Y3350817D01*
X2921049Y3349856D01*
X2923540Y3349528D01*
X2926030Y3349856D01*
X2928351Y3350817D01*
X2930344Y3352346D01*
X2931873Y3354339D01*
X2932834Y3356660D01*
X2933162Y3359150D01*
X2932834Y3361640D01*
X2931873Y3363961D01*
X2930344Y3365954D01*
X2928351Y3367483D01*
X2926030Y3368445D01*
X2923540Y3368772D01*
D02*
G37*
G36*
X2898140D02*
X2895650Y3368445D01*
X2893329Y3367483D01*
X2891336Y3365954D01*
X2889807Y3363961D01*
X2888846Y3361640D01*
X2888518Y3359150D01*
X2888846Y3356660D01*
X2889807Y3354339D01*
X2891336Y3352346D01*
X2893329Y3350817D01*
X2895650Y3349856D01*
X2898140Y3349528D01*
X2900630Y3349856D01*
X2902951Y3350817D01*
X2904944Y3352346D01*
X2906473Y3354339D01*
X2907434Y3356660D01*
X2907762Y3359150D01*
X2907434Y3361640D01*
X2906473Y3363961D01*
X2904944Y3365954D01*
X2902951Y3367483D01*
X2900630Y3368445D01*
X2898140Y3368772D01*
D02*
G37*
G36*
X2872740D02*
X2870250Y3368445D01*
X2867929Y3367483D01*
X2865936Y3365954D01*
X2864407Y3363961D01*
X2863446Y3361640D01*
X2863118Y3359150D01*
X2863446Y3356660D01*
X2864407Y3354339D01*
X2865936Y3352346D01*
X2867929Y3350817D01*
X2870250Y3349856D01*
X2872740Y3349528D01*
X2875230Y3349856D01*
X2877551Y3350817D01*
X2879544Y3352346D01*
X2881073Y3354339D01*
X2882034Y3356660D01*
X2882362Y3359150D01*
X2882034Y3361640D01*
X2881073Y3363961D01*
X2879544Y3365954D01*
X2877551Y3367483D01*
X2875230Y3368445D01*
X2872740Y3368772D01*
D02*
G37*
G36*
X2847340D02*
X2844850Y3368445D01*
X2842529Y3367483D01*
X2840536Y3365954D01*
X2839007Y3363961D01*
X2838046Y3361640D01*
X2837718Y3359150D01*
X2838046Y3356660D01*
X2839007Y3354339D01*
X2840536Y3352346D01*
X2842529Y3350817D01*
X2844850Y3349856D01*
X2847340Y3349528D01*
X2849830Y3349856D01*
X2852151Y3350817D01*
X2854144Y3352346D01*
X2855673Y3354339D01*
X2856635Y3356660D01*
X2856962Y3359150D01*
X2856635Y3361640D01*
X2855673Y3363961D01*
X2854144Y3365954D01*
X2852151Y3367483D01*
X2849830Y3368445D01*
X2847340Y3368772D01*
D02*
G37*
G36*
X2821940D02*
X2819449Y3368445D01*
X2817129Y3367483D01*
X2815136Y3365954D01*
X2813607Y3363961D01*
X2812646Y3361640D01*
X2812318Y3359150D01*
X2812646Y3356660D01*
X2813607Y3354339D01*
X2815136Y3352346D01*
X2817129Y3350817D01*
X2819449Y3349856D01*
X2821940Y3349528D01*
X2824431Y3349856D01*
X2826751Y3350817D01*
X2828744Y3352346D01*
X2830273Y3354339D01*
X2831234Y3356660D01*
X2831562Y3359150D01*
X2831234Y3361640D01*
X2830273Y3363961D01*
X2828744Y3365954D01*
X2826751Y3367483D01*
X2824431Y3368445D01*
X2821940Y3368772D01*
D02*
G37*
G36*
X2796540D02*
X2794050Y3368445D01*
X2791729Y3367483D01*
X2789736Y3365954D01*
X2788207Y3363961D01*
X2787245Y3361640D01*
X2786918Y3359150D01*
X2787245Y3356660D01*
X2788207Y3354339D01*
X2789736Y3352346D01*
X2791729Y3350817D01*
X2794050Y3349856D01*
X2796540Y3349528D01*
X2799030Y3349856D01*
X2801351Y3350817D01*
X2803344Y3352346D01*
X2804873Y3354339D01*
X2805834Y3356660D01*
X2806162Y3359150D01*
X2805834Y3361640D01*
X2804873Y3363961D01*
X2803344Y3365954D01*
X2801351Y3367483D01*
X2799030Y3368445D01*
X2796540Y3368772D01*
D02*
G37*
G36*
X2771140D02*
X2768650Y3368445D01*
X2766329Y3367483D01*
X2764336Y3365954D01*
X2762807Y3363961D01*
X2761846Y3361640D01*
X2761518Y3359150D01*
X2761846Y3356660D01*
X2762807Y3354339D01*
X2764336Y3352346D01*
X2766329Y3350817D01*
X2768650Y3349856D01*
X2771140Y3349528D01*
X2773630Y3349856D01*
X2775951Y3350817D01*
X2777944Y3352346D01*
X2779473Y3354339D01*
X2780434Y3356660D01*
X2780762Y3359150D01*
X2780434Y3361640D01*
X2779473Y3363961D01*
X2777944Y3365954D01*
X2775951Y3367483D01*
X2773630Y3368445D01*
X2771140Y3368772D01*
D02*
G37*
G36*
X551180D02*
X548690Y3368445D01*
X546369Y3367483D01*
X544376Y3365954D01*
X542847Y3363961D01*
X541886Y3361640D01*
X541558Y3359150D01*
X541886Y3356660D01*
X542847Y3354339D01*
X544376Y3352346D01*
X546369Y3350817D01*
X548690Y3349856D01*
X551180Y3349528D01*
X553670Y3349856D01*
X555991Y3350817D01*
X557984Y3352346D01*
X559513Y3354339D01*
X560474Y3356660D01*
X560802Y3359150D01*
X560474Y3361640D01*
X559513Y3363961D01*
X557984Y3365954D01*
X555991Y3367483D01*
X553670Y3368445D01*
X551180Y3368772D01*
D02*
G37*
G36*
X525780D02*
X523290Y3368445D01*
X520969Y3367483D01*
X518976Y3365954D01*
X517447Y3363961D01*
X516486Y3361640D01*
X516158Y3359150D01*
X516486Y3356660D01*
X517447Y3354339D01*
X518976Y3352346D01*
X520969Y3350817D01*
X523290Y3349856D01*
X525780Y3349528D01*
X528270Y3349856D01*
X530591Y3350817D01*
X532584Y3352346D01*
X534113Y3354339D01*
X535074Y3356660D01*
X535402Y3359150D01*
X535074Y3361640D01*
X534113Y3363961D01*
X532584Y3365954D01*
X530591Y3367483D01*
X528270Y3368445D01*
X525780Y3368772D01*
D02*
G37*
G36*
X500380D02*
X497890Y3368445D01*
X495569Y3367483D01*
X493576Y3365954D01*
X492047Y3363961D01*
X491086Y3361640D01*
X490758Y3359150D01*
X491086Y3356660D01*
X492047Y3354339D01*
X493576Y3352346D01*
X495569Y3350817D01*
X497890Y3349856D01*
X500380Y3349528D01*
X502870Y3349856D01*
X505191Y3350817D01*
X507184Y3352346D01*
X508713Y3354339D01*
X509674Y3356660D01*
X510002Y3359150D01*
X509674Y3361640D01*
X508713Y3363961D01*
X507184Y3365954D01*
X505191Y3367483D01*
X502870Y3368445D01*
X500380Y3368772D01*
D02*
G37*
G36*
X474980D02*
X472490Y3368445D01*
X470169Y3367483D01*
X468176Y3365954D01*
X466647Y3363961D01*
X465686Y3361640D01*
X465358Y3359150D01*
X465686Y3356660D01*
X466647Y3354339D01*
X468176Y3352346D01*
X470169Y3350817D01*
X472490Y3349856D01*
X474980Y3349528D01*
X477470Y3349856D01*
X479791Y3350817D01*
X481784Y3352346D01*
X483313Y3354339D01*
X484274Y3356660D01*
X484602Y3359150D01*
X484274Y3361640D01*
X483313Y3363961D01*
X481784Y3365954D01*
X479791Y3367483D01*
X477470Y3368445D01*
X474980Y3368772D01*
D02*
G37*
G36*
X449580D02*
X447090Y3368445D01*
X444769Y3367483D01*
X442776Y3365954D01*
X441247Y3363961D01*
X440286Y3361640D01*
X439958Y3359150D01*
X440286Y3356660D01*
X441247Y3354339D01*
X442776Y3352346D01*
X444769Y3350817D01*
X447090Y3349856D01*
X449580Y3349528D01*
X452070Y3349856D01*
X454391Y3350817D01*
X456384Y3352346D01*
X457913Y3354339D01*
X458874Y3356660D01*
X459202Y3359150D01*
X458874Y3361640D01*
X457913Y3363961D01*
X456384Y3365954D01*
X454391Y3367483D01*
X452070Y3368445D01*
X449580Y3368772D01*
D02*
G37*
G36*
X424180D02*
X421690Y3368445D01*
X419369Y3367483D01*
X417376Y3365954D01*
X415847Y3363961D01*
X414886Y3361640D01*
X414558Y3359150D01*
X414886Y3356660D01*
X415847Y3354339D01*
X417376Y3352346D01*
X419369Y3350817D01*
X421690Y3349856D01*
X424180Y3349528D01*
X426670Y3349856D01*
X428991Y3350817D01*
X430984Y3352346D01*
X432513Y3354339D01*
X433474Y3356660D01*
X433802Y3359150D01*
X433474Y3361640D01*
X432513Y3363961D01*
X430984Y3365954D01*
X428991Y3367483D01*
X426670Y3368445D01*
X424180Y3368772D01*
D02*
G37*
G36*
X398780D02*
X396290Y3368445D01*
X393969Y3367483D01*
X391976Y3365954D01*
X390447Y3363961D01*
X389486Y3361640D01*
X389158Y3359150D01*
X389486Y3356660D01*
X390447Y3354339D01*
X391976Y3352346D01*
X393969Y3350817D01*
X396290Y3349856D01*
X398780Y3349528D01*
X401270Y3349856D01*
X403591Y3350817D01*
X405584Y3352346D01*
X407113Y3354339D01*
X408074Y3356660D01*
X408402Y3359150D01*
X408074Y3361640D01*
X407113Y3363961D01*
X405584Y3365954D01*
X403591Y3367483D01*
X401270Y3368445D01*
X398780Y3368772D01*
D02*
G37*
G36*
X373380D02*
X370890Y3368445D01*
X368569Y3367483D01*
X366576Y3365954D01*
X365047Y3363961D01*
X364086Y3361640D01*
X363758Y3359150D01*
X364086Y3356660D01*
X365047Y3354339D01*
X366576Y3352346D01*
X368569Y3350817D01*
X370890Y3349856D01*
X373380Y3349528D01*
X375870Y3349856D01*
X378191Y3350817D01*
X380184Y3352346D01*
X381713Y3354339D01*
X382674Y3356660D01*
X383002Y3359150D01*
X382674Y3361640D01*
X381713Y3363961D01*
X380184Y3365954D01*
X378191Y3367483D01*
X375870Y3368445D01*
X373380Y3368772D01*
D02*
G37*
G36*
X347980D02*
X345490Y3368445D01*
X343169Y3367483D01*
X341176Y3365954D01*
X339647Y3363961D01*
X338686Y3361640D01*
X338358Y3359150D01*
X338686Y3356660D01*
X339647Y3354339D01*
X341176Y3352346D01*
X343169Y3350817D01*
X345490Y3349856D01*
X347980Y3349528D01*
X350470Y3349856D01*
X352791Y3350817D01*
X354784Y3352346D01*
X356313Y3354339D01*
X357274Y3356660D01*
X357602Y3359150D01*
X357274Y3361640D01*
X356313Y3363961D01*
X354784Y3365954D01*
X352791Y3367483D01*
X350470Y3368445D01*
X347980Y3368772D01*
D02*
G37*
G36*
X2440940Y3378073D02*
X2437992Y3377782D01*
X2435157Y3376922D01*
X2432544Y3375526D01*
X2430254Y3373646D01*
X2428374Y3371356D01*
X2426978Y3368743D01*
X2426118Y3365909D01*
X2425827Y3362960D01*
X2426118Y3360012D01*
X2426978Y3357177D01*
X2428374Y3354564D01*
X2430254Y3352274D01*
X2432544Y3350394D01*
X2435157Y3348997D01*
X2437992Y3348138D01*
X2440940Y3347847D01*
X2443888Y3348138D01*
X2446723Y3348997D01*
X2449336Y3350394D01*
X2451626Y3352274D01*
X2453506Y3354564D01*
X2454902Y3357177D01*
X2455762Y3360012D01*
X2456053Y3362960D01*
X2455762Y3365909D01*
X2454902Y3368743D01*
X2453506Y3371356D01*
X2451626Y3373646D01*
X2449336Y3375526D01*
X2446723Y3376922D01*
X2443888Y3377782D01*
X2440940Y3378073D01*
D02*
G37*
G36*
X2098040Y3332919D02*
X2095954Y3332644D01*
X2094010Y3331839D01*
X2092529Y3330703D01*
X2091830Y3330537D01*
X2091550D01*
X2090851Y3330703D01*
X2089370Y3331839D01*
X2087426Y3332644D01*
X2085340Y3332919D01*
X2083254Y3332644D01*
X2081310Y3331839D01*
X2079829Y3330703D01*
X2079130Y3330537D01*
X2078850D01*
X2078151Y3330703D01*
X2076669Y3331839D01*
X2074726Y3332644D01*
X2072640Y3332919D01*
X2070554Y3332644D01*
X2068611Y3331839D01*
X2067129Y3330703D01*
X2066430Y3330537D01*
X2066150D01*
X2065451Y3330703D01*
X2063970Y3331839D01*
X2062026Y3332644D01*
X2059940Y3332919D01*
X2057854Y3332644D01*
X2055910Y3331839D01*
X2054429Y3330703D01*
X2053730Y3330537D01*
X2053450D01*
X2052751Y3330703D01*
X2051270Y3331839D01*
X2049326Y3332644D01*
X2047240Y3332919D01*
X2045154Y3332644D01*
X2043210Y3331839D01*
X2041541Y3330558D01*
X2040261Y3328889D01*
X2039456Y3326946D01*
X2039181Y3324860D01*
X2039456Y3322774D01*
X2040261Y3320830D01*
X2041398Y3319349D01*
X2041563Y3318650D01*
Y3318370D01*
X2041398Y3317671D01*
X2040261Y3316190D01*
X2039456Y3314246D01*
X2039181Y3312160D01*
X2039456Y3310074D01*
X2040261Y3308130D01*
X2041541Y3306461D01*
X2043210Y3305181D01*
X2045154Y3304376D01*
X2047240Y3304101D01*
X2049326Y3304376D01*
X2051270Y3305181D01*
X2052751Y3306318D01*
X2053450Y3306483D01*
X2053730D01*
X2054429Y3306318D01*
X2055910Y3305181D01*
X2057854Y3304376D01*
X2059940Y3304101D01*
X2062026Y3304376D01*
X2063970Y3305181D01*
X2065451Y3306318D01*
X2066150Y3306483D01*
X2066430D01*
X2067129Y3306318D01*
X2068611Y3305181D01*
X2070554Y3304376D01*
X2072640Y3304101D01*
X2074726Y3304376D01*
X2076669Y3305181D01*
X2078151Y3306318D01*
X2078850Y3306483D01*
X2079130D01*
X2079829Y3306318D01*
X2081310Y3305181D01*
X2083254Y3304376D01*
X2085340Y3304101D01*
X2087426Y3304376D01*
X2089370Y3305181D01*
X2090851Y3306318D01*
X2091550Y3306483D01*
X2091830D01*
X2092529Y3306318D01*
X2094010Y3305181D01*
X2095954Y3304376D01*
X2098040Y3304101D01*
X2100126Y3304376D01*
X2102070Y3305181D01*
X2103551Y3306318D01*
X2104250Y3306483D01*
X2104530D01*
X2105229Y3306318D01*
X2106711Y3305181D01*
X2108654Y3304376D01*
X2110740Y3304101D01*
X2112826Y3304376D01*
X2114769Y3305181D01*
X2116251Y3306318D01*
X2116950Y3306483D01*
X2117230D01*
X2117929Y3306318D01*
X2119411Y3305181D01*
X2121354Y3304376D01*
X2123440Y3304101D01*
X2125526Y3304376D01*
X2127469Y3305181D01*
X2128951Y3306318D01*
X2129650Y3306483D01*
X2129930D01*
X2130629Y3306318D01*
X2132110Y3305181D01*
X2134054Y3304376D01*
X2136140Y3304101D01*
X2138226Y3304376D01*
X2140170Y3305181D01*
X2141651Y3306318D01*
X2142350Y3306483D01*
X2142630D01*
X2143329Y3306318D01*
X2144810Y3305181D01*
X2146754Y3304376D01*
X2148840Y3304101D01*
X2150926Y3304376D01*
X2152870Y3305181D01*
X2154351Y3306318D01*
X2155050Y3306483D01*
X2155330D01*
X2156029Y3306318D01*
X2157511Y3305181D01*
X2159454Y3304376D01*
X2161540Y3304101D01*
X2163626Y3304376D01*
X2165569Y3305181D01*
X2167051Y3306318D01*
X2167750Y3306483D01*
X2168030D01*
X2168729Y3306318D01*
X2170211Y3305181D01*
X2172154Y3304376D01*
X2174240Y3304101D01*
X2176326Y3304376D01*
X2178270Y3305181D01*
X2179751Y3306318D01*
X2180450Y3306483D01*
X2180730D01*
X2181429Y3306318D01*
X2182910Y3305181D01*
X2184854Y3304376D01*
X2186940Y3304101D01*
X2189026Y3304376D01*
X2190970Y3305181D01*
X2192451Y3306318D01*
X2193150Y3306483D01*
X2193430D01*
X2194129Y3306318D01*
X2195611Y3305181D01*
X2197554Y3304376D01*
X2199640Y3304101D01*
X2201726Y3304376D01*
X2203669Y3305181D01*
X2205151Y3306318D01*
X2205850Y3306483D01*
X2206130D01*
X2206829Y3306318D01*
X2208311Y3305181D01*
X2210254Y3304376D01*
X2212340Y3304101D01*
X2214426Y3304376D01*
X2216369Y3305181D01*
X2217851Y3306318D01*
X2218550Y3306483D01*
X2218830D01*
X2219529Y3306318D01*
X2221010Y3305181D01*
X2222954Y3304376D01*
X2225040Y3304101D01*
X2227126Y3304376D01*
X2229070Y3305181D01*
X2230551Y3306318D01*
X2231250Y3306483D01*
X2231530D01*
X2232229Y3306318D01*
X2233710Y3305181D01*
X2235654Y3304376D01*
X2237740Y3304101D01*
X2239826Y3304376D01*
X2241770Y3305181D01*
X2243251Y3306318D01*
X2243950Y3306483D01*
X2244230D01*
X2244929Y3306318D01*
X2246411Y3305181D01*
X2248354Y3304376D01*
X2250440Y3304101D01*
X2252526Y3304376D01*
X2254469Y3305181D01*
X2255951Y3306318D01*
X2256650Y3306483D01*
X2256930D01*
X2257629Y3306318D01*
X2259111Y3305181D01*
X2261054Y3304376D01*
X2263140Y3304101D01*
X2265226Y3304376D01*
X2267169Y3305181D01*
X2268651Y3306318D01*
X2269350Y3306483D01*
X2269630D01*
X2270329Y3306318D01*
X2271810Y3305181D01*
X2273754Y3304376D01*
X2275840Y3304101D01*
X2277926Y3304376D01*
X2279870Y3305181D01*
X2281351Y3306318D01*
X2282050Y3306483D01*
X2282330D01*
X2283029Y3306318D01*
X2284510Y3305181D01*
X2286454Y3304376D01*
X2288540Y3304101D01*
X2290626Y3304376D01*
X2292569Y3305181D01*
X2294051Y3306318D01*
X2294750Y3306483D01*
X2295030D01*
X2295729Y3306318D01*
X2297211Y3305181D01*
X2299154Y3304376D01*
X2301240Y3304101D01*
X2303326Y3304376D01*
X2305269Y3305181D01*
X2306751Y3306318D01*
X2307450Y3306483D01*
X2307730D01*
X2308429Y3306318D01*
X2309910Y3305181D01*
X2311854Y3304376D01*
X2313940Y3304101D01*
X2316026Y3304376D01*
X2317970Y3305181D01*
X2319451Y3306318D01*
X2320150Y3306483D01*
X2320430D01*
X2321129Y3306318D01*
X2322610Y3305181D01*
X2324554Y3304376D01*
X2326640Y3304101D01*
X2328726Y3304376D01*
X2330670Y3305181D01*
X2332151Y3306318D01*
X2332850Y3306483D01*
X2333130D01*
X2333829Y3306318D01*
X2335311Y3305181D01*
X2337254Y3304376D01*
X2339340Y3304101D01*
X2341426Y3304376D01*
X2342780Y3304937D01*
X2344050Y3304202D01*
Y3304170D01*
X2360030D01*
Y3320150D01*
X2344050D01*
Y3320118D01*
X2342780Y3319384D01*
X2341426Y3319944D01*
X2339340Y3320219D01*
X2337254Y3319944D01*
X2335311Y3319139D01*
X2333829Y3318002D01*
X2333130Y3317837D01*
X2332850D01*
X2332151Y3318002D01*
X2330670Y3319139D01*
X2328726Y3319944D01*
X2326640Y3320219D01*
X2324554Y3319944D01*
X2322610Y3319139D01*
X2321129Y3318002D01*
X2320430Y3317837D01*
X2320150D01*
X2319451Y3318002D01*
X2317970Y3319139D01*
X2316026Y3319944D01*
X2313940Y3320219D01*
X2311854Y3319944D01*
X2309910Y3319139D01*
X2308429Y3318002D01*
X2307730Y3317837D01*
X2307450D01*
X2306751Y3318002D01*
X2305269Y3319139D01*
X2303326Y3319944D01*
X2301240Y3320219D01*
X2299154Y3319944D01*
X2297211Y3319139D01*
X2295729Y3318002D01*
X2295030Y3317837D01*
X2294750D01*
X2294051Y3318002D01*
X2292569Y3319139D01*
X2290626Y3319944D01*
X2288540Y3320219D01*
X2286454Y3319944D01*
X2284510Y3319139D01*
X2283029Y3318002D01*
X2282330Y3317837D01*
X2282050D01*
X2281351Y3318002D01*
X2279870Y3319139D01*
X2277926Y3319944D01*
X2275840Y3320219D01*
X2273754Y3319944D01*
X2271810Y3319139D01*
X2270329Y3318002D01*
X2269630Y3317837D01*
X2269350D01*
X2268651Y3318002D01*
X2267169Y3319139D01*
X2265226Y3319944D01*
X2263140Y3320219D01*
X2261054Y3319944D01*
X2259111Y3319139D01*
X2257629Y3318002D01*
X2256930Y3317837D01*
X2256650D01*
X2255951Y3318002D01*
X2254469Y3319139D01*
X2252526Y3319944D01*
X2250440Y3320219D01*
X2248354Y3319944D01*
X2246411Y3319139D01*
X2244929Y3318002D01*
X2244230Y3317837D01*
X2243950D01*
X2243251Y3318002D01*
X2241770Y3319139D01*
X2239826Y3319944D01*
X2237740Y3320219D01*
X2235654Y3319944D01*
X2233710Y3319139D01*
X2232229Y3318002D01*
X2231530Y3317837D01*
X2231250D01*
X2230551Y3318002D01*
X2229070Y3319139D01*
X2227126Y3319944D01*
X2225040Y3320219D01*
X2222954Y3319944D01*
X2221010Y3319139D01*
X2219529Y3318002D01*
X2218830Y3317837D01*
X2218550D01*
X2217851Y3318002D01*
X2216369Y3319139D01*
X2214426Y3319944D01*
X2212340Y3320219D01*
X2210254Y3319944D01*
X2208311Y3319139D01*
X2206829Y3318002D01*
X2206130Y3317837D01*
X2205850D01*
X2205151Y3318002D01*
X2203669Y3319139D01*
X2201726Y3319944D01*
X2199640Y3320219D01*
X2197554Y3319944D01*
X2195611Y3319139D01*
X2194129Y3318002D01*
X2193430Y3317837D01*
X2193150D01*
X2192451Y3318002D01*
X2190970Y3319139D01*
X2189026Y3319944D01*
X2186940Y3320219D01*
X2184854Y3319944D01*
X2182910Y3319139D01*
X2181429Y3318002D01*
X2180730Y3317837D01*
X2180450D01*
X2179751Y3318002D01*
X2178270Y3319139D01*
X2176326Y3319944D01*
X2174240Y3320219D01*
X2172154Y3319944D01*
X2170211Y3319139D01*
X2168729Y3318002D01*
X2168030Y3317837D01*
X2167750D01*
X2167051Y3318002D01*
X2165569Y3319139D01*
X2163626Y3319944D01*
X2161540Y3320219D01*
X2159454Y3319944D01*
X2157511Y3319139D01*
X2156029Y3318002D01*
X2155330Y3317837D01*
X2155050D01*
X2154351Y3318002D01*
X2152870Y3319139D01*
X2150926Y3319944D01*
X2148840Y3320219D01*
X2146754Y3319944D01*
X2144810Y3319139D01*
X2143329Y3318002D01*
X2142630Y3317837D01*
X2142350D01*
X2141651Y3318002D01*
X2140170Y3319139D01*
X2138226Y3319944D01*
X2136140Y3320219D01*
X2134054Y3319944D01*
X2132110Y3319139D01*
X2130629Y3318002D01*
X2129930Y3317837D01*
X2129650D01*
X2128951Y3318002D01*
X2127469Y3319139D01*
X2125526Y3319944D01*
X2123440Y3320219D01*
X2121354Y3319944D01*
X2119411Y3319139D01*
X2117929Y3318002D01*
X2117230Y3317837D01*
X2116950D01*
X2116251Y3318002D01*
X2114769Y3319139D01*
X2114052Y3319436D01*
X2113911Y3320869D01*
X2114402Y3321198D01*
X2115525Y3322878D01*
X2115919Y3324860D01*
X2115525Y3326842D01*
X2114402Y3328523D01*
X2113289Y3329636D01*
X2111608Y3330759D01*
X2109626Y3331153D01*
X2107644Y3330759D01*
X2105964Y3329636D01*
X2104441Y3329643D01*
X2103739Y3330558D01*
X2102070Y3331839D01*
X2100126Y3332644D01*
X2098040Y3332919D01*
D02*
G37*
G36*
X1455420D02*
X1453334Y3332644D01*
X1451391Y3331839D01*
X1449722Y3330558D01*
X1448441Y3328889D01*
X1447636Y3326946D01*
X1447361Y3324860D01*
X1447636Y3322774D01*
X1448441Y3320830D01*
X1449722Y3319161D01*
X1449743Y3319145D01*
Y3317875D01*
X1449722Y3317859D01*
X1448441Y3316190D01*
X1447636Y3314246D01*
X1447361Y3312160D01*
X1447636Y3310074D01*
X1448441Y3308130D01*
X1449722Y3306461D01*
X1451391Y3305181D01*
X1453334Y3304376D01*
X1455420Y3304101D01*
X1457506Y3304376D01*
X1459449Y3305181D01*
X1460931Y3306318D01*
X1461630Y3306483D01*
X1461910D01*
X1462609Y3306318D01*
X1464091Y3305181D01*
X1466034Y3304376D01*
X1468120Y3304101D01*
X1470206Y3304376D01*
X1472150Y3305181D01*
X1473631Y3306318D01*
X1474330Y3306483D01*
X1474610D01*
X1475309Y3306318D01*
X1476790Y3305181D01*
X1478734Y3304376D01*
X1480820Y3304101D01*
X1482906Y3304376D01*
X1484850Y3305181D01*
X1486331Y3306318D01*
X1487030Y3306483D01*
X1487310D01*
X1488009Y3306318D01*
X1489491Y3305181D01*
X1491434Y3304376D01*
X1493520Y3304101D01*
X1495606Y3304376D01*
X1497549Y3305181D01*
X1499031Y3306318D01*
X1499730Y3306483D01*
X1500010D01*
X1500709Y3306318D01*
X1502191Y3305181D01*
X1504134Y3304376D01*
X1506220Y3304101D01*
X1508306Y3304376D01*
X1510249Y3305181D01*
X1511918Y3306461D01*
X1513199Y3308130D01*
X1514004Y3310074D01*
X1514279Y3312160D01*
X1514004Y3314246D01*
X1513199Y3316190D01*
X1511918Y3317859D01*
X1510249Y3319139D01*
X1508306Y3319944D01*
X1506220Y3320219D01*
X1504134Y3319944D01*
X1502191Y3319139D01*
X1500709Y3318002D01*
X1500010Y3317837D01*
X1499730D01*
X1499031Y3318002D01*
X1497549Y3319139D01*
X1495606Y3319944D01*
X1493520Y3320219D01*
X1491434Y3319944D01*
X1489491Y3319139D01*
X1488009Y3318002D01*
X1487310Y3317837D01*
X1487030D01*
X1486331Y3318002D01*
X1484850Y3319139D01*
X1482906Y3319944D01*
X1480820Y3320219D01*
X1478734Y3319944D01*
X1476790Y3319139D01*
X1475309Y3318002D01*
X1474610Y3317837D01*
X1474330D01*
X1473631Y3318002D01*
X1472150Y3319139D01*
X1470206Y3319944D01*
X1468120Y3320219D01*
X1466034Y3319944D01*
X1464091Y3319139D01*
X1462609Y3318002D01*
X1462359Y3317943D01*
X1461921Y3318205D01*
X1461855Y3318283D01*
X1461529Y3319697D01*
X1462399Y3320830D01*
X1463204Y3322774D01*
X1463479Y3324860D01*
X1463204Y3326946D01*
X1462399Y3328889D01*
X1461118Y3330558D01*
X1459449Y3331839D01*
X1457506Y3332644D01*
X1455420Y3332919D01*
D02*
G37*
G36*
X1379220D02*
X1377134Y3332644D01*
X1375190Y3331839D01*
X1373522Y3330558D01*
X1372241Y3328889D01*
X1371436Y3326946D01*
X1371161Y3324860D01*
X1371436Y3322774D01*
X1372241Y3320830D01*
X1373378Y3319349D01*
X1373543Y3318650D01*
Y3318370D01*
X1373378Y3317671D01*
X1372241Y3316190D01*
X1371436Y3314246D01*
X1371161Y3312160D01*
X1371436Y3310074D01*
X1372241Y3308130D01*
X1373522Y3306461D01*
X1375190Y3305181D01*
X1377134Y3304376D01*
X1379220Y3304101D01*
X1381306Y3304376D01*
X1383250Y3305181D01*
X1384731Y3306318D01*
X1385430Y3306483D01*
X1385644D01*
X1386741Y3305905D01*
Y3232495D01*
X1387135Y3230513D01*
X1388257Y3228833D01*
X1408735Y3208355D01*
X1410415Y3207233D01*
X1412397Y3206838D01*
X1415589D01*
X1415905Y3206077D01*
X1417330Y3204220D01*
X1419187Y3202794D01*
X1421349Y3201899D01*
X1423670Y3201593D01*
X1425991Y3201899D01*
X1428153Y3202794D01*
X1430010Y3204220D01*
X1431435Y3206077D01*
X1432331Y3208239D01*
X1432637Y3210560D01*
X1432331Y3212881D01*
X1431435Y3215043D01*
X1430010Y3216900D01*
X1428153Y3218326D01*
X1425991Y3219221D01*
X1423670Y3219527D01*
X1421349Y3219221D01*
X1420667Y3218939D01*
X1420027Y3220048D01*
X1420313Y3220267D01*
X1421738Y3222124D01*
X1422633Y3224287D01*
X1422939Y3226608D01*
X1422633Y3228929D01*
X1421738Y3231091D01*
X1420313Y3232948D01*
X1418456Y3234373D01*
X1416293Y3235269D01*
X1414456Y3235511D01*
X1409799Y3240168D01*
Y3306063D01*
X1410131Y3306318D01*
X1410830Y3306483D01*
X1411044D01*
X1412141Y3305905D01*
Y3277400D01*
X1412535Y3275418D01*
X1413658Y3273737D01*
X1417213Y3270182D01*
Y3265228D01*
X1416522Y3264698D01*
X1415097Y3262841D01*
X1414201Y3260678D01*
X1413896Y3258358D01*
X1414201Y3256037D01*
X1415097Y3253875D01*
X1416522Y3252017D01*
X1418379Y3250592D01*
X1420542Y3249697D01*
X1422862Y3249391D01*
X1425183Y3249697D01*
X1427346Y3250592D01*
X1429203Y3252017D01*
X1430628Y3253875D01*
X1431523Y3256037D01*
X1431829Y3258358D01*
X1431523Y3260678D01*
X1430628Y3262841D01*
X1429203Y3264698D01*
X1427572Y3265950D01*
Y3272328D01*
X1427177Y3274310D01*
X1426055Y3275990D01*
X1422500Y3279545D01*
Y3306063D01*
X1422831Y3306318D01*
X1423530Y3306483D01*
X1423810D01*
X1424509Y3306318D01*
X1425990Y3305181D01*
X1427934Y3304376D01*
X1430020Y3304101D01*
X1432106Y3304376D01*
X1434050Y3305181D01*
X1435719Y3306461D01*
X1436999Y3308130D01*
X1437804Y3310074D01*
X1438079Y3312160D01*
X1437804Y3314246D01*
X1436999Y3316190D01*
X1435719Y3317859D01*
X1434050Y3319139D01*
X1432106Y3319944D01*
X1430020Y3320219D01*
X1427934Y3319944D01*
X1425990Y3319139D01*
X1424509Y3318002D01*
X1423810Y3317837D01*
X1423530D01*
X1422831Y3318002D01*
X1421349Y3319139D01*
X1419406Y3319944D01*
X1417320Y3320219D01*
X1415234Y3319944D01*
X1413291Y3319139D01*
X1411809Y3318002D01*
X1411110Y3317837D01*
X1410830D01*
X1410131Y3318002D01*
X1408649Y3319139D01*
X1406706Y3319944D01*
X1404620Y3320219D01*
X1402534Y3319944D01*
X1400591Y3319139D01*
X1399109Y3318002D01*
X1398410Y3317837D01*
X1398130D01*
X1397431Y3318002D01*
X1395950Y3319139D01*
X1394006Y3319944D01*
X1391920Y3320219D01*
X1389834Y3319944D01*
X1387890Y3319139D01*
X1386623Y3318167D01*
X1385515Y3318456D01*
X1385227Y3319563D01*
X1386199Y3320830D01*
X1387004Y3322774D01*
X1387279Y3324860D01*
X1387004Y3326946D01*
X1386199Y3328889D01*
X1384919Y3330558D01*
X1383250Y3331839D01*
X1381306Y3332644D01*
X1379220Y3332919D01*
D02*
G37*
G36*
X1531620D02*
X1529534Y3332644D01*
X1527590Y3331839D01*
X1525921Y3330558D01*
X1524641Y3328889D01*
X1523836Y3326946D01*
X1523561Y3324860D01*
X1523836Y3322774D01*
X1524641Y3320830D01*
X1525778Y3319349D01*
X1525943Y3318650D01*
Y3318370D01*
X1525778Y3317671D01*
X1524641Y3316190D01*
X1523836Y3314246D01*
X1523561Y3312160D01*
X1523836Y3310074D01*
X1524641Y3308130D01*
X1525921Y3306461D01*
X1527590Y3305181D01*
X1529534Y3304376D01*
X1531620Y3304101D01*
X1533706Y3304376D01*
X1535650Y3305181D01*
X1537131Y3306318D01*
X1537830Y3306483D01*
X1538110D01*
X1538809Y3306318D01*
X1540291Y3305181D01*
X1542234Y3304376D01*
X1544320Y3304101D01*
X1546406Y3304376D01*
X1548349Y3305181D01*
X1549831Y3306318D01*
X1550530Y3306483D01*
X1550810D01*
X1551509Y3306318D01*
X1552991Y3305181D01*
X1554934Y3304376D01*
X1557020Y3304101D01*
X1559106Y3304376D01*
X1561049Y3305181D01*
X1562531Y3306318D01*
X1563230Y3306483D01*
X1563510D01*
X1564209Y3306318D01*
X1565690Y3305181D01*
X1567634Y3304376D01*
X1569720Y3304101D01*
X1571806Y3304376D01*
X1573750Y3305181D01*
X1575231Y3306318D01*
X1575930Y3306483D01*
X1576144D01*
X1577240Y3305905D01*
Y3263900D01*
X1577635Y3261918D01*
X1578757Y3260237D01*
X1583804Y3255191D01*
X1583613Y3253740D01*
X1583919Y3251419D01*
X1584815Y3249257D01*
X1586240Y3247400D01*
X1588097Y3245975D01*
X1590259Y3245079D01*
X1592580Y3244773D01*
X1594901Y3245079D01*
X1597063Y3245975D01*
X1598920Y3247400D01*
X1600345Y3249257D01*
X1601241Y3251419D01*
X1601547Y3253740D01*
X1601241Y3256061D01*
X1600345Y3258223D01*
X1598920Y3260080D01*
X1597063Y3261505D01*
X1594901Y3262401D01*
X1592580Y3262707D01*
X1591129Y3262516D01*
X1587599Y3266046D01*
Y3306063D01*
X1588118Y3306461D01*
X1589399Y3308130D01*
X1590204Y3310074D01*
X1590479Y3312160D01*
X1590204Y3314246D01*
X1589399Y3316190D01*
X1588118Y3317859D01*
X1586449Y3319139D01*
X1584506Y3319944D01*
X1582420Y3320219D01*
X1580334Y3319944D01*
X1578391Y3319139D01*
X1576909Y3318002D01*
X1576210Y3317837D01*
X1575930D01*
X1575231Y3318002D01*
X1573750Y3319139D01*
X1571806Y3319944D01*
X1569720Y3320219D01*
X1567634Y3319944D01*
X1565690Y3319139D01*
X1564209Y3318002D01*
X1563510Y3317837D01*
X1563230D01*
X1562531Y3318002D01*
X1561049Y3319139D01*
X1559106Y3319944D01*
X1557020Y3320219D01*
X1554934Y3319944D01*
X1552991Y3319139D01*
X1551509Y3318002D01*
X1550810Y3317837D01*
X1550530D01*
X1549831Y3318002D01*
X1548349Y3319139D01*
X1546406Y3319944D01*
X1544320Y3320219D01*
X1542234Y3319944D01*
X1540291Y3319139D01*
X1539023Y3318167D01*
X1537915Y3318456D01*
X1537627Y3319563D01*
X1538599Y3320830D01*
X1539404Y3322774D01*
X1539679Y3324860D01*
X1539404Y3326946D01*
X1538599Y3328889D01*
X1537319Y3330558D01*
X1535650Y3331839D01*
X1533706Y3332644D01*
X1531620Y3332919D01*
D02*
G37*
G36*
X1607820D02*
X1605734Y3332644D01*
X1603790Y3331839D01*
X1602121Y3330558D01*
X1600841Y3328889D01*
X1600036Y3326946D01*
X1599761Y3324860D01*
X1600036Y3322774D01*
X1600841Y3320830D01*
X1601978Y3319349D01*
X1602143Y3318650D01*
Y3318370D01*
X1601978Y3317671D01*
X1600841Y3316190D01*
X1600036Y3314246D01*
X1599761Y3312160D01*
X1600036Y3310074D01*
X1600841Y3308130D01*
X1602121Y3306461D01*
X1603790Y3305181D01*
X1605734Y3304376D01*
X1607820Y3304101D01*
X1609906Y3304376D01*
X1611850Y3305181D01*
X1613331Y3306318D01*
X1614030Y3306483D01*
X1614244D01*
X1615341Y3305905D01*
Y3247736D01*
X1615735Y3245753D01*
X1616857Y3244073D01*
X1652470Y3208461D01*
X1652499Y3208239D01*
X1653395Y3206077D01*
X1654820Y3204220D01*
X1656677Y3202794D01*
X1658839Y3201899D01*
X1661160Y3201593D01*
X1663481Y3201899D01*
X1665643Y3202794D01*
X1667500Y3204220D01*
X1668925Y3206077D01*
X1669821Y3208239D01*
X1670127Y3210560D01*
X1669821Y3212881D01*
X1668925Y3215043D01*
X1667500Y3216900D01*
X1665643Y3218326D01*
X1663481Y3219221D01*
X1661160Y3219527D01*
X1658839Y3219221D01*
X1657086Y3218495D01*
X1649588Y3225993D01*
X1649996Y3227195D01*
X1650781Y3227299D01*
X1652943Y3228195D01*
X1654800Y3229620D01*
X1656225Y3231477D01*
X1657121Y3233639D01*
X1657427Y3235960D01*
X1657121Y3238281D01*
X1657048Y3238457D01*
X1658125Y3239176D01*
X1672691Y3224610D01*
X1672513Y3223260D01*
X1672819Y3220939D01*
X1673715Y3218777D01*
X1675140Y3216920D01*
X1676997Y3215495D01*
X1679159Y3214599D01*
X1681480Y3214293D01*
X1683801Y3214599D01*
X1685963Y3215495D01*
X1687820Y3216920D01*
X1689245Y3218777D01*
X1690141Y3220939D01*
X1690447Y3223260D01*
X1690141Y3225581D01*
X1689245Y3227744D01*
X1687820Y3229601D01*
X1685963Y3231025D01*
X1683801Y3231921D01*
X1681480Y3232227D01*
X1679929Y3232022D01*
X1651100Y3260852D01*
Y3306063D01*
X1651431Y3306318D01*
X1652130Y3306483D01*
X1652344D01*
X1653441Y3305905D01*
Y3268980D01*
X1653835Y3266998D01*
X1654957Y3265317D01*
X1708264Y3212011D01*
X1708073Y3210560D01*
X1708379Y3208239D01*
X1709275Y3206077D01*
X1710700Y3204220D01*
X1712557Y3202794D01*
X1714719Y3201899D01*
X1717040Y3201593D01*
X1719361Y3201899D01*
X1721523Y3202794D01*
X1723380Y3204220D01*
X1724805Y3206077D01*
X1725701Y3208239D01*
X1726007Y3210560D01*
X1725701Y3212881D01*
X1724805Y3215043D01*
X1723380Y3216900D01*
X1721523Y3218326D01*
X1719361Y3219221D01*
X1717040Y3219527D01*
X1715589Y3219336D01*
X1663799Y3271125D01*
Y3306063D01*
X1664319Y3306461D01*
X1665599Y3308130D01*
X1666404Y3310074D01*
X1666679Y3312160D01*
X1666404Y3314246D01*
X1665599Y3316190D01*
X1664319Y3317859D01*
X1662650Y3319139D01*
X1660706Y3319944D01*
X1658620Y3320219D01*
X1656534Y3319944D01*
X1654590Y3319139D01*
X1653109Y3318002D01*
X1652410Y3317837D01*
X1652130D01*
X1651431Y3318002D01*
X1649949Y3319139D01*
X1648006Y3319944D01*
X1645920Y3320219D01*
X1643834Y3319944D01*
X1641891Y3319139D01*
X1640409Y3318002D01*
X1639710Y3317837D01*
X1639430D01*
X1638731Y3318002D01*
X1637249Y3319139D01*
X1635306Y3319944D01*
X1633220Y3320219D01*
X1631134Y3319944D01*
X1629191Y3319139D01*
X1627709Y3318002D01*
X1627010Y3317837D01*
X1626730D01*
X1626031Y3318002D01*
X1624550Y3319139D01*
X1622606Y3319944D01*
X1620520Y3320219D01*
X1618434Y3319944D01*
X1616490Y3319139D01*
X1615223Y3318167D01*
X1614115Y3318456D01*
X1613827Y3319563D01*
X1614799Y3320830D01*
X1615604Y3322774D01*
X1615879Y3324860D01*
X1615604Y3326946D01*
X1614799Y3328889D01*
X1613519Y3330558D01*
X1611850Y3331839D01*
X1609906Y3332644D01*
X1607820Y3332919D01*
D02*
G37*
G36*
X2286000Y3108833D02*
X2283052Y3108542D01*
X2280217Y3107682D01*
X2277604Y3106286D01*
X2275314Y3104406D01*
X2273434Y3102116D01*
X2272038Y3099503D01*
X2271178Y3096668D01*
X2270887Y3093720D01*
X2271178Y3090771D01*
X2272038Y3087937D01*
X2273434Y3085324D01*
X2275314Y3083034D01*
X2277604Y3081154D01*
X2280217Y3079758D01*
X2283052Y3078898D01*
X2286000Y3078607D01*
X2288948Y3078898D01*
X2291783Y3079758D01*
X2294396Y3081154D01*
X2296686Y3083034D01*
X2298566Y3085324D01*
X2299962Y3087937D01*
X2300822Y3090771D01*
X2301113Y3093720D01*
X2300822Y3096668D01*
X2299962Y3099503D01*
X2298566Y3102116D01*
X2296686Y3104406D01*
X2294396Y3106286D01*
X2291783Y3107682D01*
X2288948Y3108542D01*
X2286000Y3108833D01*
D02*
G37*
G36*
X2019300Y3106293D02*
X2016352Y3106003D01*
X2013517Y3105143D01*
X2010904Y3103746D01*
X2008614Y3101866D01*
X2006734Y3099576D01*
X2005338Y3096964D01*
X2004478Y3094128D01*
X2004187Y3091180D01*
X2004478Y3088232D01*
X2005338Y3085397D01*
X2006734Y3082784D01*
X2008614Y3080494D01*
X2010904Y3078614D01*
X2013517Y3077218D01*
X2016352Y3076358D01*
X2019300Y3076067D01*
X2022248Y3076358D01*
X2025083Y3077218D01*
X2027696Y3078614D01*
X2029986Y3080494D01*
X2031866Y3082784D01*
X2033262Y3085397D01*
X2034122Y3088232D01*
X2034413Y3091180D01*
X2034122Y3094128D01*
X2033262Y3096964D01*
X2031866Y3099576D01*
X2029986Y3101866D01*
X2027696Y3103746D01*
X2025083Y3105143D01*
X2022248Y3106003D01*
X2019300Y3106293D01*
D02*
G37*
G36*
X1518920Y3096133D02*
X1515972Y3095842D01*
X1513137Y3094982D01*
X1510524Y3093586D01*
X1508234Y3091706D01*
X1506354Y3089416D01*
X1504958Y3086803D01*
X1504098Y3083969D01*
X1503807Y3081020D01*
X1504098Y3078072D01*
X1504958Y3075237D01*
X1506354Y3072624D01*
X1508234Y3070334D01*
X1510524Y3068454D01*
X1513137Y3067057D01*
X1515972Y3066198D01*
X1518920Y3065907D01*
X1521868Y3066198D01*
X1524703Y3067057D01*
X1527316Y3068454D01*
X1529606Y3070334D01*
X1531486Y3072624D01*
X1532882Y3075237D01*
X1533742Y3078072D01*
X1534033Y3081020D01*
X1533742Y3083969D01*
X1532882Y3086803D01*
X1531486Y3089416D01*
X1529606Y3091706D01*
X1527316Y3093586D01*
X1524703Y3094982D01*
X1521868Y3095842D01*
X1518920Y3096133D01*
D02*
G37*
G36*
X1767840Y3093593D02*
X1764892Y3093302D01*
X1762057Y3092442D01*
X1759444Y3091046D01*
X1757154Y3089166D01*
X1755274Y3086876D01*
X1753878Y3084263D01*
X1753018Y3081429D01*
X1752727Y3078480D01*
X1753018Y3075532D01*
X1753878Y3072697D01*
X1755274Y3070084D01*
X1757154Y3067794D01*
X1759444Y3065914D01*
X1762057Y3064518D01*
X1764892Y3063658D01*
X1767840Y3063367D01*
X1770788Y3063658D01*
X1773623Y3064518D01*
X1776236Y3065914D01*
X1778526Y3067794D01*
X1780406Y3070084D01*
X1781802Y3072697D01*
X1782662Y3075532D01*
X1782953Y3078480D01*
X1782662Y3081429D01*
X1781802Y3084263D01*
X1780406Y3086876D01*
X1778526Y3089166D01*
X1776236Y3091046D01*
X1773623Y3092442D01*
X1770788Y3093302D01*
X1767840Y3093593D01*
D02*
G37*
G36*
X2974340Y2962372D02*
X2971850Y2962044D01*
X2969529Y2961083D01*
X2967536Y2959554D01*
X2966007Y2957561D01*
X2965045Y2955240D01*
X2964718Y2952750D01*
X2965045Y2950260D01*
X2966007Y2947939D01*
X2967536Y2945946D01*
X2969529Y2944417D01*
X2971850Y2943456D01*
X2974340Y2943128D01*
X2976830Y2943456D01*
X2979151Y2944417D01*
X2981144Y2945946D01*
X2982673Y2947939D01*
X2983634Y2950260D01*
X2983962Y2952750D01*
X2983634Y2955240D01*
X2982673Y2957561D01*
X2981144Y2959554D01*
X2979151Y2961083D01*
X2976830Y2962044D01*
X2974340Y2962372D01*
D02*
G37*
G36*
X2948940D02*
X2946450Y2962044D01*
X2944129Y2961083D01*
X2942136Y2959554D01*
X2940607Y2957561D01*
X2939646Y2955240D01*
X2939318Y2952750D01*
X2939646Y2950260D01*
X2940607Y2947939D01*
X2942136Y2945946D01*
X2944129Y2944417D01*
X2946450Y2943456D01*
X2948940Y2943128D01*
X2951430Y2943456D01*
X2953751Y2944417D01*
X2955744Y2945946D01*
X2957273Y2947939D01*
X2958234Y2950260D01*
X2958562Y2952750D01*
X2958234Y2955240D01*
X2957273Y2957561D01*
X2955744Y2959554D01*
X2953751Y2961083D01*
X2951430Y2962044D01*
X2948940Y2962372D01*
D02*
G37*
G36*
X2923540D02*
X2921049Y2962044D01*
X2918729Y2961083D01*
X2916736Y2959554D01*
X2915207Y2957561D01*
X2914246Y2955240D01*
X2913918Y2952750D01*
X2914246Y2950260D01*
X2915207Y2947939D01*
X2916736Y2945946D01*
X2918729Y2944417D01*
X2921049Y2943456D01*
X2923540Y2943128D01*
X2926030Y2943456D01*
X2928351Y2944417D01*
X2930344Y2945946D01*
X2931873Y2947939D01*
X2932834Y2950260D01*
X2933162Y2952750D01*
X2932834Y2955240D01*
X2931873Y2957561D01*
X2930344Y2959554D01*
X2928351Y2961083D01*
X2926030Y2962044D01*
X2923540Y2962372D01*
D02*
G37*
G36*
X2898140D02*
X2895650Y2962044D01*
X2893329Y2961083D01*
X2891336Y2959554D01*
X2889807Y2957561D01*
X2888846Y2955240D01*
X2888518Y2952750D01*
X2888846Y2950260D01*
X2889807Y2947939D01*
X2891336Y2945946D01*
X2893329Y2944417D01*
X2895650Y2943456D01*
X2898140Y2943128D01*
X2900630Y2943456D01*
X2902951Y2944417D01*
X2904944Y2945946D01*
X2906473Y2947939D01*
X2907434Y2950260D01*
X2907762Y2952750D01*
X2907434Y2955240D01*
X2906473Y2957561D01*
X2904944Y2959554D01*
X2902951Y2961083D01*
X2900630Y2962044D01*
X2898140Y2962372D01*
D02*
G37*
G36*
X2872740D02*
X2870250Y2962044D01*
X2867929Y2961083D01*
X2865936Y2959554D01*
X2864407Y2957561D01*
X2863446Y2955240D01*
X2863118Y2952750D01*
X2863446Y2950260D01*
X2864407Y2947939D01*
X2865936Y2945946D01*
X2867929Y2944417D01*
X2870250Y2943456D01*
X2872740Y2943128D01*
X2875230Y2943456D01*
X2877551Y2944417D01*
X2879544Y2945946D01*
X2881073Y2947939D01*
X2882034Y2950260D01*
X2882362Y2952750D01*
X2882034Y2955240D01*
X2881073Y2957561D01*
X2879544Y2959554D01*
X2877551Y2961083D01*
X2875230Y2962044D01*
X2872740Y2962372D01*
D02*
G37*
G36*
X2847340D02*
X2844850Y2962044D01*
X2842529Y2961083D01*
X2840536Y2959554D01*
X2839007Y2957561D01*
X2838046Y2955240D01*
X2837718Y2952750D01*
X2838046Y2950260D01*
X2839007Y2947939D01*
X2840536Y2945946D01*
X2842529Y2944417D01*
X2844850Y2943456D01*
X2847340Y2943128D01*
X2849830Y2943456D01*
X2852151Y2944417D01*
X2854144Y2945946D01*
X2855673Y2947939D01*
X2856635Y2950260D01*
X2856962Y2952750D01*
X2856635Y2955240D01*
X2855673Y2957561D01*
X2854144Y2959554D01*
X2852151Y2961083D01*
X2849830Y2962044D01*
X2847340Y2962372D01*
D02*
G37*
G36*
X2821940D02*
X2819449Y2962044D01*
X2817129Y2961083D01*
X2815136Y2959554D01*
X2813607Y2957561D01*
X2812646Y2955240D01*
X2812318Y2952750D01*
X2812646Y2950260D01*
X2813607Y2947939D01*
X2815136Y2945946D01*
X2817129Y2944417D01*
X2819449Y2943456D01*
X2821940Y2943128D01*
X2824431Y2943456D01*
X2826751Y2944417D01*
X2828744Y2945946D01*
X2830273Y2947939D01*
X2831234Y2950260D01*
X2831562Y2952750D01*
X2831234Y2955240D01*
X2830273Y2957561D01*
X2828744Y2959554D01*
X2826751Y2961083D01*
X2824431Y2962044D01*
X2821940Y2962372D01*
D02*
G37*
G36*
X2796540D02*
X2794050Y2962044D01*
X2791729Y2961083D01*
X2789736Y2959554D01*
X2788207Y2957561D01*
X2787245Y2955240D01*
X2786918Y2952750D01*
X2787245Y2950260D01*
X2788207Y2947939D01*
X2789736Y2945946D01*
X2791729Y2944417D01*
X2794050Y2943456D01*
X2796540Y2943128D01*
X2799030Y2943456D01*
X2801351Y2944417D01*
X2803344Y2945946D01*
X2804873Y2947939D01*
X2805834Y2950260D01*
X2806162Y2952750D01*
X2805834Y2955240D01*
X2804873Y2957561D01*
X2803344Y2959554D01*
X2801351Y2961083D01*
X2799030Y2962044D01*
X2796540Y2962372D01*
D02*
G37*
G36*
X2745740D02*
X2743250Y2962044D01*
X2740929Y2961083D01*
X2738936Y2959554D01*
X2737407Y2957561D01*
X2736446Y2955240D01*
X2736118Y2952750D01*
X2736446Y2950260D01*
X2737407Y2947939D01*
X2738936Y2945946D01*
X2740929Y2944417D01*
X2743250Y2943456D01*
X2745740Y2943128D01*
X2748230Y2943456D01*
X2750551Y2944417D01*
X2752544Y2945946D01*
X2754073Y2947939D01*
X2755034Y2950260D01*
X2755362Y2952750D01*
X2755034Y2955240D01*
X2754073Y2957561D01*
X2752544Y2959554D01*
X2750551Y2961083D01*
X2748230Y2962044D01*
X2745740Y2962372D01*
D02*
G37*
G36*
X551180D02*
X548690Y2962044D01*
X546369Y2961083D01*
X544376Y2959554D01*
X542847Y2957561D01*
X541886Y2955240D01*
X541558Y2952750D01*
X541886Y2950260D01*
X542847Y2947939D01*
X544376Y2945946D01*
X546369Y2944417D01*
X548690Y2943456D01*
X551180Y2943128D01*
X553670Y2943456D01*
X555991Y2944417D01*
X557984Y2945946D01*
X559513Y2947939D01*
X560474Y2950260D01*
X560802Y2952750D01*
X560474Y2955240D01*
X559513Y2957561D01*
X557984Y2959554D01*
X555991Y2961083D01*
X553670Y2962044D01*
X551180Y2962372D01*
D02*
G37*
G36*
X525780D02*
X523290Y2962044D01*
X520969Y2961083D01*
X518976Y2959554D01*
X517447Y2957561D01*
X516486Y2955240D01*
X516158Y2952750D01*
X516486Y2950260D01*
X517447Y2947939D01*
X518976Y2945946D01*
X520969Y2944417D01*
X523290Y2943456D01*
X525780Y2943128D01*
X528270Y2943456D01*
X530591Y2944417D01*
X532584Y2945946D01*
X534113Y2947939D01*
X535074Y2950260D01*
X535402Y2952750D01*
X535074Y2955240D01*
X534113Y2957561D01*
X532584Y2959554D01*
X530591Y2961083D01*
X528270Y2962044D01*
X525780Y2962372D01*
D02*
G37*
G36*
X500380D02*
X497890Y2962044D01*
X495569Y2961083D01*
X493576Y2959554D01*
X492047Y2957561D01*
X491086Y2955240D01*
X490758Y2952750D01*
X491086Y2950260D01*
X492047Y2947939D01*
X493576Y2945946D01*
X495569Y2944417D01*
X497890Y2943456D01*
X500380Y2943128D01*
X502870Y2943456D01*
X505191Y2944417D01*
X507184Y2945946D01*
X508713Y2947939D01*
X509674Y2950260D01*
X510002Y2952750D01*
X509674Y2955240D01*
X508713Y2957561D01*
X507184Y2959554D01*
X505191Y2961083D01*
X502870Y2962044D01*
X500380Y2962372D01*
D02*
G37*
G36*
X474980D02*
X472490Y2962044D01*
X470169Y2961083D01*
X468176Y2959554D01*
X466647Y2957561D01*
X465686Y2955240D01*
X465358Y2952750D01*
X465686Y2950260D01*
X466647Y2947939D01*
X468176Y2945946D01*
X470169Y2944417D01*
X472490Y2943456D01*
X474980Y2943128D01*
X477470Y2943456D01*
X479791Y2944417D01*
X481784Y2945946D01*
X483313Y2947939D01*
X484274Y2950260D01*
X484602Y2952750D01*
X484274Y2955240D01*
X483313Y2957561D01*
X481784Y2959554D01*
X479791Y2961083D01*
X477470Y2962044D01*
X474980Y2962372D01*
D02*
G37*
G36*
X449580D02*
X447090Y2962044D01*
X444769Y2961083D01*
X442776Y2959554D01*
X441247Y2957561D01*
X440286Y2955240D01*
X439958Y2952750D01*
X440286Y2950260D01*
X441247Y2947939D01*
X442776Y2945946D01*
X444769Y2944417D01*
X447090Y2943456D01*
X449580Y2943128D01*
X452070Y2943456D01*
X454391Y2944417D01*
X456384Y2945946D01*
X457913Y2947939D01*
X458874Y2950260D01*
X459202Y2952750D01*
X458874Y2955240D01*
X457913Y2957561D01*
X456384Y2959554D01*
X454391Y2961083D01*
X452070Y2962044D01*
X449580Y2962372D01*
D02*
G37*
G36*
X424180D02*
X421690Y2962044D01*
X419369Y2961083D01*
X417376Y2959554D01*
X415847Y2957561D01*
X414886Y2955240D01*
X414558Y2952750D01*
X414886Y2950260D01*
X415847Y2947939D01*
X417376Y2945946D01*
X419369Y2944417D01*
X421690Y2943456D01*
X424180Y2943128D01*
X426670Y2943456D01*
X428991Y2944417D01*
X430984Y2945946D01*
X432513Y2947939D01*
X433474Y2950260D01*
X433802Y2952750D01*
X433474Y2955240D01*
X432513Y2957561D01*
X430984Y2959554D01*
X428991Y2961083D01*
X426670Y2962044D01*
X424180Y2962372D01*
D02*
G37*
G36*
X398780D02*
X396290Y2962044D01*
X393969Y2961083D01*
X391976Y2959554D01*
X390447Y2957561D01*
X389486Y2955240D01*
X389158Y2952750D01*
X389486Y2950260D01*
X390447Y2947939D01*
X391976Y2945946D01*
X393969Y2944417D01*
X396290Y2943456D01*
X398780Y2943128D01*
X401270Y2943456D01*
X403591Y2944417D01*
X405584Y2945946D01*
X407113Y2947939D01*
X408074Y2950260D01*
X408402Y2952750D01*
X408074Y2955240D01*
X407113Y2957561D01*
X405584Y2959554D01*
X403591Y2961083D01*
X401270Y2962044D01*
X398780Y2962372D01*
D02*
G37*
G36*
X373380D02*
X370890Y2962044D01*
X368569Y2961083D01*
X366576Y2959554D01*
X365047Y2957561D01*
X364086Y2955240D01*
X363758Y2952750D01*
X364086Y2950260D01*
X365047Y2947939D01*
X366576Y2945946D01*
X368569Y2944417D01*
X370890Y2943456D01*
X373380Y2943128D01*
X375870Y2943456D01*
X378191Y2944417D01*
X380184Y2945946D01*
X381713Y2947939D01*
X382674Y2950260D01*
X383002Y2952750D01*
X382674Y2955240D01*
X381713Y2957561D01*
X380184Y2959554D01*
X378191Y2961083D01*
X375870Y2962044D01*
X373380Y2962372D01*
D02*
G37*
G36*
X322580D02*
X320090Y2962044D01*
X317769Y2961083D01*
X315776Y2959554D01*
X314247Y2957561D01*
X313286Y2955240D01*
X312958Y2952750D01*
X313286Y2950260D01*
X314247Y2947939D01*
X315776Y2945946D01*
X317769Y2944417D01*
X320090Y2943456D01*
X322580Y2943128D01*
X325070Y2943456D01*
X327391Y2944417D01*
X329384Y2945946D01*
X330913Y2947939D01*
X331874Y2950260D01*
X332202Y2952750D01*
X331874Y2955240D01*
X330913Y2957561D01*
X329384Y2959554D01*
X327391Y2961083D01*
X325070Y2962044D01*
X322580Y2962372D01*
D02*
G37*
G36*
X2755280Y2936890D02*
X2736200D01*
Y2917810D01*
X2755280D01*
Y2936890D01*
D02*
G37*
G36*
X332120D02*
X313040D01*
Y2917810D01*
X332120D01*
Y2936890D01*
D02*
G37*
G36*
X2974340Y2936972D02*
X2971850Y2936644D01*
X2969529Y2935683D01*
X2967536Y2934154D01*
X2966007Y2932161D01*
X2965045Y2929840D01*
X2964718Y2927350D01*
X2965045Y2924860D01*
X2966007Y2922539D01*
X2967536Y2920546D01*
X2969529Y2919017D01*
X2971850Y2918056D01*
X2974340Y2917728D01*
X2976830Y2918056D01*
X2979151Y2919017D01*
X2981144Y2920546D01*
X2982673Y2922539D01*
X2983634Y2924860D01*
X2983962Y2927350D01*
X2983634Y2929840D01*
X2982673Y2932161D01*
X2981144Y2934154D01*
X2979151Y2935683D01*
X2976830Y2936644D01*
X2974340Y2936972D01*
D02*
G37*
G36*
X2948940D02*
X2946450Y2936644D01*
X2944129Y2935683D01*
X2942136Y2934154D01*
X2940607Y2932161D01*
X2939646Y2929840D01*
X2939318Y2927350D01*
X2939646Y2924860D01*
X2940607Y2922539D01*
X2942136Y2920546D01*
X2944129Y2919017D01*
X2946450Y2918056D01*
X2948940Y2917728D01*
X2951430Y2918056D01*
X2953751Y2919017D01*
X2955744Y2920546D01*
X2957273Y2922539D01*
X2958234Y2924860D01*
X2958562Y2927350D01*
X2958234Y2929840D01*
X2957273Y2932161D01*
X2955744Y2934154D01*
X2953751Y2935683D01*
X2951430Y2936644D01*
X2948940Y2936972D01*
D02*
G37*
G36*
X2923540D02*
X2921049Y2936644D01*
X2918729Y2935683D01*
X2916736Y2934154D01*
X2915207Y2932161D01*
X2914246Y2929840D01*
X2913918Y2927350D01*
X2914246Y2924860D01*
X2915207Y2922539D01*
X2916736Y2920546D01*
X2918729Y2919017D01*
X2921049Y2918056D01*
X2923540Y2917728D01*
X2926030Y2918056D01*
X2928351Y2919017D01*
X2930344Y2920546D01*
X2931873Y2922539D01*
X2932834Y2924860D01*
X2933162Y2927350D01*
X2932834Y2929840D01*
X2931873Y2932161D01*
X2930344Y2934154D01*
X2928351Y2935683D01*
X2926030Y2936644D01*
X2923540Y2936972D01*
D02*
G37*
G36*
X2898140D02*
X2895650Y2936644D01*
X2893329Y2935683D01*
X2891336Y2934154D01*
X2889807Y2932161D01*
X2888846Y2929840D01*
X2888518Y2927350D01*
X2888846Y2924860D01*
X2889807Y2922539D01*
X2891336Y2920546D01*
X2893329Y2919017D01*
X2895650Y2918056D01*
X2898140Y2917728D01*
X2900630Y2918056D01*
X2902951Y2919017D01*
X2904944Y2920546D01*
X2906473Y2922539D01*
X2907434Y2924860D01*
X2907762Y2927350D01*
X2907434Y2929840D01*
X2906473Y2932161D01*
X2904944Y2934154D01*
X2902951Y2935683D01*
X2900630Y2936644D01*
X2898140Y2936972D01*
D02*
G37*
G36*
X2872740D02*
X2870250Y2936644D01*
X2867929Y2935683D01*
X2865936Y2934154D01*
X2864407Y2932161D01*
X2863446Y2929840D01*
X2863118Y2927350D01*
X2863446Y2924860D01*
X2864407Y2922539D01*
X2865936Y2920546D01*
X2867929Y2919017D01*
X2870250Y2918056D01*
X2872740Y2917728D01*
X2875230Y2918056D01*
X2877551Y2919017D01*
X2879544Y2920546D01*
X2881073Y2922539D01*
X2882034Y2924860D01*
X2882362Y2927350D01*
X2882034Y2929840D01*
X2881073Y2932161D01*
X2879544Y2934154D01*
X2877551Y2935683D01*
X2875230Y2936644D01*
X2872740Y2936972D01*
D02*
G37*
G36*
X2847340D02*
X2844850Y2936644D01*
X2842529Y2935683D01*
X2840536Y2934154D01*
X2839007Y2932161D01*
X2838046Y2929840D01*
X2837718Y2927350D01*
X2838046Y2924860D01*
X2839007Y2922539D01*
X2840536Y2920546D01*
X2842529Y2919017D01*
X2844850Y2918056D01*
X2847340Y2917728D01*
X2849830Y2918056D01*
X2852151Y2919017D01*
X2854144Y2920546D01*
X2855673Y2922539D01*
X2856635Y2924860D01*
X2856962Y2927350D01*
X2856635Y2929840D01*
X2855673Y2932161D01*
X2854144Y2934154D01*
X2852151Y2935683D01*
X2849830Y2936644D01*
X2847340Y2936972D01*
D02*
G37*
G36*
X2821940D02*
X2819449Y2936644D01*
X2817129Y2935683D01*
X2815136Y2934154D01*
X2813607Y2932161D01*
X2812646Y2929840D01*
X2812318Y2927350D01*
X2812646Y2924860D01*
X2813607Y2922539D01*
X2815136Y2920546D01*
X2817129Y2919017D01*
X2819449Y2918056D01*
X2821940Y2917728D01*
X2824431Y2918056D01*
X2826751Y2919017D01*
X2828744Y2920546D01*
X2830273Y2922539D01*
X2831234Y2924860D01*
X2831562Y2927350D01*
X2831234Y2929840D01*
X2830273Y2932161D01*
X2828744Y2934154D01*
X2826751Y2935683D01*
X2824431Y2936644D01*
X2821940Y2936972D01*
D02*
G37*
G36*
X2796540D02*
X2794050Y2936644D01*
X2791729Y2935683D01*
X2789736Y2934154D01*
X2788207Y2932161D01*
X2787245Y2929840D01*
X2786918Y2927350D01*
X2787245Y2924860D01*
X2788207Y2922539D01*
X2789736Y2920546D01*
X2791729Y2919017D01*
X2794050Y2918056D01*
X2796540Y2917728D01*
X2799030Y2918056D01*
X2801351Y2919017D01*
X2803344Y2920546D01*
X2804873Y2922539D01*
X2805834Y2924860D01*
X2806162Y2927350D01*
X2805834Y2929840D01*
X2804873Y2932161D01*
X2803344Y2934154D01*
X2801351Y2935683D01*
X2799030Y2936644D01*
X2796540Y2936972D01*
D02*
G37*
G36*
X2771140D02*
X2768650Y2936644D01*
X2766329Y2935683D01*
X2764336Y2934154D01*
X2762807Y2932161D01*
X2761846Y2929840D01*
X2761518Y2927350D01*
X2761846Y2924860D01*
X2762807Y2922539D01*
X2764336Y2920546D01*
X2766329Y2919017D01*
X2768650Y2918056D01*
X2771140Y2917728D01*
X2773630Y2918056D01*
X2775951Y2919017D01*
X2777944Y2920546D01*
X2779473Y2922539D01*
X2780434Y2924860D01*
X2780762Y2927350D01*
X2780434Y2929840D01*
X2779473Y2932161D01*
X2777944Y2934154D01*
X2775951Y2935683D01*
X2773630Y2936644D01*
X2771140Y2936972D01*
D02*
G37*
G36*
X551180D02*
X548690Y2936644D01*
X546369Y2935683D01*
X544376Y2934154D01*
X542847Y2932161D01*
X541886Y2929840D01*
X541558Y2927350D01*
X541886Y2924860D01*
X542847Y2922539D01*
X544376Y2920546D01*
X546369Y2919017D01*
X548690Y2918056D01*
X551180Y2917728D01*
X553670Y2918056D01*
X555991Y2919017D01*
X557984Y2920546D01*
X559513Y2922539D01*
X560474Y2924860D01*
X560802Y2927350D01*
X560474Y2929840D01*
X559513Y2932161D01*
X557984Y2934154D01*
X555991Y2935683D01*
X553670Y2936644D01*
X551180Y2936972D01*
D02*
G37*
G36*
X525780D02*
X523290Y2936644D01*
X520969Y2935683D01*
X518976Y2934154D01*
X517447Y2932161D01*
X516486Y2929840D01*
X516158Y2927350D01*
X516486Y2924860D01*
X517447Y2922539D01*
X518976Y2920546D01*
X520969Y2919017D01*
X523290Y2918056D01*
X525780Y2917728D01*
X528270Y2918056D01*
X530591Y2919017D01*
X532584Y2920546D01*
X534113Y2922539D01*
X535074Y2924860D01*
X535402Y2927350D01*
X535074Y2929840D01*
X534113Y2932161D01*
X532584Y2934154D01*
X530591Y2935683D01*
X528270Y2936644D01*
X525780Y2936972D01*
D02*
G37*
G36*
X500380D02*
X497890Y2936644D01*
X495569Y2935683D01*
X493576Y2934154D01*
X492047Y2932161D01*
X491086Y2929840D01*
X490758Y2927350D01*
X491086Y2924860D01*
X492047Y2922539D01*
X493576Y2920546D01*
X495569Y2919017D01*
X497890Y2918056D01*
X500380Y2917728D01*
X502870Y2918056D01*
X505191Y2919017D01*
X507184Y2920546D01*
X508713Y2922539D01*
X509674Y2924860D01*
X510002Y2927350D01*
X509674Y2929840D01*
X508713Y2932161D01*
X507184Y2934154D01*
X505191Y2935683D01*
X502870Y2936644D01*
X500380Y2936972D01*
D02*
G37*
G36*
X474980D02*
X472490Y2936644D01*
X470169Y2935683D01*
X468176Y2934154D01*
X466647Y2932161D01*
X465686Y2929840D01*
X465358Y2927350D01*
X465686Y2924860D01*
X466647Y2922539D01*
X468176Y2920546D01*
X470169Y2919017D01*
X472490Y2918056D01*
X474980Y2917728D01*
X477470Y2918056D01*
X479791Y2919017D01*
X481784Y2920546D01*
X483313Y2922539D01*
X484274Y2924860D01*
X484602Y2927350D01*
X484274Y2929840D01*
X483313Y2932161D01*
X481784Y2934154D01*
X479791Y2935683D01*
X477470Y2936644D01*
X474980Y2936972D01*
D02*
G37*
G36*
X449580D02*
X447090Y2936644D01*
X444769Y2935683D01*
X442776Y2934154D01*
X441247Y2932161D01*
X440286Y2929840D01*
X439958Y2927350D01*
X440286Y2924860D01*
X441247Y2922539D01*
X442776Y2920546D01*
X444769Y2919017D01*
X447090Y2918056D01*
X449580Y2917728D01*
X452070Y2918056D01*
X454391Y2919017D01*
X456384Y2920546D01*
X457913Y2922539D01*
X458874Y2924860D01*
X459202Y2927350D01*
X458874Y2929840D01*
X457913Y2932161D01*
X456384Y2934154D01*
X454391Y2935683D01*
X452070Y2936644D01*
X449580Y2936972D01*
D02*
G37*
G36*
X424180D02*
X421690Y2936644D01*
X419369Y2935683D01*
X417376Y2934154D01*
X415847Y2932161D01*
X414886Y2929840D01*
X414558Y2927350D01*
X414886Y2924860D01*
X415847Y2922539D01*
X417376Y2920546D01*
X419369Y2919017D01*
X421690Y2918056D01*
X424180Y2917728D01*
X426670Y2918056D01*
X428991Y2919017D01*
X430984Y2920546D01*
X432513Y2922539D01*
X433474Y2924860D01*
X433802Y2927350D01*
X433474Y2929840D01*
X432513Y2932161D01*
X430984Y2934154D01*
X428991Y2935683D01*
X426670Y2936644D01*
X424180Y2936972D01*
D02*
G37*
G36*
X398780D02*
X396290Y2936644D01*
X393969Y2935683D01*
X391976Y2934154D01*
X390447Y2932161D01*
X389486Y2929840D01*
X389158Y2927350D01*
X389486Y2924860D01*
X390447Y2922539D01*
X391976Y2920546D01*
X393969Y2919017D01*
X396290Y2918056D01*
X398780Y2917728D01*
X401270Y2918056D01*
X403591Y2919017D01*
X405584Y2920546D01*
X407113Y2922539D01*
X408074Y2924860D01*
X408402Y2927350D01*
X408074Y2929840D01*
X407113Y2932161D01*
X405584Y2934154D01*
X403591Y2935683D01*
X401270Y2936644D01*
X398780Y2936972D01*
D02*
G37*
G36*
X373380D02*
X370890Y2936644D01*
X368569Y2935683D01*
X366576Y2934154D01*
X365047Y2932161D01*
X364086Y2929840D01*
X363758Y2927350D01*
X364086Y2924860D01*
X365047Y2922539D01*
X366576Y2920546D01*
X368569Y2919017D01*
X370890Y2918056D01*
X373380Y2917728D01*
X375870Y2918056D01*
X378191Y2919017D01*
X380184Y2920546D01*
X381713Y2922539D01*
X382674Y2924860D01*
X383002Y2927350D01*
X382674Y2929840D01*
X381713Y2932161D01*
X380184Y2934154D01*
X378191Y2935683D01*
X375870Y2936644D01*
X373380Y2936972D01*
D02*
G37*
G36*
X347980D02*
X345490Y2936644D01*
X343169Y2935683D01*
X341176Y2934154D01*
X339647Y2932161D01*
X338686Y2929840D01*
X338358Y2927350D01*
X338686Y2924860D01*
X339647Y2922539D01*
X341176Y2920546D01*
X343169Y2919017D01*
X345490Y2918056D01*
X347980Y2917728D01*
X350470Y2918056D01*
X352791Y2919017D01*
X354784Y2920546D01*
X356313Y2922539D01*
X357274Y2924860D01*
X357602Y2927350D01*
X357274Y2929840D01*
X356313Y2932161D01*
X354784Y2934154D01*
X352791Y2935683D01*
X350470Y2936644D01*
X347980Y2936972D01*
D02*
G37*
G36*
X3050540Y2821813D02*
X3047592Y2821523D01*
X3044756Y2820663D01*
X3042144Y2819266D01*
X3039854Y2817386D01*
X3037974Y2815096D01*
X3036577Y2812484D01*
X3035717Y2809648D01*
X3035427Y2806700D01*
X3035717Y2803752D01*
X3036577Y2800917D01*
X3037974Y2798304D01*
X3039854Y2796014D01*
X3042144Y2794134D01*
X3044756Y2792738D01*
X3047592Y2791878D01*
X3050540Y2791587D01*
X3053488Y2791878D01*
X3056324Y2792738D01*
X3058936Y2794134D01*
X3061226Y2796014D01*
X3063106Y2798304D01*
X3064502Y2800917D01*
X3065363Y2803752D01*
X3065653Y2806700D01*
X3065363Y2809648D01*
X3064502Y2812484D01*
X3063106Y2815096D01*
X3061226Y2817386D01*
X3058936Y2819266D01*
X3056324Y2820663D01*
X3053488Y2821523D01*
X3050540Y2821813D01*
D02*
G37*
G36*
X2994660D02*
X2991712Y2821523D01*
X2988877Y2820663D01*
X2986264Y2819266D01*
X2983974Y2817386D01*
X2982094Y2815096D01*
X2980698Y2812484D01*
X2979838Y2809648D01*
X2979547Y2806700D01*
X2979838Y2803752D01*
X2980698Y2800917D01*
X2982094Y2798304D01*
X2983974Y2796014D01*
X2986264Y2794134D01*
X2988877Y2792738D01*
X2991712Y2791878D01*
X2994660Y2791587D01*
X2997608Y2791878D01*
X3000443Y2792738D01*
X3003056Y2794134D01*
X3005346Y2796014D01*
X3007226Y2798304D01*
X3008622Y2800917D01*
X3009482Y2803752D01*
X3009773Y2806700D01*
X3009482Y2809648D01*
X3008622Y2812484D01*
X3007226Y2815096D01*
X3005346Y2817386D01*
X3003056Y2819266D01*
X3000443Y2820663D01*
X2997608Y2821523D01*
X2994660Y2821813D01*
D02*
G37*
G36*
X2936240D02*
X2933292Y2821523D01*
X2930457Y2820663D01*
X2927844Y2819266D01*
X2925554Y2817386D01*
X2923674Y2815096D01*
X2922278Y2812484D01*
X2921418Y2809648D01*
X2921127Y2806700D01*
X2921418Y2803752D01*
X2922278Y2800917D01*
X2923674Y2798304D01*
X2925554Y2796014D01*
X2927844Y2794134D01*
X2930457Y2792738D01*
X2933292Y2791878D01*
X2936240Y2791587D01*
X2939189Y2791878D01*
X2942023Y2792738D01*
X2944636Y2794134D01*
X2946926Y2796014D01*
X2948806Y2798304D01*
X2950202Y2800917D01*
X2951062Y2803752D01*
X2951353Y2806700D01*
X2951062Y2809648D01*
X2950202Y2812484D01*
X2948806Y2815096D01*
X2946926Y2817386D01*
X2944636Y2819266D01*
X2942023Y2820663D01*
X2939189Y2821523D01*
X2936240Y2821813D01*
D02*
G37*
G36*
X2880360D02*
X2877411Y2821523D01*
X2874577Y2820663D01*
X2871964Y2819266D01*
X2869674Y2817386D01*
X2867794Y2815096D01*
X2866398Y2812484D01*
X2865538Y2809648D01*
X2865247Y2806700D01*
X2865538Y2803752D01*
X2866398Y2800917D01*
X2867794Y2798304D01*
X2869674Y2796014D01*
X2871964Y2794134D01*
X2874577Y2792738D01*
X2877411Y2791878D01*
X2880360Y2791587D01*
X2883308Y2791878D01*
X2886143Y2792738D01*
X2888756Y2794134D01*
X2891046Y2796014D01*
X2892926Y2798304D01*
X2894323Y2800917D01*
X2895182Y2803752D01*
X2895473Y2806700D01*
X2895182Y2809648D01*
X2894323Y2812484D01*
X2892926Y2815096D01*
X2891046Y2817386D01*
X2888756Y2819266D01*
X2886143Y2820663D01*
X2883308Y2821523D01*
X2880360Y2821813D01*
D02*
G37*
G36*
X2809240D02*
X2806292Y2821523D01*
X2803457Y2820663D01*
X2800844Y2819266D01*
X2798554Y2817386D01*
X2796674Y2815096D01*
X2795278Y2812484D01*
X2794418Y2809648D01*
X2794127Y2806700D01*
X2794418Y2803752D01*
X2795278Y2800917D01*
X2796674Y2798304D01*
X2798554Y2796014D01*
X2800844Y2794134D01*
X2803457Y2792738D01*
X2806292Y2791878D01*
X2809240Y2791587D01*
X2812188Y2791878D01*
X2815023Y2792738D01*
X2817636Y2794134D01*
X2819926Y2796014D01*
X2821806Y2798304D01*
X2823203Y2800917D01*
X2824062Y2803752D01*
X2824353Y2806700D01*
X2824062Y2809648D01*
X2823203Y2812484D01*
X2821806Y2815096D01*
X2819926Y2817386D01*
X2817636Y2819266D01*
X2815023Y2820663D01*
X2812188Y2821523D01*
X2809240Y2821813D01*
D02*
G37*
%LPD*%
G36*
X1399440Y3305905D02*
Y3238022D01*
X1399835Y3236040D01*
X1400957Y3234359D01*
X1405627Y3229691D01*
X1405311Y3228929D01*
X1405208Y3228144D01*
X1404005Y3227735D01*
X1397099Y3234641D01*
Y3306063D01*
X1397431Y3306318D01*
X1398130Y3306483D01*
X1398344D01*
X1399440Y3305905D01*
D02*
G37*
G36*
X1640741D02*
Y3258706D01*
X1641135Y3256724D01*
X1642258Y3255044D01*
X1651676Y3245625D01*
X1650957Y3244548D01*
X1650781Y3244621D01*
X1648460Y3244927D01*
X1647009Y3244736D01*
X1638400Y3253345D01*
Y3306063D01*
X1638731Y3306318D01*
X1639430Y3306483D01*
X1639644D01*
X1640741Y3305905D01*
D02*
G37*
%LPC*%
G36*
X1683263Y2794840D02*
X1679697D01*
X1676254Y2793917D01*
X1673166Y2792135D01*
X1670645Y2789614D01*
X1668863Y2786526D01*
X1667940Y2783083D01*
Y2779518D01*
X1668863Y2776074D01*
X1670645Y2772986D01*
X1673166Y2770465D01*
X1676254Y2768683D01*
X1679697Y2767760D01*
X1683263D01*
X1686706Y2768683D01*
X1689794Y2770465D01*
X1692315Y2772986D01*
X1694097Y2776074D01*
X1695020Y2779518D01*
Y2783083D01*
X1694097Y2786526D01*
X1692315Y2789614D01*
X1689794Y2792135D01*
X1686706Y2793917D01*
X1683263Y2794840D01*
D02*
G37*
G36*
X1416563D02*
X1412997D01*
X1409554Y2793917D01*
X1406466Y2792135D01*
X1403945Y2789614D01*
X1402163Y2786526D01*
X1401240Y2783083D01*
Y2779518D01*
X1402163Y2776074D01*
X1403945Y2772986D01*
X1406466Y2770465D01*
X1409554Y2768683D01*
X1412997Y2767760D01*
X1416563D01*
X1420006Y2768683D01*
X1423094Y2770465D01*
X1425615Y2772986D01*
X1427397Y2776074D01*
X1428320Y2779518D01*
Y2783083D01*
X1427397Y2786526D01*
X1425615Y2789614D01*
X1423094Y2792135D01*
X1420006Y2793917D01*
X1416563Y2794840D01*
D02*
G37*
G36*
X1149863D02*
X1146297D01*
X1142854Y2793917D01*
X1139766Y2792135D01*
X1137245Y2789614D01*
X1135463Y2786526D01*
X1134540Y2783083D01*
Y2779518D01*
X1135463Y2776074D01*
X1137245Y2772986D01*
X1139766Y2770465D01*
X1142854Y2768683D01*
X1146297Y2767760D01*
X1149863D01*
X1153306Y2768683D01*
X1156394Y2770465D01*
X1158915Y2772986D01*
X1160697Y2776074D01*
X1161620Y2779518D01*
Y2783083D01*
X1160697Y2786526D01*
X1158915Y2789614D01*
X1156394Y2792135D01*
X1153306Y2793917D01*
X1149863Y2794840D01*
D02*
G37*
G36*
X1267284Y2717360D02*
X1262556D01*
X1257886Y2716620D01*
X1253389Y2715159D01*
X1249176Y2713012D01*
X1245350Y2710233D01*
X1242007Y2706890D01*
X1239228Y2703064D01*
X1237081Y2698851D01*
X1235620Y2694354D01*
X1234880Y2689684D01*
Y2684956D01*
X1235620Y2680286D01*
X1237081Y2675789D01*
X1239228Y2671576D01*
X1242007Y2667750D01*
X1245350Y2664407D01*
X1249176Y2661628D01*
X1253389Y2659481D01*
X1257886Y2658020D01*
X1262556Y2657280D01*
X1267284D01*
X1271954Y2658020D01*
X1276451Y2659481D01*
X1280664Y2661628D01*
X1284490Y2664407D01*
X1287833Y2667750D01*
X1290612Y2671576D01*
X1292759Y2675789D01*
X1294220Y2680286D01*
X1294960Y2684956D01*
Y2689684D01*
X1294220Y2694354D01*
X1292759Y2698851D01*
X1290612Y2703064D01*
X1287833Y2706890D01*
X1284490Y2710233D01*
X1280664Y2713012D01*
X1276451Y2715159D01*
X1271954Y2716620D01*
X1267284Y2717360D01*
D02*
G37*
G36*
X1573401Y2603300D02*
X1570439D01*
X1567533Y2602722D01*
X1564796Y2601588D01*
X1562333Y2599942D01*
X1560238Y2597847D01*
X1558592Y2595384D01*
X1557458Y2592647D01*
X1556880Y2589741D01*
Y2586779D01*
X1557458Y2583873D01*
X1558592Y2581136D01*
X1560238Y2578672D01*
X1562333Y2576578D01*
X1564796Y2574932D01*
X1567533Y2573798D01*
X1570439Y2573220D01*
X1573401D01*
X1576307Y2573798D01*
X1579044Y2574932D01*
X1581507Y2576578D01*
X1583602Y2578672D01*
X1585248Y2581136D01*
X1586382Y2583873D01*
X1586960Y2586779D01*
Y2589741D01*
X1586382Y2592647D01*
X1585248Y2595384D01*
X1583602Y2597847D01*
X1581507Y2599942D01*
X1579044Y2601588D01*
X1576307Y2602722D01*
X1573401Y2603300D01*
D02*
G37*
G36*
X1414780Y2650567D02*
X1414197Y2650490D01*
X1413610D01*
X1413042Y2650338D01*
X1412459Y2650261D01*
X1411916Y2650036D01*
X1411349Y2649884D01*
X1410840Y2649590D01*
X1410297Y2649366D01*
X1409830Y2649008D01*
X1409321Y2648714D01*
X1408906Y2648298D01*
X1408440Y2647940D01*
X1408082Y2647474D01*
X1407666Y2647059D01*
X1407372Y2646549D01*
X1407015Y2646083D01*
X1406790Y2645540D01*
X1406496Y2645031D01*
X1406344Y2644464D01*
X1406119Y2643921D01*
X1406042Y2643338D01*
X1405890Y2642770D01*
Y2642183D01*
X1405813Y2641600D01*
Y2448220D01*
X1406119Y2445899D01*
X1407015Y2443737D01*
X1408440Y2441880D01*
X1422406Y2427914D01*
X1422260Y2427181D01*
Y2424219D01*
X1422838Y2421313D01*
X1423972Y2418576D01*
X1425618Y2416113D01*
X1427713Y2414018D01*
X1430176Y2412372D01*
X1432913Y2411238D01*
X1435819Y2410660D01*
X1438781D01*
X1441687Y2411238D01*
X1444424Y2412372D01*
X1446887Y2414018D01*
X1448982Y2416113D01*
X1450628Y2418576D01*
X1451762Y2421313D01*
X1452340Y2424219D01*
Y2427181D01*
X1451762Y2430087D01*
X1450628Y2432824D01*
X1448982Y2435287D01*
X1446887Y2437382D01*
X1444424Y2439028D01*
X1441687Y2440162D01*
X1438781Y2440740D01*
X1435819D01*
X1435087Y2440594D01*
X1423747Y2451934D01*
Y2641600D01*
X1423670Y2642183D01*
Y2642770D01*
X1423518Y2643338D01*
X1423441Y2643921D01*
X1423216Y2644464D01*
X1423064Y2645031D01*
X1422770Y2645540D01*
X1422545Y2646083D01*
X1422188Y2646549D01*
X1421894Y2647059D01*
X1421478Y2647474D01*
X1421120Y2647940D01*
X1420654Y2648298D01*
X1420239Y2648714D01*
X1419729Y2649008D01*
X1419263Y2649366D01*
X1418721Y2649590D01*
X1418211Y2649884D01*
X1417644Y2650036D01*
X1417101Y2650261D01*
X1416518Y2650338D01*
X1415950Y2650490D01*
X1415363D01*
X1414780Y2650567D01*
D02*
G37*
G36*
X1148080Y2645487D02*
X1147497Y2645410D01*
X1146910D01*
X1146342Y2645258D01*
X1145759Y2645181D01*
X1145216Y2644956D01*
X1144649Y2644804D01*
X1144139Y2644510D01*
X1143597Y2644285D01*
X1143130Y2643928D01*
X1142621Y2643634D01*
X1142206Y2643218D01*
X1141740Y2642860D01*
X1141382Y2642394D01*
X1140966Y2641978D01*
X1140672Y2641469D01*
X1140315Y2641003D01*
X1140090Y2640461D01*
X1139796Y2639951D01*
X1139644Y2639384D01*
X1139419Y2638841D01*
X1139342Y2638258D01*
X1139190Y2637690D01*
Y2637103D01*
X1139113Y2636520D01*
Y2377100D01*
X1139419Y2374779D01*
X1140315Y2372617D01*
X1141740Y2370760D01*
X1247146Y2265354D01*
X1247000Y2264621D01*
Y2261659D01*
X1247578Y2258753D01*
X1248712Y2256016D01*
X1250358Y2253553D01*
X1252453Y2251458D01*
X1254916Y2249812D01*
X1257653Y2248678D01*
X1260559Y2248100D01*
X1263521D01*
X1266427Y2248678D01*
X1269164Y2249812D01*
X1271627Y2251458D01*
X1273722Y2253553D01*
X1275368Y2256016D01*
X1276502Y2258753D01*
X1277080Y2261659D01*
Y2264621D01*
X1276502Y2267527D01*
X1275368Y2270264D01*
X1273722Y2272727D01*
X1271627Y2274822D01*
X1269164Y2276468D01*
X1266427Y2277602D01*
X1263521Y2278180D01*
X1260559D01*
X1259827Y2278034D01*
X1157047Y2380814D01*
Y2636520D01*
X1156970Y2637103D01*
Y2637690D01*
X1156818Y2638258D01*
X1156741Y2638841D01*
X1156516Y2639384D01*
X1156364Y2639951D01*
X1156070Y2640461D01*
X1155845Y2641003D01*
X1155488Y2641469D01*
X1155194Y2641978D01*
X1154778Y2642394D01*
X1154420Y2642860D01*
X1153954Y2643218D01*
X1153539Y2643634D01*
X1153029Y2643928D01*
X1152563Y2644285D01*
X1152020Y2644510D01*
X1151511Y2644804D01*
X1150944Y2644956D01*
X1150401Y2645181D01*
X1149818Y2645258D01*
X1149250Y2645410D01*
X1148663D01*
X1148080Y2645487D01*
D02*
G37*
G36*
X2483363Y2794840D02*
X2479797D01*
X2476354Y2793917D01*
X2473266Y2792135D01*
X2470745Y2789614D01*
X2468963Y2786526D01*
X2468040Y2783083D01*
Y2779518D01*
X2468963Y2776074D01*
X2470745Y2772986D01*
X2473266Y2770465D01*
X2476354Y2768683D01*
X2479797Y2767760D01*
X2483363D01*
X2486806Y2768683D01*
X2489894Y2770465D01*
X2492415Y2772986D01*
X2494197Y2776074D01*
X2495120Y2779518D01*
Y2783083D01*
X2494197Y2786526D01*
X2492415Y2789614D01*
X2489894Y2792135D01*
X2486806Y2793917D01*
X2483363Y2794840D01*
D02*
G37*
G36*
X2216663D02*
X2213097D01*
X2209654Y2793917D01*
X2206566Y2792135D01*
X2204045Y2789614D01*
X2202263Y2786526D01*
X2201340Y2783083D01*
Y2779518D01*
X2202263Y2776074D01*
X2204045Y2772986D01*
X2206566Y2770465D01*
X2209654Y2768683D01*
X2213097Y2767760D01*
X2216663D01*
X2220106Y2768683D01*
X2223194Y2770465D01*
X2225715Y2772986D01*
X2227497Y2776074D01*
X2228420Y2779518D01*
Y2783083D01*
X2227497Y2786526D01*
X2225715Y2789614D01*
X2223194Y2792135D01*
X2220106Y2793917D01*
X2216663Y2794840D01*
D02*
G37*
G36*
X1949963D02*
X1946397D01*
X1942954Y2793917D01*
X1939866Y2792135D01*
X1937345Y2789614D01*
X1935563Y2786526D01*
X1934640Y2783083D01*
Y2779518D01*
X1935563Y2776074D01*
X1937345Y2772986D01*
X1939866Y2770465D01*
X1942954Y2768683D01*
X1946397Y2767760D01*
X1949963D01*
X1953406Y2768683D01*
X1956494Y2770465D01*
X1959015Y2772986D01*
X1960797Y2776074D01*
X1961720Y2779518D01*
Y2783083D01*
X1960797Y2786526D01*
X1959015Y2789614D01*
X1956494Y2792135D01*
X1953406Y2793917D01*
X1949963Y2794840D01*
D02*
G37*
G36*
X2580464Y2709740D02*
X2575736D01*
X2571066Y2709000D01*
X2566569Y2707539D01*
X2562356Y2705392D01*
X2558530Y2702613D01*
X2555187Y2699270D01*
X2552408Y2695444D01*
X2550261Y2691231D01*
X2548800Y2686734D01*
X2548060Y2682064D01*
Y2677336D01*
X2548800Y2672666D01*
X2550261Y2668169D01*
X2552408Y2663956D01*
X2555187Y2660130D01*
X2558530Y2656787D01*
X2562356Y2654008D01*
X2566569Y2651861D01*
X2571066Y2650400D01*
X2575736Y2649660D01*
X2580464D01*
X2585134Y2650400D01*
X2589631Y2651861D01*
X2593844Y2654008D01*
X2597670Y2656787D01*
X2601013Y2660130D01*
X2603792Y2663956D01*
X2605939Y2668169D01*
X2607400Y2672666D01*
X2608140Y2677336D01*
Y2682064D01*
X2607400Y2686734D01*
X2605939Y2691231D01*
X2603792Y2695444D01*
X2601013Y2699270D01*
X2597670Y2702613D01*
X2593844Y2705392D01*
X2589631Y2707539D01*
X2585134Y2709000D01*
X2580464Y2709740D01*
D02*
G37*
G36*
X2181141Y2603300D02*
X2178179D01*
X2175273Y2602722D01*
X2172536Y2601588D01*
X2170073Y2599942D01*
X2167978Y2597847D01*
X2166332Y2595384D01*
X2165198Y2592647D01*
X2164620Y2589741D01*
Y2586779D01*
X2165198Y2583873D01*
X2166332Y2581136D01*
X2167978Y2578672D01*
X2170073Y2576578D01*
X2172536Y2574932D01*
X2175273Y2573798D01*
X2178179Y2573220D01*
X2181141D01*
X2184047Y2573798D01*
X2186784Y2574932D01*
X2189247Y2576578D01*
X2191342Y2578672D01*
X2192988Y2581136D01*
X2194122Y2583873D01*
X2194700Y2586779D01*
Y2589741D01*
X2194122Y2592647D01*
X2192988Y2595384D01*
X2191342Y2597847D01*
X2189247Y2599942D01*
X2186784Y2601588D01*
X2184047Y2602722D01*
X2181141Y2603300D01*
D02*
G37*
G36*
X2214880Y2655647D02*
X2214297Y2655570D01*
X2213710D01*
X2213142Y2655418D01*
X2212559Y2655341D01*
X2212016Y2655116D01*
X2211449Y2654964D01*
X2210939Y2654670D01*
X2210397Y2654445D01*
X2209931Y2654088D01*
X2209421Y2653794D01*
X2209006Y2653378D01*
X2208540Y2653020D01*
X2208182Y2652554D01*
X2207766Y2652139D01*
X2207472Y2651630D01*
X2207115Y2651163D01*
X2206890Y2650620D01*
X2206596Y2650111D01*
X2206444Y2649544D01*
X2206219Y2649001D01*
X2206142Y2648418D01*
X2205990Y2647850D01*
Y2647263D01*
X2205913Y2646680D01*
Y2570820D01*
X2206219Y2568499D01*
X2207115Y2566337D01*
X2208540Y2564480D01*
X2347646Y2425374D01*
X2347500Y2424641D01*
Y2421679D01*
X2348078Y2418773D01*
X2349212Y2416036D01*
X2350858Y2413573D01*
X2352953Y2411478D01*
X2355416Y2409832D01*
X2358153Y2408698D01*
X2361059Y2408120D01*
X2364021D01*
X2366927Y2408698D01*
X2369664Y2409832D01*
X2372127Y2411478D01*
X2374222Y2413573D01*
X2375868Y2416036D01*
X2377002Y2418773D01*
X2377580Y2421679D01*
Y2424641D01*
X2377002Y2427547D01*
X2375868Y2430284D01*
X2374222Y2432747D01*
X2372127Y2434842D01*
X2369664Y2436488D01*
X2366927Y2437622D01*
X2364021Y2438200D01*
X2361059D01*
X2360327Y2438054D01*
X2223847Y2574534D01*
Y2646680D01*
X2223770Y2647263D01*
Y2647850D01*
X2223618Y2648418D01*
X2223541Y2649001D01*
X2223316Y2649544D01*
X2223164Y2650111D01*
X2222870Y2650620D01*
X2222645Y2651163D01*
X2222288Y2651630D01*
X2221994Y2652139D01*
X2221578Y2652554D01*
X2221220Y2653020D01*
X2220754Y2653378D01*
X2220339Y2653794D01*
X2219830Y2654088D01*
X2219363Y2654445D01*
X2218820Y2654670D01*
X2218311Y2654964D01*
X2217744Y2655116D01*
X2217201Y2655341D01*
X2216618Y2655418D01*
X2216050Y2655570D01*
X2215463D01*
X2214880Y2655647D01*
D02*
G37*
G36*
X2481580Y2660727D02*
X2480997Y2660650D01*
X2480410D01*
X2479842Y2660498D01*
X2479259Y2660421D01*
X2478716Y2660196D01*
X2478149Y2660044D01*
X2477639Y2659750D01*
X2477097Y2659525D01*
X2476631Y2659168D01*
X2476121Y2658874D01*
X2475706Y2658458D01*
X2475240Y2658100D01*
X2474882Y2657634D01*
X2474466Y2657219D01*
X2474172Y2656710D01*
X2473815Y2656243D01*
X2473590Y2655700D01*
X2473296Y2655191D01*
X2473144Y2654624D01*
X2472919Y2654081D01*
X2472842Y2653498D01*
X2472690Y2652930D01*
Y2652343D01*
X2472613Y2651760D01*
Y2291420D01*
X2472919Y2289099D01*
X2473815Y2286937D01*
X2475240Y2285080D01*
X2494966Y2265354D01*
X2494820Y2264621D01*
Y2261659D01*
X2495398Y2258753D01*
X2496532Y2256016D01*
X2498178Y2253553D01*
X2500273Y2251458D01*
X2502736Y2249812D01*
X2505473Y2248678D01*
X2508379Y2248100D01*
X2511341D01*
X2514247Y2248678D01*
X2516984Y2249812D01*
X2519447Y2251458D01*
X2521542Y2253553D01*
X2523188Y2256016D01*
X2524322Y2258753D01*
X2524900Y2261659D01*
Y2264621D01*
X2524322Y2267527D01*
X2523188Y2270264D01*
X2521542Y2272727D01*
X2519447Y2274822D01*
X2516984Y2276468D01*
X2514247Y2277602D01*
X2511341Y2278180D01*
X2508379D01*
X2507646Y2278034D01*
X2490547Y2295134D01*
Y2651760D01*
X2490470Y2652343D01*
Y2652930D01*
X2490318Y2653498D01*
X2490241Y2654081D01*
X2490016Y2654624D01*
X2489864Y2655191D01*
X2489570Y2655700D01*
X2489345Y2656243D01*
X2488988Y2656710D01*
X2488694Y2657219D01*
X2488278Y2657634D01*
X2487920Y2658100D01*
X2487454Y2658458D01*
X2487039Y2658874D01*
X2486530Y2659168D01*
X2486063Y2659525D01*
X2485520Y2659750D01*
X2485011Y2660044D01*
X2484444Y2660196D01*
X2483901Y2660421D01*
X2483318Y2660498D01*
X2482750Y2660650D01*
X2482163D01*
X2481580Y2660727D01*
D02*
G37*
%LPD*%
D30*
X1404620Y3238022D02*
X1413972Y3228670D01*
Y3226608D02*
Y3228670D01*
X1404620Y3238022D02*
Y3312160D01*
X1391920Y3232495D02*
X1412397Y3212018D01*
X1391920Y3232495D02*
Y3312160D01*
X1412397Y3212018D02*
X1422212D01*
X1423670Y3210560D01*
X1582420Y3263900D02*
Y3312160D01*
Y3263900D02*
X1592580Y3253740D01*
X1659702Y3212018D02*
X1661160Y3210560D01*
X1620520Y3247736D02*
X1656237Y3212018D01*
X1659702D01*
X1620520Y3247736D02*
Y3312160D01*
X1658620Y3268980D02*
Y3312160D01*
Y3268980D02*
X1717040Y3210560D01*
X1645920Y3258706D02*
X1681366Y3223260D01*
X1645920Y3258706D02*
Y3312160D01*
X1633220Y3251200D02*
X1648460Y3235960D01*
X1633220Y3251200D02*
Y3312160D01*
X1681366Y3223260D02*
X1681480D01*
X1417320Y3277400D02*
Y3312160D01*
X1422392Y3258828D02*
X1422862Y3258358D01*
X1417320Y3277400D02*
X1422392Y3272328D01*
Y3258828D02*
Y3272328D01*
X2109626Y3325974D02*
X2110740Y3324860D01*
D32*
X2557780Y3124200D02*
X2558850Y3123130D01*
X2557780Y2984500D02*
X2558850Y2985570D01*
Y3123130D01*
X2481580Y2291420D02*
X2509860Y2263140D01*
X2481580Y2291420D02*
Y2651760D01*
X1757680Y2984500D02*
X1800860Y3027680D01*
Y3096260D01*
X1442720Y3121660D02*
X1490980Y3073400D01*
Y2984500D02*
Y3073400D01*
X1224280Y2984500D02*
Y3138170D01*
X1221740Y3140710D02*
X1224280Y3138170D01*
X2481580Y2941320D02*
Y2984500D01*
X1414780Y2946400D02*
Y2984500D01*
X1681480Y2943860D02*
Y2984500D01*
X1948180Y2954020D02*
X1953260Y2948940D01*
X1948180Y2954020D02*
Y2984500D01*
X2214990Y2956450D02*
X2219960Y2951480D01*
X2214990Y2956450D02*
Y2984390D01*
X2214880Y2570820D02*
Y2646680D01*
X1414780Y2448220D02*
Y2641600D01*
X1148080Y2377100D02*
Y2636520D01*
Y2377100D02*
X1262040Y2263140D01*
X2099566Y2985514D02*
X2100580Y2984500D01*
X2214880Y2570820D02*
X2362540Y2423160D01*
X1414780Y2448220D02*
X1437300Y2425700D01*
D33*
X1919920Y1991360D02*
D03*
X2083120D02*
D03*
X2133280D02*
D03*
X2296480D02*
D03*
X2346640D02*
D03*
X2509840D02*
D03*
X1417640Y1988820D02*
D03*
X1254440D02*
D03*
X1631000D02*
D03*
X1467800D02*
D03*
X1846900D02*
D03*
X1683700D02*
D03*
X3248480Y2037080D02*
D03*
X3459480D02*
D03*
X3248480Y2197080D02*
D03*
X3459480D02*
D03*
X3248480Y1877080D02*
D03*
X3459480D02*
D03*
X519790Y2033114D02*
D03*
X308790D02*
D03*
X519790Y1873114D02*
D03*
X308790D02*
D03*
X519790Y2193114D02*
D03*
X308790D02*
D03*
D34*
X2872740Y2385800D02*
D03*
Y2590800D02*
D03*
Y2069200D02*
D03*
Y2274200D02*
D03*
Y1751700D02*
D03*
Y1956700D02*
D03*
X892990Y1745194D02*
D03*
Y1950194D02*
D03*
Y2064334D02*
D03*
Y2269334D02*
D03*
Y2380194D02*
D03*
Y2585194D02*
D03*
D35*
X2745740Y3359150D02*
D03*
Y2927350D02*
D03*
X322580Y3359150D02*
D03*
Y2927350D02*
D03*
D36*
X2745740Y3384550D02*
D03*
X2771140Y3359150D02*
D03*
Y3384550D02*
D03*
X2796540Y3359150D02*
D03*
Y3384550D02*
D03*
X2821940Y3359150D02*
D03*
Y3384550D02*
D03*
X2847340Y3359150D02*
D03*
Y3384550D02*
D03*
X2872740Y3359150D02*
D03*
Y3384550D02*
D03*
X2898140Y3359150D02*
D03*
Y3384550D02*
D03*
X2923540Y3359150D02*
D03*
Y3384550D02*
D03*
X2948940Y3359150D02*
D03*
Y3384550D02*
D03*
X2974340Y3359150D02*
D03*
Y3384550D02*
D03*
X2745740Y2952750D02*
D03*
X2771140Y2927350D02*
D03*
Y2952750D02*
D03*
X2796540Y2927350D02*
D03*
Y2952750D02*
D03*
X2821940Y2927350D02*
D03*
Y2952750D02*
D03*
X2847340Y2927350D02*
D03*
Y2952750D02*
D03*
X2872740Y2927350D02*
D03*
Y2952750D02*
D03*
X2898140Y2927350D02*
D03*
Y2952750D02*
D03*
X2923540Y2927350D02*
D03*
Y2952750D02*
D03*
X2948940Y2927350D02*
D03*
Y2952750D02*
D03*
X2974340Y2927350D02*
D03*
Y2952750D02*
D03*
X322580Y3384550D02*
D03*
X347980Y3359150D02*
D03*
Y3384550D02*
D03*
X373380Y3359150D02*
D03*
Y3384550D02*
D03*
X398780Y3359150D02*
D03*
Y3384550D02*
D03*
X424180Y3359150D02*
D03*
Y3384550D02*
D03*
X449580Y3359150D02*
D03*
Y3384550D02*
D03*
X474980Y3359150D02*
D03*
Y3384550D02*
D03*
X500380Y3359150D02*
D03*
Y3384550D02*
D03*
X525780Y3359150D02*
D03*
Y3384550D02*
D03*
X551180Y3359150D02*
D03*
Y3384550D02*
D03*
X322580Y2952750D02*
D03*
X347980Y2927350D02*
D03*
Y2952750D02*
D03*
X373380Y2927350D02*
D03*
Y2952750D02*
D03*
X398780Y2927350D02*
D03*
Y2952750D02*
D03*
X424180Y2927350D02*
D03*
Y2952750D02*
D03*
X449580Y2927350D02*
D03*
Y2952750D02*
D03*
X474980Y2927350D02*
D03*
Y2952750D02*
D03*
X500380Y2927350D02*
D03*
Y2952750D02*
D03*
X525780Y2927350D02*
D03*
Y2952750D02*
D03*
X551180Y2927350D02*
D03*
Y2952750D02*
D03*
X3164840Y2776220D02*
D03*
X3241040D02*
D03*
D37*
X1948180Y2781300D02*
D03*
Y2984500D02*
D03*
X2024380D02*
D03*
X2100580D02*
D03*
Y2781300D02*
D03*
X2214880D02*
D03*
Y2984500D02*
D03*
X2291080D02*
D03*
X2367280D02*
D03*
Y2781300D02*
D03*
X2481580D02*
D03*
Y2984500D02*
D03*
X2557780D02*
D03*
X2633980D02*
D03*
Y2781300D02*
D03*
X1148080D02*
D03*
Y2984500D02*
D03*
X1224280D02*
D03*
X1300480D02*
D03*
Y2781300D02*
D03*
X1414780D02*
D03*
Y2984500D02*
D03*
X1490980D02*
D03*
X1567180D02*
D03*
Y2781300D02*
D03*
X1681480D02*
D03*
Y2984500D02*
D03*
X1757680D02*
D03*
X1833880D02*
D03*
Y2781300D02*
D03*
D38*
X1254760Y3284220D02*
D03*
X2540000Y3312160D02*
D03*
D39*
X2440940Y3362960D02*
D03*
Y3411220D02*
D03*
X1955800Y3413760D02*
D03*
Y3365500D02*
D03*
X530860Y2819400D02*
D03*
X457200D02*
D03*
X383540D02*
D03*
X312420D02*
D03*
X607060D02*
D03*
X1247140Y3078480D02*
D03*
X1518920Y3081020D02*
D03*
X1767840Y3078480D02*
D03*
X2019300Y3091180D02*
D03*
X2286000Y3093720D02*
D03*
X2537460Y3098800D02*
D03*
X3050540Y2806700D02*
D03*
X2809240D02*
D03*
X2994660D02*
D03*
X2936240D02*
D03*
X2880360D02*
D03*
X3359480Y2334260D02*
D03*
X3409480D02*
D03*
X2270760Y1727200D02*
D03*
X2220760D02*
D03*
X309880Y2329180D02*
D03*
X359880D02*
D03*
X1597660Y1724660D02*
D03*
X1547660D02*
D03*
X1262040Y2263140D02*
D03*
X1537040D02*
D03*
X1437300Y2425700D02*
D03*
X1712300D02*
D03*
X1571920Y2588260D02*
D03*
X1846920D02*
D03*
X2179660D02*
D03*
X1904660D02*
D03*
X2362540Y2423160D02*
D03*
X2087540D02*
D03*
X2509860Y2263140D02*
D03*
X2234860D02*
D03*
D40*
X2494280Y1755140D02*
D03*
X294640Y2717800D02*
D03*
X2578100Y2679700D02*
D03*
X1264920Y2687320D02*
D03*
X309880Y3274060D02*
D03*
X3454400Y3380740D02*
D03*
X3480505Y1760156D02*
D03*
X297180Y1744980D02*
D03*
X1282700D02*
D03*
D41*
X3423920Y2768600D02*
D03*
D42*
X3459480Y2334260D02*
D03*
X2170760Y1727200D02*
D03*
X409880Y2329180D02*
D03*
X1497660Y1724660D02*
D03*
D43*
X2352040Y3312160D02*
D03*
X1671320D02*
D03*
D44*
X2352040Y3324860D02*
D03*
X2339340Y3312160D02*
D03*
Y3324860D02*
D03*
X2326640Y3312160D02*
D03*
Y3324860D02*
D03*
X2313940Y3312160D02*
D03*
Y3324860D02*
D03*
X2301240Y3312160D02*
D03*
Y3324860D02*
D03*
X2288540Y3312160D02*
D03*
Y3324860D02*
D03*
X2275840Y3312160D02*
D03*
Y3324860D02*
D03*
X2263140Y3312160D02*
D03*
Y3324860D02*
D03*
X2250440Y3312160D02*
D03*
Y3324860D02*
D03*
X2237740Y3312160D02*
D03*
Y3324860D02*
D03*
X2225040Y3312160D02*
D03*
Y3324860D02*
D03*
X2212340Y3312160D02*
D03*
Y3324860D02*
D03*
X2199640Y3312160D02*
D03*
Y3324860D02*
D03*
X2186940Y3312160D02*
D03*
Y3324860D02*
D03*
X2174240Y3312160D02*
D03*
Y3324860D02*
D03*
X2161540Y3312160D02*
D03*
Y3324860D02*
D03*
X2148840Y3312160D02*
D03*
Y3324860D02*
D03*
X2136140Y3312160D02*
D03*
Y3324860D02*
D03*
X2123440Y3312160D02*
D03*
Y3324860D02*
D03*
X2110740Y3312160D02*
D03*
Y3324860D02*
D03*
X2098040Y3312160D02*
D03*
Y3324860D02*
D03*
X2085340Y3312160D02*
D03*
Y3324860D02*
D03*
X2072640Y3312160D02*
D03*
Y3324860D02*
D03*
X2059940Y3312160D02*
D03*
Y3324860D02*
D03*
X2047240Y3312160D02*
D03*
Y3324860D02*
D03*
X1671320D02*
D03*
X1658620Y3312160D02*
D03*
Y3324860D02*
D03*
X1645920Y3312160D02*
D03*
Y3324860D02*
D03*
X1633220Y3312160D02*
D03*
Y3324860D02*
D03*
X1620520Y3312160D02*
D03*
Y3324860D02*
D03*
X1607820Y3312160D02*
D03*
Y3324860D02*
D03*
X1595120Y3312160D02*
D03*
Y3324860D02*
D03*
X1582420Y3312160D02*
D03*
Y3324860D02*
D03*
X1569720Y3312160D02*
D03*
Y3324860D02*
D03*
X1557020Y3312160D02*
D03*
Y3324860D02*
D03*
X1544320Y3312160D02*
D03*
Y3324860D02*
D03*
X1531620Y3312160D02*
D03*
Y3324860D02*
D03*
X1518920Y3312160D02*
D03*
Y3324860D02*
D03*
X1506220Y3312160D02*
D03*
Y3324860D02*
D03*
X1493520Y3312160D02*
D03*
Y3324860D02*
D03*
X1480820Y3312160D02*
D03*
Y3324860D02*
D03*
X1468120Y3312160D02*
D03*
Y3324860D02*
D03*
X1455420Y3312160D02*
D03*
Y3324860D02*
D03*
X1442720Y3312160D02*
D03*
Y3324860D02*
D03*
X1430020Y3312160D02*
D03*
Y3324860D02*
D03*
X1417320Y3312160D02*
D03*
Y3324860D02*
D03*
X1404620Y3312160D02*
D03*
Y3324860D02*
D03*
X1391920Y3312160D02*
D03*
Y3324860D02*
D03*
X1379220Y3312160D02*
D03*
Y3324860D02*
D03*
X1366520Y3312160D02*
D03*
Y3324860D02*
D03*
D45*
X2481580Y2651760D02*
D03*
X2557780Y3124200D02*
D03*
X2616200Y3134360D02*
D03*
X1800860Y3096260D02*
D03*
X1879600Y3093720D02*
D03*
X1442720Y3121660D02*
D03*
X1221740Y3140710D02*
D03*
X1413972Y3226608D02*
D03*
X1423670Y3210560D02*
D03*
X2326484Y3095686D02*
D03*
X2059940Y3096260D02*
D03*
X1539240Y3119120D02*
D03*
X1341120Y3091180D02*
D03*
X1592580Y3253740D02*
D03*
X1661160Y3210560D02*
D03*
X1648460Y3235960D02*
D03*
X1717040Y3210560D02*
D03*
X1681480Y3223260D02*
D03*
X1422862Y3258358D02*
D03*
X1163320Y3147060D02*
D03*
X1137920D02*
D03*
X2214880Y2646680D02*
D03*
X1414780Y2641600D02*
D03*
X1148080Y2636520D02*
D03*
M02*
