M48
;Layer_Color=9474304
;FILE_FORMAT=4:4
METRIC,LZ
;TYPE=PLATED
T1F00S00C1.2700
T2F00S00C1.3000
T3F00S00C1.5240
T4F00S00C3.4000
%
T01
X0052Y014425
X0068
X0036
Y017175
X0052
X0068
T02
X0047Y0134
X0052
X0057
X0121Y022
X0126
X0116
X0075
X007
X0065
T03
X0127Y0142
X013375
X015425
X01065
X01
X00795
X003184Y0195
X004816
X005384
X007016
X007584
X009216
X01057Y018945
X0121
X01363
Y021055
X0121
X01057
T04
X0069Y0134
X0151Y0181
Y0219
X0036
M30
