M48
;Layer_Color=9474304
;FILE_FORMAT=4:4
METRIC,LZ
;TYPE=PLATED
T1F00S00C1.2700
T2F00S00C1.3000
T3F00S00C3.4000
%
T01
X0087Y01365
X0067
X0047
X003325Y0191
X004675
X005325
X006675
X007325
X0067Y0164
X0047
X0087
X009925
X011275
X008675Y0191
X011925Y0164
X013275
X013925
X015275
T02
X0062Y0128
X0067
X0072
X0121Y0207
X0126
X0131
X0065Y0221
X006
X0055
T03
X0152Y0128
X0034
X0152Y0221
X0034
M30
